G04 #@! TF.GenerationSoftware,KiCad,Pcbnew,5.1.5-52549c5~84~ubuntu19.04.1*
G04 #@! TF.CreationDate,2020-02-13T11:45:51+01:00*
G04 #@! TF.ProjectId,laborBerlin,6c61626f-7242-4657-926c-696e2e6b6963,rev?*
G04 #@! TF.SameCoordinates,Original*
G04 #@! TF.FileFunction,Legend,Top*
G04 #@! TF.FilePolarity,Positive*
%FSLAX46Y46*%
G04 Gerber Fmt 4.6, Leading zero omitted, Abs format (unit mm)*
G04 Created by KiCad (PCBNEW 5.1.5-52549c5~84~ubuntu19.04.1) date 2020-02-13 11:45:51*
%MOMM*%
%LPD*%
G04 APERTURE LIST*
%ADD10C,0.120000*%
%ADD11C,0.150000*%
%ADD12C,0.075000*%
G04 APERTURE END LIST*
D10*
X203870000Y-36170000D02*
X205200000Y-36170000D01*
X203870000Y-37500000D02*
X203870000Y-36170000D01*
X203870000Y-38770000D02*
X206530000Y-38770000D01*
X206530000Y-38770000D02*
X206530000Y-38830000D01*
X203870000Y-38770000D02*
X203870000Y-38830000D01*
X203870000Y-38830000D02*
X206530000Y-38830000D01*
X197645000Y-36170000D02*
X198975000Y-36170000D01*
X197645000Y-37500000D02*
X197645000Y-36170000D01*
X197645000Y-38770000D02*
X200305000Y-38770000D01*
X200305000Y-38770000D02*
X200305000Y-38830000D01*
X197645000Y-38770000D02*
X197645000Y-38830000D01*
X197645000Y-38830000D02*
X200305000Y-38830000D01*
X191420000Y-36170000D02*
X192750000Y-36170000D01*
X191420000Y-37500000D02*
X191420000Y-36170000D01*
X191420000Y-38770000D02*
X194080000Y-38770000D01*
X194080000Y-38770000D02*
X194080000Y-38830000D01*
X191420000Y-38770000D02*
X191420000Y-38830000D01*
X191420000Y-38830000D02*
X194080000Y-38830000D01*
D11*
X160110000Y-96570000D02*
X160110000Y-139750000D01*
X177890000Y-96570000D02*
X177890000Y-139750000D01*
X160110000Y-139750000D02*
X177890000Y-139750000D01*
X160110000Y-96570000D02*
X177890000Y-96570000D01*
X173064000Y-141200000D02*
X173064000Y-139750000D01*
X164936000Y-141200000D02*
X173064000Y-141200000D01*
X164936000Y-139750000D02*
X164936000Y-141200000D01*
D10*
X145935467Y-125750000D02*
G75*
G03X145935467Y-125750000I-6185467J0D01*
G01*
X171100000Y-29100000D02*
X175100000Y-29100000D01*
X175100000Y-29100000D02*
X175100000Y-17400000D01*
X175100000Y-17400000D02*
X171100000Y-17400000D01*
X167100000Y-17400000D02*
X163100000Y-17400000D01*
X163100000Y-17400000D02*
X163100000Y-29100000D01*
X163100000Y-29100000D02*
X167150000Y-29100000D01*
X167100000Y-29100000D02*
X171100000Y-29100000D01*
X171100000Y-29100000D02*
X171100000Y-17400000D01*
X171100000Y-17400000D02*
X167100000Y-17400000D01*
X167100000Y-17400000D02*
X167100000Y-29100000D01*
X153000000Y-29100000D02*
X157000000Y-29100000D01*
X157000000Y-29100000D02*
X157000000Y-17400000D01*
X157000000Y-17400000D02*
X153000000Y-17400000D01*
X149000000Y-17400000D02*
X145000000Y-17400000D01*
X145000000Y-17400000D02*
X145000000Y-29100000D01*
X145000000Y-29100000D02*
X149050000Y-29100000D01*
X149000000Y-29100000D02*
X153000000Y-29100000D01*
X153000000Y-29100000D02*
X153000000Y-17400000D01*
X153000000Y-17400000D02*
X149000000Y-17400000D01*
X149000000Y-17400000D02*
X149000000Y-29100000D01*
X192710000Y-80670000D02*
X191060000Y-80670000D01*
X192710000Y-90950000D02*
X192710000Y-80670000D01*
X187410000Y-90950000D02*
X192710000Y-90950000D01*
X187410000Y-80670000D02*
X187410000Y-90950000D01*
X189060000Y-80670000D02*
X187410000Y-80670000D01*
X191060000Y-80670000D02*
G75*
G02X189060000Y-80670000I-1000000J0D01*
G01*
X180358478Y-58588478D02*
G75*
G03X178520000Y-54150000I-1838478J1838478D01*
G01*
X176681522Y-58588478D02*
G75*
G02X178520000Y-54150000I1838478J1838478D01*
G01*
X176720000Y-58600000D02*
X180320000Y-58600000D01*
X124250000Y-29100000D02*
X128250000Y-29100000D01*
X128250000Y-29100000D02*
X128250000Y-17400000D01*
X128250000Y-17400000D02*
X124250000Y-17400000D01*
X120250000Y-17400000D02*
X116250000Y-17400000D01*
X116250000Y-17400000D02*
X116250000Y-29100000D01*
X116250000Y-29100000D02*
X120300000Y-29100000D01*
X120250000Y-29100000D02*
X124250000Y-29100000D01*
X124250000Y-29100000D02*
X124250000Y-17400000D01*
X124250000Y-17400000D02*
X120250000Y-17400000D01*
X120250000Y-17400000D02*
X120250000Y-29100000D01*
X136250000Y-29100000D02*
X136250000Y-17400000D01*
X136250000Y-29100000D02*
X132250000Y-29100000D01*
X132250000Y-29100000D02*
X132250000Y-17400000D01*
X132250000Y-17400000D02*
X140250000Y-17400000D01*
X140250000Y-17400000D02*
X140250000Y-29100000D01*
X140250000Y-29100000D02*
X136250000Y-29100000D01*
X200975000Y-29000000D02*
X204975000Y-29000000D01*
X204975000Y-29000000D02*
X204975000Y-17300000D01*
X204975000Y-17300000D02*
X200975000Y-17300000D01*
X196975000Y-17300000D02*
X192975000Y-17300000D01*
X192975000Y-17300000D02*
X192975000Y-29000000D01*
X192975000Y-29000000D02*
X197025000Y-29000000D01*
X196975000Y-29000000D02*
X200975000Y-29000000D01*
X200975000Y-29000000D02*
X200975000Y-17300000D01*
X200975000Y-17300000D02*
X196975000Y-17300000D01*
X196975000Y-17300000D02*
X196975000Y-29000000D01*
X186607107Y-101500000D02*
G75*
G03X186607107Y-101500000I-707107J0D01*
G01*
X182400000Y-136000000D02*
X182900000Y-136000000D01*
X182400000Y-100500000D02*
X182400000Y-136000000D01*
X205400000Y-136000000D02*
X182900000Y-136000000D01*
X205400000Y-100500000D02*
X205400000Y-136000000D01*
X182400000Y-100500000D02*
X205400000Y-100500000D01*
X102345000Y-95220000D02*
X102345000Y-101560000D01*
X92575000Y-95220000D02*
X92575000Y-101560000D01*
X92575000Y-101560000D02*
X102345000Y-101560000D01*
X92575000Y-95220000D02*
X102345000Y-95220000D01*
X138430000Y-96000000D02*
X137480000Y-96000000D01*
X132690000Y-96000000D02*
X133640000Y-96000000D01*
X137480000Y-95080000D02*
X133640000Y-95080000D01*
X137480000Y-96920000D02*
X137480000Y-95080000D01*
X133640000Y-96920000D02*
X137480000Y-96920000D01*
X133640000Y-95080000D02*
X133640000Y-96920000D01*
X125430000Y-82750000D02*
X124480000Y-82750000D01*
X119690000Y-82750000D02*
X120640000Y-82750000D01*
X124480000Y-81830000D02*
X120640000Y-81830000D01*
X124480000Y-83670000D02*
X124480000Y-81830000D01*
X120640000Y-83670000D02*
X124480000Y-83670000D01*
X120640000Y-81830000D02*
X120640000Y-83670000D01*
X138680000Y-109250000D02*
X137730000Y-109250000D01*
X132940000Y-109250000D02*
X133890000Y-109250000D01*
X137730000Y-108330000D02*
X133890000Y-108330000D01*
X137730000Y-110170000D02*
X137730000Y-108330000D01*
X133890000Y-110170000D02*
X137730000Y-110170000D01*
X133890000Y-108330000D02*
X133890000Y-110170000D01*
X125430000Y-87000000D02*
X124480000Y-87000000D01*
X119690000Y-87000000D02*
X120640000Y-87000000D01*
X124480000Y-86080000D02*
X120640000Y-86080000D01*
X124480000Y-87920000D02*
X124480000Y-86080000D01*
X120640000Y-87920000D02*
X124480000Y-87920000D01*
X120640000Y-86080000D02*
X120640000Y-87920000D01*
X113430000Y-104750000D02*
X112480000Y-104750000D01*
X107690000Y-104750000D02*
X108640000Y-104750000D01*
X112480000Y-103830000D02*
X108640000Y-103830000D01*
X112480000Y-105670000D02*
X112480000Y-103830000D01*
X108640000Y-105670000D02*
X112480000Y-105670000D01*
X108640000Y-103830000D02*
X108640000Y-105670000D01*
X100180000Y-87000000D02*
X99230000Y-87000000D01*
X94440000Y-87000000D02*
X95390000Y-87000000D01*
X99230000Y-86080000D02*
X95390000Y-86080000D01*
X99230000Y-87920000D02*
X99230000Y-86080000D01*
X95390000Y-87920000D02*
X99230000Y-87920000D01*
X95390000Y-86080000D02*
X95390000Y-87920000D01*
X125680000Y-96000000D02*
X124730000Y-96000000D01*
X119940000Y-96000000D02*
X120890000Y-96000000D01*
X124730000Y-95080000D02*
X120890000Y-95080000D01*
X124730000Y-96920000D02*
X124730000Y-95080000D01*
X120890000Y-96920000D02*
X124730000Y-96920000D01*
X120890000Y-95080000D02*
X120890000Y-96920000D01*
X125680000Y-91500000D02*
X124730000Y-91500000D01*
X119940000Y-91500000D02*
X120890000Y-91500000D01*
X124730000Y-90580000D02*
X120890000Y-90580000D01*
X124730000Y-92420000D02*
X124730000Y-90580000D01*
X120890000Y-92420000D02*
X124730000Y-92420000D01*
X120890000Y-90580000D02*
X120890000Y-92420000D01*
X151680000Y-104750000D02*
X150730000Y-104750000D01*
X145940000Y-104750000D02*
X146890000Y-104750000D01*
X150730000Y-103830000D02*
X146890000Y-103830000D01*
X150730000Y-105670000D02*
X150730000Y-103830000D01*
X146890000Y-105670000D02*
X150730000Y-105670000D01*
X146890000Y-103830000D02*
X146890000Y-105670000D01*
X138430000Y-100750000D02*
X137480000Y-100750000D01*
X132690000Y-100750000D02*
X133640000Y-100750000D01*
X137480000Y-99830000D02*
X133640000Y-99830000D01*
X137480000Y-101670000D02*
X137480000Y-99830000D01*
X133640000Y-101670000D02*
X137480000Y-101670000D01*
X133640000Y-99830000D02*
X133640000Y-101670000D01*
X138430000Y-104750000D02*
X137480000Y-104750000D01*
X132690000Y-104750000D02*
X133640000Y-104750000D01*
X137480000Y-103830000D02*
X133640000Y-103830000D01*
X137480000Y-105670000D02*
X137480000Y-103830000D01*
X133640000Y-105670000D02*
X137480000Y-105670000D01*
X133640000Y-103830000D02*
X133640000Y-105670000D01*
X151680000Y-100500000D02*
X150730000Y-100500000D01*
X145940000Y-100500000D02*
X146890000Y-100500000D01*
X150730000Y-99580000D02*
X146890000Y-99580000D01*
X150730000Y-101420000D02*
X150730000Y-99580000D01*
X146890000Y-101420000D02*
X150730000Y-101420000D01*
X146890000Y-99580000D02*
X146890000Y-101420000D01*
X138430000Y-91500000D02*
X137480000Y-91500000D01*
X132690000Y-91500000D02*
X133640000Y-91500000D01*
X137480000Y-90580000D02*
X133640000Y-90580000D01*
X137480000Y-92420000D02*
X137480000Y-90580000D01*
X133640000Y-92420000D02*
X137480000Y-92420000D01*
X133640000Y-90580000D02*
X133640000Y-92420000D01*
X151680000Y-96000000D02*
X150730000Y-96000000D01*
X145940000Y-96000000D02*
X146890000Y-96000000D01*
X150730000Y-95080000D02*
X146890000Y-95080000D01*
X150730000Y-96920000D02*
X150730000Y-95080000D01*
X146890000Y-96920000D02*
X150730000Y-96920000D01*
X146890000Y-95080000D02*
X146890000Y-96920000D01*
X151680000Y-109500000D02*
X150730000Y-109500000D01*
X145940000Y-109500000D02*
X146890000Y-109500000D01*
X150730000Y-108580000D02*
X146890000Y-108580000D01*
X150730000Y-110420000D02*
X150730000Y-108580000D01*
X146890000Y-110420000D02*
X150730000Y-110420000D01*
X146890000Y-108580000D02*
X146890000Y-110420000D01*
X125930000Y-104750000D02*
X124980000Y-104750000D01*
X120190000Y-104750000D02*
X121140000Y-104750000D01*
X124980000Y-103830000D02*
X121140000Y-103830000D01*
X124980000Y-105670000D02*
X124980000Y-103830000D01*
X121140000Y-105670000D02*
X124980000Y-105670000D01*
X121140000Y-103830000D02*
X121140000Y-105670000D01*
X151680000Y-91500000D02*
X150730000Y-91500000D01*
X145940000Y-91500000D02*
X146890000Y-91500000D01*
X150730000Y-90580000D02*
X146890000Y-90580000D01*
X150730000Y-92420000D02*
X150730000Y-90580000D01*
X146890000Y-92420000D02*
X150730000Y-92420000D01*
X146890000Y-90580000D02*
X146890000Y-92420000D01*
X112930000Y-91750000D02*
X111980000Y-91750000D01*
X107190000Y-91750000D02*
X108140000Y-91750000D01*
X111980000Y-90830000D02*
X108140000Y-90830000D01*
X111980000Y-92670000D02*
X111980000Y-90830000D01*
X108140000Y-92670000D02*
X111980000Y-92670000D01*
X108140000Y-90830000D02*
X108140000Y-92670000D01*
X112930000Y-87000000D02*
X111980000Y-87000000D01*
X107190000Y-87000000D02*
X108140000Y-87000000D01*
X111980000Y-86080000D02*
X108140000Y-86080000D01*
X111980000Y-87920000D02*
X111980000Y-86080000D01*
X108140000Y-87920000D02*
X111980000Y-87920000D01*
X108140000Y-86080000D02*
X108140000Y-87920000D01*
X151430000Y-87250000D02*
X150480000Y-87250000D01*
X145690000Y-87250000D02*
X146640000Y-87250000D01*
X150480000Y-86330000D02*
X146640000Y-86330000D01*
X150480000Y-88170000D02*
X150480000Y-86330000D01*
X146640000Y-88170000D02*
X150480000Y-88170000D01*
X146640000Y-86330000D02*
X146640000Y-88170000D01*
X125930000Y-100500000D02*
X124980000Y-100500000D01*
X120190000Y-100500000D02*
X121140000Y-100500000D01*
X124980000Y-99580000D02*
X121140000Y-99580000D01*
X124980000Y-101420000D02*
X124980000Y-99580000D01*
X121140000Y-101420000D02*
X124980000Y-101420000D01*
X121140000Y-99580000D02*
X121140000Y-101420000D01*
X125380000Y-77800000D02*
X124430000Y-77800000D01*
X119640000Y-77800000D02*
X120590000Y-77800000D01*
X124430000Y-76880000D02*
X120590000Y-76880000D01*
X124430000Y-78720000D02*
X124430000Y-76880000D01*
X120590000Y-78720000D02*
X124430000Y-78720000D01*
X120590000Y-76880000D02*
X120590000Y-78720000D01*
X138430000Y-87000000D02*
X137480000Y-87000000D01*
X132690000Y-87000000D02*
X133640000Y-87000000D01*
X137480000Y-86080000D02*
X133640000Y-86080000D01*
X137480000Y-87920000D02*
X137480000Y-86080000D01*
X133640000Y-87920000D02*
X137480000Y-87920000D01*
X133640000Y-86080000D02*
X133640000Y-87920000D01*
X125930000Y-109250000D02*
X124980000Y-109250000D01*
X120190000Y-109250000D02*
X121140000Y-109250000D01*
X124980000Y-108330000D02*
X121140000Y-108330000D01*
X124980000Y-110170000D02*
X124980000Y-108330000D01*
X121140000Y-110170000D02*
X124980000Y-110170000D01*
X121140000Y-108330000D02*
X121140000Y-110170000D01*
X151580000Y-82700000D02*
X150630000Y-82700000D01*
X145840000Y-82700000D02*
X146790000Y-82700000D01*
X150630000Y-81780000D02*
X146790000Y-81780000D01*
X150630000Y-83620000D02*
X150630000Y-81780000D01*
X146790000Y-83620000D02*
X150630000Y-83620000D01*
X146790000Y-81780000D02*
X146790000Y-83620000D01*
X112930000Y-82500000D02*
X111980000Y-82500000D01*
X107190000Y-82500000D02*
X108140000Y-82500000D01*
X111980000Y-81580000D02*
X108140000Y-81580000D01*
X111980000Y-83420000D02*
X111980000Y-81580000D01*
X108140000Y-83420000D02*
X111980000Y-83420000D01*
X108140000Y-81580000D02*
X108140000Y-83420000D01*
X113430000Y-100500000D02*
X112480000Y-100500000D01*
X107690000Y-100500000D02*
X108640000Y-100500000D01*
X112480000Y-99580000D02*
X108640000Y-99580000D01*
X112480000Y-101420000D02*
X112480000Y-99580000D01*
X108640000Y-101420000D02*
X112480000Y-101420000D01*
X108640000Y-99580000D02*
X108640000Y-101420000D01*
X113180000Y-96000000D02*
X112230000Y-96000000D01*
X107440000Y-96000000D02*
X108390000Y-96000000D01*
X112230000Y-95080000D02*
X108390000Y-95080000D01*
X112230000Y-96920000D02*
X112230000Y-95080000D01*
X108390000Y-96920000D02*
X112230000Y-96920000D01*
X108390000Y-95080000D02*
X108390000Y-96920000D01*
X113080000Y-78200000D02*
X112130000Y-78200000D01*
X107340000Y-78200000D02*
X108290000Y-78200000D01*
X112130000Y-77280000D02*
X108290000Y-77280000D01*
X112130000Y-79120000D02*
X112130000Y-77280000D01*
X108290000Y-79120000D02*
X112130000Y-79120000D01*
X108290000Y-77280000D02*
X108290000Y-79120000D01*
X113430000Y-109500000D02*
X112480000Y-109500000D01*
X107690000Y-109500000D02*
X108640000Y-109500000D01*
X112480000Y-108580000D02*
X108640000Y-108580000D01*
X112480000Y-110420000D02*
X112480000Y-108580000D01*
X108640000Y-110420000D02*
X112480000Y-110420000D01*
X108640000Y-108580000D02*
X108640000Y-110420000D01*
X151580000Y-77500000D02*
X150630000Y-77500000D01*
X145840000Y-77500000D02*
X146790000Y-77500000D01*
X150630000Y-76580000D02*
X146790000Y-76580000D01*
X150630000Y-78420000D02*
X150630000Y-76580000D01*
X146790000Y-78420000D02*
X150630000Y-78420000D01*
X146790000Y-76580000D02*
X146790000Y-78420000D01*
X187300000Y-59350000D02*
X191699999Y-59349999D01*
X187287277Y-59339954D02*
G75*
G02X191699999Y-59349999I2212723J2789954D01*
G01*
X187882843Y-56350000D02*
G75*
G03X187882843Y-56350000I-282843J0D01*
G01*
X200050357Y-60180000D02*
G75*
G03X200050357Y-60180000I-140357J0D01*
G01*
X205156000Y-62276000D02*
X198044000Y-62276000D01*
X198044000Y-59736000D02*
X205156000Y-59736000D01*
X198044000Y-59736000D02*
X198044000Y-62276000D01*
X205156000Y-59736000D02*
X205156000Y-62276000D01*
X134091000Y-53930000D02*
X134091000Y-55440000D01*
X130390000Y-53930000D02*
X130390000Y-55440000D01*
X127120000Y-55440000D02*
X137360000Y-55440000D01*
X137360000Y-53930000D02*
X137360000Y-58571000D01*
X127120000Y-53930000D02*
X127120000Y-58571000D01*
X127120000Y-58571000D02*
X137360000Y-58571000D01*
X127120000Y-53930000D02*
X137360000Y-53930000D01*
X134141000Y-36480000D02*
X134141000Y-37990000D01*
X130440000Y-36480000D02*
X130440000Y-37990000D01*
X127170000Y-37990000D02*
X137410000Y-37990000D01*
X137410000Y-36480000D02*
X137410000Y-41121000D01*
X127170000Y-36480000D02*
X127170000Y-41121000D01*
X127170000Y-41121000D02*
X137410000Y-41121000D01*
X127170000Y-36480000D02*
X137410000Y-36480000D01*
X104641000Y-53480000D02*
X104641000Y-54990000D01*
X100940000Y-53480000D02*
X100940000Y-54990000D01*
X97670000Y-54990000D02*
X107910000Y-54990000D01*
X107910000Y-53480000D02*
X107910000Y-58121000D01*
X97670000Y-53480000D02*
X97670000Y-58121000D01*
X97670000Y-58121000D02*
X107910000Y-58121000D01*
X97670000Y-53480000D02*
X107910000Y-53480000D01*
X160641000Y-53980000D02*
X160641000Y-55490000D01*
X156940000Y-53980000D02*
X156940000Y-55490000D01*
X153670000Y-55490000D02*
X163910000Y-55490000D01*
X163910000Y-53980000D02*
X163910000Y-58621000D01*
X153670000Y-53980000D02*
X153670000Y-58621000D01*
X153670000Y-58621000D02*
X163910000Y-58621000D01*
X153670000Y-53980000D02*
X163910000Y-53980000D01*
X104641000Y-36230000D02*
X104641000Y-37740000D01*
X100940000Y-36230000D02*
X100940000Y-37740000D01*
X97670000Y-37740000D02*
X107910000Y-37740000D01*
X107910000Y-36230000D02*
X107910000Y-40871000D01*
X97670000Y-36230000D02*
X97670000Y-40871000D01*
X97670000Y-40871000D02*
X107910000Y-40871000D01*
X97670000Y-36230000D02*
X107910000Y-36230000D01*
X160641000Y-36980000D02*
X160641000Y-38490000D01*
X156940000Y-36980000D02*
X156940000Y-38490000D01*
X153670000Y-38490000D02*
X163910000Y-38490000D01*
X163910000Y-36980000D02*
X163910000Y-41621000D01*
X153670000Y-36980000D02*
X153670000Y-41621000D01*
X153670000Y-41621000D02*
X163910000Y-41621000D01*
X153670000Y-36980000D02*
X163910000Y-36980000D01*
X186830000Y-43730000D02*
X176670000Y-43730000D01*
X177568499Y-43095000D02*
G75*
G03X177568499Y-43095000I-218499J0D01*
G01*
X176670000Y-47540000D02*
X176670000Y-42460000D01*
X186830000Y-47540000D02*
X176670000Y-47540000D01*
X186830000Y-42460000D02*
X186830000Y-47540000D01*
X176670000Y-42460000D02*
X186830000Y-42460000D01*
X165281210Y-83282000D02*
G75*
G03X165281210Y-83282000I-359210J0D01*
G01*
X158318000Y-93188000D02*
X158318000Y-82266000D01*
X175082000Y-93188000D02*
X158318000Y-93188000D01*
X175082000Y-82266000D02*
X175082000Y-93188000D01*
X158318000Y-82266000D02*
X175082000Y-82266000D01*
X83420000Y-17170000D02*
X84750000Y-17170000D01*
X83420000Y-18500000D02*
X83420000Y-17170000D01*
X83420000Y-19770000D02*
X86080000Y-19770000D01*
X86080000Y-19770000D02*
X86080000Y-42690000D01*
X83420000Y-19770000D02*
X83420000Y-42690000D01*
X83420000Y-42690000D02*
X86080000Y-42690000D01*
X75670000Y-16920000D02*
X77000000Y-16920000D01*
X75670000Y-18250000D02*
X75670000Y-16920000D01*
X75670000Y-19520000D02*
X78330000Y-19520000D01*
X78330000Y-19520000D02*
X78330000Y-42440000D01*
X75670000Y-19520000D02*
X75670000Y-42440000D01*
X75670000Y-42440000D02*
X78330000Y-42440000D01*
X67920000Y-16670000D02*
X69250000Y-16670000D01*
X67920000Y-18000000D02*
X67920000Y-16670000D01*
X67920000Y-19270000D02*
X70580000Y-19270000D01*
X70580000Y-19270000D02*
X70580000Y-42190000D01*
X67920000Y-19270000D02*
X67920000Y-42190000D01*
X67920000Y-42190000D02*
X70580000Y-42190000D01*
X177325000Y-17400000D02*
X177325000Y-29100000D01*
X181325000Y-17400000D02*
X177325000Y-17400000D01*
X181325000Y-29100000D02*
X181325000Y-17400000D01*
X177325000Y-29100000D02*
X181325000Y-29100000D01*
X183400000Y-17400000D02*
X183400000Y-29100000D01*
X187400000Y-17400000D02*
X183400000Y-17400000D01*
X187400000Y-29100000D02*
X187400000Y-17400000D01*
X183400000Y-29100000D02*
X187400000Y-29100000D01*
X182056000Y-67976000D02*
X174944000Y-67976000D01*
X174944000Y-65436000D02*
X182056000Y-65436000D01*
X174944000Y-65436000D02*
X174944000Y-67976000D01*
X182056000Y-65436000D02*
X182056000Y-67976000D01*
X89010000Y-116280000D02*
X89010000Y-116436000D01*
X89010000Y-113964000D02*
X89010000Y-114120000D01*
X91611130Y-116279837D02*
G75*
G02X89529039Y-116280000I-1041130J1079837D01*
G01*
X91611130Y-114120163D02*
G75*
G03X89529039Y-114120000I-1041130J-1079837D01*
G01*
X92242335Y-116278608D02*
G75*
G02X89010000Y-116435516I-1672335J1078608D01*
G01*
X92242335Y-114121392D02*
G75*
G03X89010000Y-113964484I-1672335J-1078608D01*
G01*
X111010000Y-116280000D02*
X111010000Y-116436000D01*
X111010000Y-113964000D02*
X111010000Y-114120000D01*
X113611130Y-116279837D02*
G75*
G02X111529039Y-116280000I-1041130J1079837D01*
G01*
X113611130Y-114120163D02*
G75*
G03X111529039Y-114120000I-1041130J-1079837D01*
G01*
X114242335Y-116278608D02*
G75*
G02X111010000Y-116435516I-1672335J1078608D01*
G01*
X114242335Y-114121392D02*
G75*
G03X111010000Y-113964484I-1672335J-1078608D01*
G01*
X103410000Y-116180000D02*
X103410000Y-116336000D01*
X103410000Y-113864000D02*
X103410000Y-114020000D01*
X106011130Y-116179837D02*
G75*
G02X103929039Y-116180000I-1041130J1079837D01*
G01*
X106011130Y-114020163D02*
G75*
G03X103929039Y-114020000I-1041130J-1079837D01*
G01*
X106642335Y-116178608D02*
G75*
G02X103410000Y-116335516I-1672335J1078608D01*
G01*
X106642335Y-114021392D02*
G75*
G03X103410000Y-113864484I-1672335J-1078608D01*
G01*
X96310000Y-116280000D02*
X96310000Y-116436000D01*
X96310000Y-113964000D02*
X96310000Y-114120000D01*
X98911130Y-116279837D02*
G75*
G02X96829039Y-116280000I-1041130J1079837D01*
G01*
X98911130Y-114120163D02*
G75*
G03X96829039Y-114120000I-1041130J-1079837D01*
G01*
X99542335Y-116278608D02*
G75*
G02X96310000Y-116435516I-1672335J1078608D01*
G01*
X99542335Y-114121392D02*
G75*
G03X96310000Y-113964484I-1672335J-1078608D01*
G01*
X75280000Y-56360000D02*
X78220000Y-56360000D01*
X75280000Y-56120000D02*
X78220000Y-56120000D01*
X75280000Y-56240000D02*
X78220000Y-56240000D01*
X76750000Y-50680000D02*
X76750000Y-51700000D01*
X76750000Y-58160000D02*
X76750000Y-57140000D01*
X75280000Y-51700000D02*
X75280000Y-57140000D01*
X78220000Y-51700000D02*
X75280000Y-51700000D01*
X78220000Y-57140000D02*
X78220000Y-51700000D01*
X75280000Y-57140000D02*
X78220000Y-57140000D01*
X83030000Y-56360000D02*
X85970000Y-56360000D01*
X83030000Y-56120000D02*
X85970000Y-56120000D01*
X83030000Y-56240000D02*
X85970000Y-56240000D01*
X84500000Y-50680000D02*
X84500000Y-51700000D01*
X84500000Y-58160000D02*
X84500000Y-57140000D01*
X83030000Y-51700000D02*
X83030000Y-57140000D01*
X85970000Y-51700000D02*
X83030000Y-51700000D01*
X85970000Y-57140000D02*
X85970000Y-51700000D01*
X83030000Y-57140000D02*
X85970000Y-57140000D01*
X200550000Y-55080000D02*
X200550000Y-57920000D01*
X200790000Y-55080000D02*
X200790000Y-57920000D01*
X200670000Y-55080000D02*
X200670000Y-57920000D01*
X203510000Y-57920000D02*
X203510000Y-57740000D01*
X200070000Y-57920000D02*
X203510000Y-57920000D01*
X200070000Y-57740000D02*
X200070000Y-57920000D01*
X203510000Y-55080000D02*
X203510000Y-55260000D01*
X200070000Y-55080000D02*
X203510000Y-55080000D01*
X200070000Y-55260000D02*
X200070000Y-55080000D01*
X67530000Y-56360000D02*
X70470000Y-56360000D01*
X67530000Y-56120000D02*
X70470000Y-56120000D01*
X67530000Y-56240000D02*
X70470000Y-56240000D01*
X69000000Y-50680000D02*
X69000000Y-51700000D01*
X69000000Y-58160000D02*
X69000000Y-57140000D01*
X67530000Y-51700000D02*
X67530000Y-57140000D01*
X70470000Y-51700000D02*
X67530000Y-51700000D01*
X70470000Y-57140000D02*
X70470000Y-51700000D01*
X67530000Y-57140000D02*
X70470000Y-57140000D01*
X112565431Y-121635000D02*
X112565431Y-122935000D01*
X111915431Y-122285000D02*
X113215431Y-122285000D01*
X125601000Y-125525000D02*
X125601000Y-126475000D01*
X125561000Y-125150000D02*
X125561000Y-126850000D01*
X125521000Y-124893000D02*
X125521000Y-127107000D01*
X125481000Y-124685000D02*
X125481000Y-127315000D01*
X125441000Y-124506000D02*
X125441000Y-127494000D01*
X125401000Y-124347000D02*
X125401000Y-127653000D01*
X125361000Y-124202000D02*
X125361000Y-127798000D01*
X125321000Y-124069000D02*
X125321000Y-127931000D01*
X125281000Y-123945000D02*
X125281000Y-128055000D01*
X125241000Y-123829000D02*
X125241000Y-128171000D01*
X125201000Y-123719000D02*
X125201000Y-128281000D01*
X125161000Y-123615000D02*
X125161000Y-128385000D01*
X125121000Y-123516000D02*
X125121000Y-128484000D01*
X125081000Y-123421000D02*
X125081000Y-128579000D01*
X125041000Y-123330000D02*
X125041000Y-128670000D01*
X125001000Y-123242000D02*
X125001000Y-128758000D01*
X124961000Y-123158000D02*
X124961000Y-128842000D01*
X124921000Y-123077000D02*
X124921000Y-128923000D01*
X124881000Y-122998000D02*
X124881000Y-129002000D01*
X124841000Y-122922000D02*
X124841000Y-129078000D01*
X124801000Y-122848000D02*
X124801000Y-129152000D01*
X124761000Y-122777000D02*
X124761000Y-129223000D01*
X124721000Y-122707000D02*
X124721000Y-129293000D01*
X124681000Y-122639000D02*
X124681000Y-129361000D01*
X124641000Y-122573000D02*
X124641000Y-129427000D01*
X124601000Y-122509000D02*
X124601000Y-129491000D01*
X124561000Y-122446000D02*
X124561000Y-129554000D01*
X124521000Y-122385000D02*
X124521000Y-129615000D01*
X124481000Y-122325000D02*
X124481000Y-129675000D01*
X124441000Y-122267000D02*
X124441000Y-129733000D01*
X124401000Y-122210000D02*
X124401000Y-129790000D01*
X124361000Y-122154000D02*
X124361000Y-129846000D01*
X124321000Y-122100000D02*
X124321000Y-129900000D01*
X124281000Y-122046000D02*
X124281000Y-129954000D01*
X124241000Y-121994000D02*
X124241000Y-130006000D01*
X124201000Y-121943000D02*
X124201000Y-130057000D01*
X124161000Y-121892000D02*
X124161000Y-130108000D01*
X124121000Y-121843000D02*
X124121000Y-130157000D01*
X124081000Y-121795000D02*
X124081000Y-130205000D01*
X124041000Y-121747000D02*
X124041000Y-130253000D01*
X124001000Y-121701000D02*
X124001000Y-130299000D01*
X123961000Y-121655000D02*
X123961000Y-130345000D01*
X123921000Y-121610000D02*
X123921000Y-130390000D01*
X123881000Y-121566000D02*
X123881000Y-130434000D01*
X123841000Y-121523000D02*
X123841000Y-130477000D01*
X123801000Y-121481000D02*
X123801000Y-130519000D01*
X123761000Y-121439000D02*
X123761000Y-130561000D01*
X123721000Y-121398000D02*
X123721000Y-130602000D01*
X123681000Y-121357000D02*
X123681000Y-130643000D01*
X123641000Y-121318000D02*
X123641000Y-130682000D01*
X123601000Y-121279000D02*
X123601000Y-130721000D01*
X123561000Y-121240000D02*
X123561000Y-130760000D01*
X123521000Y-121203000D02*
X123521000Y-130797000D01*
X123481000Y-121166000D02*
X123481000Y-130834000D01*
X123441000Y-121129000D02*
X123441000Y-130871000D01*
X123401000Y-121093000D02*
X123401000Y-130907000D01*
X123361000Y-121058000D02*
X123361000Y-130942000D01*
X123321000Y-121023000D02*
X123321000Y-130977000D01*
X123281000Y-120989000D02*
X123281000Y-131011000D01*
X123241000Y-120956000D02*
X123241000Y-131044000D01*
X123201000Y-120922000D02*
X123201000Y-131078000D01*
X123161000Y-120890000D02*
X123161000Y-131110000D01*
X123121000Y-120858000D02*
X123121000Y-131142000D01*
X123081000Y-120826000D02*
X123081000Y-131174000D01*
X123041000Y-120795000D02*
X123041000Y-131205000D01*
X123001000Y-120765000D02*
X123001000Y-131235000D01*
X122961000Y-120735000D02*
X122961000Y-131265000D01*
X122921000Y-127440000D02*
X122921000Y-131295000D01*
X122921000Y-120705000D02*
X122921000Y-124560000D01*
X122881000Y-127440000D02*
X122881000Y-131324000D01*
X122881000Y-120676000D02*
X122881000Y-124560000D01*
X122841000Y-127440000D02*
X122841000Y-131353000D01*
X122841000Y-120647000D02*
X122841000Y-124560000D01*
X122801000Y-127440000D02*
X122801000Y-131381000D01*
X122801000Y-120619000D02*
X122801000Y-124560000D01*
X122761000Y-127440000D02*
X122761000Y-131409000D01*
X122761000Y-120591000D02*
X122761000Y-124560000D01*
X122721000Y-127440000D02*
X122721000Y-131436000D01*
X122721000Y-120564000D02*
X122721000Y-124560000D01*
X122681000Y-127440000D02*
X122681000Y-131463000D01*
X122681000Y-120537000D02*
X122681000Y-124560000D01*
X122641000Y-127440000D02*
X122641000Y-131490000D01*
X122641000Y-120510000D02*
X122641000Y-124560000D01*
X122601000Y-127440000D02*
X122601000Y-131516000D01*
X122601000Y-120484000D02*
X122601000Y-124560000D01*
X122561000Y-127440000D02*
X122561000Y-131542000D01*
X122561000Y-120458000D02*
X122561000Y-124560000D01*
X122521000Y-127440000D02*
X122521000Y-131567000D01*
X122521000Y-120433000D02*
X122521000Y-124560000D01*
X122481000Y-127440000D02*
X122481000Y-131592000D01*
X122481000Y-120408000D02*
X122481000Y-124560000D01*
X122441000Y-127440000D02*
X122441000Y-131617000D01*
X122441000Y-120383000D02*
X122441000Y-124560000D01*
X122401000Y-127440000D02*
X122401000Y-131641000D01*
X122401000Y-120359000D02*
X122401000Y-124560000D01*
X122361000Y-127440000D02*
X122361000Y-131664000D01*
X122361000Y-120336000D02*
X122361000Y-124560000D01*
X122321000Y-127440000D02*
X122321000Y-131688000D01*
X122321000Y-120312000D02*
X122321000Y-124560000D01*
X122281000Y-127440000D02*
X122281000Y-131711000D01*
X122281000Y-120289000D02*
X122281000Y-124560000D01*
X122241000Y-127440000D02*
X122241000Y-131733000D01*
X122241000Y-120267000D02*
X122241000Y-124560000D01*
X122201000Y-127440000D02*
X122201000Y-131756000D01*
X122201000Y-120244000D02*
X122201000Y-124560000D01*
X122161000Y-127440000D02*
X122161000Y-131778000D01*
X122161000Y-120222000D02*
X122161000Y-124560000D01*
X122121000Y-127440000D02*
X122121000Y-131799000D01*
X122121000Y-120201000D02*
X122121000Y-124560000D01*
X122081000Y-127440000D02*
X122081000Y-131820000D01*
X122081000Y-120180000D02*
X122081000Y-124560000D01*
X122041000Y-127440000D02*
X122041000Y-131841000D01*
X122041000Y-120159000D02*
X122041000Y-124560000D01*
X122001000Y-127440000D02*
X122001000Y-131862000D01*
X122001000Y-120138000D02*
X122001000Y-124560000D01*
X121961000Y-127440000D02*
X121961000Y-131882000D01*
X121961000Y-120118000D02*
X121961000Y-124560000D01*
X121921000Y-127440000D02*
X121921000Y-131902000D01*
X121921000Y-120098000D02*
X121921000Y-124560000D01*
X121881000Y-127440000D02*
X121881000Y-131921000D01*
X121881000Y-120079000D02*
X121881000Y-124560000D01*
X121841000Y-127440000D02*
X121841000Y-131940000D01*
X121841000Y-120060000D02*
X121841000Y-124560000D01*
X121801000Y-127440000D02*
X121801000Y-131959000D01*
X121801000Y-120041000D02*
X121801000Y-124560000D01*
X121761000Y-127440000D02*
X121761000Y-131978000D01*
X121761000Y-120022000D02*
X121761000Y-124560000D01*
X121721000Y-127440000D02*
X121721000Y-131996000D01*
X121721000Y-120004000D02*
X121721000Y-124560000D01*
X121681000Y-127440000D02*
X121681000Y-132014000D01*
X121681000Y-119986000D02*
X121681000Y-124560000D01*
X121641000Y-127440000D02*
X121641000Y-132031000D01*
X121641000Y-119969000D02*
X121641000Y-124560000D01*
X121601000Y-127440000D02*
X121601000Y-132049000D01*
X121601000Y-119951000D02*
X121601000Y-124560000D01*
X121561000Y-127440000D02*
X121561000Y-132065000D01*
X121561000Y-119935000D02*
X121561000Y-124560000D01*
X121521000Y-127440000D02*
X121521000Y-132082000D01*
X121521000Y-119918000D02*
X121521000Y-124560000D01*
X121481000Y-127440000D02*
X121481000Y-132098000D01*
X121481000Y-119902000D02*
X121481000Y-124560000D01*
X121441000Y-127440000D02*
X121441000Y-132114000D01*
X121441000Y-119886000D02*
X121441000Y-124560000D01*
X121401000Y-127440000D02*
X121401000Y-132130000D01*
X121401000Y-119870000D02*
X121401000Y-124560000D01*
X121361000Y-127440000D02*
X121361000Y-132146000D01*
X121361000Y-119854000D02*
X121361000Y-124560000D01*
X121321000Y-127440000D02*
X121321000Y-132161000D01*
X121321000Y-119839000D02*
X121321000Y-124560000D01*
X121281000Y-127440000D02*
X121281000Y-132175000D01*
X121281000Y-119825000D02*
X121281000Y-124560000D01*
X121241000Y-127440000D02*
X121241000Y-132190000D01*
X121241000Y-119810000D02*
X121241000Y-124560000D01*
X121201000Y-127440000D02*
X121201000Y-132204000D01*
X121201000Y-119796000D02*
X121201000Y-124560000D01*
X121161000Y-127440000D02*
X121161000Y-132218000D01*
X121161000Y-119782000D02*
X121161000Y-124560000D01*
X121121000Y-127440000D02*
X121121000Y-132232000D01*
X121121000Y-119768000D02*
X121121000Y-124560000D01*
X121081000Y-127440000D02*
X121081000Y-132245000D01*
X121081000Y-119755000D02*
X121081000Y-124560000D01*
X121041000Y-127440000D02*
X121041000Y-132258000D01*
X121041000Y-119742000D02*
X121041000Y-124560000D01*
X121001000Y-127440000D02*
X121001000Y-132271000D01*
X121001000Y-119729000D02*
X121001000Y-124560000D01*
X120961000Y-127440000D02*
X120961000Y-132284000D01*
X120961000Y-119716000D02*
X120961000Y-124560000D01*
X120921000Y-127440000D02*
X120921000Y-132296000D01*
X120921000Y-119704000D02*
X120921000Y-124560000D01*
X120881000Y-127440000D02*
X120881000Y-132308000D01*
X120881000Y-119692000D02*
X120881000Y-124560000D01*
X120841000Y-127440000D02*
X120841000Y-132320000D01*
X120841000Y-119680000D02*
X120841000Y-124560000D01*
X120801000Y-127440000D02*
X120801000Y-132331000D01*
X120801000Y-119669000D02*
X120801000Y-124560000D01*
X120761000Y-127440000D02*
X120761000Y-132342000D01*
X120761000Y-119658000D02*
X120761000Y-124560000D01*
X120721000Y-127440000D02*
X120721000Y-132353000D01*
X120721000Y-119647000D02*
X120721000Y-124560000D01*
X120681000Y-127440000D02*
X120681000Y-132364000D01*
X120681000Y-119636000D02*
X120681000Y-124560000D01*
X120641000Y-127440000D02*
X120641000Y-132374000D01*
X120641000Y-119626000D02*
X120641000Y-124560000D01*
X120601000Y-127440000D02*
X120601000Y-132384000D01*
X120601000Y-119616000D02*
X120601000Y-124560000D01*
X120561000Y-127440000D02*
X120561000Y-132394000D01*
X120561000Y-119606000D02*
X120561000Y-124560000D01*
X120521000Y-127440000D02*
X120521000Y-132404000D01*
X120521000Y-119596000D02*
X120521000Y-124560000D01*
X120481000Y-127440000D02*
X120481000Y-132413000D01*
X120481000Y-119587000D02*
X120481000Y-124560000D01*
X120441000Y-127440000D02*
X120441000Y-132422000D01*
X120441000Y-119578000D02*
X120441000Y-124560000D01*
X120401000Y-127440000D02*
X120401000Y-132431000D01*
X120401000Y-119569000D02*
X120401000Y-124560000D01*
X120361000Y-127440000D02*
X120361000Y-132439000D01*
X120361000Y-119561000D02*
X120361000Y-124560000D01*
X120321000Y-127440000D02*
X120321000Y-132448000D01*
X120321000Y-119552000D02*
X120321000Y-124560000D01*
X120281000Y-127440000D02*
X120281000Y-132456000D01*
X120281000Y-119544000D02*
X120281000Y-124560000D01*
X120241000Y-127440000D02*
X120241000Y-132463000D01*
X120241000Y-119537000D02*
X120241000Y-124560000D01*
X120201000Y-127440000D02*
X120201000Y-132471000D01*
X120201000Y-119529000D02*
X120201000Y-124560000D01*
X120161000Y-127440000D02*
X120161000Y-132478000D01*
X120161000Y-119522000D02*
X120161000Y-124560000D01*
X120121000Y-127440000D02*
X120121000Y-132485000D01*
X120121000Y-119515000D02*
X120121000Y-124560000D01*
X120081000Y-127440000D02*
X120081000Y-132492000D01*
X120081000Y-119508000D02*
X120081000Y-124560000D01*
X120041000Y-119502000D02*
X120041000Y-132498000D01*
X120001000Y-119495000D02*
X120001000Y-132505000D01*
X119961000Y-119489000D02*
X119961000Y-132511000D01*
X119921000Y-119484000D02*
X119921000Y-132516000D01*
X119881000Y-119478000D02*
X119881000Y-132522000D01*
X119841000Y-119473000D02*
X119841000Y-132527000D01*
X119801000Y-119468000D02*
X119801000Y-132532000D01*
X119761000Y-119463000D02*
X119761000Y-132537000D01*
X119721000Y-119459000D02*
X119721000Y-132541000D01*
X119680000Y-119455000D02*
X119680000Y-132545000D01*
X119640000Y-119451000D02*
X119640000Y-132549000D01*
X119600000Y-119447000D02*
X119600000Y-132553000D01*
X119560000Y-119443000D02*
X119560000Y-132557000D01*
X119520000Y-119440000D02*
X119520000Y-132560000D01*
X119480000Y-119437000D02*
X119480000Y-132563000D01*
X119440000Y-119434000D02*
X119440000Y-132566000D01*
X119400000Y-119432000D02*
X119400000Y-132568000D01*
X119360000Y-119429000D02*
X119360000Y-132571000D01*
X119320000Y-119427000D02*
X119320000Y-132573000D01*
X119280000Y-119425000D02*
X119280000Y-132575000D01*
X119240000Y-119424000D02*
X119240000Y-132576000D01*
X119200000Y-119423000D02*
X119200000Y-132577000D01*
X119160000Y-119421000D02*
X119160000Y-132579000D01*
X119120000Y-119421000D02*
X119120000Y-132579000D01*
X119080000Y-119420000D02*
X119080000Y-132580000D01*
X119040000Y-119420000D02*
X119040000Y-132580000D01*
X119000000Y-119420000D02*
X119000000Y-132580000D01*
X125620000Y-126000000D02*
G75*
G03X125620000Y-126000000I-6620000J0D01*
G01*
X84121000Y-68170000D02*
X85379000Y-68170000D01*
X84121000Y-66330000D02*
X85379000Y-66330000D01*
X96315431Y-121635000D02*
X96315431Y-122935000D01*
X95665431Y-122285000D02*
X96965431Y-122285000D01*
X109351000Y-125525000D02*
X109351000Y-126475000D01*
X109311000Y-125150000D02*
X109311000Y-126850000D01*
X109271000Y-124893000D02*
X109271000Y-127107000D01*
X109231000Y-124685000D02*
X109231000Y-127315000D01*
X109191000Y-124506000D02*
X109191000Y-127494000D01*
X109151000Y-124347000D02*
X109151000Y-127653000D01*
X109111000Y-124202000D02*
X109111000Y-127798000D01*
X109071000Y-124069000D02*
X109071000Y-127931000D01*
X109031000Y-123945000D02*
X109031000Y-128055000D01*
X108991000Y-123829000D02*
X108991000Y-128171000D01*
X108951000Y-123719000D02*
X108951000Y-128281000D01*
X108911000Y-123615000D02*
X108911000Y-128385000D01*
X108871000Y-123516000D02*
X108871000Y-128484000D01*
X108831000Y-123421000D02*
X108831000Y-128579000D01*
X108791000Y-123330000D02*
X108791000Y-128670000D01*
X108751000Y-123242000D02*
X108751000Y-128758000D01*
X108711000Y-123158000D02*
X108711000Y-128842000D01*
X108671000Y-123077000D02*
X108671000Y-128923000D01*
X108631000Y-122998000D02*
X108631000Y-129002000D01*
X108591000Y-122922000D02*
X108591000Y-129078000D01*
X108551000Y-122848000D02*
X108551000Y-129152000D01*
X108511000Y-122777000D02*
X108511000Y-129223000D01*
X108471000Y-122707000D02*
X108471000Y-129293000D01*
X108431000Y-122639000D02*
X108431000Y-129361000D01*
X108391000Y-122573000D02*
X108391000Y-129427000D01*
X108351000Y-122509000D02*
X108351000Y-129491000D01*
X108311000Y-122446000D02*
X108311000Y-129554000D01*
X108271000Y-122385000D02*
X108271000Y-129615000D01*
X108231000Y-122325000D02*
X108231000Y-129675000D01*
X108191000Y-122267000D02*
X108191000Y-129733000D01*
X108151000Y-122210000D02*
X108151000Y-129790000D01*
X108111000Y-122154000D02*
X108111000Y-129846000D01*
X108071000Y-122100000D02*
X108071000Y-129900000D01*
X108031000Y-122046000D02*
X108031000Y-129954000D01*
X107991000Y-121994000D02*
X107991000Y-130006000D01*
X107951000Y-121943000D02*
X107951000Y-130057000D01*
X107911000Y-121892000D02*
X107911000Y-130108000D01*
X107871000Y-121843000D02*
X107871000Y-130157000D01*
X107831000Y-121795000D02*
X107831000Y-130205000D01*
X107791000Y-121747000D02*
X107791000Y-130253000D01*
X107751000Y-121701000D02*
X107751000Y-130299000D01*
X107711000Y-121655000D02*
X107711000Y-130345000D01*
X107671000Y-121610000D02*
X107671000Y-130390000D01*
X107631000Y-121566000D02*
X107631000Y-130434000D01*
X107591000Y-121523000D02*
X107591000Y-130477000D01*
X107551000Y-121481000D02*
X107551000Y-130519000D01*
X107511000Y-121439000D02*
X107511000Y-130561000D01*
X107471000Y-121398000D02*
X107471000Y-130602000D01*
X107431000Y-121357000D02*
X107431000Y-130643000D01*
X107391000Y-121318000D02*
X107391000Y-130682000D01*
X107351000Y-121279000D02*
X107351000Y-130721000D01*
X107311000Y-121240000D02*
X107311000Y-130760000D01*
X107271000Y-121203000D02*
X107271000Y-130797000D01*
X107231000Y-121166000D02*
X107231000Y-130834000D01*
X107191000Y-121129000D02*
X107191000Y-130871000D01*
X107151000Y-121093000D02*
X107151000Y-130907000D01*
X107111000Y-121058000D02*
X107111000Y-130942000D01*
X107071000Y-121023000D02*
X107071000Y-130977000D01*
X107031000Y-120989000D02*
X107031000Y-131011000D01*
X106991000Y-120956000D02*
X106991000Y-131044000D01*
X106951000Y-120922000D02*
X106951000Y-131078000D01*
X106911000Y-120890000D02*
X106911000Y-131110000D01*
X106871000Y-120858000D02*
X106871000Y-131142000D01*
X106831000Y-120826000D02*
X106831000Y-131174000D01*
X106791000Y-120795000D02*
X106791000Y-131205000D01*
X106751000Y-120765000D02*
X106751000Y-131235000D01*
X106711000Y-120735000D02*
X106711000Y-131265000D01*
X106671000Y-127440000D02*
X106671000Y-131295000D01*
X106671000Y-120705000D02*
X106671000Y-124560000D01*
X106631000Y-127440000D02*
X106631000Y-131324000D01*
X106631000Y-120676000D02*
X106631000Y-124560000D01*
X106591000Y-127440000D02*
X106591000Y-131353000D01*
X106591000Y-120647000D02*
X106591000Y-124560000D01*
X106551000Y-127440000D02*
X106551000Y-131381000D01*
X106551000Y-120619000D02*
X106551000Y-124560000D01*
X106511000Y-127440000D02*
X106511000Y-131409000D01*
X106511000Y-120591000D02*
X106511000Y-124560000D01*
X106471000Y-127440000D02*
X106471000Y-131436000D01*
X106471000Y-120564000D02*
X106471000Y-124560000D01*
X106431000Y-127440000D02*
X106431000Y-131463000D01*
X106431000Y-120537000D02*
X106431000Y-124560000D01*
X106391000Y-127440000D02*
X106391000Y-131490000D01*
X106391000Y-120510000D02*
X106391000Y-124560000D01*
X106351000Y-127440000D02*
X106351000Y-131516000D01*
X106351000Y-120484000D02*
X106351000Y-124560000D01*
X106311000Y-127440000D02*
X106311000Y-131542000D01*
X106311000Y-120458000D02*
X106311000Y-124560000D01*
X106271000Y-127440000D02*
X106271000Y-131567000D01*
X106271000Y-120433000D02*
X106271000Y-124560000D01*
X106231000Y-127440000D02*
X106231000Y-131592000D01*
X106231000Y-120408000D02*
X106231000Y-124560000D01*
X106191000Y-127440000D02*
X106191000Y-131617000D01*
X106191000Y-120383000D02*
X106191000Y-124560000D01*
X106151000Y-127440000D02*
X106151000Y-131641000D01*
X106151000Y-120359000D02*
X106151000Y-124560000D01*
X106111000Y-127440000D02*
X106111000Y-131664000D01*
X106111000Y-120336000D02*
X106111000Y-124560000D01*
X106071000Y-127440000D02*
X106071000Y-131688000D01*
X106071000Y-120312000D02*
X106071000Y-124560000D01*
X106031000Y-127440000D02*
X106031000Y-131711000D01*
X106031000Y-120289000D02*
X106031000Y-124560000D01*
X105991000Y-127440000D02*
X105991000Y-131733000D01*
X105991000Y-120267000D02*
X105991000Y-124560000D01*
X105951000Y-127440000D02*
X105951000Y-131756000D01*
X105951000Y-120244000D02*
X105951000Y-124560000D01*
X105911000Y-127440000D02*
X105911000Y-131778000D01*
X105911000Y-120222000D02*
X105911000Y-124560000D01*
X105871000Y-127440000D02*
X105871000Y-131799000D01*
X105871000Y-120201000D02*
X105871000Y-124560000D01*
X105831000Y-127440000D02*
X105831000Y-131820000D01*
X105831000Y-120180000D02*
X105831000Y-124560000D01*
X105791000Y-127440000D02*
X105791000Y-131841000D01*
X105791000Y-120159000D02*
X105791000Y-124560000D01*
X105751000Y-127440000D02*
X105751000Y-131862000D01*
X105751000Y-120138000D02*
X105751000Y-124560000D01*
X105711000Y-127440000D02*
X105711000Y-131882000D01*
X105711000Y-120118000D02*
X105711000Y-124560000D01*
X105671000Y-127440000D02*
X105671000Y-131902000D01*
X105671000Y-120098000D02*
X105671000Y-124560000D01*
X105631000Y-127440000D02*
X105631000Y-131921000D01*
X105631000Y-120079000D02*
X105631000Y-124560000D01*
X105591000Y-127440000D02*
X105591000Y-131940000D01*
X105591000Y-120060000D02*
X105591000Y-124560000D01*
X105551000Y-127440000D02*
X105551000Y-131959000D01*
X105551000Y-120041000D02*
X105551000Y-124560000D01*
X105511000Y-127440000D02*
X105511000Y-131978000D01*
X105511000Y-120022000D02*
X105511000Y-124560000D01*
X105471000Y-127440000D02*
X105471000Y-131996000D01*
X105471000Y-120004000D02*
X105471000Y-124560000D01*
X105431000Y-127440000D02*
X105431000Y-132014000D01*
X105431000Y-119986000D02*
X105431000Y-124560000D01*
X105391000Y-127440000D02*
X105391000Y-132031000D01*
X105391000Y-119969000D02*
X105391000Y-124560000D01*
X105351000Y-127440000D02*
X105351000Y-132049000D01*
X105351000Y-119951000D02*
X105351000Y-124560000D01*
X105311000Y-127440000D02*
X105311000Y-132065000D01*
X105311000Y-119935000D02*
X105311000Y-124560000D01*
X105271000Y-127440000D02*
X105271000Y-132082000D01*
X105271000Y-119918000D02*
X105271000Y-124560000D01*
X105231000Y-127440000D02*
X105231000Y-132098000D01*
X105231000Y-119902000D02*
X105231000Y-124560000D01*
X105191000Y-127440000D02*
X105191000Y-132114000D01*
X105191000Y-119886000D02*
X105191000Y-124560000D01*
X105151000Y-127440000D02*
X105151000Y-132130000D01*
X105151000Y-119870000D02*
X105151000Y-124560000D01*
X105111000Y-127440000D02*
X105111000Y-132146000D01*
X105111000Y-119854000D02*
X105111000Y-124560000D01*
X105071000Y-127440000D02*
X105071000Y-132161000D01*
X105071000Y-119839000D02*
X105071000Y-124560000D01*
X105031000Y-127440000D02*
X105031000Y-132175000D01*
X105031000Y-119825000D02*
X105031000Y-124560000D01*
X104991000Y-127440000D02*
X104991000Y-132190000D01*
X104991000Y-119810000D02*
X104991000Y-124560000D01*
X104951000Y-127440000D02*
X104951000Y-132204000D01*
X104951000Y-119796000D02*
X104951000Y-124560000D01*
X104911000Y-127440000D02*
X104911000Y-132218000D01*
X104911000Y-119782000D02*
X104911000Y-124560000D01*
X104871000Y-127440000D02*
X104871000Y-132232000D01*
X104871000Y-119768000D02*
X104871000Y-124560000D01*
X104831000Y-127440000D02*
X104831000Y-132245000D01*
X104831000Y-119755000D02*
X104831000Y-124560000D01*
X104791000Y-127440000D02*
X104791000Y-132258000D01*
X104791000Y-119742000D02*
X104791000Y-124560000D01*
X104751000Y-127440000D02*
X104751000Y-132271000D01*
X104751000Y-119729000D02*
X104751000Y-124560000D01*
X104711000Y-127440000D02*
X104711000Y-132284000D01*
X104711000Y-119716000D02*
X104711000Y-124560000D01*
X104671000Y-127440000D02*
X104671000Y-132296000D01*
X104671000Y-119704000D02*
X104671000Y-124560000D01*
X104631000Y-127440000D02*
X104631000Y-132308000D01*
X104631000Y-119692000D02*
X104631000Y-124560000D01*
X104591000Y-127440000D02*
X104591000Y-132320000D01*
X104591000Y-119680000D02*
X104591000Y-124560000D01*
X104551000Y-127440000D02*
X104551000Y-132331000D01*
X104551000Y-119669000D02*
X104551000Y-124560000D01*
X104511000Y-127440000D02*
X104511000Y-132342000D01*
X104511000Y-119658000D02*
X104511000Y-124560000D01*
X104471000Y-127440000D02*
X104471000Y-132353000D01*
X104471000Y-119647000D02*
X104471000Y-124560000D01*
X104431000Y-127440000D02*
X104431000Y-132364000D01*
X104431000Y-119636000D02*
X104431000Y-124560000D01*
X104391000Y-127440000D02*
X104391000Y-132374000D01*
X104391000Y-119626000D02*
X104391000Y-124560000D01*
X104351000Y-127440000D02*
X104351000Y-132384000D01*
X104351000Y-119616000D02*
X104351000Y-124560000D01*
X104311000Y-127440000D02*
X104311000Y-132394000D01*
X104311000Y-119606000D02*
X104311000Y-124560000D01*
X104271000Y-127440000D02*
X104271000Y-132404000D01*
X104271000Y-119596000D02*
X104271000Y-124560000D01*
X104231000Y-127440000D02*
X104231000Y-132413000D01*
X104231000Y-119587000D02*
X104231000Y-124560000D01*
X104191000Y-127440000D02*
X104191000Y-132422000D01*
X104191000Y-119578000D02*
X104191000Y-124560000D01*
X104151000Y-127440000D02*
X104151000Y-132431000D01*
X104151000Y-119569000D02*
X104151000Y-124560000D01*
X104111000Y-127440000D02*
X104111000Y-132439000D01*
X104111000Y-119561000D02*
X104111000Y-124560000D01*
X104071000Y-127440000D02*
X104071000Y-132448000D01*
X104071000Y-119552000D02*
X104071000Y-124560000D01*
X104031000Y-127440000D02*
X104031000Y-132456000D01*
X104031000Y-119544000D02*
X104031000Y-124560000D01*
X103991000Y-127440000D02*
X103991000Y-132463000D01*
X103991000Y-119537000D02*
X103991000Y-124560000D01*
X103951000Y-127440000D02*
X103951000Y-132471000D01*
X103951000Y-119529000D02*
X103951000Y-124560000D01*
X103911000Y-127440000D02*
X103911000Y-132478000D01*
X103911000Y-119522000D02*
X103911000Y-124560000D01*
X103871000Y-127440000D02*
X103871000Y-132485000D01*
X103871000Y-119515000D02*
X103871000Y-124560000D01*
X103831000Y-127440000D02*
X103831000Y-132492000D01*
X103831000Y-119508000D02*
X103831000Y-124560000D01*
X103791000Y-119502000D02*
X103791000Y-132498000D01*
X103751000Y-119495000D02*
X103751000Y-132505000D01*
X103711000Y-119489000D02*
X103711000Y-132511000D01*
X103671000Y-119484000D02*
X103671000Y-132516000D01*
X103631000Y-119478000D02*
X103631000Y-132522000D01*
X103591000Y-119473000D02*
X103591000Y-132527000D01*
X103551000Y-119468000D02*
X103551000Y-132532000D01*
X103511000Y-119463000D02*
X103511000Y-132537000D01*
X103471000Y-119459000D02*
X103471000Y-132541000D01*
X103430000Y-119455000D02*
X103430000Y-132545000D01*
X103390000Y-119451000D02*
X103390000Y-132549000D01*
X103350000Y-119447000D02*
X103350000Y-132553000D01*
X103310000Y-119443000D02*
X103310000Y-132557000D01*
X103270000Y-119440000D02*
X103270000Y-132560000D01*
X103230000Y-119437000D02*
X103230000Y-132563000D01*
X103190000Y-119434000D02*
X103190000Y-132566000D01*
X103150000Y-119432000D02*
X103150000Y-132568000D01*
X103110000Y-119429000D02*
X103110000Y-132571000D01*
X103070000Y-119427000D02*
X103070000Y-132573000D01*
X103030000Y-119425000D02*
X103030000Y-132575000D01*
X102990000Y-119424000D02*
X102990000Y-132576000D01*
X102950000Y-119423000D02*
X102950000Y-132577000D01*
X102910000Y-119421000D02*
X102910000Y-132579000D01*
X102870000Y-119421000D02*
X102870000Y-132579000D01*
X102830000Y-119420000D02*
X102830000Y-132580000D01*
X102790000Y-119420000D02*
X102790000Y-132580000D01*
X102750000Y-119420000D02*
X102750000Y-132580000D01*
X109370000Y-126000000D02*
G75*
G03X109370000Y-126000000I-6620000J0D01*
G01*
X68621000Y-68170000D02*
X69879000Y-68170000D01*
X68621000Y-66330000D02*
X69879000Y-66330000D01*
X66695225Y-74275000D02*
X66695225Y-74775000D01*
X66445225Y-74525000D02*
X66945225Y-74525000D01*
X71851000Y-75716000D02*
X71851000Y-76284000D01*
X71811000Y-75482000D02*
X71811000Y-76518000D01*
X71771000Y-75323000D02*
X71771000Y-76677000D01*
X71731000Y-75195000D02*
X71731000Y-76805000D01*
X71691000Y-75085000D02*
X71691000Y-76915000D01*
X71651000Y-74989000D02*
X71651000Y-77011000D01*
X71611000Y-74902000D02*
X71611000Y-77098000D01*
X71571000Y-74822000D02*
X71571000Y-77178000D01*
X71531000Y-77040000D02*
X71531000Y-77251000D01*
X71531000Y-74749000D02*
X71531000Y-74960000D01*
X71491000Y-77040000D02*
X71491000Y-77319000D01*
X71491000Y-74681000D02*
X71491000Y-74960000D01*
X71451000Y-77040000D02*
X71451000Y-77383000D01*
X71451000Y-74617000D02*
X71451000Y-74960000D01*
X71411000Y-77040000D02*
X71411000Y-77443000D01*
X71411000Y-74557000D02*
X71411000Y-74960000D01*
X71371000Y-77040000D02*
X71371000Y-77500000D01*
X71371000Y-74500000D02*
X71371000Y-74960000D01*
X71331000Y-77040000D02*
X71331000Y-77554000D01*
X71331000Y-74446000D02*
X71331000Y-74960000D01*
X71291000Y-77040000D02*
X71291000Y-77605000D01*
X71291000Y-74395000D02*
X71291000Y-74960000D01*
X71251000Y-77040000D02*
X71251000Y-77653000D01*
X71251000Y-74347000D02*
X71251000Y-74960000D01*
X71211000Y-77040000D02*
X71211000Y-77699000D01*
X71211000Y-74301000D02*
X71211000Y-74960000D01*
X71171000Y-77040000D02*
X71171000Y-77743000D01*
X71171000Y-74257000D02*
X71171000Y-74960000D01*
X71131000Y-77040000D02*
X71131000Y-77785000D01*
X71131000Y-74215000D02*
X71131000Y-74960000D01*
X71091000Y-77040000D02*
X71091000Y-77826000D01*
X71091000Y-74174000D02*
X71091000Y-74960000D01*
X71051000Y-77040000D02*
X71051000Y-77864000D01*
X71051000Y-74136000D02*
X71051000Y-74960000D01*
X71011000Y-77040000D02*
X71011000Y-77901000D01*
X71011000Y-74099000D02*
X71011000Y-74960000D01*
X70971000Y-77040000D02*
X70971000Y-77937000D01*
X70971000Y-74063000D02*
X70971000Y-74960000D01*
X70931000Y-77040000D02*
X70931000Y-77971000D01*
X70931000Y-74029000D02*
X70931000Y-74960000D01*
X70891000Y-77040000D02*
X70891000Y-78004000D01*
X70891000Y-73996000D02*
X70891000Y-74960000D01*
X70851000Y-77040000D02*
X70851000Y-78035000D01*
X70851000Y-73965000D02*
X70851000Y-74960000D01*
X70811000Y-77040000D02*
X70811000Y-78065000D01*
X70811000Y-73935000D02*
X70811000Y-74960000D01*
X70771000Y-77040000D02*
X70771000Y-78095000D01*
X70771000Y-73905000D02*
X70771000Y-74960000D01*
X70731000Y-77040000D02*
X70731000Y-78122000D01*
X70731000Y-73878000D02*
X70731000Y-74960000D01*
X70691000Y-77040000D02*
X70691000Y-78149000D01*
X70691000Y-73851000D02*
X70691000Y-74960000D01*
X70651000Y-77040000D02*
X70651000Y-78175000D01*
X70651000Y-73825000D02*
X70651000Y-74960000D01*
X70611000Y-77040000D02*
X70611000Y-78200000D01*
X70611000Y-73800000D02*
X70611000Y-74960000D01*
X70571000Y-77040000D02*
X70571000Y-78224000D01*
X70571000Y-73776000D02*
X70571000Y-74960000D01*
X70531000Y-77040000D02*
X70531000Y-78247000D01*
X70531000Y-73753000D02*
X70531000Y-74960000D01*
X70491000Y-77040000D02*
X70491000Y-78268000D01*
X70491000Y-73732000D02*
X70491000Y-74960000D01*
X70451000Y-77040000D02*
X70451000Y-78290000D01*
X70451000Y-73710000D02*
X70451000Y-74960000D01*
X70411000Y-77040000D02*
X70411000Y-78310000D01*
X70411000Y-73690000D02*
X70411000Y-74960000D01*
X70371000Y-77040000D02*
X70371000Y-78329000D01*
X70371000Y-73671000D02*
X70371000Y-74960000D01*
X70331000Y-77040000D02*
X70331000Y-78348000D01*
X70331000Y-73652000D02*
X70331000Y-74960000D01*
X70291000Y-77040000D02*
X70291000Y-78365000D01*
X70291000Y-73635000D02*
X70291000Y-74960000D01*
X70251000Y-77040000D02*
X70251000Y-78382000D01*
X70251000Y-73618000D02*
X70251000Y-74960000D01*
X70211000Y-77040000D02*
X70211000Y-78398000D01*
X70211000Y-73602000D02*
X70211000Y-74960000D01*
X70171000Y-77040000D02*
X70171000Y-78414000D01*
X70171000Y-73586000D02*
X70171000Y-74960000D01*
X70131000Y-77040000D02*
X70131000Y-78428000D01*
X70131000Y-73572000D02*
X70131000Y-74960000D01*
X70091000Y-77040000D02*
X70091000Y-78442000D01*
X70091000Y-73558000D02*
X70091000Y-74960000D01*
X70051000Y-77040000D02*
X70051000Y-78455000D01*
X70051000Y-73545000D02*
X70051000Y-74960000D01*
X70011000Y-77040000D02*
X70011000Y-78468000D01*
X70011000Y-73532000D02*
X70011000Y-74960000D01*
X69971000Y-77040000D02*
X69971000Y-78480000D01*
X69971000Y-73520000D02*
X69971000Y-74960000D01*
X69930000Y-77040000D02*
X69930000Y-78491000D01*
X69930000Y-73509000D02*
X69930000Y-74960000D01*
X69890000Y-77040000D02*
X69890000Y-78501000D01*
X69890000Y-73499000D02*
X69890000Y-74960000D01*
X69850000Y-77040000D02*
X69850000Y-78511000D01*
X69850000Y-73489000D02*
X69850000Y-74960000D01*
X69810000Y-77040000D02*
X69810000Y-78520000D01*
X69810000Y-73480000D02*
X69810000Y-74960000D01*
X69770000Y-77040000D02*
X69770000Y-78528000D01*
X69770000Y-73472000D02*
X69770000Y-74960000D01*
X69730000Y-77040000D02*
X69730000Y-78536000D01*
X69730000Y-73464000D02*
X69730000Y-74960000D01*
X69690000Y-77040000D02*
X69690000Y-78543000D01*
X69690000Y-73457000D02*
X69690000Y-74960000D01*
X69650000Y-77040000D02*
X69650000Y-78550000D01*
X69650000Y-73450000D02*
X69650000Y-74960000D01*
X69610000Y-77040000D02*
X69610000Y-78556000D01*
X69610000Y-73444000D02*
X69610000Y-74960000D01*
X69570000Y-77040000D02*
X69570000Y-78561000D01*
X69570000Y-73439000D02*
X69570000Y-74960000D01*
X69530000Y-77040000D02*
X69530000Y-78565000D01*
X69530000Y-73435000D02*
X69530000Y-74960000D01*
X69490000Y-77040000D02*
X69490000Y-78569000D01*
X69490000Y-73431000D02*
X69490000Y-74960000D01*
X69450000Y-73427000D02*
X69450000Y-78573000D01*
X69410000Y-73424000D02*
X69410000Y-78576000D01*
X69370000Y-73422000D02*
X69370000Y-78578000D01*
X69330000Y-73421000D02*
X69330000Y-78579000D01*
X69290000Y-73420000D02*
X69290000Y-78580000D01*
X69250000Y-73420000D02*
X69250000Y-78580000D01*
X71870000Y-76000000D02*
G75*
G03X71870000Y-76000000I-2620000J0D01*
G01*
X82945225Y-74275000D02*
X82945225Y-74775000D01*
X82695225Y-74525000D02*
X83195225Y-74525000D01*
X88101000Y-75716000D02*
X88101000Y-76284000D01*
X88061000Y-75482000D02*
X88061000Y-76518000D01*
X88021000Y-75323000D02*
X88021000Y-76677000D01*
X87981000Y-75195000D02*
X87981000Y-76805000D01*
X87941000Y-75085000D02*
X87941000Y-76915000D01*
X87901000Y-74989000D02*
X87901000Y-77011000D01*
X87861000Y-74902000D02*
X87861000Y-77098000D01*
X87821000Y-74822000D02*
X87821000Y-77178000D01*
X87781000Y-77040000D02*
X87781000Y-77251000D01*
X87781000Y-74749000D02*
X87781000Y-74960000D01*
X87741000Y-77040000D02*
X87741000Y-77319000D01*
X87741000Y-74681000D02*
X87741000Y-74960000D01*
X87701000Y-77040000D02*
X87701000Y-77383000D01*
X87701000Y-74617000D02*
X87701000Y-74960000D01*
X87661000Y-77040000D02*
X87661000Y-77443000D01*
X87661000Y-74557000D02*
X87661000Y-74960000D01*
X87621000Y-77040000D02*
X87621000Y-77500000D01*
X87621000Y-74500000D02*
X87621000Y-74960000D01*
X87581000Y-77040000D02*
X87581000Y-77554000D01*
X87581000Y-74446000D02*
X87581000Y-74960000D01*
X87541000Y-77040000D02*
X87541000Y-77605000D01*
X87541000Y-74395000D02*
X87541000Y-74960000D01*
X87501000Y-77040000D02*
X87501000Y-77653000D01*
X87501000Y-74347000D02*
X87501000Y-74960000D01*
X87461000Y-77040000D02*
X87461000Y-77699000D01*
X87461000Y-74301000D02*
X87461000Y-74960000D01*
X87421000Y-77040000D02*
X87421000Y-77743000D01*
X87421000Y-74257000D02*
X87421000Y-74960000D01*
X87381000Y-77040000D02*
X87381000Y-77785000D01*
X87381000Y-74215000D02*
X87381000Y-74960000D01*
X87341000Y-77040000D02*
X87341000Y-77826000D01*
X87341000Y-74174000D02*
X87341000Y-74960000D01*
X87301000Y-77040000D02*
X87301000Y-77864000D01*
X87301000Y-74136000D02*
X87301000Y-74960000D01*
X87261000Y-77040000D02*
X87261000Y-77901000D01*
X87261000Y-74099000D02*
X87261000Y-74960000D01*
X87221000Y-77040000D02*
X87221000Y-77937000D01*
X87221000Y-74063000D02*
X87221000Y-74960000D01*
X87181000Y-77040000D02*
X87181000Y-77971000D01*
X87181000Y-74029000D02*
X87181000Y-74960000D01*
X87141000Y-77040000D02*
X87141000Y-78004000D01*
X87141000Y-73996000D02*
X87141000Y-74960000D01*
X87101000Y-77040000D02*
X87101000Y-78035000D01*
X87101000Y-73965000D02*
X87101000Y-74960000D01*
X87061000Y-77040000D02*
X87061000Y-78065000D01*
X87061000Y-73935000D02*
X87061000Y-74960000D01*
X87021000Y-77040000D02*
X87021000Y-78095000D01*
X87021000Y-73905000D02*
X87021000Y-74960000D01*
X86981000Y-77040000D02*
X86981000Y-78122000D01*
X86981000Y-73878000D02*
X86981000Y-74960000D01*
X86941000Y-77040000D02*
X86941000Y-78149000D01*
X86941000Y-73851000D02*
X86941000Y-74960000D01*
X86901000Y-77040000D02*
X86901000Y-78175000D01*
X86901000Y-73825000D02*
X86901000Y-74960000D01*
X86861000Y-77040000D02*
X86861000Y-78200000D01*
X86861000Y-73800000D02*
X86861000Y-74960000D01*
X86821000Y-77040000D02*
X86821000Y-78224000D01*
X86821000Y-73776000D02*
X86821000Y-74960000D01*
X86781000Y-77040000D02*
X86781000Y-78247000D01*
X86781000Y-73753000D02*
X86781000Y-74960000D01*
X86741000Y-77040000D02*
X86741000Y-78268000D01*
X86741000Y-73732000D02*
X86741000Y-74960000D01*
X86701000Y-77040000D02*
X86701000Y-78290000D01*
X86701000Y-73710000D02*
X86701000Y-74960000D01*
X86661000Y-77040000D02*
X86661000Y-78310000D01*
X86661000Y-73690000D02*
X86661000Y-74960000D01*
X86621000Y-77040000D02*
X86621000Y-78329000D01*
X86621000Y-73671000D02*
X86621000Y-74960000D01*
X86581000Y-77040000D02*
X86581000Y-78348000D01*
X86581000Y-73652000D02*
X86581000Y-74960000D01*
X86541000Y-77040000D02*
X86541000Y-78365000D01*
X86541000Y-73635000D02*
X86541000Y-74960000D01*
X86501000Y-77040000D02*
X86501000Y-78382000D01*
X86501000Y-73618000D02*
X86501000Y-74960000D01*
X86461000Y-77040000D02*
X86461000Y-78398000D01*
X86461000Y-73602000D02*
X86461000Y-74960000D01*
X86421000Y-77040000D02*
X86421000Y-78414000D01*
X86421000Y-73586000D02*
X86421000Y-74960000D01*
X86381000Y-77040000D02*
X86381000Y-78428000D01*
X86381000Y-73572000D02*
X86381000Y-74960000D01*
X86341000Y-77040000D02*
X86341000Y-78442000D01*
X86341000Y-73558000D02*
X86341000Y-74960000D01*
X86301000Y-77040000D02*
X86301000Y-78455000D01*
X86301000Y-73545000D02*
X86301000Y-74960000D01*
X86261000Y-77040000D02*
X86261000Y-78468000D01*
X86261000Y-73532000D02*
X86261000Y-74960000D01*
X86221000Y-77040000D02*
X86221000Y-78480000D01*
X86221000Y-73520000D02*
X86221000Y-74960000D01*
X86180000Y-77040000D02*
X86180000Y-78491000D01*
X86180000Y-73509000D02*
X86180000Y-74960000D01*
X86140000Y-77040000D02*
X86140000Y-78501000D01*
X86140000Y-73499000D02*
X86140000Y-74960000D01*
X86100000Y-77040000D02*
X86100000Y-78511000D01*
X86100000Y-73489000D02*
X86100000Y-74960000D01*
X86060000Y-77040000D02*
X86060000Y-78520000D01*
X86060000Y-73480000D02*
X86060000Y-74960000D01*
X86020000Y-77040000D02*
X86020000Y-78528000D01*
X86020000Y-73472000D02*
X86020000Y-74960000D01*
X85980000Y-77040000D02*
X85980000Y-78536000D01*
X85980000Y-73464000D02*
X85980000Y-74960000D01*
X85940000Y-77040000D02*
X85940000Y-78543000D01*
X85940000Y-73457000D02*
X85940000Y-74960000D01*
X85900000Y-77040000D02*
X85900000Y-78550000D01*
X85900000Y-73450000D02*
X85900000Y-74960000D01*
X85860000Y-77040000D02*
X85860000Y-78556000D01*
X85860000Y-73444000D02*
X85860000Y-74960000D01*
X85820000Y-77040000D02*
X85820000Y-78561000D01*
X85820000Y-73439000D02*
X85820000Y-74960000D01*
X85780000Y-77040000D02*
X85780000Y-78565000D01*
X85780000Y-73435000D02*
X85780000Y-74960000D01*
X85740000Y-77040000D02*
X85740000Y-78569000D01*
X85740000Y-73431000D02*
X85740000Y-74960000D01*
X85700000Y-73427000D02*
X85700000Y-78573000D01*
X85660000Y-73424000D02*
X85660000Y-78576000D01*
X85620000Y-73422000D02*
X85620000Y-78578000D01*
X85580000Y-73421000D02*
X85580000Y-78579000D01*
X85540000Y-73420000D02*
X85540000Y-78580000D01*
X85500000Y-73420000D02*
X85500000Y-78580000D01*
X88120000Y-76000000D02*
G75*
G03X88120000Y-76000000I-2620000J0D01*
G01*
X74945225Y-74275000D02*
X74945225Y-74775000D01*
X74695225Y-74525000D02*
X75195225Y-74525000D01*
X80101000Y-75716000D02*
X80101000Y-76284000D01*
X80061000Y-75482000D02*
X80061000Y-76518000D01*
X80021000Y-75323000D02*
X80021000Y-76677000D01*
X79981000Y-75195000D02*
X79981000Y-76805000D01*
X79941000Y-75085000D02*
X79941000Y-76915000D01*
X79901000Y-74989000D02*
X79901000Y-77011000D01*
X79861000Y-74902000D02*
X79861000Y-77098000D01*
X79821000Y-74822000D02*
X79821000Y-77178000D01*
X79781000Y-77040000D02*
X79781000Y-77251000D01*
X79781000Y-74749000D02*
X79781000Y-74960000D01*
X79741000Y-77040000D02*
X79741000Y-77319000D01*
X79741000Y-74681000D02*
X79741000Y-74960000D01*
X79701000Y-77040000D02*
X79701000Y-77383000D01*
X79701000Y-74617000D02*
X79701000Y-74960000D01*
X79661000Y-77040000D02*
X79661000Y-77443000D01*
X79661000Y-74557000D02*
X79661000Y-74960000D01*
X79621000Y-77040000D02*
X79621000Y-77500000D01*
X79621000Y-74500000D02*
X79621000Y-74960000D01*
X79581000Y-77040000D02*
X79581000Y-77554000D01*
X79581000Y-74446000D02*
X79581000Y-74960000D01*
X79541000Y-77040000D02*
X79541000Y-77605000D01*
X79541000Y-74395000D02*
X79541000Y-74960000D01*
X79501000Y-77040000D02*
X79501000Y-77653000D01*
X79501000Y-74347000D02*
X79501000Y-74960000D01*
X79461000Y-77040000D02*
X79461000Y-77699000D01*
X79461000Y-74301000D02*
X79461000Y-74960000D01*
X79421000Y-77040000D02*
X79421000Y-77743000D01*
X79421000Y-74257000D02*
X79421000Y-74960000D01*
X79381000Y-77040000D02*
X79381000Y-77785000D01*
X79381000Y-74215000D02*
X79381000Y-74960000D01*
X79341000Y-77040000D02*
X79341000Y-77826000D01*
X79341000Y-74174000D02*
X79341000Y-74960000D01*
X79301000Y-77040000D02*
X79301000Y-77864000D01*
X79301000Y-74136000D02*
X79301000Y-74960000D01*
X79261000Y-77040000D02*
X79261000Y-77901000D01*
X79261000Y-74099000D02*
X79261000Y-74960000D01*
X79221000Y-77040000D02*
X79221000Y-77937000D01*
X79221000Y-74063000D02*
X79221000Y-74960000D01*
X79181000Y-77040000D02*
X79181000Y-77971000D01*
X79181000Y-74029000D02*
X79181000Y-74960000D01*
X79141000Y-77040000D02*
X79141000Y-78004000D01*
X79141000Y-73996000D02*
X79141000Y-74960000D01*
X79101000Y-77040000D02*
X79101000Y-78035000D01*
X79101000Y-73965000D02*
X79101000Y-74960000D01*
X79061000Y-77040000D02*
X79061000Y-78065000D01*
X79061000Y-73935000D02*
X79061000Y-74960000D01*
X79021000Y-77040000D02*
X79021000Y-78095000D01*
X79021000Y-73905000D02*
X79021000Y-74960000D01*
X78981000Y-77040000D02*
X78981000Y-78122000D01*
X78981000Y-73878000D02*
X78981000Y-74960000D01*
X78941000Y-77040000D02*
X78941000Y-78149000D01*
X78941000Y-73851000D02*
X78941000Y-74960000D01*
X78901000Y-77040000D02*
X78901000Y-78175000D01*
X78901000Y-73825000D02*
X78901000Y-74960000D01*
X78861000Y-77040000D02*
X78861000Y-78200000D01*
X78861000Y-73800000D02*
X78861000Y-74960000D01*
X78821000Y-77040000D02*
X78821000Y-78224000D01*
X78821000Y-73776000D02*
X78821000Y-74960000D01*
X78781000Y-77040000D02*
X78781000Y-78247000D01*
X78781000Y-73753000D02*
X78781000Y-74960000D01*
X78741000Y-77040000D02*
X78741000Y-78268000D01*
X78741000Y-73732000D02*
X78741000Y-74960000D01*
X78701000Y-77040000D02*
X78701000Y-78290000D01*
X78701000Y-73710000D02*
X78701000Y-74960000D01*
X78661000Y-77040000D02*
X78661000Y-78310000D01*
X78661000Y-73690000D02*
X78661000Y-74960000D01*
X78621000Y-77040000D02*
X78621000Y-78329000D01*
X78621000Y-73671000D02*
X78621000Y-74960000D01*
X78581000Y-77040000D02*
X78581000Y-78348000D01*
X78581000Y-73652000D02*
X78581000Y-74960000D01*
X78541000Y-77040000D02*
X78541000Y-78365000D01*
X78541000Y-73635000D02*
X78541000Y-74960000D01*
X78501000Y-77040000D02*
X78501000Y-78382000D01*
X78501000Y-73618000D02*
X78501000Y-74960000D01*
X78461000Y-77040000D02*
X78461000Y-78398000D01*
X78461000Y-73602000D02*
X78461000Y-74960000D01*
X78421000Y-77040000D02*
X78421000Y-78414000D01*
X78421000Y-73586000D02*
X78421000Y-74960000D01*
X78381000Y-77040000D02*
X78381000Y-78428000D01*
X78381000Y-73572000D02*
X78381000Y-74960000D01*
X78341000Y-77040000D02*
X78341000Y-78442000D01*
X78341000Y-73558000D02*
X78341000Y-74960000D01*
X78301000Y-77040000D02*
X78301000Y-78455000D01*
X78301000Y-73545000D02*
X78301000Y-74960000D01*
X78261000Y-77040000D02*
X78261000Y-78468000D01*
X78261000Y-73532000D02*
X78261000Y-74960000D01*
X78221000Y-77040000D02*
X78221000Y-78480000D01*
X78221000Y-73520000D02*
X78221000Y-74960000D01*
X78180000Y-77040000D02*
X78180000Y-78491000D01*
X78180000Y-73509000D02*
X78180000Y-74960000D01*
X78140000Y-77040000D02*
X78140000Y-78501000D01*
X78140000Y-73499000D02*
X78140000Y-74960000D01*
X78100000Y-77040000D02*
X78100000Y-78511000D01*
X78100000Y-73489000D02*
X78100000Y-74960000D01*
X78060000Y-77040000D02*
X78060000Y-78520000D01*
X78060000Y-73480000D02*
X78060000Y-74960000D01*
X78020000Y-77040000D02*
X78020000Y-78528000D01*
X78020000Y-73472000D02*
X78020000Y-74960000D01*
X77980000Y-77040000D02*
X77980000Y-78536000D01*
X77980000Y-73464000D02*
X77980000Y-74960000D01*
X77940000Y-77040000D02*
X77940000Y-78543000D01*
X77940000Y-73457000D02*
X77940000Y-74960000D01*
X77900000Y-77040000D02*
X77900000Y-78550000D01*
X77900000Y-73450000D02*
X77900000Y-74960000D01*
X77860000Y-77040000D02*
X77860000Y-78556000D01*
X77860000Y-73444000D02*
X77860000Y-74960000D01*
X77820000Y-77040000D02*
X77820000Y-78561000D01*
X77820000Y-73439000D02*
X77820000Y-74960000D01*
X77780000Y-77040000D02*
X77780000Y-78565000D01*
X77780000Y-73435000D02*
X77780000Y-74960000D01*
X77740000Y-77040000D02*
X77740000Y-78569000D01*
X77740000Y-73431000D02*
X77740000Y-74960000D01*
X77700000Y-73427000D02*
X77700000Y-78573000D01*
X77660000Y-73424000D02*
X77660000Y-78576000D01*
X77620000Y-73422000D02*
X77620000Y-78578000D01*
X77580000Y-73421000D02*
X77580000Y-78579000D01*
X77540000Y-73420000D02*
X77540000Y-78580000D01*
X77500000Y-73420000D02*
X77500000Y-78580000D01*
X80120000Y-76000000D02*
G75*
G03X80120000Y-76000000I-2620000J0D01*
G01*
X84990302Y-123535000D02*
X84990302Y-124335000D01*
X84590302Y-123935000D02*
X85390302Y-123935000D01*
X93081000Y-125717000D02*
X93081000Y-126783000D01*
X93041000Y-125482000D02*
X93041000Y-127018000D01*
X93001000Y-125302000D02*
X93001000Y-127198000D01*
X92961000Y-125152000D02*
X92961000Y-127348000D01*
X92921000Y-125021000D02*
X92921000Y-127479000D01*
X92881000Y-124904000D02*
X92881000Y-127596000D01*
X92841000Y-124797000D02*
X92841000Y-127703000D01*
X92801000Y-124698000D02*
X92801000Y-127802000D01*
X92761000Y-124605000D02*
X92761000Y-127895000D01*
X92721000Y-124519000D02*
X92721000Y-127981000D01*
X92681000Y-124437000D02*
X92681000Y-128063000D01*
X92641000Y-124360000D02*
X92641000Y-128140000D01*
X92601000Y-124286000D02*
X92601000Y-128214000D01*
X92561000Y-124216000D02*
X92561000Y-128284000D01*
X92521000Y-124148000D02*
X92521000Y-128352000D01*
X92481000Y-124084000D02*
X92481000Y-128416000D01*
X92441000Y-124022000D02*
X92441000Y-128478000D01*
X92401000Y-123963000D02*
X92401000Y-128537000D01*
X92361000Y-123905000D02*
X92361000Y-128595000D01*
X92321000Y-123850000D02*
X92321000Y-128650000D01*
X92281000Y-123796000D02*
X92281000Y-128704000D01*
X92241000Y-123745000D02*
X92241000Y-128755000D01*
X92201000Y-123694000D02*
X92201000Y-128806000D01*
X92161000Y-123646000D02*
X92161000Y-128854000D01*
X92121000Y-123599000D02*
X92121000Y-128901000D01*
X92081000Y-123553000D02*
X92081000Y-128947000D01*
X92041000Y-123509000D02*
X92041000Y-128991000D01*
X92001000Y-123466000D02*
X92001000Y-129034000D01*
X91961000Y-123424000D02*
X91961000Y-129076000D01*
X91921000Y-123383000D02*
X91921000Y-129117000D01*
X91881000Y-123343000D02*
X91881000Y-129157000D01*
X91841000Y-123305000D02*
X91841000Y-129195000D01*
X91801000Y-123267000D02*
X91801000Y-129233000D01*
X91761000Y-123231000D02*
X91761000Y-129269000D01*
X91721000Y-123195000D02*
X91721000Y-129305000D01*
X91681000Y-123160000D02*
X91681000Y-129340000D01*
X91641000Y-123126000D02*
X91641000Y-129374000D01*
X91601000Y-123094000D02*
X91601000Y-129406000D01*
X91561000Y-123061000D02*
X91561000Y-129439000D01*
X91521000Y-123030000D02*
X91521000Y-129470000D01*
X91481000Y-123000000D02*
X91481000Y-129500000D01*
X91441000Y-122970000D02*
X91441000Y-129530000D01*
X91401000Y-122941000D02*
X91401000Y-129559000D01*
X91361000Y-122912000D02*
X91361000Y-129588000D01*
X91321000Y-122885000D02*
X91321000Y-129615000D01*
X91281000Y-127290000D02*
X91281000Y-129642000D01*
X91281000Y-122858000D02*
X91281000Y-125210000D01*
X91241000Y-127290000D02*
X91241000Y-129668000D01*
X91241000Y-122832000D02*
X91241000Y-125210000D01*
X91201000Y-127290000D02*
X91201000Y-129694000D01*
X91201000Y-122806000D02*
X91201000Y-125210000D01*
X91161000Y-127290000D02*
X91161000Y-129719000D01*
X91161000Y-122781000D02*
X91161000Y-125210000D01*
X91121000Y-127290000D02*
X91121000Y-129743000D01*
X91121000Y-122757000D02*
X91121000Y-125210000D01*
X91081000Y-127290000D02*
X91081000Y-129767000D01*
X91081000Y-122733000D02*
X91081000Y-125210000D01*
X91041000Y-127290000D02*
X91041000Y-129790000D01*
X91041000Y-122710000D02*
X91041000Y-125210000D01*
X91001000Y-127290000D02*
X91001000Y-129812000D01*
X91001000Y-122688000D02*
X91001000Y-125210000D01*
X90961000Y-127290000D02*
X90961000Y-129834000D01*
X90961000Y-122666000D02*
X90961000Y-125210000D01*
X90921000Y-127290000D02*
X90921000Y-129856000D01*
X90921000Y-122644000D02*
X90921000Y-125210000D01*
X90881000Y-127290000D02*
X90881000Y-129877000D01*
X90881000Y-122623000D02*
X90881000Y-125210000D01*
X90841000Y-127290000D02*
X90841000Y-129897000D01*
X90841000Y-122603000D02*
X90841000Y-125210000D01*
X90801000Y-127290000D02*
X90801000Y-129916000D01*
X90801000Y-122584000D02*
X90801000Y-125210000D01*
X90761000Y-127290000D02*
X90761000Y-129936000D01*
X90761000Y-122564000D02*
X90761000Y-125210000D01*
X90721000Y-127290000D02*
X90721000Y-129954000D01*
X90721000Y-122546000D02*
X90721000Y-125210000D01*
X90681000Y-127290000D02*
X90681000Y-129972000D01*
X90681000Y-122528000D02*
X90681000Y-125210000D01*
X90641000Y-127290000D02*
X90641000Y-129990000D01*
X90641000Y-122510000D02*
X90641000Y-125210000D01*
X90601000Y-127290000D02*
X90601000Y-130007000D01*
X90601000Y-122493000D02*
X90601000Y-125210000D01*
X90561000Y-127290000D02*
X90561000Y-130024000D01*
X90561000Y-122476000D02*
X90561000Y-125210000D01*
X90521000Y-127290000D02*
X90521000Y-130040000D01*
X90521000Y-122460000D02*
X90521000Y-125210000D01*
X90481000Y-127290000D02*
X90481000Y-130055000D01*
X90481000Y-122445000D02*
X90481000Y-125210000D01*
X90441000Y-127290000D02*
X90441000Y-130071000D01*
X90441000Y-122429000D02*
X90441000Y-125210000D01*
X90401000Y-127290000D02*
X90401000Y-130085000D01*
X90401000Y-122415000D02*
X90401000Y-125210000D01*
X90361000Y-127290000D02*
X90361000Y-130100000D01*
X90361000Y-122400000D02*
X90361000Y-125210000D01*
X90321000Y-127290000D02*
X90321000Y-130113000D01*
X90321000Y-122387000D02*
X90321000Y-125210000D01*
X90281000Y-127290000D02*
X90281000Y-130127000D01*
X90281000Y-122373000D02*
X90281000Y-125210000D01*
X90241000Y-127290000D02*
X90241000Y-130139000D01*
X90241000Y-122361000D02*
X90241000Y-125210000D01*
X90201000Y-127290000D02*
X90201000Y-130152000D01*
X90201000Y-122348000D02*
X90201000Y-125210000D01*
X90161000Y-127290000D02*
X90161000Y-130164000D01*
X90161000Y-122336000D02*
X90161000Y-125210000D01*
X90121000Y-127290000D02*
X90121000Y-130175000D01*
X90121000Y-122325000D02*
X90121000Y-125210000D01*
X90081000Y-127290000D02*
X90081000Y-130186000D01*
X90081000Y-122314000D02*
X90081000Y-125210000D01*
X90041000Y-127290000D02*
X90041000Y-130197000D01*
X90041000Y-122303000D02*
X90041000Y-125210000D01*
X90001000Y-127290000D02*
X90001000Y-130207000D01*
X90001000Y-122293000D02*
X90001000Y-125210000D01*
X89961000Y-127290000D02*
X89961000Y-130217000D01*
X89961000Y-122283000D02*
X89961000Y-125210000D01*
X89921000Y-127290000D02*
X89921000Y-130226000D01*
X89921000Y-122274000D02*
X89921000Y-125210000D01*
X89881000Y-127290000D02*
X89881000Y-130235000D01*
X89881000Y-122265000D02*
X89881000Y-125210000D01*
X89841000Y-127290000D02*
X89841000Y-130244000D01*
X89841000Y-122256000D02*
X89841000Y-125210000D01*
X89801000Y-127290000D02*
X89801000Y-130252000D01*
X89801000Y-122248000D02*
X89801000Y-125210000D01*
X89761000Y-127290000D02*
X89761000Y-130260000D01*
X89761000Y-122240000D02*
X89761000Y-125210000D01*
X89721000Y-127290000D02*
X89721000Y-130267000D01*
X89721000Y-122233000D02*
X89721000Y-125210000D01*
X89680000Y-127290000D02*
X89680000Y-130274000D01*
X89680000Y-122226000D02*
X89680000Y-125210000D01*
X89640000Y-127290000D02*
X89640000Y-130280000D01*
X89640000Y-122220000D02*
X89640000Y-125210000D01*
X89600000Y-127290000D02*
X89600000Y-130287000D01*
X89600000Y-122213000D02*
X89600000Y-125210000D01*
X89560000Y-127290000D02*
X89560000Y-130292000D01*
X89560000Y-122208000D02*
X89560000Y-125210000D01*
X89520000Y-127290000D02*
X89520000Y-130298000D01*
X89520000Y-122202000D02*
X89520000Y-125210000D01*
X89480000Y-127290000D02*
X89480000Y-130302000D01*
X89480000Y-122198000D02*
X89480000Y-125210000D01*
X89440000Y-127290000D02*
X89440000Y-130307000D01*
X89440000Y-122193000D02*
X89440000Y-125210000D01*
X89400000Y-127290000D02*
X89400000Y-130311000D01*
X89400000Y-122189000D02*
X89400000Y-125210000D01*
X89360000Y-127290000D02*
X89360000Y-130315000D01*
X89360000Y-122185000D02*
X89360000Y-125210000D01*
X89320000Y-127290000D02*
X89320000Y-130318000D01*
X89320000Y-122182000D02*
X89320000Y-125210000D01*
X89280000Y-127290000D02*
X89280000Y-130321000D01*
X89280000Y-122179000D02*
X89280000Y-125210000D01*
X89240000Y-127290000D02*
X89240000Y-130324000D01*
X89240000Y-122176000D02*
X89240000Y-125210000D01*
X89200000Y-122174000D02*
X89200000Y-130326000D01*
X89160000Y-122173000D02*
X89160000Y-130327000D01*
X89120000Y-122171000D02*
X89120000Y-130329000D01*
X89080000Y-122170000D02*
X89080000Y-130330000D01*
X89040000Y-122170000D02*
X89040000Y-130330000D01*
X89000000Y-122170000D02*
X89000000Y-130330000D01*
X93120000Y-126250000D02*
G75*
G03X93120000Y-126250000I-4120000J0D01*
G01*
X76371000Y-68170000D02*
X77629000Y-68170000D01*
X76371000Y-66330000D02*
X77629000Y-66330000D01*
D11*
X204866666Y-34622380D02*
X204866666Y-35336666D01*
X204819047Y-35479523D01*
X204723809Y-35574761D01*
X204580952Y-35622380D01*
X204485714Y-35622380D01*
X205485714Y-35050952D02*
X205390476Y-35003333D01*
X205342857Y-34955714D01*
X205295238Y-34860476D01*
X205295238Y-34812857D01*
X205342857Y-34717619D01*
X205390476Y-34670000D01*
X205485714Y-34622380D01*
X205676190Y-34622380D01*
X205771428Y-34670000D01*
X205819047Y-34717619D01*
X205866666Y-34812857D01*
X205866666Y-34860476D01*
X205819047Y-34955714D01*
X205771428Y-35003333D01*
X205676190Y-35050952D01*
X205485714Y-35050952D01*
X205390476Y-35098571D01*
X205342857Y-35146190D01*
X205295238Y-35241428D01*
X205295238Y-35431904D01*
X205342857Y-35527142D01*
X205390476Y-35574761D01*
X205485714Y-35622380D01*
X205676190Y-35622380D01*
X205771428Y-35574761D01*
X205819047Y-35527142D01*
X205866666Y-35431904D01*
X205866666Y-35241428D01*
X205819047Y-35146190D01*
X205771428Y-35098571D01*
X205676190Y-35050952D01*
X198641666Y-34622380D02*
X198641666Y-35336666D01*
X198594047Y-35479523D01*
X198498809Y-35574761D01*
X198355952Y-35622380D01*
X198260714Y-35622380D01*
X199022619Y-34622380D02*
X199689285Y-34622380D01*
X199260714Y-35622380D01*
X192416666Y-34622380D02*
X192416666Y-35336666D01*
X192369047Y-35479523D01*
X192273809Y-35574761D01*
X192130952Y-35622380D01*
X192035714Y-35622380D01*
X193321428Y-34622380D02*
X193130952Y-34622380D01*
X193035714Y-34670000D01*
X192988095Y-34717619D01*
X192892857Y-34860476D01*
X192845238Y-35050952D01*
X192845238Y-35431904D01*
X192892857Y-35527142D01*
X192940476Y-35574761D01*
X193035714Y-35622380D01*
X193226190Y-35622380D01*
X193321428Y-35574761D01*
X193369047Y-35527142D01*
X193416666Y-35431904D01*
X193416666Y-35193809D01*
X193369047Y-35098571D01*
X193321428Y-35050952D01*
X193226190Y-35003333D01*
X193035714Y-35003333D01*
X192940476Y-35050952D01*
X192892857Y-35098571D01*
X192845238Y-35193809D01*
X174365904Y-140218380D02*
X175032571Y-141218380D01*
X175032571Y-140218380D02*
X174365904Y-141218380D01*
X175365904Y-140932666D02*
X175842095Y-140932666D01*
X175270666Y-141218380D02*
X175604000Y-140218380D01*
X175937333Y-141218380D01*
X176794476Y-141218380D02*
X176223047Y-141218380D01*
X176508761Y-141218380D02*
X176508761Y-140218380D01*
X176413523Y-140361238D01*
X176318285Y-140456476D01*
X176223047Y-140504095D01*
D12*
X175076190Y-134138095D02*
X175076190Y-133828571D01*
X175266666Y-133995238D01*
X175266666Y-133923809D01*
X175290476Y-133876190D01*
X175314285Y-133852380D01*
X175361904Y-133828571D01*
X175480952Y-133828571D01*
X175528571Y-133852380D01*
X175552380Y-133876190D01*
X175576190Y-133923809D01*
X175576190Y-134066666D01*
X175552380Y-134114285D01*
X175528571Y-134138095D01*
X175528571Y-133614285D02*
X175552380Y-133590476D01*
X175576190Y-133614285D01*
X175552380Y-133638095D01*
X175528571Y-133614285D01*
X175576190Y-133614285D01*
X175076190Y-133423809D02*
X175076190Y-133114285D01*
X175266666Y-133280952D01*
X175266666Y-133209523D01*
X175290476Y-133161904D01*
X175314285Y-133138095D01*
X175361904Y-133114285D01*
X175480952Y-133114285D01*
X175528571Y-133138095D01*
X175552380Y-133161904D01*
X175576190Y-133209523D01*
X175576190Y-133352380D01*
X175552380Y-133400000D01*
X175528571Y-133423809D01*
X175076190Y-132971428D02*
X175576190Y-132804761D01*
X175076190Y-132638095D01*
X168369047Y-140111190D02*
X168369047Y-140515952D01*
X168392857Y-140563571D01*
X168416666Y-140587380D01*
X168464285Y-140611190D01*
X168559523Y-140611190D01*
X168607142Y-140587380D01*
X168630952Y-140563571D01*
X168654761Y-140515952D01*
X168654761Y-140111190D01*
X168869047Y-140587380D02*
X168940476Y-140611190D01*
X169059523Y-140611190D01*
X169107142Y-140587380D01*
X169130952Y-140563571D01*
X169154761Y-140515952D01*
X169154761Y-140468333D01*
X169130952Y-140420714D01*
X169107142Y-140396904D01*
X169059523Y-140373095D01*
X168964285Y-140349285D01*
X168916666Y-140325476D01*
X168892857Y-140301666D01*
X168869047Y-140254047D01*
X168869047Y-140206428D01*
X168892857Y-140158809D01*
X168916666Y-140135000D01*
X168964285Y-140111190D01*
X169083333Y-140111190D01*
X169154761Y-140135000D01*
X169535714Y-140349285D02*
X169607142Y-140373095D01*
X169630952Y-140396904D01*
X169654761Y-140444523D01*
X169654761Y-140515952D01*
X169630952Y-140563571D01*
X169607142Y-140587380D01*
X169559523Y-140611190D01*
X169369047Y-140611190D01*
X169369047Y-140111190D01*
X169535714Y-140111190D01*
X169583333Y-140135000D01*
X169607142Y-140158809D01*
X169630952Y-140206428D01*
X169630952Y-140254047D01*
X169607142Y-140301666D01*
X169583333Y-140325476D01*
X169535714Y-140349285D01*
X169369047Y-140349285D01*
D11*
X138011904Y-132502380D02*
X138011904Y-133311904D01*
X138059523Y-133407142D01*
X138107142Y-133454761D01*
X138202380Y-133502380D01*
X138392857Y-133502380D01*
X138488095Y-133454761D01*
X138535714Y-133407142D01*
X138583333Y-133311904D01*
X138583333Y-132502380D01*
X139011904Y-132597619D02*
X139059523Y-132550000D01*
X139154761Y-132502380D01*
X139392857Y-132502380D01*
X139488095Y-132550000D01*
X139535714Y-132597619D01*
X139583333Y-132692857D01*
X139583333Y-132788095D01*
X139535714Y-132930952D01*
X138964285Y-133502380D01*
X139583333Y-133502380D01*
X140535714Y-133502380D02*
X139964285Y-133502380D01*
X140250000Y-133502380D02*
X140250000Y-132502380D01*
X140154761Y-132645238D01*
X140059523Y-132740476D01*
X139964285Y-132788095D01*
X168161904Y-29852380D02*
X168161904Y-30661904D01*
X168209523Y-30757142D01*
X168257142Y-30804761D01*
X168352380Y-30852380D01*
X168542857Y-30852380D01*
X168638095Y-30804761D01*
X168685714Y-30757142D01*
X168733333Y-30661904D01*
X168733333Y-29852380D01*
X169733333Y-30852380D02*
X169161904Y-30852380D01*
X169447619Y-30852380D02*
X169447619Y-29852380D01*
X169352380Y-29995238D01*
X169257142Y-30090476D01*
X169161904Y-30138095D01*
X170638095Y-29852380D02*
X170161904Y-29852380D01*
X170114285Y-30328571D01*
X170161904Y-30280952D01*
X170257142Y-30233333D01*
X170495238Y-30233333D01*
X170590476Y-30280952D01*
X170638095Y-30328571D01*
X170685714Y-30423809D01*
X170685714Y-30661904D01*
X170638095Y-30757142D01*
X170590476Y-30804761D01*
X170495238Y-30852380D01*
X170257142Y-30852380D01*
X170161904Y-30804761D01*
X170114285Y-30757142D01*
X164676190Y-32252380D02*
X164676190Y-31252380D01*
X165057142Y-31252380D01*
X165152380Y-31300000D01*
X165200000Y-31347619D01*
X165247619Y-31442857D01*
X165247619Y-31585714D01*
X165200000Y-31680952D01*
X165152380Y-31728571D01*
X165057142Y-31776190D01*
X164676190Y-31776190D01*
X165819047Y-32252380D02*
X165723809Y-32204761D01*
X165676190Y-32157142D01*
X165628571Y-32061904D01*
X165628571Y-31776190D01*
X165676190Y-31680952D01*
X165723809Y-31633333D01*
X165819047Y-31585714D01*
X165961904Y-31585714D01*
X166057142Y-31633333D01*
X166104761Y-31680952D01*
X166152380Y-31776190D01*
X166152380Y-32061904D01*
X166104761Y-32157142D01*
X166057142Y-32204761D01*
X165961904Y-32252380D01*
X165819047Y-32252380D01*
X166485714Y-31585714D02*
X166676190Y-32252380D01*
X166866666Y-31776190D01*
X167057142Y-32252380D01*
X167247619Y-31585714D01*
X168009523Y-32204761D02*
X167914285Y-32252380D01*
X167723809Y-32252380D01*
X167628571Y-32204761D01*
X167580952Y-32109523D01*
X167580952Y-31728571D01*
X167628571Y-31633333D01*
X167723809Y-31585714D01*
X167914285Y-31585714D01*
X168009523Y-31633333D01*
X168057142Y-31728571D01*
X168057142Y-31823809D01*
X167580952Y-31919047D01*
X168485714Y-32252380D02*
X168485714Y-31585714D01*
X168485714Y-31776190D02*
X168533333Y-31680952D01*
X168580952Y-31633333D01*
X168676190Y-31585714D01*
X168771428Y-31585714D01*
X169104761Y-31871428D02*
X169866666Y-31871428D01*
X170676190Y-31728571D02*
X170819047Y-31776190D01*
X170866666Y-31823809D01*
X170914285Y-31919047D01*
X170914285Y-32061904D01*
X170866666Y-32157142D01*
X170819047Y-32204761D01*
X170723809Y-32252380D01*
X170342857Y-32252380D01*
X170342857Y-31252380D01*
X170676190Y-31252380D01*
X170771428Y-31300000D01*
X170819047Y-31347619D01*
X170866666Y-31442857D01*
X170866666Y-31538095D01*
X170819047Y-31633333D01*
X170771428Y-31680952D01*
X170676190Y-31728571D01*
X170342857Y-31728571D01*
X171771428Y-31585714D02*
X171771428Y-32252380D01*
X171342857Y-31585714D02*
X171342857Y-32109523D01*
X171390476Y-32204761D01*
X171485714Y-32252380D01*
X171628571Y-32252380D01*
X171723809Y-32204761D01*
X171771428Y-32157142D01*
X172104761Y-31585714D02*
X172485714Y-31585714D01*
X172247619Y-31252380D02*
X172247619Y-32109523D01*
X172295238Y-32204761D01*
X172390476Y-32252380D01*
X172485714Y-32252380D01*
X172676190Y-31585714D02*
X173057142Y-31585714D01*
X172819047Y-31252380D02*
X172819047Y-32109523D01*
X172866666Y-32204761D01*
X172961904Y-32252380D01*
X173057142Y-32252380D01*
X173533333Y-32252380D02*
X173438095Y-32204761D01*
X173390476Y-32157142D01*
X173342857Y-32061904D01*
X173342857Y-31776190D01*
X173390476Y-31680952D01*
X173438095Y-31633333D01*
X173533333Y-31585714D01*
X173676190Y-31585714D01*
X173771428Y-31633333D01*
X173819047Y-31680952D01*
X173866666Y-31776190D01*
X173866666Y-32061904D01*
X173819047Y-32157142D01*
X173771428Y-32204761D01*
X173676190Y-32252380D01*
X173533333Y-32252380D01*
X174295238Y-31585714D02*
X174295238Y-32252380D01*
X174295238Y-31680952D02*
X174342857Y-31633333D01*
X174438095Y-31585714D01*
X174580952Y-31585714D01*
X174676190Y-31633333D01*
X174723809Y-31728571D01*
X174723809Y-32252380D01*
X150638095Y-31652380D02*
X150638095Y-32461904D01*
X150685714Y-32557142D01*
X150733333Y-32604761D01*
X150828571Y-32652380D01*
X151019047Y-32652380D01*
X151114285Y-32604761D01*
X151161904Y-32557142D01*
X151209523Y-32461904D01*
X151209523Y-31652380D01*
X151590476Y-31652380D02*
X152257142Y-31652380D01*
X151828571Y-32652380D01*
X144585714Y-33357142D02*
X144538095Y-33404761D01*
X144395238Y-33452380D01*
X144300000Y-33452380D01*
X144157142Y-33404761D01*
X144061904Y-33309523D01*
X144014285Y-33214285D01*
X143966666Y-33023809D01*
X143966666Y-32880952D01*
X144014285Y-32690476D01*
X144061904Y-32595238D01*
X144157142Y-32500000D01*
X144300000Y-32452380D01*
X144395238Y-32452380D01*
X144538095Y-32500000D01*
X144585714Y-32547619D01*
X145157142Y-33452380D02*
X145061904Y-33404761D01*
X145014285Y-33357142D01*
X144966666Y-33261904D01*
X144966666Y-32976190D01*
X145014285Y-32880952D01*
X145061904Y-32833333D01*
X145157142Y-32785714D01*
X145300000Y-32785714D01*
X145395238Y-32833333D01*
X145442857Y-32880952D01*
X145490476Y-32976190D01*
X145490476Y-33261904D01*
X145442857Y-33357142D01*
X145395238Y-33404761D01*
X145300000Y-33452380D01*
X145157142Y-33452380D01*
X145919047Y-32785714D02*
X145919047Y-33452380D01*
X145919047Y-32880952D02*
X145966666Y-32833333D01*
X146061904Y-32785714D01*
X146204761Y-32785714D01*
X146300000Y-32833333D01*
X146347619Y-32928571D01*
X146347619Y-33452380D01*
X146823809Y-32785714D02*
X146823809Y-33452380D01*
X146823809Y-32880952D02*
X146871428Y-32833333D01*
X146966666Y-32785714D01*
X147109523Y-32785714D01*
X147204761Y-32833333D01*
X147252380Y-32928571D01*
X147252380Y-33452380D01*
X148109523Y-33404761D02*
X148014285Y-33452380D01*
X147823809Y-33452380D01*
X147728571Y-33404761D01*
X147680952Y-33309523D01*
X147680952Y-32928571D01*
X147728571Y-32833333D01*
X147823809Y-32785714D01*
X148014285Y-32785714D01*
X148109523Y-32833333D01*
X148157142Y-32928571D01*
X148157142Y-33023809D01*
X147680952Y-33119047D01*
X149014285Y-33404761D02*
X148919047Y-33452380D01*
X148728571Y-33452380D01*
X148633333Y-33404761D01*
X148585714Y-33357142D01*
X148538095Y-33261904D01*
X148538095Y-32976190D01*
X148585714Y-32880952D01*
X148633333Y-32833333D01*
X148728571Y-32785714D01*
X148919047Y-32785714D01*
X149014285Y-32833333D01*
X149300000Y-32785714D02*
X149680952Y-32785714D01*
X149442857Y-32452380D02*
X149442857Y-33309523D01*
X149490476Y-33404761D01*
X149585714Y-33452380D01*
X149680952Y-33452380D01*
X150157142Y-33452380D02*
X150061904Y-33404761D01*
X150014285Y-33357142D01*
X149966666Y-33261904D01*
X149966666Y-32976190D01*
X150014285Y-32880952D01*
X150061904Y-32833333D01*
X150157142Y-32785714D01*
X150300000Y-32785714D01*
X150395238Y-32833333D01*
X150442857Y-32880952D01*
X150490476Y-32976190D01*
X150490476Y-33261904D01*
X150442857Y-33357142D01*
X150395238Y-33404761D01*
X150300000Y-33452380D01*
X150157142Y-33452380D01*
X150919047Y-33452380D02*
X150919047Y-32785714D01*
X150919047Y-32976190D02*
X150966666Y-32880952D01*
X151014285Y-32833333D01*
X151109523Y-32785714D01*
X151204761Y-32785714D01*
X152014285Y-33452380D02*
X151538095Y-33452380D01*
X151538095Y-32452380D01*
X152776190Y-33452380D02*
X152776190Y-32928571D01*
X152728571Y-32833333D01*
X152633333Y-32785714D01*
X152442857Y-32785714D01*
X152347619Y-32833333D01*
X152776190Y-33404761D02*
X152680952Y-33452380D01*
X152442857Y-33452380D01*
X152347619Y-33404761D01*
X152300000Y-33309523D01*
X152300000Y-33214285D01*
X152347619Y-33119047D01*
X152442857Y-33071428D01*
X152680952Y-33071428D01*
X152776190Y-33023809D01*
X153252380Y-33452380D02*
X153252380Y-32452380D01*
X153252380Y-32833333D02*
X153347619Y-32785714D01*
X153538095Y-32785714D01*
X153633333Y-32833333D01*
X153680952Y-32880952D01*
X153728571Y-32976190D01*
X153728571Y-33261904D01*
X153680952Y-33357142D01*
X153633333Y-33404761D01*
X153538095Y-33452380D01*
X153347619Y-33452380D01*
X153252380Y-33404761D01*
X154300000Y-33452380D02*
X154204761Y-33404761D01*
X154157142Y-33357142D01*
X154109523Y-33261904D01*
X154109523Y-32976190D01*
X154157142Y-32880952D01*
X154204761Y-32833333D01*
X154300000Y-32785714D01*
X154442857Y-32785714D01*
X154538095Y-32833333D01*
X154585714Y-32880952D01*
X154633333Y-32976190D01*
X154633333Y-33261904D01*
X154585714Y-33357142D01*
X154538095Y-33404761D01*
X154442857Y-33452380D01*
X154300000Y-33452380D01*
X155061904Y-33452380D02*
X155061904Y-32785714D01*
X155061904Y-32976190D02*
X155109523Y-32880952D01*
X155157142Y-32833333D01*
X155252380Y-32785714D01*
X155347619Y-32785714D01*
X156014285Y-32928571D02*
X156157142Y-32976190D01*
X156204761Y-33023809D01*
X156252380Y-33119047D01*
X156252380Y-33261904D01*
X156204761Y-33357142D01*
X156157142Y-33404761D01*
X156061904Y-33452380D01*
X155680952Y-33452380D01*
X155680952Y-32452380D01*
X156014285Y-32452380D01*
X156109523Y-32500000D01*
X156157142Y-32547619D01*
X156204761Y-32642857D01*
X156204761Y-32738095D01*
X156157142Y-32833333D01*
X156109523Y-32880952D01*
X156014285Y-32928571D01*
X155680952Y-32928571D01*
X157061904Y-33404761D02*
X156966666Y-33452380D01*
X156776190Y-33452380D01*
X156680952Y-33404761D01*
X156633333Y-33309523D01*
X156633333Y-32928571D01*
X156680952Y-32833333D01*
X156776190Y-32785714D01*
X156966666Y-32785714D01*
X157061904Y-32833333D01*
X157109523Y-32928571D01*
X157109523Y-33023809D01*
X156633333Y-33119047D01*
X157538095Y-33452380D02*
X157538095Y-32785714D01*
X157538095Y-32976190D02*
X157585714Y-32880952D01*
X157633333Y-32833333D01*
X157728571Y-32785714D01*
X157823809Y-32785714D01*
X158300000Y-33452380D02*
X158204761Y-33404761D01*
X158157142Y-33309523D01*
X158157142Y-32452380D01*
X158680952Y-33452380D02*
X158680952Y-32785714D01*
X158680952Y-32452380D02*
X158633333Y-32500000D01*
X158680952Y-32547619D01*
X158728571Y-32500000D01*
X158680952Y-32452380D01*
X158680952Y-32547619D01*
X159157142Y-32785714D02*
X159157142Y-33452380D01*
X159157142Y-32880952D02*
X159204761Y-32833333D01*
X159300000Y-32785714D01*
X159442857Y-32785714D01*
X159538095Y-32833333D01*
X159585714Y-32928571D01*
X159585714Y-33452380D01*
X189298095Y-79122380D02*
X189298095Y-79931904D01*
X189345714Y-80027142D01*
X189393333Y-80074761D01*
X189488571Y-80122380D01*
X189679047Y-80122380D01*
X189774285Y-80074761D01*
X189821904Y-80027142D01*
X189869523Y-79931904D01*
X189869523Y-79122380D01*
X190774285Y-79122380D02*
X190583809Y-79122380D01*
X190488571Y-79170000D01*
X190440952Y-79217619D01*
X190345714Y-79360476D01*
X190298095Y-79550952D01*
X190298095Y-79931904D01*
X190345714Y-80027142D01*
X190393333Y-80074761D01*
X190488571Y-80122380D01*
X190679047Y-80122380D01*
X190774285Y-80074761D01*
X190821904Y-80027142D01*
X190869523Y-79931904D01*
X190869523Y-79693809D01*
X190821904Y-79598571D01*
X190774285Y-79550952D01*
X190679047Y-79503333D01*
X190488571Y-79503333D01*
X190393333Y-79550952D01*
X190345714Y-79598571D01*
X190298095Y-79693809D01*
X177758095Y-52642380D02*
X177758095Y-53451904D01*
X177805714Y-53547142D01*
X177853333Y-53594761D01*
X177948571Y-53642380D01*
X178139047Y-53642380D01*
X178234285Y-53594761D01*
X178281904Y-53547142D01*
X178329523Y-53451904D01*
X178329523Y-52642380D01*
X179281904Y-52642380D02*
X178805714Y-52642380D01*
X178758095Y-53118571D01*
X178805714Y-53070952D01*
X178900952Y-53023333D01*
X179139047Y-53023333D01*
X179234285Y-53070952D01*
X179281904Y-53118571D01*
X179329523Y-53213809D01*
X179329523Y-53451904D01*
X179281904Y-53547142D01*
X179234285Y-53594761D01*
X179139047Y-53642380D01*
X178900952Y-53642380D01*
X178805714Y-53594761D01*
X178758095Y-53547142D01*
X121838095Y-30752380D02*
X121838095Y-31561904D01*
X121885714Y-31657142D01*
X121933333Y-31704761D01*
X122028571Y-31752380D01*
X122219047Y-31752380D01*
X122314285Y-31704761D01*
X122361904Y-31657142D01*
X122409523Y-31561904D01*
X122409523Y-30752380D01*
X123314285Y-31085714D02*
X123314285Y-31752380D01*
X123076190Y-30704761D02*
X122838095Y-31419047D01*
X123457142Y-31419047D01*
X115185714Y-33457142D02*
X115138095Y-33504761D01*
X114995238Y-33552380D01*
X114900000Y-33552380D01*
X114757142Y-33504761D01*
X114661904Y-33409523D01*
X114614285Y-33314285D01*
X114566666Y-33123809D01*
X114566666Y-32980952D01*
X114614285Y-32790476D01*
X114661904Y-32695238D01*
X114757142Y-32600000D01*
X114900000Y-32552380D01*
X114995238Y-32552380D01*
X115138095Y-32600000D01*
X115185714Y-32647619D01*
X115757142Y-33552380D02*
X115661904Y-33504761D01*
X115614285Y-33457142D01*
X115566666Y-33361904D01*
X115566666Y-33076190D01*
X115614285Y-32980952D01*
X115661904Y-32933333D01*
X115757142Y-32885714D01*
X115900000Y-32885714D01*
X115995238Y-32933333D01*
X116042857Y-32980952D01*
X116090476Y-33076190D01*
X116090476Y-33361904D01*
X116042857Y-33457142D01*
X115995238Y-33504761D01*
X115900000Y-33552380D01*
X115757142Y-33552380D01*
X116519047Y-32885714D02*
X116519047Y-33552380D01*
X116519047Y-32980952D02*
X116566666Y-32933333D01*
X116661904Y-32885714D01*
X116804761Y-32885714D01*
X116900000Y-32933333D01*
X116947619Y-33028571D01*
X116947619Y-33552380D01*
X117423809Y-32885714D02*
X117423809Y-33552380D01*
X117423809Y-32980952D02*
X117471428Y-32933333D01*
X117566666Y-32885714D01*
X117709523Y-32885714D01*
X117804761Y-32933333D01*
X117852380Y-33028571D01*
X117852380Y-33552380D01*
X118709523Y-33504761D02*
X118614285Y-33552380D01*
X118423809Y-33552380D01*
X118328571Y-33504761D01*
X118280952Y-33409523D01*
X118280952Y-33028571D01*
X118328571Y-32933333D01*
X118423809Y-32885714D01*
X118614285Y-32885714D01*
X118709523Y-32933333D01*
X118757142Y-33028571D01*
X118757142Y-33123809D01*
X118280952Y-33219047D01*
X119614285Y-33504761D02*
X119519047Y-33552380D01*
X119328571Y-33552380D01*
X119233333Y-33504761D01*
X119185714Y-33457142D01*
X119138095Y-33361904D01*
X119138095Y-33076190D01*
X119185714Y-32980952D01*
X119233333Y-32933333D01*
X119328571Y-32885714D01*
X119519047Y-32885714D01*
X119614285Y-32933333D01*
X119900000Y-32885714D02*
X120280952Y-32885714D01*
X120042857Y-32552380D02*
X120042857Y-33409523D01*
X120090476Y-33504761D01*
X120185714Y-33552380D01*
X120280952Y-33552380D01*
X120757142Y-33552380D02*
X120661904Y-33504761D01*
X120614285Y-33457142D01*
X120566666Y-33361904D01*
X120566666Y-33076190D01*
X120614285Y-32980952D01*
X120661904Y-32933333D01*
X120757142Y-32885714D01*
X120900000Y-32885714D01*
X120995238Y-32933333D01*
X121042857Y-32980952D01*
X121090476Y-33076190D01*
X121090476Y-33361904D01*
X121042857Y-33457142D01*
X120995238Y-33504761D01*
X120900000Y-33552380D01*
X120757142Y-33552380D01*
X121519047Y-33552380D02*
X121519047Y-32885714D01*
X121519047Y-33076190D02*
X121566666Y-32980952D01*
X121614285Y-32933333D01*
X121709523Y-32885714D01*
X121804761Y-32885714D01*
X122614285Y-33552380D02*
X122138095Y-33552380D01*
X122138095Y-32552380D01*
X123376190Y-33552380D02*
X123376190Y-33028571D01*
X123328571Y-32933333D01*
X123233333Y-32885714D01*
X123042857Y-32885714D01*
X122947619Y-32933333D01*
X123376190Y-33504761D02*
X123280952Y-33552380D01*
X123042857Y-33552380D01*
X122947619Y-33504761D01*
X122900000Y-33409523D01*
X122900000Y-33314285D01*
X122947619Y-33219047D01*
X123042857Y-33171428D01*
X123280952Y-33171428D01*
X123376190Y-33123809D01*
X123852380Y-33552380D02*
X123852380Y-32552380D01*
X123852380Y-32933333D02*
X123947619Y-32885714D01*
X124138095Y-32885714D01*
X124233333Y-32933333D01*
X124280952Y-32980952D01*
X124328571Y-33076190D01*
X124328571Y-33361904D01*
X124280952Y-33457142D01*
X124233333Y-33504761D01*
X124138095Y-33552380D01*
X123947619Y-33552380D01*
X123852380Y-33504761D01*
X124900000Y-33552380D02*
X124804761Y-33504761D01*
X124757142Y-33457142D01*
X124709523Y-33361904D01*
X124709523Y-33076190D01*
X124757142Y-32980952D01*
X124804761Y-32933333D01*
X124900000Y-32885714D01*
X125042857Y-32885714D01*
X125138095Y-32933333D01*
X125185714Y-32980952D01*
X125233333Y-33076190D01*
X125233333Y-33361904D01*
X125185714Y-33457142D01*
X125138095Y-33504761D01*
X125042857Y-33552380D01*
X124900000Y-33552380D01*
X125661904Y-33552380D02*
X125661904Y-32885714D01*
X125661904Y-33076190D02*
X125709523Y-32980952D01*
X125757142Y-32933333D01*
X125852380Y-32885714D01*
X125947619Y-32885714D01*
X126614285Y-33028571D02*
X126757142Y-33076190D01*
X126804761Y-33123809D01*
X126852380Y-33219047D01*
X126852380Y-33361904D01*
X126804761Y-33457142D01*
X126757142Y-33504761D01*
X126661904Y-33552380D01*
X126280952Y-33552380D01*
X126280952Y-32552380D01*
X126614285Y-32552380D01*
X126709523Y-32600000D01*
X126757142Y-32647619D01*
X126804761Y-32742857D01*
X126804761Y-32838095D01*
X126757142Y-32933333D01*
X126709523Y-32980952D01*
X126614285Y-33028571D01*
X126280952Y-33028571D01*
X127661904Y-33504761D02*
X127566666Y-33552380D01*
X127376190Y-33552380D01*
X127280952Y-33504761D01*
X127233333Y-33409523D01*
X127233333Y-33028571D01*
X127280952Y-32933333D01*
X127376190Y-32885714D01*
X127566666Y-32885714D01*
X127661904Y-32933333D01*
X127709523Y-33028571D01*
X127709523Y-33123809D01*
X127233333Y-33219047D01*
X128138095Y-33552380D02*
X128138095Y-32885714D01*
X128138095Y-33076190D02*
X128185714Y-32980952D01*
X128233333Y-32933333D01*
X128328571Y-32885714D01*
X128423809Y-32885714D01*
X128900000Y-33552380D02*
X128804761Y-33504761D01*
X128757142Y-33409523D01*
X128757142Y-32552380D01*
X129280952Y-33552380D02*
X129280952Y-32885714D01*
X129280952Y-32552380D02*
X129233333Y-32600000D01*
X129280952Y-32647619D01*
X129328571Y-32600000D01*
X129280952Y-32552380D01*
X129280952Y-32647619D01*
X129757142Y-32885714D02*
X129757142Y-33552380D01*
X129757142Y-32980952D02*
X129804761Y-32933333D01*
X129900000Y-32885714D01*
X130042857Y-32885714D01*
X130138095Y-32933333D01*
X130185714Y-33028571D01*
X130185714Y-33552380D01*
X135438095Y-30252380D02*
X135438095Y-31061904D01*
X135485714Y-31157142D01*
X135533333Y-31204761D01*
X135628571Y-31252380D01*
X135819047Y-31252380D01*
X135914285Y-31204761D01*
X135961904Y-31157142D01*
X136009523Y-31061904D01*
X136009523Y-30252380D01*
X136390476Y-30252380D02*
X137009523Y-30252380D01*
X136676190Y-30633333D01*
X136819047Y-30633333D01*
X136914285Y-30680952D01*
X136961904Y-30728571D01*
X137009523Y-30823809D01*
X137009523Y-31061904D01*
X136961904Y-31157142D01*
X136914285Y-31204761D01*
X136819047Y-31252380D01*
X136533333Y-31252380D01*
X136438095Y-31204761D01*
X136390476Y-31157142D01*
X133447619Y-33057142D02*
X133400000Y-33104761D01*
X133257142Y-33152380D01*
X133161904Y-33152380D01*
X133019047Y-33104761D01*
X132923809Y-33009523D01*
X132876190Y-32914285D01*
X132828571Y-32723809D01*
X132828571Y-32580952D01*
X132876190Y-32390476D01*
X132923809Y-32295238D01*
X133019047Y-32200000D01*
X133161904Y-32152380D01*
X133257142Y-32152380D01*
X133400000Y-32200000D01*
X133447619Y-32247619D01*
X134019047Y-33152380D02*
X133923809Y-33104761D01*
X133876190Y-33057142D01*
X133828571Y-32961904D01*
X133828571Y-32676190D01*
X133876190Y-32580952D01*
X133923809Y-32533333D01*
X134019047Y-32485714D01*
X134161904Y-32485714D01*
X134257142Y-32533333D01*
X134304761Y-32580952D01*
X134352380Y-32676190D01*
X134352380Y-32961904D01*
X134304761Y-33057142D01*
X134257142Y-33104761D01*
X134161904Y-33152380D01*
X134019047Y-33152380D01*
X134780952Y-32485714D02*
X134780952Y-33152380D01*
X134780952Y-32580952D02*
X134828571Y-32533333D01*
X134923809Y-32485714D01*
X135066666Y-32485714D01*
X135161904Y-32533333D01*
X135209523Y-32628571D01*
X135209523Y-33152380D01*
X135685714Y-32485714D02*
X135685714Y-33152380D01*
X135685714Y-32580952D02*
X135733333Y-32533333D01*
X135828571Y-32485714D01*
X135971428Y-32485714D01*
X136066666Y-32533333D01*
X136114285Y-32628571D01*
X136114285Y-33152380D01*
X136971428Y-33104761D02*
X136876190Y-33152380D01*
X136685714Y-33152380D01*
X136590476Y-33104761D01*
X136542857Y-33009523D01*
X136542857Y-32628571D01*
X136590476Y-32533333D01*
X136685714Y-32485714D01*
X136876190Y-32485714D01*
X136971428Y-32533333D01*
X137019047Y-32628571D01*
X137019047Y-32723809D01*
X136542857Y-32819047D01*
X137876190Y-33104761D02*
X137780952Y-33152380D01*
X137590476Y-33152380D01*
X137495238Y-33104761D01*
X137447619Y-33057142D01*
X137400000Y-32961904D01*
X137400000Y-32676190D01*
X137447619Y-32580952D01*
X137495238Y-32533333D01*
X137590476Y-32485714D01*
X137780952Y-32485714D01*
X137876190Y-32533333D01*
X138161904Y-32485714D02*
X138542857Y-32485714D01*
X138304761Y-32152380D02*
X138304761Y-33009523D01*
X138352380Y-33104761D01*
X138447619Y-33152380D01*
X138542857Y-33152380D01*
X139019047Y-33152380D02*
X138923809Y-33104761D01*
X138876190Y-33057142D01*
X138828571Y-32961904D01*
X138828571Y-32676190D01*
X138876190Y-32580952D01*
X138923809Y-32533333D01*
X139019047Y-32485714D01*
X139161904Y-32485714D01*
X139257142Y-32533333D01*
X139304761Y-32580952D01*
X139352380Y-32676190D01*
X139352380Y-32961904D01*
X139304761Y-33057142D01*
X139257142Y-33104761D01*
X139161904Y-33152380D01*
X139019047Y-33152380D01*
X139780952Y-33152380D02*
X139780952Y-32485714D01*
X139780952Y-32676190D02*
X139828571Y-32580952D01*
X139876190Y-32533333D01*
X139971428Y-32485714D01*
X140066666Y-32485714D01*
X198238095Y-31852380D02*
X198238095Y-32661904D01*
X198285714Y-32757142D01*
X198333333Y-32804761D01*
X198428571Y-32852380D01*
X198619047Y-32852380D01*
X198714285Y-32804761D01*
X198761904Y-32757142D01*
X198809523Y-32661904D01*
X198809523Y-31852380D01*
X199238095Y-31947619D02*
X199285714Y-31900000D01*
X199380952Y-31852380D01*
X199619047Y-31852380D01*
X199714285Y-31900000D01*
X199761904Y-31947619D01*
X199809523Y-32042857D01*
X199809523Y-32138095D01*
X199761904Y-32280952D01*
X199190476Y-32852380D01*
X199809523Y-32852380D01*
X195733333Y-30952380D02*
X195733333Y-30285714D01*
X195733333Y-30476190D02*
X195780952Y-30380952D01*
X195828571Y-30333333D01*
X195923809Y-30285714D01*
X196019047Y-30285714D01*
X196733333Y-30904761D02*
X196638095Y-30952380D01*
X196447619Y-30952380D01*
X196352380Y-30904761D01*
X196304761Y-30809523D01*
X196304761Y-30428571D01*
X196352380Y-30333333D01*
X196447619Y-30285714D01*
X196638095Y-30285714D01*
X196733333Y-30333333D01*
X196780952Y-30428571D01*
X196780952Y-30523809D01*
X196304761Y-30619047D01*
X197161904Y-30904761D02*
X197257142Y-30952380D01*
X197447619Y-30952380D01*
X197542857Y-30904761D01*
X197590476Y-30809523D01*
X197590476Y-30761904D01*
X197542857Y-30666666D01*
X197447619Y-30619047D01*
X197304761Y-30619047D01*
X197209523Y-30571428D01*
X197161904Y-30476190D01*
X197161904Y-30428571D01*
X197209523Y-30333333D01*
X197304761Y-30285714D01*
X197447619Y-30285714D01*
X197542857Y-30333333D01*
X198400000Y-30904761D02*
X198304761Y-30952380D01*
X198114285Y-30952380D01*
X198019047Y-30904761D01*
X197971428Y-30809523D01*
X197971428Y-30428571D01*
X198019047Y-30333333D01*
X198114285Y-30285714D01*
X198304761Y-30285714D01*
X198400000Y-30333333D01*
X198447619Y-30428571D01*
X198447619Y-30523809D01*
X197971428Y-30619047D01*
X198733333Y-30285714D02*
X199114285Y-30285714D01*
X198876190Y-29952380D02*
X198876190Y-30809523D01*
X198923809Y-30904761D01*
X199019047Y-30952380D01*
X199114285Y-30952380D01*
X199447619Y-30952380D02*
X199447619Y-29952380D01*
X199828571Y-29952380D01*
X199923809Y-30000000D01*
X199971428Y-30047619D01*
X200019047Y-30142857D01*
X200019047Y-30285714D01*
X199971428Y-30380952D01*
X199923809Y-30428571D01*
X199828571Y-30476190D01*
X199447619Y-30476190D01*
X200590476Y-30952380D02*
X200495238Y-30904761D01*
X200447619Y-30857142D01*
X200400000Y-30761904D01*
X200400000Y-30476190D01*
X200447619Y-30380952D01*
X200495238Y-30333333D01*
X200590476Y-30285714D01*
X200733333Y-30285714D01*
X200828571Y-30333333D01*
X200876190Y-30380952D01*
X200923809Y-30476190D01*
X200923809Y-30761904D01*
X200876190Y-30857142D01*
X200828571Y-30904761D01*
X200733333Y-30952380D01*
X200590476Y-30952380D01*
X201352380Y-30952380D02*
X201352380Y-30285714D01*
X201352380Y-30476190D02*
X201400000Y-30380952D01*
X201447619Y-30333333D01*
X201542857Y-30285714D01*
X201638095Y-30285714D01*
X201828571Y-30285714D02*
X202209523Y-30285714D01*
X201971428Y-29952380D02*
X201971428Y-30809523D01*
X202019047Y-30904761D01*
X202114285Y-30952380D01*
X202209523Y-30952380D01*
X193088095Y-129452380D02*
X193088095Y-130261904D01*
X193135714Y-130357142D01*
X193183333Y-130404761D01*
X193278571Y-130452380D01*
X193469047Y-130452380D01*
X193564285Y-130404761D01*
X193611904Y-130357142D01*
X193659523Y-130261904D01*
X193659523Y-129452380D01*
X194659523Y-130452380D02*
X194088095Y-130452380D01*
X194373809Y-130452380D02*
X194373809Y-129452380D01*
X194278571Y-129595238D01*
X194183333Y-129690476D01*
X194088095Y-129738095D01*
X96864761Y-94542380D02*
X96531428Y-94066190D01*
X96293333Y-94542380D02*
X96293333Y-93542380D01*
X96674285Y-93542380D01*
X96769523Y-93590000D01*
X96817142Y-93637619D01*
X96864761Y-93732857D01*
X96864761Y-93875714D01*
X96817142Y-93970952D01*
X96769523Y-94018571D01*
X96674285Y-94066190D01*
X96293333Y-94066190D01*
X97150476Y-93542380D02*
X97483809Y-94542380D01*
X97817142Y-93542380D01*
X98674285Y-94542380D02*
X98102857Y-94542380D01*
X98388571Y-94542380D02*
X98388571Y-93542380D01*
X98293333Y-93685238D01*
X98198095Y-93780476D01*
X98102857Y-93828095D01*
X134917142Y-94532380D02*
X134583809Y-94056190D01*
X134345714Y-94532380D02*
X134345714Y-93532380D01*
X134726666Y-93532380D01*
X134821904Y-93580000D01*
X134869523Y-93627619D01*
X134917142Y-93722857D01*
X134917142Y-93865714D01*
X134869523Y-93960952D01*
X134821904Y-94008571D01*
X134726666Y-94056190D01*
X134345714Y-94056190D01*
X135250476Y-93532380D02*
X135869523Y-93532380D01*
X135536190Y-93913333D01*
X135679047Y-93913333D01*
X135774285Y-93960952D01*
X135821904Y-94008571D01*
X135869523Y-94103809D01*
X135869523Y-94341904D01*
X135821904Y-94437142D01*
X135774285Y-94484761D01*
X135679047Y-94532380D01*
X135393333Y-94532380D01*
X135298095Y-94484761D01*
X135250476Y-94437142D01*
X136202857Y-93532380D02*
X136821904Y-93532380D01*
X136488571Y-93913333D01*
X136631428Y-93913333D01*
X136726666Y-93960952D01*
X136774285Y-94008571D01*
X136821904Y-94103809D01*
X136821904Y-94341904D01*
X136774285Y-94437142D01*
X136726666Y-94484761D01*
X136631428Y-94532380D01*
X136345714Y-94532380D01*
X136250476Y-94484761D01*
X136202857Y-94437142D01*
X121917142Y-81282380D02*
X121583809Y-80806190D01*
X121345714Y-81282380D02*
X121345714Y-80282380D01*
X121726666Y-80282380D01*
X121821904Y-80330000D01*
X121869523Y-80377619D01*
X121917142Y-80472857D01*
X121917142Y-80615714D01*
X121869523Y-80710952D01*
X121821904Y-80758571D01*
X121726666Y-80806190D01*
X121345714Y-80806190D01*
X122250476Y-80282380D02*
X122869523Y-80282380D01*
X122536190Y-80663333D01*
X122679047Y-80663333D01*
X122774285Y-80710952D01*
X122821904Y-80758571D01*
X122869523Y-80853809D01*
X122869523Y-81091904D01*
X122821904Y-81187142D01*
X122774285Y-81234761D01*
X122679047Y-81282380D01*
X122393333Y-81282380D01*
X122298095Y-81234761D01*
X122250476Y-81187142D01*
X123821904Y-81282380D02*
X123250476Y-81282380D01*
X123536190Y-81282380D02*
X123536190Y-80282380D01*
X123440952Y-80425238D01*
X123345714Y-80520476D01*
X123250476Y-80568095D01*
X135167142Y-107782380D02*
X134833809Y-107306190D01*
X134595714Y-107782380D02*
X134595714Y-106782380D01*
X134976666Y-106782380D01*
X135071904Y-106830000D01*
X135119523Y-106877619D01*
X135167142Y-106972857D01*
X135167142Y-107115714D01*
X135119523Y-107210952D01*
X135071904Y-107258571D01*
X134976666Y-107306190D01*
X134595714Y-107306190D01*
X135500476Y-106782380D02*
X136119523Y-106782380D01*
X135786190Y-107163333D01*
X135929047Y-107163333D01*
X136024285Y-107210952D01*
X136071904Y-107258571D01*
X136119523Y-107353809D01*
X136119523Y-107591904D01*
X136071904Y-107687142D01*
X136024285Y-107734761D01*
X135929047Y-107782380D01*
X135643333Y-107782380D01*
X135548095Y-107734761D01*
X135500476Y-107687142D01*
X136738571Y-106782380D02*
X136833809Y-106782380D01*
X136929047Y-106830000D01*
X136976666Y-106877619D01*
X137024285Y-106972857D01*
X137071904Y-107163333D01*
X137071904Y-107401428D01*
X137024285Y-107591904D01*
X136976666Y-107687142D01*
X136929047Y-107734761D01*
X136833809Y-107782380D01*
X136738571Y-107782380D01*
X136643333Y-107734761D01*
X136595714Y-107687142D01*
X136548095Y-107591904D01*
X136500476Y-107401428D01*
X136500476Y-107163333D01*
X136548095Y-106972857D01*
X136595714Y-106877619D01*
X136643333Y-106830000D01*
X136738571Y-106782380D01*
X121917142Y-85532380D02*
X121583809Y-85056190D01*
X121345714Y-85532380D02*
X121345714Y-84532380D01*
X121726666Y-84532380D01*
X121821904Y-84580000D01*
X121869523Y-84627619D01*
X121917142Y-84722857D01*
X121917142Y-84865714D01*
X121869523Y-84960952D01*
X121821904Y-85008571D01*
X121726666Y-85056190D01*
X121345714Y-85056190D01*
X122298095Y-84627619D02*
X122345714Y-84580000D01*
X122440952Y-84532380D01*
X122679047Y-84532380D01*
X122774285Y-84580000D01*
X122821904Y-84627619D01*
X122869523Y-84722857D01*
X122869523Y-84818095D01*
X122821904Y-84960952D01*
X122250476Y-85532380D01*
X122869523Y-85532380D01*
X123345714Y-85532380D02*
X123536190Y-85532380D01*
X123631428Y-85484761D01*
X123679047Y-85437142D01*
X123774285Y-85294285D01*
X123821904Y-85103809D01*
X123821904Y-84722857D01*
X123774285Y-84627619D01*
X123726666Y-84580000D01*
X123631428Y-84532380D01*
X123440952Y-84532380D01*
X123345714Y-84580000D01*
X123298095Y-84627619D01*
X123250476Y-84722857D01*
X123250476Y-84960952D01*
X123298095Y-85056190D01*
X123345714Y-85103809D01*
X123440952Y-85151428D01*
X123631428Y-85151428D01*
X123726666Y-85103809D01*
X123774285Y-85056190D01*
X123821904Y-84960952D01*
X109917142Y-103282380D02*
X109583809Y-102806190D01*
X109345714Y-103282380D02*
X109345714Y-102282380D01*
X109726666Y-102282380D01*
X109821904Y-102330000D01*
X109869523Y-102377619D01*
X109917142Y-102472857D01*
X109917142Y-102615714D01*
X109869523Y-102710952D01*
X109821904Y-102758571D01*
X109726666Y-102806190D01*
X109345714Y-102806190D01*
X110298095Y-102377619D02*
X110345714Y-102330000D01*
X110440952Y-102282380D01*
X110679047Y-102282380D01*
X110774285Y-102330000D01*
X110821904Y-102377619D01*
X110869523Y-102472857D01*
X110869523Y-102568095D01*
X110821904Y-102710952D01*
X110250476Y-103282380D01*
X110869523Y-103282380D01*
X111202857Y-102282380D02*
X111869523Y-102282380D01*
X111440952Y-103282380D01*
X96667142Y-85532380D02*
X96333809Y-85056190D01*
X96095714Y-85532380D02*
X96095714Y-84532380D01*
X96476666Y-84532380D01*
X96571904Y-84580000D01*
X96619523Y-84627619D01*
X96667142Y-84722857D01*
X96667142Y-84865714D01*
X96619523Y-84960952D01*
X96571904Y-85008571D01*
X96476666Y-85056190D01*
X96095714Y-85056190D01*
X97048095Y-84627619D02*
X97095714Y-84580000D01*
X97190952Y-84532380D01*
X97429047Y-84532380D01*
X97524285Y-84580000D01*
X97571904Y-84627619D01*
X97619523Y-84722857D01*
X97619523Y-84818095D01*
X97571904Y-84960952D01*
X97000476Y-85532380D01*
X97619523Y-85532380D01*
X98476666Y-84532380D02*
X98286190Y-84532380D01*
X98190952Y-84580000D01*
X98143333Y-84627619D01*
X98048095Y-84770476D01*
X98000476Y-84960952D01*
X98000476Y-85341904D01*
X98048095Y-85437142D01*
X98095714Y-85484761D01*
X98190952Y-85532380D01*
X98381428Y-85532380D01*
X98476666Y-85484761D01*
X98524285Y-85437142D01*
X98571904Y-85341904D01*
X98571904Y-85103809D01*
X98524285Y-85008571D01*
X98476666Y-84960952D01*
X98381428Y-84913333D01*
X98190952Y-84913333D01*
X98095714Y-84960952D01*
X98048095Y-85008571D01*
X98000476Y-85103809D01*
X122167142Y-94532380D02*
X121833809Y-94056190D01*
X121595714Y-94532380D02*
X121595714Y-93532380D01*
X121976666Y-93532380D01*
X122071904Y-93580000D01*
X122119523Y-93627619D01*
X122167142Y-93722857D01*
X122167142Y-93865714D01*
X122119523Y-93960952D01*
X122071904Y-94008571D01*
X121976666Y-94056190D01*
X121595714Y-94056190D01*
X122548095Y-93627619D02*
X122595714Y-93580000D01*
X122690952Y-93532380D01*
X122929047Y-93532380D01*
X123024285Y-93580000D01*
X123071904Y-93627619D01*
X123119523Y-93722857D01*
X123119523Y-93818095D01*
X123071904Y-93960952D01*
X122500476Y-94532380D01*
X123119523Y-94532380D01*
X124024285Y-93532380D02*
X123548095Y-93532380D01*
X123500476Y-94008571D01*
X123548095Y-93960952D01*
X123643333Y-93913333D01*
X123881428Y-93913333D01*
X123976666Y-93960952D01*
X124024285Y-94008571D01*
X124071904Y-94103809D01*
X124071904Y-94341904D01*
X124024285Y-94437142D01*
X123976666Y-94484761D01*
X123881428Y-94532380D01*
X123643333Y-94532380D01*
X123548095Y-94484761D01*
X123500476Y-94437142D01*
X122167142Y-90032380D02*
X121833809Y-89556190D01*
X121595714Y-90032380D02*
X121595714Y-89032380D01*
X121976666Y-89032380D01*
X122071904Y-89080000D01*
X122119523Y-89127619D01*
X122167142Y-89222857D01*
X122167142Y-89365714D01*
X122119523Y-89460952D01*
X122071904Y-89508571D01*
X121976666Y-89556190D01*
X121595714Y-89556190D01*
X122548095Y-89127619D02*
X122595714Y-89080000D01*
X122690952Y-89032380D01*
X122929047Y-89032380D01*
X123024285Y-89080000D01*
X123071904Y-89127619D01*
X123119523Y-89222857D01*
X123119523Y-89318095D01*
X123071904Y-89460952D01*
X122500476Y-90032380D01*
X123119523Y-90032380D01*
X123976666Y-89365714D02*
X123976666Y-90032380D01*
X123738571Y-88984761D02*
X123500476Y-89699047D01*
X124119523Y-89699047D01*
X148167142Y-103282380D02*
X147833809Y-102806190D01*
X147595714Y-103282380D02*
X147595714Y-102282380D01*
X147976666Y-102282380D01*
X148071904Y-102330000D01*
X148119523Y-102377619D01*
X148167142Y-102472857D01*
X148167142Y-102615714D01*
X148119523Y-102710952D01*
X148071904Y-102758571D01*
X147976666Y-102806190D01*
X147595714Y-102806190D01*
X148548095Y-102377619D02*
X148595714Y-102330000D01*
X148690952Y-102282380D01*
X148929047Y-102282380D01*
X149024285Y-102330000D01*
X149071904Y-102377619D01*
X149119523Y-102472857D01*
X149119523Y-102568095D01*
X149071904Y-102710952D01*
X148500476Y-103282380D01*
X149119523Y-103282380D01*
X149452857Y-102282380D02*
X150071904Y-102282380D01*
X149738571Y-102663333D01*
X149881428Y-102663333D01*
X149976666Y-102710952D01*
X150024285Y-102758571D01*
X150071904Y-102853809D01*
X150071904Y-103091904D01*
X150024285Y-103187142D01*
X149976666Y-103234761D01*
X149881428Y-103282380D01*
X149595714Y-103282380D01*
X149500476Y-103234761D01*
X149452857Y-103187142D01*
X134917142Y-99282380D02*
X134583809Y-98806190D01*
X134345714Y-99282380D02*
X134345714Y-98282380D01*
X134726666Y-98282380D01*
X134821904Y-98330000D01*
X134869523Y-98377619D01*
X134917142Y-98472857D01*
X134917142Y-98615714D01*
X134869523Y-98710952D01*
X134821904Y-98758571D01*
X134726666Y-98806190D01*
X134345714Y-98806190D01*
X135298095Y-98377619D02*
X135345714Y-98330000D01*
X135440952Y-98282380D01*
X135679047Y-98282380D01*
X135774285Y-98330000D01*
X135821904Y-98377619D01*
X135869523Y-98472857D01*
X135869523Y-98568095D01*
X135821904Y-98710952D01*
X135250476Y-99282380D01*
X135869523Y-99282380D01*
X136250476Y-98377619D02*
X136298095Y-98330000D01*
X136393333Y-98282380D01*
X136631428Y-98282380D01*
X136726666Y-98330000D01*
X136774285Y-98377619D01*
X136821904Y-98472857D01*
X136821904Y-98568095D01*
X136774285Y-98710952D01*
X136202857Y-99282380D01*
X136821904Y-99282380D01*
X134917142Y-103282380D02*
X134583809Y-102806190D01*
X134345714Y-103282380D02*
X134345714Y-102282380D01*
X134726666Y-102282380D01*
X134821904Y-102330000D01*
X134869523Y-102377619D01*
X134917142Y-102472857D01*
X134917142Y-102615714D01*
X134869523Y-102710952D01*
X134821904Y-102758571D01*
X134726666Y-102806190D01*
X134345714Y-102806190D01*
X135298095Y-102377619D02*
X135345714Y-102330000D01*
X135440952Y-102282380D01*
X135679047Y-102282380D01*
X135774285Y-102330000D01*
X135821904Y-102377619D01*
X135869523Y-102472857D01*
X135869523Y-102568095D01*
X135821904Y-102710952D01*
X135250476Y-103282380D01*
X135869523Y-103282380D01*
X136821904Y-103282380D02*
X136250476Y-103282380D01*
X136536190Y-103282380D02*
X136536190Y-102282380D01*
X136440952Y-102425238D01*
X136345714Y-102520476D01*
X136250476Y-102568095D01*
X148167142Y-99032380D02*
X147833809Y-98556190D01*
X147595714Y-99032380D02*
X147595714Y-98032380D01*
X147976666Y-98032380D01*
X148071904Y-98080000D01*
X148119523Y-98127619D01*
X148167142Y-98222857D01*
X148167142Y-98365714D01*
X148119523Y-98460952D01*
X148071904Y-98508571D01*
X147976666Y-98556190D01*
X147595714Y-98556190D01*
X148548095Y-98127619D02*
X148595714Y-98080000D01*
X148690952Y-98032380D01*
X148929047Y-98032380D01*
X149024285Y-98080000D01*
X149071904Y-98127619D01*
X149119523Y-98222857D01*
X149119523Y-98318095D01*
X149071904Y-98460952D01*
X148500476Y-99032380D01*
X149119523Y-99032380D01*
X149738571Y-98032380D02*
X149833809Y-98032380D01*
X149929047Y-98080000D01*
X149976666Y-98127619D01*
X150024285Y-98222857D01*
X150071904Y-98413333D01*
X150071904Y-98651428D01*
X150024285Y-98841904D01*
X149976666Y-98937142D01*
X149929047Y-98984761D01*
X149833809Y-99032380D01*
X149738571Y-99032380D01*
X149643333Y-98984761D01*
X149595714Y-98937142D01*
X149548095Y-98841904D01*
X149500476Y-98651428D01*
X149500476Y-98413333D01*
X149548095Y-98222857D01*
X149595714Y-98127619D01*
X149643333Y-98080000D01*
X149738571Y-98032380D01*
X134917142Y-90032380D02*
X134583809Y-89556190D01*
X134345714Y-90032380D02*
X134345714Y-89032380D01*
X134726666Y-89032380D01*
X134821904Y-89080000D01*
X134869523Y-89127619D01*
X134917142Y-89222857D01*
X134917142Y-89365714D01*
X134869523Y-89460952D01*
X134821904Y-89508571D01*
X134726666Y-89556190D01*
X134345714Y-89556190D01*
X135869523Y-90032380D02*
X135298095Y-90032380D01*
X135583809Y-90032380D02*
X135583809Y-89032380D01*
X135488571Y-89175238D01*
X135393333Y-89270476D01*
X135298095Y-89318095D01*
X136345714Y-90032380D02*
X136536190Y-90032380D01*
X136631428Y-89984761D01*
X136679047Y-89937142D01*
X136774285Y-89794285D01*
X136821904Y-89603809D01*
X136821904Y-89222857D01*
X136774285Y-89127619D01*
X136726666Y-89080000D01*
X136631428Y-89032380D01*
X136440952Y-89032380D01*
X136345714Y-89080000D01*
X136298095Y-89127619D01*
X136250476Y-89222857D01*
X136250476Y-89460952D01*
X136298095Y-89556190D01*
X136345714Y-89603809D01*
X136440952Y-89651428D01*
X136631428Y-89651428D01*
X136726666Y-89603809D01*
X136774285Y-89556190D01*
X136821904Y-89460952D01*
X148167142Y-94532380D02*
X147833809Y-94056190D01*
X147595714Y-94532380D02*
X147595714Y-93532380D01*
X147976666Y-93532380D01*
X148071904Y-93580000D01*
X148119523Y-93627619D01*
X148167142Y-93722857D01*
X148167142Y-93865714D01*
X148119523Y-93960952D01*
X148071904Y-94008571D01*
X147976666Y-94056190D01*
X147595714Y-94056190D01*
X149119523Y-94532380D02*
X148548095Y-94532380D01*
X148833809Y-94532380D02*
X148833809Y-93532380D01*
X148738571Y-93675238D01*
X148643333Y-93770476D01*
X148548095Y-93818095D01*
X149690952Y-93960952D02*
X149595714Y-93913333D01*
X149548095Y-93865714D01*
X149500476Y-93770476D01*
X149500476Y-93722857D01*
X149548095Y-93627619D01*
X149595714Y-93580000D01*
X149690952Y-93532380D01*
X149881428Y-93532380D01*
X149976666Y-93580000D01*
X150024285Y-93627619D01*
X150071904Y-93722857D01*
X150071904Y-93770476D01*
X150024285Y-93865714D01*
X149976666Y-93913333D01*
X149881428Y-93960952D01*
X149690952Y-93960952D01*
X149595714Y-94008571D01*
X149548095Y-94056190D01*
X149500476Y-94151428D01*
X149500476Y-94341904D01*
X149548095Y-94437142D01*
X149595714Y-94484761D01*
X149690952Y-94532380D01*
X149881428Y-94532380D01*
X149976666Y-94484761D01*
X150024285Y-94437142D01*
X150071904Y-94341904D01*
X150071904Y-94151428D01*
X150024285Y-94056190D01*
X149976666Y-94008571D01*
X149881428Y-93960952D01*
X148167142Y-108032380D02*
X147833809Y-107556190D01*
X147595714Y-108032380D02*
X147595714Y-107032380D01*
X147976666Y-107032380D01*
X148071904Y-107080000D01*
X148119523Y-107127619D01*
X148167142Y-107222857D01*
X148167142Y-107365714D01*
X148119523Y-107460952D01*
X148071904Y-107508571D01*
X147976666Y-107556190D01*
X147595714Y-107556190D01*
X149119523Y-108032380D02*
X148548095Y-108032380D01*
X148833809Y-108032380D02*
X148833809Y-107032380D01*
X148738571Y-107175238D01*
X148643333Y-107270476D01*
X148548095Y-107318095D01*
X149452857Y-107032380D02*
X150119523Y-107032380D01*
X149690952Y-108032380D01*
X122417142Y-103282380D02*
X122083809Y-102806190D01*
X121845714Y-103282380D02*
X121845714Y-102282380D01*
X122226666Y-102282380D01*
X122321904Y-102330000D01*
X122369523Y-102377619D01*
X122417142Y-102472857D01*
X122417142Y-102615714D01*
X122369523Y-102710952D01*
X122321904Y-102758571D01*
X122226666Y-102806190D01*
X121845714Y-102806190D01*
X123369523Y-103282380D02*
X122798095Y-103282380D01*
X123083809Y-103282380D02*
X123083809Y-102282380D01*
X122988571Y-102425238D01*
X122893333Y-102520476D01*
X122798095Y-102568095D01*
X124226666Y-102282380D02*
X124036190Y-102282380D01*
X123940952Y-102330000D01*
X123893333Y-102377619D01*
X123798095Y-102520476D01*
X123750476Y-102710952D01*
X123750476Y-103091904D01*
X123798095Y-103187142D01*
X123845714Y-103234761D01*
X123940952Y-103282380D01*
X124131428Y-103282380D01*
X124226666Y-103234761D01*
X124274285Y-103187142D01*
X124321904Y-103091904D01*
X124321904Y-102853809D01*
X124274285Y-102758571D01*
X124226666Y-102710952D01*
X124131428Y-102663333D01*
X123940952Y-102663333D01*
X123845714Y-102710952D01*
X123798095Y-102758571D01*
X123750476Y-102853809D01*
X148167142Y-90032380D02*
X147833809Y-89556190D01*
X147595714Y-90032380D02*
X147595714Y-89032380D01*
X147976666Y-89032380D01*
X148071904Y-89080000D01*
X148119523Y-89127619D01*
X148167142Y-89222857D01*
X148167142Y-89365714D01*
X148119523Y-89460952D01*
X148071904Y-89508571D01*
X147976666Y-89556190D01*
X147595714Y-89556190D01*
X149119523Y-90032380D02*
X148548095Y-90032380D01*
X148833809Y-90032380D02*
X148833809Y-89032380D01*
X148738571Y-89175238D01*
X148643333Y-89270476D01*
X148548095Y-89318095D01*
X150024285Y-89032380D02*
X149548095Y-89032380D01*
X149500476Y-89508571D01*
X149548095Y-89460952D01*
X149643333Y-89413333D01*
X149881428Y-89413333D01*
X149976666Y-89460952D01*
X150024285Y-89508571D01*
X150071904Y-89603809D01*
X150071904Y-89841904D01*
X150024285Y-89937142D01*
X149976666Y-89984761D01*
X149881428Y-90032380D01*
X149643333Y-90032380D01*
X149548095Y-89984761D01*
X149500476Y-89937142D01*
X109417142Y-90282380D02*
X109083809Y-89806190D01*
X108845714Y-90282380D02*
X108845714Y-89282380D01*
X109226666Y-89282380D01*
X109321904Y-89330000D01*
X109369523Y-89377619D01*
X109417142Y-89472857D01*
X109417142Y-89615714D01*
X109369523Y-89710952D01*
X109321904Y-89758571D01*
X109226666Y-89806190D01*
X108845714Y-89806190D01*
X110369523Y-90282380D02*
X109798095Y-90282380D01*
X110083809Y-90282380D02*
X110083809Y-89282380D01*
X109988571Y-89425238D01*
X109893333Y-89520476D01*
X109798095Y-89568095D01*
X111226666Y-89615714D02*
X111226666Y-90282380D01*
X110988571Y-89234761D02*
X110750476Y-89949047D01*
X111369523Y-89949047D01*
X109417142Y-85532380D02*
X109083809Y-85056190D01*
X108845714Y-85532380D02*
X108845714Y-84532380D01*
X109226666Y-84532380D01*
X109321904Y-84580000D01*
X109369523Y-84627619D01*
X109417142Y-84722857D01*
X109417142Y-84865714D01*
X109369523Y-84960952D01*
X109321904Y-85008571D01*
X109226666Y-85056190D01*
X108845714Y-85056190D01*
X110369523Y-85532380D02*
X109798095Y-85532380D01*
X110083809Y-85532380D02*
X110083809Y-84532380D01*
X109988571Y-84675238D01*
X109893333Y-84770476D01*
X109798095Y-84818095D01*
X110702857Y-84532380D02*
X111321904Y-84532380D01*
X110988571Y-84913333D01*
X111131428Y-84913333D01*
X111226666Y-84960952D01*
X111274285Y-85008571D01*
X111321904Y-85103809D01*
X111321904Y-85341904D01*
X111274285Y-85437142D01*
X111226666Y-85484761D01*
X111131428Y-85532380D01*
X110845714Y-85532380D01*
X110750476Y-85484761D01*
X110702857Y-85437142D01*
X147917142Y-85782380D02*
X147583809Y-85306190D01*
X147345714Y-85782380D02*
X147345714Y-84782380D01*
X147726666Y-84782380D01*
X147821904Y-84830000D01*
X147869523Y-84877619D01*
X147917142Y-84972857D01*
X147917142Y-85115714D01*
X147869523Y-85210952D01*
X147821904Y-85258571D01*
X147726666Y-85306190D01*
X147345714Y-85306190D01*
X148869523Y-85782380D02*
X148298095Y-85782380D01*
X148583809Y-85782380D02*
X148583809Y-84782380D01*
X148488571Y-84925238D01*
X148393333Y-85020476D01*
X148298095Y-85068095D01*
X149250476Y-84877619D02*
X149298095Y-84830000D01*
X149393333Y-84782380D01*
X149631428Y-84782380D01*
X149726666Y-84830000D01*
X149774285Y-84877619D01*
X149821904Y-84972857D01*
X149821904Y-85068095D01*
X149774285Y-85210952D01*
X149202857Y-85782380D01*
X149821904Y-85782380D01*
X122417142Y-99032380D02*
X122083809Y-98556190D01*
X121845714Y-99032380D02*
X121845714Y-98032380D01*
X122226666Y-98032380D01*
X122321904Y-98080000D01*
X122369523Y-98127619D01*
X122417142Y-98222857D01*
X122417142Y-98365714D01*
X122369523Y-98460952D01*
X122321904Y-98508571D01*
X122226666Y-98556190D01*
X121845714Y-98556190D01*
X123369523Y-99032380D02*
X122798095Y-99032380D01*
X123083809Y-99032380D02*
X123083809Y-98032380D01*
X122988571Y-98175238D01*
X122893333Y-98270476D01*
X122798095Y-98318095D01*
X124321904Y-99032380D02*
X123750476Y-99032380D01*
X124036190Y-99032380D02*
X124036190Y-98032380D01*
X123940952Y-98175238D01*
X123845714Y-98270476D01*
X123750476Y-98318095D01*
X121867142Y-76332380D02*
X121533809Y-75856190D01*
X121295714Y-76332380D02*
X121295714Y-75332380D01*
X121676666Y-75332380D01*
X121771904Y-75380000D01*
X121819523Y-75427619D01*
X121867142Y-75522857D01*
X121867142Y-75665714D01*
X121819523Y-75760952D01*
X121771904Y-75808571D01*
X121676666Y-75856190D01*
X121295714Y-75856190D01*
X122819523Y-76332380D02*
X122248095Y-76332380D01*
X122533809Y-76332380D02*
X122533809Y-75332380D01*
X122438571Y-75475238D01*
X122343333Y-75570476D01*
X122248095Y-75618095D01*
X123438571Y-75332380D02*
X123533809Y-75332380D01*
X123629047Y-75380000D01*
X123676666Y-75427619D01*
X123724285Y-75522857D01*
X123771904Y-75713333D01*
X123771904Y-75951428D01*
X123724285Y-76141904D01*
X123676666Y-76237142D01*
X123629047Y-76284761D01*
X123533809Y-76332380D01*
X123438571Y-76332380D01*
X123343333Y-76284761D01*
X123295714Y-76237142D01*
X123248095Y-76141904D01*
X123200476Y-75951428D01*
X123200476Y-75713333D01*
X123248095Y-75522857D01*
X123295714Y-75427619D01*
X123343333Y-75380000D01*
X123438571Y-75332380D01*
X135393333Y-85532380D02*
X135060000Y-85056190D01*
X134821904Y-85532380D02*
X134821904Y-84532380D01*
X135202857Y-84532380D01*
X135298095Y-84580000D01*
X135345714Y-84627619D01*
X135393333Y-84722857D01*
X135393333Y-84865714D01*
X135345714Y-84960952D01*
X135298095Y-85008571D01*
X135202857Y-85056190D01*
X134821904Y-85056190D01*
X135869523Y-85532380D02*
X136060000Y-85532380D01*
X136155238Y-85484761D01*
X136202857Y-85437142D01*
X136298095Y-85294285D01*
X136345714Y-85103809D01*
X136345714Y-84722857D01*
X136298095Y-84627619D01*
X136250476Y-84580000D01*
X136155238Y-84532380D01*
X135964761Y-84532380D01*
X135869523Y-84580000D01*
X135821904Y-84627619D01*
X135774285Y-84722857D01*
X135774285Y-84960952D01*
X135821904Y-85056190D01*
X135869523Y-85103809D01*
X135964761Y-85151428D01*
X136155238Y-85151428D01*
X136250476Y-85103809D01*
X136298095Y-85056190D01*
X136345714Y-84960952D01*
X122893333Y-107782380D02*
X122560000Y-107306190D01*
X122321904Y-107782380D02*
X122321904Y-106782380D01*
X122702857Y-106782380D01*
X122798095Y-106830000D01*
X122845714Y-106877619D01*
X122893333Y-106972857D01*
X122893333Y-107115714D01*
X122845714Y-107210952D01*
X122798095Y-107258571D01*
X122702857Y-107306190D01*
X122321904Y-107306190D01*
X123464761Y-107210952D02*
X123369523Y-107163333D01*
X123321904Y-107115714D01*
X123274285Y-107020476D01*
X123274285Y-106972857D01*
X123321904Y-106877619D01*
X123369523Y-106830000D01*
X123464761Y-106782380D01*
X123655238Y-106782380D01*
X123750476Y-106830000D01*
X123798095Y-106877619D01*
X123845714Y-106972857D01*
X123845714Y-107020476D01*
X123798095Y-107115714D01*
X123750476Y-107163333D01*
X123655238Y-107210952D01*
X123464761Y-107210952D01*
X123369523Y-107258571D01*
X123321904Y-107306190D01*
X123274285Y-107401428D01*
X123274285Y-107591904D01*
X123321904Y-107687142D01*
X123369523Y-107734761D01*
X123464761Y-107782380D01*
X123655238Y-107782380D01*
X123750476Y-107734761D01*
X123798095Y-107687142D01*
X123845714Y-107591904D01*
X123845714Y-107401428D01*
X123798095Y-107306190D01*
X123750476Y-107258571D01*
X123655238Y-107210952D01*
X148543333Y-81232380D02*
X148210000Y-80756190D01*
X147971904Y-81232380D02*
X147971904Y-80232380D01*
X148352857Y-80232380D01*
X148448095Y-80280000D01*
X148495714Y-80327619D01*
X148543333Y-80422857D01*
X148543333Y-80565714D01*
X148495714Y-80660952D01*
X148448095Y-80708571D01*
X148352857Y-80756190D01*
X147971904Y-80756190D01*
X148876666Y-80232380D02*
X149543333Y-80232380D01*
X149114761Y-81232380D01*
X109893333Y-81032380D02*
X109560000Y-80556190D01*
X109321904Y-81032380D02*
X109321904Y-80032380D01*
X109702857Y-80032380D01*
X109798095Y-80080000D01*
X109845714Y-80127619D01*
X109893333Y-80222857D01*
X109893333Y-80365714D01*
X109845714Y-80460952D01*
X109798095Y-80508571D01*
X109702857Y-80556190D01*
X109321904Y-80556190D01*
X110750476Y-80032380D02*
X110560000Y-80032380D01*
X110464761Y-80080000D01*
X110417142Y-80127619D01*
X110321904Y-80270476D01*
X110274285Y-80460952D01*
X110274285Y-80841904D01*
X110321904Y-80937142D01*
X110369523Y-80984761D01*
X110464761Y-81032380D01*
X110655238Y-81032380D01*
X110750476Y-80984761D01*
X110798095Y-80937142D01*
X110845714Y-80841904D01*
X110845714Y-80603809D01*
X110798095Y-80508571D01*
X110750476Y-80460952D01*
X110655238Y-80413333D01*
X110464761Y-80413333D01*
X110369523Y-80460952D01*
X110321904Y-80508571D01*
X110274285Y-80603809D01*
X110393333Y-99032380D02*
X110060000Y-98556190D01*
X109821904Y-99032380D02*
X109821904Y-98032380D01*
X110202857Y-98032380D01*
X110298095Y-98080000D01*
X110345714Y-98127619D01*
X110393333Y-98222857D01*
X110393333Y-98365714D01*
X110345714Y-98460952D01*
X110298095Y-98508571D01*
X110202857Y-98556190D01*
X109821904Y-98556190D01*
X111298095Y-98032380D02*
X110821904Y-98032380D01*
X110774285Y-98508571D01*
X110821904Y-98460952D01*
X110917142Y-98413333D01*
X111155238Y-98413333D01*
X111250476Y-98460952D01*
X111298095Y-98508571D01*
X111345714Y-98603809D01*
X111345714Y-98841904D01*
X111298095Y-98937142D01*
X111250476Y-98984761D01*
X111155238Y-99032380D01*
X110917142Y-99032380D01*
X110821904Y-98984761D01*
X110774285Y-98937142D01*
X110143333Y-94532380D02*
X109810000Y-94056190D01*
X109571904Y-94532380D02*
X109571904Y-93532380D01*
X109952857Y-93532380D01*
X110048095Y-93580000D01*
X110095714Y-93627619D01*
X110143333Y-93722857D01*
X110143333Y-93865714D01*
X110095714Y-93960952D01*
X110048095Y-94008571D01*
X109952857Y-94056190D01*
X109571904Y-94056190D01*
X111000476Y-93865714D02*
X111000476Y-94532380D01*
X110762380Y-93484761D02*
X110524285Y-94199047D01*
X111143333Y-94199047D01*
X110043333Y-76732380D02*
X109710000Y-76256190D01*
X109471904Y-76732380D02*
X109471904Y-75732380D01*
X109852857Y-75732380D01*
X109948095Y-75780000D01*
X109995714Y-75827619D01*
X110043333Y-75922857D01*
X110043333Y-76065714D01*
X109995714Y-76160952D01*
X109948095Y-76208571D01*
X109852857Y-76256190D01*
X109471904Y-76256190D01*
X110376666Y-75732380D02*
X110995714Y-75732380D01*
X110662380Y-76113333D01*
X110805238Y-76113333D01*
X110900476Y-76160952D01*
X110948095Y-76208571D01*
X110995714Y-76303809D01*
X110995714Y-76541904D01*
X110948095Y-76637142D01*
X110900476Y-76684761D01*
X110805238Y-76732380D01*
X110519523Y-76732380D01*
X110424285Y-76684761D01*
X110376666Y-76637142D01*
X110393333Y-108032380D02*
X110060000Y-107556190D01*
X109821904Y-108032380D02*
X109821904Y-107032380D01*
X110202857Y-107032380D01*
X110298095Y-107080000D01*
X110345714Y-107127619D01*
X110393333Y-107222857D01*
X110393333Y-107365714D01*
X110345714Y-107460952D01*
X110298095Y-107508571D01*
X110202857Y-107556190D01*
X109821904Y-107556190D01*
X110774285Y-107127619D02*
X110821904Y-107080000D01*
X110917142Y-107032380D01*
X111155238Y-107032380D01*
X111250476Y-107080000D01*
X111298095Y-107127619D01*
X111345714Y-107222857D01*
X111345714Y-107318095D01*
X111298095Y-107460952D01*
X110726666Y-108032380D01*
X111345714Y-108032380D01*
X148543333Y-76032380D02*
X148210000Y-75556190D01*
X147971904Y-76032380D02*
X147971904Y-75032380D01*
X148352857Y-75032380D01*
X148448095Y-75080000D01*
X148495714Y-75127619D01*
X148543333Y-75222857D01*
X148543333Y-75365714D01*
X148495714Y-75460952D01*
X148448095Y-75508571D01*
X148352857Y-75556190D01*
X147971904Y-75556190D01*
X149495714Y-76032380D02*
X148924285Y-76032380D01*
X149210000Y-76032380D02*
X149210000Y-75032380D01*
X149114761Y-75175238D01*
X149019523Y-75270476D01*
X148924285Y-75318095D01*
X189384761Y-67777619D02*
X189289523Y-67730000D01*
X189194285Y-67634761D01*
X189051428Y-67491904D01*
X188956190Y-67444285D01*
X188860952Y-67444285D01*
X188908571Y-67682380D02*
X188813333Y-67634761D01*
X188718095Y-67539523D01*
X188670476Y-67349047D01*
X188670476Y-67015714D01*
X188718095Y-66825238D01*
X188813333Y-66730000D01*
X188908571Y-66682380D01*
X189099047Y-66682380D01*
X189194285Y-66730000D01*
X189289523Y-66825238D01*
X189337142Y-67015714D01*
X189337142Y-67349047D01*
X189289523Y-67539523D01*
X189194285Y-67634761D01*
X189099047Y-67682380D01*
X188908571Y-67682380D01*
X189813333Y-67682380D02*
X190003809Y-67682380D01*
X190099047Y-67634761D01*
X190146666Y-67587142D01*
X190241904Y-67444285D01*
X190289523Y-67253809D01*
X190289523Y-66872857D01*
X190241904Y-66777619D01*
X190194285Y-66730000D01*
X190099047Y-66682380D01*
X189908571Y-66682380D01*
X189813333Y-66730000D01*
X189765714Y-66777619D01*
X189718095Y-66872857D01*
X189718095Y-67110952D01*
X189765714Y-67206190D01*
X189813333Y-67253809D01*
X189908571Y-67301428D01*
X190099047Y-67301428D01*
X190194285Y-67253809D01*
X190241904Y-67206190D01*
X190289523Y-67110952D01*
X201504761Y-64847619D02*
X201409523Y-64800000D01*
X201314285Y-64704761D01*
X201171428Y-64561904D01*
X201076190Y-64514285D01*
X200980952Y-64514285D01*
X201028571Y-64752380D02*
X200933333Y-64704761D01*
X200838095Y-64609523D01*
X200790476Y-64419047D01*
X200790476Y-64085714D01*
X200838095Y-63895238D01*
X200933333Y-63800000D01*
X201028571Y-63752380D01*
X201219047Y-63752380D01*
X201314285Y-63800000D01*
X201409523Y-63895238D01*
X201457142Y-64085714D01*
X201457142Y-64419047D01*
X201409523Y-64609523D01*
X201314285Y-64704761D01*
X201219047Y-64752380D01*
X201028571Y-64752380D01*
X202028571Y-64180952D02*
X201933333Y-64133333D01*
X201885714Y-64085714D01*
X201838095Y-63990476D01*
X201838095Y-63942857D01*
X201885714Y-63847619D01*
X201933333Y-63800000D01*
X202028571Y-63752380D01*
X202219047Y-63752380D01*
X202314285Y-63800000D01*
X202361904Y-63847619D01*
X202409523Y-63942857D01*
X202409523Y-63990476D01*
X202361904Y-64085714D01*
X202314285Y-64133333D01*
X202219047Y-64180952D01*
X202028571Y-64180952D01*
X201933333Y-64228571D01*
X201885714Y-64276190D01*
X201838095Y-64371428D01*
X201838095Y-64561904D01*
X201885714Y-64657142D01*
X201933333Y-64704761D01*
X202028571Y-64752380D01*
X202219047Y-64752380D01*
X202314285Y-64704761D01*
X202361904Y-64657142D01*
X202409523Y-64561904D01*
X202409523Y-64371428D01*
X202361904Y-64276190D01*
X202314285Y-64228571D01*
X202219047Y-64180952D01*
X132144761Y-53477619D02*
X132049523Y-53430000D01*
X131954285Y-53334761D01*
X131811428Y-53191904D01*
X131716190Y-53144285D01*
X131620952Y-53144285D01*
X131668571Y-53382380D02*
X131573333Y-53334761D01*
X131478095Y-53239523D01*
X131430476Y-53049047D01*
X131430476Y-52715714D01*
X131478095Y-52525238D01*
X131573333Y-52430000D01*
X131668571Y-52382380D01*
X131859047Y-52382380D01*
X131954285Y-52430000D01*
X132049523Y-52525238D01*
X132097142Y-52715714D01*
X132097142Y-53049047D01*
X132049523Y-53239523D01*
X131954285Y-53334761D01*
X131859047Y-53382380D01*
X131668571Y-53382380D01*
X132430476Y-52382380D02*
X133097142Y-52382380D01*
X132668571Y-53382380D01*
X132194761Y-36027619D02*
X132099523Y-35980000D01*
X132004285Y-35884761D01*
X131861428Y-35741904D01*
X131766190Y-35694285D01*
X131670952Y-35694285D01*
X131718571Y-35932380D02*
X131623333Y-35884761D01*
X131528095Y-35789523D01*
X131480476Y-35599047D01*
X131480476Y-35265714D01*
X131528095Y-35075238D01*
X131623333Y-34980000D01*
X131718571Y-34932380D01*
X131909047Y-34932380D01*
X132004285Y-34980000D01*
X132099523Y-35075238D01*
X132147142Y-35265714D01*
X132147142Y-35599047D01*
X132099523Y-35789523D01*
X132004285Y-35884761D01*
X131909047Y-35932380D01*
X131718571Y-35932380D01*
X133004285Y-34932380D02*
X132813809Y-34932380D01*
X132718571Y-34980000D01*
X132670952Y-35027619D01*
X132575714Y-35170476D01*
X132528095Y-35360952D01*
X132528095Y-35741904D01*
X132575714Y-35837142D01*
X132623333Y-35884761D01*
X132718571Y-35932380D01*
X132909047Y-35932380D01*
X133004285Y-35884761D01*
X133051904Y-35837142D01*
X133099523Y-35741904D01*
X133099523Y-35503809D01*
X133051904Y-35408571D01*
X133004285Y-35360952D01*
X132909047Y-35313333D01*
X132718571Y-35313333D01*
X132623333Y-35360952D01*
X132575714Y-35408571D01*
X132528095Y-35503809D01*
X102694761Y-53027619D02*
X102599523Y-52980000D01*
X102504285Y-52884761D01*
X102361428Y-52741904D01*
X102266190Y-52694285D01*
X102170952Y-52694285D01*
X102218571Y-52932380D02*
X102123333Y-52884761D01*
X102028095Y-52789523D01*
X101980476Y-52599047D01*
X101980476Y-52265714D01*
X102028095Y-52075238D01*
X102123333Y-51980000D01*
X102218571Y-51932380D01*
X102409047Y-51932380D01*
X102504285Y-51980000D01*
X102599523Y-52075238D01*
X102647142Y-52265714D01*
X102647142Y-52599047D01*
X102599523Y-52789523D01*
X102504285Y-52884761D01*
X102409047Y-52932380D01*
X102218571Y-52932380D01*
X103551904Y-51932380D02*
X103075714Y-51932380D01*
X103028095Y-52408571D01*
X103075714Y-52360952D01*
X103170952Y-52313333D01*
X103409047Y-52313333D01*
X103504285Y-52360952D01*
X103551904Y-52408571D01*
X103599523Y-52503809D01*
X103599523Y-52741904D01*
X103551904Y-52837142D01*
X103504285Y-52884761D01*
X103409047Y-52932380D01*
X103170952Y-52932380D01*
X103075714Y-52884761D01*
X103028095Y-52837142D01*
X158694761Y-53527619D02*
X158599523Y-53480000D01*
X158504285Y-53384761D01*
X158361428Y-53241904D01*
X158266190Y-53194285D01*
X158170952Y-53194285D01*
X158218571Y-53432380D02*
X158123333Y-53384761D01*
X158028095Y-53289523D01*
X157980476Y-53099047D01*
X157980476Y-52765714D01*
X158028095Y-52575238D01*
X158123333Y-52480000D01*
X158218571Y-52432380D01*
X158409047Y-52432380D01*
X158504285Y-52480000D01*
X158599523Y-52575238D01*
X158647142Y-52765714D01*
X158647142Y-53099047D01*
X158599523Y-53289523D01*
X158504285Y-53384761D01*
X158409047Y-53432380D01*
X158218571Y-53432380D01*
X159504285Y-52765714D02*
X159504285Y-53432380D01*
X159266190Y-52384761D02*
X159028095Y-53099047D01*
X159647142Y-53099047D01*
X102694761Y-35777619D02*
X102599523Y-35730000D01*
X102504285Y-35634761D01*
X102361428Y-35491904D01*
X102266190Y-35444285D01*
X102170952Y-35444285D01*
X102218571Y-35682380D02*
X102123333Y-35634761D01*
X102028095Y-35539523D01*
X101980476Y-35349047D01*
X101980476Y-35015714D01*
X102028095Y-34825238D01*
X102123333Y-34730000D01*
X102218571Y-34682380D01*
X102409047Y-34682380D01*
X102504285Y-34730000D01*
X102599523Y-34825238D01*
X102647142Y-35015714D01*
X102647142Y-35349047D01*
X102599523Y-35539523D01*
X102504285Y-35634761D01*
X102409047Y-35682380D01*
X102218571Y-35682380D01*
X102980476Y-34682380D02*
X103599523Y-34682380D01*
X103266190Y-35063333D01*
X103409047Y-35063333D01*
X103504285Y-35110952D01*
X103551904Y-35158571D01*
X103599523Y-35253809D01*
X103599523Y-35491904D01*
X103551904Y-35587142D01*
X103504285Y-35634761D01*
X103409047Y-35682380D01*
X103123333Y-35682380D01*
X103028095Y-35634761D01*
X102980476Y-35587142D01*
X158694761Y-36527619D02*
X158599523Y-36480000D01*
X158504285Y-36384761D01*
X158361428Y-36241904D01*
X158266190Y-36194285D01*
X158170952Y-36194285D01*
X158218571Y-36432380D02*
X158123333Y-36384761D01*
X158028095Y-36289523D01*
X157980476Y-36099047D01*
X157980476Y-35765714D01*
X158028095Y-35575238D01*
X158123333Y-35480000D01*
X158218571Y-35432380D01*
X158409047Y-35432380D01*
X158504285Y-35480000D01*
X158599523Y-35575238D01*
X158647142Y-35765714D01*
X158647142Y-36099047D01*
X158599523Y-36289523D01*
X158504285Y-36384761D01*
X158409047Y-36432380D01*
X158218571Y-36432380D01*
X159028095Y-35527619D02*
X159075714Y-35480000D01*
X159170952Y-35432380D01*
X159409047Y-35432380D01*
X159504285Y-35480000D01*
X159551904Y-35527619D01*
X159599523Y-35622857D01*
X159599523Y-35718095D01*
X159551904Y-35860952D01*
X158980476Y-36432380D01*
X159599523Y-36432380D01*
X181654761Y-56547619D02*
X181559523Y-56500000D01*
X181464285Y-56404761D01*
X181321428Y-56261904D01*
X181226190Y-56214285D01*
X181130952Y-56214285D01*
X181178571Y-56452380D02*
X181083333Y-56404761D01*
X180988095Y-56309523D01*
X180940476Y-56119047D01*
X180940476Y-55785714D01*
X180988095Y-55595238D01*
X181083333Y-55500000D01*
X181178571Y-55452380D01*
X181369047Y-55452380D01*
X181464285Y-55500000D01*
X181559523Y-55595238D01*
X181607142Y-55785714D01*
X181607142Y-56119047D01*
X181559523Y-56309523D01*
X181464285Y-56404761D01*
X181369047Y-56452380D01*
X181178571Y-56452380D01*
X182559523Y-56452380D02*
X181988095Y-56452380D01*
X182273809Y-56452380D02*
X182273809Y-55452380D01*
X182178571Y-55595238D01*
X182083333Y-55690476D01*
X181988095Y-55738095D01*
X166533333Y-88552380D02*
X166057142Y-88552380D01*
X166057142Y-87552380D01*
X167390476Y-88552380D02*
X166819047Y-88552380D01*
X167104761Y-88552380D02*
X167104761Y-87552380D01*
X167009523Y-87695238D01*
X166914285Y-87790476D01*
X166819047Y-87838095D01*
X84416666Y-15622380D02*
X84416666Y-16336666D01*
X84369047Y-16479523D01*
X84273809Y-16574761D01*
X84130952Y-16622380D01*
X84035714Y-16622380D01*
X85369047Y-15622380D02*
X84892857Y-15622380D01*
X84845238Y-16098571D01*
X84892857Y-16050952D01*
X84988095Y-16003333D01*
X85226190Y-16003333D01*
X85321428Y-16050952D01*
X85369047Y-16098571D01*
X85416666Y-16193809D01*
X85416666Y-16431904D01*
X85369047Y-16527142D01*
X85321428Y-16574761D01*
X85226190Y-16622380D01*
X84988095Y-16622380D01*
X84892857Y-16574761D01*
X84845238Y-16527142D01*
X76666666Y-15372380D02*
X76666666Y-16086666D01*
X76619047Y-16229523D01*
X76523809Y-16324761D01*
X76380952Y-16372380D01*
X76285714Y-16372380D01*
X77571428Y-15705714D02*
X77571428Y-16372380D01*
X77333333Y-15324761D02*
X77095238Y-16039047D01*
X77714285Y-16039047D01*
X68916666Y-15122380D02*
X68916666Y-15836666D01*
X68869047Y-15979523D01*
X68773809Y-16074761D01*
X68630952Y-16122380D01*
X68535714Y-16122380D01*
X69297619Y-15122380D02*
X69916666Y-15122380D01*
X69583333Y-15503333D01*
X69726190Y-15503333D01*
X69821428Y-15550952D01*
X69869047Y-15598571D01*
X69916666Y-15693809D01*
X69916666Y-15931904D01*
X69869047Y-16027142D01*
X69821428Y-16074761D01*
X69726190Y-16122380D01*
X69440476Y-16122380D01*
X69345238Y-16074761D01*
X69297619Y-16027142D01*
X179666666Y-30852380D02*
X179666666Y-31566666D01*
X179619047Y-31709523D01*
X179523809Y-31804761D01*
X179380952Y-31852380D01*
X179285714Y-31852380D01*
X180095238Y-30947619D02*
X180142857Y-30900000D01*
X180238095Y-30852380D01*
X180476190Y-30852380D01*
X180571428Y-30900000D01*
X180619047Y-30947619D01*
X180666666Y-31042857D01*
X180666666Y-31138095D01*
X180619047Y-31280952D01*
X180047619Y-31852380D01*
X180666666Y-31852380D01*
X175147619Y-33152380D02*
X175147619Y-32152380D01*
X175528571Y-32152380D01*
X175623809Y-32200000D01*
X175671428Y-32247619D01*
X175719047Y-32342857D01*
X175719047Y-32485714D01*
X175671428Y-32580952D01*
X175623809Y-32628571D01*
X175528571Y-32676190D01*
X175147619Y-32676190D01*
X176338095Y-32152380D02*
X176528571Y-32152380D01*
X176623809Y-32200000D01*
X176719047Y-32295238D01*
X176766666Y-32485714D01*
X176766666Y-32819047D01*
X176719047Y-33009523D01*
X176623809Y-33104761D01*
X176528571Y-33152380D01*
X176338095Y-33152380D01*
X176242857Y-33104761D01*
X176147619Y-33009523D01*
X176100000Y-32819047D01*
X176100000Y-32485714D01*
X176147619Y-32295238D01*
X176242857Y-32200000D01*
X176338095Y-32152380D01*
X177100000Y-32152380D02*
X177338095Y-33152380D01*
X177528571Y-32438095D01*
X177719047Y-33152380D01*
X177957142Y-32152380D01*
X178338095Y-32628571D02*
X178671428Y-32628571D01*
X178814285Y-33152380D02*
X178338095Y-33152380D01*
X178338095Y-32152380D01*
X178814285Y-32152380D01*
X179814285Y-33152380D02*
X179480952Y-32676190D01*
X179242857Y-33152380D02*
X179242857Y-32152380D01*
X179623809Y-32152380D01*
X179719047Y-32200000D01*
X179766666Y-32247619D01*
X179814285Y-32342857D01*
X179814285Y-32485714D01*
X179766666Y-32580952D01*
X179719047Y-32628571D01*
X179623809Y-32676190D01*
X179242857Y-32676190D01*
X181004761Y-33152380D02*
X181004761Y-32152380D01*
X181480952Y-33152380D02*
X181480952Y-32152380D01*
X182052380Y-33152380D01*
X182052380Y-32152380D01*
X185266666Y-30452380D02*
X185266666Y-31166666D01*
X185219047Y-31309523D01*
X185123809Y-31404761D01*
X184980952Y-31452380D01*
X184885714Y-31452380D01*
X186266666Y-31452380D02*
X185695238Y-31452380D01*
X185980952Y-31452380D02*
X185980952Y-30452380D01*
X185885714Y-30595238D01*
X185790476Y-30690476D01*
X185695238Y-30738095D01*
X182147619Y-32852380D02*
X182147619Y-31852380D01*
X182528571Y-31852380D01*
X182623809Y-31900000D01*
X182671428Y-31947619D01*
X182719047Y-32042857D01*
X182719047Y-32185714D01*
X182671428Y-32280952D01*
X182623809Y-32328571D01*
X182528571Y-32376190D01*
X182147619Y-32376190D01*
X183338095Y-31852380D02*
X183528571Y-31852380D01*
X183623809Y-31900000D01*
X183719047Y-31995238D01*
X183766666Y-32185714D01*
X183766666Y-32519047D01*
X183719047Y-32709523D01*
X183623809Y-32804761D01*
X183528571Y-32852380D01*
X183338095Y-32852380D01*
X183242857Y-32804761D01*
X183147619Y-32709523D01*
X183100000Y-32519047D01*
X183100000Y-32185714D01*
X183147619Y-31995238D01*
X183242857Y-31900000D01*
X183338095Y-31852380D01*
X184100000Y-31852380D02*
X184338095Y-32852380D01*
X184528571Y-32138095D01*
X184719047Y-32852380D01*
X184957142Y-31852380D01*
X185338095Y-32328571D02*
X185671428Y-32328571D01*
X185814285Y-32852380D02*
X185338095Y-32852380D01*
X185338095Y-31852380D01*
X185814285Y-31852380D01*
X186814285Y-32852380D02*
X186480952Y-32376190D01*
X186242857Y-32852380D02*
X186242857Y-31852380D01*
X186623809Y-31852380D01*
X186719047Y-31900000D01*
X186766666Y-31947619D01*
X186814285Y-32042857D01*
X186814285Y-32185714D01*
X186766666Y-32280952D01*
X186719047Y-32328571D01*
X186623809Y-32376190D01*
X186242857Y-32376190D01*
X188004761Y-32852380D02*
X188004761Y-31852380D01*
X188480952Y-32852380D02*
X188480952Y-31852380D01*
X189052380Y-32852380D01*
X189052380Y-31852380D01*
X177285714Y-70452380D02*
X177285714Y-69452380D01*
X177523809Y-69452380D01*
X177666666Y-69500000D01*
X177761904Y-69595238D01*
X177809523Y-69690476D01*
X177857142Y-69880952D01*
X177857142Y-70023809D01*
X177809523Y-70214285D01*
X177761904Y-70309523D01*
X177666666Y-70404761D01*
X177523809Y-70452380D01*
X177285714Y-70452380D01*
X178809523Y-70452380D02*
X178238095Y-70452380D01*
X178523809Y-70452380D02*
X178523809Y-69452380D01*
X178428571Y-69595238D01*
X178333333Y-69690476D01*
X178238095Y-69738095D01*
X179761904Y-70452380D02*
X179190476Y-70452380D01*
X179476190Y-70452380D02*
X179476190Y-69452380D01*
X179380952Y-69595238D01*
X179285714Y-69690476D01*
X179190476Y-69738095D01*
X89355714Y-112692380D02*
X89355714Y-111692380D01*
X89593809Y-111692380D01*
X89736666Y-111740000D01*
X89831904Y-111835238D01*
X89879523Y-111930476D01*
X89927142Y-112120952D01*
X89927142Y-112263809D01*
X89879523Y-112454285D01*
X89831904Y-112549523D01*
X89736666Y-112644761D01*
X89593809Y-112692380D01*
X89355714Y-112692380D01*
X90879523Y-112692380D02*
X90308095Y-112692380D01*
X90593809Y-112692380D02*
X90593809Y-111692380D01*
X90498571Y-111835238D01*
X90403333Y-111930476D01*
X90308095Y-111978095D01*
X91498571Y-111692380D02*
X91593809Y-111692380D01*
X91689047Y-111740000D01*
X91736666Y-111787619D01*
X91784285Y-111882857D01*
X91831904Y-112073333D01*
X91831904Y-112311428D01*
X91784285Y-112501904D01*
X91736666Y-112597142D01*
X91689047Y-112644761D01*
X91593809Y-112692380D01*
X91498571Y-112692380D01*
X91403333Y-112644761D01*
X91355714Y-112597142D01*
X91308095Y-112501904D01*
X91260476Y-112311428D01*
X91260476Y-112073333D01*
X91308095Y-111882857D01*
X91355714Y-111787619D01*
X91403333Y-111740000D01*
X91498571Y-111692380D01*
X111831904Y-112692380D02*
X111831904Y-111692380D01*
X112070000Y-111692380D01*
X112212857Y-111740000D01*
X112308095Y-111835238D01*
X112355714Y-111930476D01*
X112403333Y-112120952D01*
X112403333Y-112263809D01*
X112355714Y-112454285D01*
X112308095Y-112549523D01*
X112212857Y-112644761D01*
X112070000Y-112692380D01*
X111831904Y-112692380D01*
X112879523Y-112692380D02*
X113070000Y-112692380D01*
X113165238Y-112644761D01*
X113212857Y-112597142D01*
X113308095Y-112454285D01*
X113355714Y-112263809D01*
X113355714Y-111882857D01*
X113308095Y-111787619D01*
X113260476Y-111740000D01*
X113165238Y-111692380D01*
X112974761Y-111692380D01*
X112879523Y-111740000D01*
X112831904Y-111787619D01*
X112784285Y-111882857D01*
X112784285Y-112120952D01*
X112831904Y-112216190D01*
X112879523Y-112263809D01*
X112974761Y-112311428D01*
X113165238Y-112311428D01*
X113260476Y-112263809D01*
X113308095Y-112216190D01*
X113355714Y-112120952D01*
X104231904Y-112592380D02*
X104231904Y-111592380D01*
X104470000Y-111592380D01*
X104612857Y-111640000D01*
X104708095Y-111735238D01*
X104755714Y-111830476D01*
X104803333Y-112020952D01*
X104803333Y-112163809D01*
X104755714Y-112354285D01*
X104708095Y-112449523D01*
X104612857Y-112544761D01*
X104470000Y-112592380D01*
X104231904Y-112592380D01*
X105374761Y-112020952D02*
X105279523Y-111973333D01*
X105231904Y-111925714D01*
X105184285Y-111830476D01*
X105184285Y-111782857D01*
X105231904Y-111687619D01*
X105279523Y-111640000D01*
X105374761Y-111592380D01*
X105565238Y-111592380D01*
X105660476Y-111640000D01*
X105708095Y-111687619D01*
X105755714Y-111782857D01*
X105755714Y-111830476D01*
X105708095Y-111925714D01*
X105660476Y-111973333D01*
X105565238Y-112020952D01*
X105374761Y-112020952D01*
X105279523Y-112068571D01*
X105231904Y-112116190D01*
X105184285Y-112211428D01*
X105184285Y-112401904D01*
X105231904Y-112497142D01*
X105279523Y-112544761D01*
X105374761Y-112592380D01*
X105565238Y-112592380D01*
X105660476Y-112544761D01*
X105708095Y-112497142D01*
X105755714Y-112401904D01*
X105755714Y-112211428D01*
X105708095Y-112116190D01*
X105660476Y-112068571D01*
X105565238Y-112020952D01*
X97131904Y-112692380D02*
X97131904Y-111692380D01*
X97370000Y-111692380D01*
X97512857Y-111740000D01*
X97608095Y-111835238D01*
X97655714Y-111930476D01*
X97703333Y-112120952D01*
X97703333Y-112263809D01*
X97655714Y-112454285D01*
X97608095Y-112549523D01*
X97512857Y-112644761D01*
X97370000Y-112692380D01*
X97131904Y-112692380D01*
X98036666Y-111692380D02*
X98703333Y-111692380D01*
X98274761Y-112692380D01*
X74732380Y-55158095D02*
X73732380Y-55158095D01*
X73732380Y-54920000D01*
X73780000Y-54777142D01*
X73875238Y-54681904D01*
X73970476Y-54634285D01*
X74160952Y-54586666D01*
X74303809Y-54586666D01*
X74494285Y-54634285D01*
X74589523Y-54681904D01*
X74684761Y-54777142D01*
X74732380Y-54920000D01*
X74732380Y-55158095D01*
X73732380Y-53729523D02*
X73732380Y-53920000D01*
X73780000Y-54015238D01*
X73827619Y-54062857D01*
X73970476Y-54158095D01*
X74160952Y-54205714D01*
X74541904Y-54205714D01*
X74637142Y-54158095D01*
X74684761Y-54110476D01*
X74732380Y-54015238D01*
X74732380Y-53824761D01*
X74684761Y-53729523D01*
X74637142Y-53681904D01*
X74541904Y-53634285D01*
X74303809Y-53634285D01*
X74208571Y-53681904D01*
X74160952Y-53729523D01*
X74113333Y-53824761D01*
X74113333Y-54015238D01*
X74160952Y-54110476D01*
X74208571Y-54158095D01*
X74303809Y-54205714D01*
X75102380Y-59761904D02*
X74102380Y-59761904D01*
X75102380Y-59190476D02*
X74530952Y-59619047D01*
X74102380Y-59190476D02*
X74673809Y-59761904D01*
X82482380Y-55158095D02*
X81482380Y-55158095D01*
X81482380Y-54920000D01*
X81530000Y-54777142D01*
X81625238Y-54681904D01*
X81720476Y-54634285D01*
X81910952Y-54586666D01*
X82053809Y-54586666D01*
X82244285Y-54634285D01*
X82339523Y-54681904D01*
X82434761Y-54777142D01*
X82482380Y-54920000D01*
X82482380Y-55158095D01*
X81482380Y-53681904D02*
X81482380Y-54158095D01*
X81958571Y-54205714D01*
X81910952Y-54158095D01*
X81863333Y-54062857D01*
X81863333Y-53824761D01*
X81910952Y-53729523D01*
X81958571Y-53681904D01*
X82053809Y-53634285D01*
X82291904Y-53634285D01*
X82387142Y-53681904D01*
X82434761Y-53729523D01*
X82482380Y-53824761D01*
X82482380Y-54062857D01*
X82434761Y-54158095D01*
X82387142Y-54205714D01*
X82852380Y-59761904D02*
X81852380Y-59761904D01*
X82852380Y-59190476D02*
X82280952Y-59619047D01*
X81852380Y-59190476D02*
X82423809Y-59761904D01*
X201051904Y-54532380D02*
X201051904Y-53532380D01*
X201290000Y-53532380D01*
X201432857Y-53580000D01*
X201528095Y-53675238D01*
X201575714Y-53770476D01*
X201623333Y-53960952D01*
X201623333Y-54103809D01*
X201575714Y-54294285D01*
X201528095Y-54389523D01*
X201432857Y-54484761D01*
X201290000Y-54532380D01*
X201051904Y-54532380D01*
X202480476Y-53865714D02*
X202480476Y-54532380D01*
X202242380Y-53484761D02*
X202004285Y-54199047D01*
X202623333Y-54199047D01*
X198988095Y-54952380D02*
X198988095Y-53952380D01*
X199559523Y-54952380D02*
X199130952Y-54380952D01*
X199559523Y-53952380D02*
X198988095Y-54523809D01*
X66982380Y-55158095D02*
X65982380Y-55158095D01*
X65982380Y-54920000D01*
X66030000Y-54777142D01*
X66125238Y-54681904D01*
X66220476Y-54634285D01*
X66410952Y-54586666D01*
X66553809Y-54586666D01*
X66744285Y-54634285D01*
X66839523Y-54681904D01*
X66934761Y-54777142D01*
X66982380Y-54920000D01*
X66982380Y-55158095D01*
X65982380Y-54253333D02*
X65982380Y-53634285D01*
X66363333Y-53967619D01*
X66363333Y-53824761D01*
X66410952Y-53729523D01*
X66458571Y-53681904D01*
X66553809Y-53634285D01*
X66791904Y-53634285D01*
X66887142Y-53681904D01*
X66934761Y-53729523D01*
X66982380Y-53824761D01*
X66982380Y-54110476D01*
X66934761Y-54205714D01*
X66887142Y-54253333D01*
X67352380Y-59761904D02*
X66352380Y-59761904D01*
X67352380Y-59190476D02*
X66780952Y-59619047D01*
X66352380Y-59190476D02*
X66923809Y-59761904D01*
X118357142Y-118607142D02*
X118309523Y-118654761D01*
X118166666Y-118702380D01*
X118071428Y-118702380D01*
X117928571Y-118654761D01*
X117833333Y-118559523D01*
X117785714Y-118464285D01*
X117738095Y-118273809D01*
X117738095Y-118130952D01*
X117785714Y-117940476D01*
X117833333Y-117845238D01*
X117928571Y-117750000D01*
X118071428Y-117702380D01*
X118166666Y-117702380D01*
X118309523Y-117750000D01*
X118357142Y-117797619D01*
X119309523Y-118702380D02*
X118738095Y-118702380D01*
X119023809Y-118702380D02*
X119023809Y-117702380D01*
X118928571Y-117845238D01*
X118833333Y-117940476D01*
X118738095Y-117988095D01*
X119928571Y-117702380D02*
X120023809Y-117702380D01*
X120119047Y-117750000D01*
X120166666Y-117797619D01*
X120214285Y-117892857D01*
X120261904Y-118083333D01*
X120261904Y-118321428D01*
X120214285Y-118511904D01*
X120166666Y-118607142D01*
X120119047Y-118654761D01*
X120023809Y-118702380D01*
X119928571Y-118702380D01*
X119833333Y-118654761D01*
X119785714Y-118607142D01*
X119738095Y-118511904D01*
X119690476Y-118321428D01*
X119690476Y-118083333D01*
X119738095Y-117892857D01*
X119785714Y-117797619D01*
X119833333Y-117750000D01*
X119928571Y-117702380D01*
X84583333Y-65557142D02*
X84535714Y-65604761D01*
X84392857Y-65652380D01*
X84297619Y-65652380D01*
X84154761Y-65604761D01*
X84059523Y-65509523D01*
X84011904Y-65414285D01*
X83964285Y-65223809D01*
X83964285Y-65080952D01*
X84011904Y-64890476D01*
X84059523Y-64795238D01*
X84154761Y-64700000D01*
X84297619Y-64652380D01*
X84392857Y-64652380D01*
X84535714Y-64700000D01*
X84583333Y-64747619D01*
X85059523Y-65652380D02*
X85250000Y-65652380D01*
X85345238Y-65604761D01*
X85392857Y-65557142D01*
X85488095Y-65414285D01*
X85535714Y-65223809D01*
X85535714Y-64842857D01*
X85488095Y-64747619D01*
X85440476Y-64700000D01*
X85345238Y-64652380D01*
X85154761Y-64652380D01*
X85059523Y-64700000D01*
X85011904Y-64747619D01*
X84964285Y-64842857D01*
X84964285Y-65080952D01*
X85011904Y-65176190D01*
X85059523Y-65223809D01*
X85154761Y-65271428D01*
X85345238Y-65271428D01*
X85440476Y-65223809D01*
X85488095Y-65176190D01*
X85535714Y-65080952D01*
X102583333Y-118607142D02*
X102535714Y-118654761D01*
X102392857Y-118702380D01*
X102297619Y-118702380D01*
X102154761Y-118654761D01*
X102059523Y-118559523D01*
X102011904Y-118464285D01*
X101964285Y-118273809D01*
X101964285Y-118130952D01*
X102011904Y-117940476D01*
X102059523Y-117845238D01*
X102154761Y-117750000D01*
X102297619Y-117702380D01*
X102392857Y-117702380D01*
X102535714Y-117750000D01*
X102583333Y-117797619D01*
X103154761Y-118130952D02*
X103059523Y-118083333D01*
X103011904Y-118035714D01*
X102964285Y-117940476D01*
X102964285Y-117892857D01*
X103011904Y-117797619D01*
X103059523Y-117750000D01*
X103154761Y-117702380D01*
X103345238Y-117702380D01*
X103440476Y-117750000D01*
X103488095Y-117797619D01*
X103535714Y-117892857D01*
X103535714Y-117940476D01*
X103488095Y-118035714D01*
X103440476Y-118083333D01*
X103345238Y-118130952D01*
X103154761Y-118130952D01*
X103059523Y-118178571D01*
X103011904Y-118226190D01*
X102964285Y-118321428D01*
X102964285Y-118511904D01*
X103011904Y-118607142D01*
X103059523Y-118654761D01*
X103154761Y-118702380D01*
X103345238Y-118702380D01*
X103440476Y-118654761D01*
X103488095Y-118607142D01*
X103535714Y-118511904D01*
X103535714Y-118321428D01*
X103488095Y-118226190D01*
X103440476Y-118178571D01*
X103345238Y-118130952D01*
X69083333Y-65557142D02*
X69035714Y-65604761D01*
X68892857Y-65652380D01*
X68797619Y-65652380D01*
X68654761Y-65604761D01*
X68559523Y-65509523D01*
X68511904Y-65414285D01*
X68464285Y-65223809D01*
X68464285Y-65080952D01*
X68511904Y-64890476D01*
X68559523Y-64795238D01*
X68654761Y-64700000D01*
X68797619Y-64652380D01*
X68892857Y-64652380D01*
X69035714Y-64700000D01*
X69083333Y-64747619D01*
X69940476Y-64652380D02*
X69750000Y-64652380D01*
X69654761Y-64700000D01*
X69607142Y-64747619D01*
X69511904Y-64890476D01*
X69464285Y-65080952D01*
X69464285Y-65461904D01*
X69511904Y-65557142D01*
X69559523Y-65604761D01*
X69654761Y-65652380D01*
X69845238Y-65652380D01*
X69940476Y-65604761D01*
X69988095Y-65557142D01*
X70035714Y-65461904D01*
X70035714Y-65223809D01*
X69988095Y-65128571D01*
X69940476Y-65080952D01*
X69845238Y-65033333D01*
X69654761Y-65033333D01*
X69559523Y-65080952D01*
X69511904Y-65128571D01*
X69464285Y-65223809D01*
X69083333Y-72607142D02*
X69035714Y-72654761D01*
X68892857Y-72702380D01*
X68797619Y-72702380D01*
X68654761Y-72654761D01*
X68559523Y-72559523D01*
X68511904Y-72464285D01*
X68464285Y-72273809D01*
X68464285Y-72130952D01*
X68511904Y-71940476D01*
X68559523Y-71845238D01*
X68654761Y-71750000D01*
X68797619Y-71702380D01*
X68892857Y-71702380D01*
X69035714Y-71750000D01*
X69083333Y-71797619D01*
X69988095Y-71702380D02*
X69511904Y-71702380D01*
X69464285Y-72178571D01*
X69511904Y-72130952D01*
X69607142Y-72083333D01*
X69845238Y-72083333D01*
X69940476Y-72130952D01*
X69988095Y-72178571D01*
X70035714Y-72273809D01*
X70035714Y-72511904D01*
X69988095Y-72607142D01*
X69940476Y-72654761D01*
X69845238Y-72702380D01*
X69607142Y-72702380D01*
X69511904Y-72654761D01*
X69464285Y-72607142D01*
X85333333Y-72607142D02*
X85285714Y-72654761D01*
X85142857Y-72702380D01*
X85047619Y-72702380D01*
X84904761Y-72654761D01*
X84809523Y-72559523D01*
X84761904Y-72464285D01*
X84714285Y-72273809D01*
X84714285Y-72130952D01*
X84761904Y-71940476D01*
X84809523Y-71845238D01*
X84904761Y-71750000D01*
X85047619Y-71702380D01*
X85142857Y-71702380D01*
X85285714Y-71750000D01*
X85333333Y-71797619D01*
X86190476Y-72035714D02*
X86190476Y-72702380D01*
X85952380Y-71654761D02*
X85714285Y-72369047D01*
X86333333Y-72369047D01*
X77333333Y-72607142D02*
X77285714Y-72654761D01*
X77142857Y-72702380D01*
X77047619Y-72702380D01*
X76904761Y-72654761D01*
X76809523Y-72559523D01*
X76761904Y-72464285D01*
X76714285Y-72273809D01*
X76714285Y-72130952D01*
X76761904Y-71940476D01*
X76809523Y-71845238D01*
X76904761Y-71750000D01*
X77047619Y-71702380D01*
X77142857Y-71702380D01*
X77285714Y-71750000D01*
X77333333Y-71797619D01*
X77666666Y-71702380D02*
X78285714Y-71702380D01*
X77952380Y-72083333D01*
X78095238Y-72083333D01*
X78190476Y-72130952D01*
X78238095Y-72178571D01*
X78285714Y-72273809D01*
X78285714Y-72511904D01*
X78238095Y-72607142D01*
X78190476Y-72654761D01*
X78095238Y-72702380D01*
X77809523Y-72702380D01*
X77714285Y-72654761D01*
X77666666Y-72607142D01*
X88833333Y-121357142D02*
X88785714Y-121404761D01*
X88642857Y-121452380D01*
X88547619Y-121452380D01*
X88404761Y-121404761D01*
X88309523Y-121309523D01*
X88261904Y-121214285D01*
X88214285Y-121023809D01*
X88214285Y-120880952D01*
X88261904Y-120690476D01*
X88309523Y-120595238D01*
X88404761Y-120500000D01*
X88547619Y-120452380D01*
X88642857Y-120452380D01*
X88785714Y-120500000D01*
X88833333Y-120547619D01*
X89214285Y-120547619D02*
X89261904Y-120500000D01*
X89357142Y-120452380D01*
X89595238Y-120452380D01*
X89690476Y-120500000D01*
X89738095Y-120547619D01*
X89785714Y-120642857D01*
X89785714Y-120738095D01*
X89738095Y-120880952D01*
X89166666Y-121452380D01*
X89785714Y-121452380D01*
X76833333Y-65557142D02*
X76785714Y-65604761D01*
X76642857Y-65652380D01*
X76547619Y-65652380D01*
X76404761Y-65604761D01*
X76309523Y-65509523D01*
X76261904Y-65414285D01*
X76214285Y-65223809D01*
X76214285Y-65080952D01*
X76261904Y-64890476D01*
X76309523Y-64795238D01*
X76404761Y-64700000D01*
X76547619Y-64652380D01*
X76642857Y-64652380D01*
X76785714Y-64700000D01*
X76833333Y-64747619D01*
X77785714Y-65652380D02*
X77214285Y-65652380D01*
X77500000Y-65652380D02*
X77500000Y-64652380D01*
X77404761Y-64795238D01*
X77309523Y-64890476D01*
X77214285Y-64938095D01*
M02*
