G04 #@! TF.GenerationSoftware,KiCad,Pcbnew,5.1.5-52549c5~84~ubuntu19.04.1*
G04 #@! TF.CreationDate,2020-02-13T11:45:51+01:00*
G04 #@! TF.ProjectId,laborBerlin,6c61626f-7242-4657-926c-696e2e6b6963,rev?*
G04 #@! TF.SameCoordinates,Original*
G04 #@! TF.FileFunction,Copper,L1,Top*
G04 #@! TF.FilePolarity,Positive*
%FSLAX46Y46*%
G04 Gerber Fmt 4.6, Leading zero omitted, Abs format (unit mm)*
G04 Created by KiCad (PCBNEW 5.1.5-52549c5~84~ubuntu19.04.1) date 2020-02-13 11:45:51*
%MOMM*%
%LPD*%
G04 APERTURE LIST*
%ADD10R,1.700000X1.700000*%
%ADD11R,1.727200X1.727200*%
%ADD12C,1.727200*%
%ADD13C,1.300000*%
%ADD14C,2.000000*%
%ADD15O,1.600000X1.600000*%
%ADD16R,1.600000X1.600000*%
%ADD17R,1.050000X1.500000*%
%ADD18O,1.050000X1.500000*%
%ADD19C,1.524000*%
%ADD20C,1.440000*%
%ADD21O,1.400000X1.400000*%
%ADD22C,1.400000*%
%ADD23O,1.905000X2.000000*%
%ADD24R,1.905000X2.000000*%
%ADD25R,5.000000X2.500000*%
%ADD26O,1.700000X1.700000*%
%ADD27C,1.800000*%
%ADD28R,1.800000X1.800000*%
%ADD29O,2.200000X2.200000*%
%ADD30R,2.200000X2.200000*%
%ADD31O,2.000000X2.000000*%
%ADD32R,2.000000X2.000000*%
%ADD33C,2.400000*%
%ADD34R,2.400000X2.400000*%
%ADD35C,1.600000*%
%ADD36C,0.800000*%
%ADD37C,0.250000*%
%ADD38C,1.000000*%
G04 APERTURE END LIST*
D10*
X205200000Y-37500000D03*
X198975000Y-37500000D03*
X192750000Y-37500000D03*
D11*
X161380000Y-100380000D03*
D12*
X161380000Y-102920000D03*
X161380000Y-105460000D03*
X161380000Y-108000000D03*
X161380000Y-110540000D03*
X161380000Y-113080000D03*
X161380000Y-115620000D03*
X161380000Y-118160000D03*
X161380000Y-120700000D03*
X161380000Y-123240000D03*
X161380000Y-125780000D03*
X161380000Y-128320000D03*
X161380000Y-130860000D03*
X161380000Y-133400000D03*
X161380000Y-135940000D03*
X176620000Y-135940000D03*
X176620000Y-133400000D03*
X176620000Y-130860000D03*
X176620000Y-128320000D03*
X176620000Y-125780000D03*
X176620000Y-123240000D03*
X176620000Y-120700000D03*
X176620000Y-118160000D03*
X176620000Y-115620000D03*
X176620000Y-113080000D03*
X176620000Y-110540000D03*
X176620000Y-108000000D03*
X176620000Y-105460000D03*
X176620000Y-102920000D03*
X176620000Y-100380000D03*
D13*
X136000000Y-128250000D03*
X143500000Y-123250000D03*
D14*
X138450000Y-125850000D03*
X141050000Y-125650000D03*
D13*
X178250000Y-82100000D03*
X170750000Y-77100000D03*
D14*
X175800000Y-79700000D03*
X173200000Y-79500000D03*
D13*
X140250000Y-82000000D03*
X132750000Y-77000000D03*
D14*
X137800000Y-79600000D03*
X135200000Y-79400000D03*
X169100000Y-27850000D03*
X169100000Y-18650000D03*
X165100000Y-27850000D03*
X173100000Y-27850000D03*
X165100000Y-18650000D03*
X173100000Y-18650000D03*
D13*
X102250000Y-82000000D03*
X94750000Y-77000000D03*
D14*
X99800000Y-79600000D03*
X97200000Y-79400000D03*
X151000000Y-27850000D03*
X151000000Y-18650000D03*
X147000000Y-27850000D03*
X155000000Y-27850000D03*
X147000000Y-18650000D03*
X155000000Y-18650000D03*
D15*
X193870000Y-82000000D03*
X186250000Y-89620000D03*
X193870000Y-84540000D03*
X186250000Y-87080000D03*
X193870000Y-87080000D03*
X186250000Y-84540000D03*
X193870000Y-89620000D03*
D16*
X186250000Y-82000000D03*
D17*
X177250000Y-56750000D03*
D18*
X179790000Y-56750000D03*
X178520000Y-56750000D03*
D14*
X122250000Y-27850000D03*
X122250000Y-18650000D03*
X118250000Y-27850000D03*
X126250000Y-27850000D03*
X118250000Y-18650000D03*
X126250000Y-18650000D03*
X134250000Y-27850000D03*
X138250000Y-27850000D03*
X134250000Y-18650000D03*
X138250000Y-18650000D03*
X198975000Y-27750000D03*
X198975000Y-18550000D03*
X194975000Y-27750000D03*
X202975000Y-27750000D03*
X194975000Y-18550000D03*
X202975000Y-18550000D03*
D19*
X203950000Y-116860000D03*
X203950000Y-106730000D03*
X203950000Y-132040000D03*
X203950000Y-119390000D03*
X203950000Y-101650000D03*
X203950000Y-109240000D03*
X203950000Y-129540000D03*
X203950000Y-114320000D03*
X203950000Y-121930000D03*
X203950000Y-104190000D03*
X203950000Y-134580000D03*
X203950000Y-111780000D03*
X203950000Y-127010000D03*
X203950000Y-124470000D03*
X183900000Y-134580000D03*
X183900000Y-132040000D03*
X183900000Y-129540000D03*
X183900000Y-127010000D03*
X183900000Y-124470000D03*
X183900000Y-121930000D03*
X183900000Y-119390000D03*
X183900000Y-116860000D03*
X183900000Y-114320000D03*
X183900000Y-111780000D03*
X183900000Y-109240000D03*
X183900000Y-104190000D03*
X183900000Y-101650000D03*
X183900000Y-106730000D03*
D20*
X94920000Y-97250000D03*
X97460000Y-97250000D03*
X100000000Y-97250000D03*
D21*
X139370000Y-96000000D03*
D22*
X131750000Y-96000000D03*
D21*
X126370000Y-82750000D03*
D22*
X118750000Y-82750000D03*
D21*
X139620000Y-109250000D03*
D22*
X132000000Y-109250000D03*
D21*
X126370000Y-87000000D03*
D22*
X118750000Y-87000000D03*
D21*
X114370000Y-104750000D03*
D22*
X106750000Y-104750000D03*
D21*
X101120000Y-87000000D03*
D22*
X93500000Y-87000000D03*
D21*
X126620000Y-96000000D03*
D22*
X119000000Y-96000000D03*
D21*
X126620000Y-91500000D03*
D22*
X119000000Y-91500000D03*
D21*
X152620000Y-104750000D03*
D22*
X145000000Y-104750000D03*
D21*
X139370000Y-100750000D03*
D22*
X131750000Y-100750000D03*
D21*
X139370000Y-104750000D03*
D22*
X131750000Y-104750000D03*
D21*
X152620000Y-100500000D03*
D22*
X145000000Y-100500000D03*
D21*
X139370000Y-91500000D03*
D22*
X131750000Y-91500000D03*
D21*
X152620000Y-96000000D03*
D22*
X145000000Y-96000000D03*
D21*
X152620000Y-109500000D03*
D22*
X145000000Y-109500000D03*
D21*
X126870000Y-104750000D03*
D22*
X119250000Y-104750000D03*
D21*
X152620000Y-91500000D03*
D22*
X145000000Y-91500000D03*
D21*
X113870000Y-91750000D03*
D22*
X106250000Y-91750000D03*
D21*
X113870000Y-87000000D03*
D22*
X106250000Y-87000000D03*
D21*
X152370000Y-87250000D03*
D22*
X144750000Y-87250000D03*
D21*
X126870000Y-100500000D03*
D22*
X119250000Y-100500000D03*
D21*
X126320000Y-77800000D03*
D22*
X118700000Y-77800000D03*
D21*
X139370000Y-87000000D03*
D22*
X131750000Y-87000000D03*
D21*
X126870000Y-109250000D03*
D22*
X119250000Y-109250000D03*
D21*
X152520000Y-82700000D03*
D22*
X144900000Y-82700000D03*
D21*
X113870000Y-82500000D03*
D22*
X106250000Y-82500000D03*
D21*
X114370000Y-100500000D03*
D22*
X106750000Y-100500000D03*
D21*
X114120000Y-96000000D03*
D22*
X106500000Y-96000000D03*
D21*
X114020000Y-78200000D03*
D22*
X106400000Y-78200000D03*
D21*
X114370000Y-109500000D03*
D22*
X106750000Y-109500000D03*
D21*
X152520000Y-77500000D03*
D22*
X144900000Y-77500000D03*
D19*
X191900000Y-57750000D03*
X189500000Y-57750000D03*
X187100000Y-57750000D03*
X204000000Y-61006000D03*
X199200000Y-61006000D03*
X201600000Y-61032000D03*
D23*
X134780000Y-57200000D03*
X132240000Y-57200000D03*
D24*
X129700000Y-57200000D03*
D23*
X134830000Y-39750000D03*
X132290000Y-39750000D03*
D24*
X129750000Y-39750000D03*
D23*
X105330000Y-56750000D03*
X102790000Y-56750000D03*
D24*
X100250000Y-56750000D03*
D23*
X161330000Y-57250000D03*
X158790000Y-57250000D03*
D24*
X156250000Y-57250000D03*
D23*
X105330000Y-39500000D03*
X102790000Y-39500000D03*
D24*
X100250000Y-39500000D03*
D23*
X161330000Y-40250000D03*
X158790000Y-40250000D03*
D24*
X156250000Y-40250000D03*
D19*
X184290000Y-45000000D03*
X181750000Y-45000000D03*
X179210000Y-45000000D03*
D25*
X171950000Y-84050000D03*
X161450000Y-91150000D03*
X161450000Y-84050000D03*
X171950000Y-91150000D03*
D26*
X84750000Y-41360000D03*
X84750000Y-38820000D03*
X84750000Y-36280000D03*
X84750000Y-33740000D03*
X84750000Y-31200000D03*
X84750000Y-28660000D03*
X84750000Y-26120000D03*
X84750000Y-23580000D03*
X84750000Y-21040000D03*
D10*
X84750000Y-18500000D03*
D26*
X77000000Y-41110000D03*
X77000000Y-38570000D03*
X77000000Y-36030000D03*
X77000000Y-33490000D03*
X77000000Y-30950000D03*
X77000000Y-28410000D03*
X77000000Y-25870000D03*
X77000000Y-23330000D03*
X77000000Y-20790000D03*
D10*
X77000000Y-18250000D03*
D26*
X69250000Y-40860000D03*
X69250000Y-38320000D03*
X69250000Y-35780000D03*
X69250000Y-33240000D03*
X69250000Y-30700000D03*
X69250000Y-28160000D03*
X69250000Y-25620000D03*
X69250000Y-23080000D03*
X69250000Y-20540000D03*
D10*
X69250000Y-18000000D03*
D14*
X179325000Y-18650000D03*
X179325000Y-27850000D03*
X185400000Y-18650000D03*
X185400000Y-27850000D03*
D19*
X181040000Y-66706000D03*
X175960000Y-66706000D03*
X178500000Y-66732000D03*
D27*
X91840000Y-115200000D03*
D28*
X89300000Y-115200000D03*
D27*
X113840000Y-115200000D03*
D28*
X111300000Y-115200000D03*
D27*
X106240000Y-115100000D03*
D28*
X103700000Y-115100000D03*
D27*
X99140000Y-115200000D03*
D28*
X96600000Y-115200000D03*
D29*
X76750000Y-49340000D03*
D30*
X76750000Y-59500000D03*
D29*
X84500000Y-49340000D03*
D30*
X84500000Y-59500000D03*
D31*
X204330000Y-56500000D03*
D32*
X199250000Y-56500000D03*
D29*
X69000000Y-49340000D03*
D30*
X69000000Y-59500000D03*
D27*
X137540000Y-69700000D03*
D28*
X135000000Y-69700000D03*
D27*
X99700000Y-69500000D03*
D28*
X97160000Y-69500000D03*
D33*
X121500000Y-126000000D03*
D34*
X116500000Y-126000000D03*
D35*
X86000000Y-67250000D03*
X83500000Y-67250000D03*
D33*
X105250000Y-126000000D03*
D34*
X100250000Y-126000000D03*
D35*
X70500000Y-67250000D03*
X68000000Y-67250000D03*
X70500000Y-76000000D03*
D16*
X68000000Y-76000000D03*
D35*
X86750000Y-76000000D03*
D16*
X84250000Y-76000000D03*
D35*
X78750000Y-76000000D03*
D16*
X76250000Y-76000000D03*
D35*
X90250000Y-126250000D03*
D16*
X87750000Y-126250000D03*
D35*
X78250000Y-67250000D03*
X75750000Y-67250000D03*
D36*
X74900000Y-64200000D03*
X64495032Y-79797293D03*
X94527180Y-109500000D03*
X145000000Y-124500000D03*
X185000000Y-66000000D03*
X115100000Y-32400000D03*
X96500000Y-74400000D03*
X101500000Y-74700000D03*
X101300000Y-77700000D03*
X173300000Y-105600000D03*
X156500000Y-100700000D03*
X131800000Y-81900000D03*
X99900000Y-84700011D03*
X118800000Y-92700000D03*
X142400000Y-102200000D03*
X143700000Y-102999999D03*
X142187347Y-104887347D03*
X115500000Y-97000000D03*
X118500000Y-97600000D03*
X118305001Y-94600000D03*
X137800000Y-71700000D03*
X64699981Y-105384983D03*
X116500000Y-122000000D03*
X165100000Y-88300000D03*
X162200000Y-86800000D03*
X116500000Y-111630000D03*
X140000000Y-114600000D03*
X73800000Y-70000000D03*
X142400000Y-46300000D03*
X149300000Y-39000000D03*
X152400000Y-36000000D03*
X158800000Y-36000000D03*
X86750000Y-76000000D03*
X77700000Y-89900000D03*
X75400000Y-92800000D03*
X196200000Y-133700000D03*
X196000000Y-128700000D03*
X75703032Y-70903032D03*
X82200000Y-77000000D03*
X81800000Y-61400000D03*
X211200000Y-27800000D03*
X210300000Y-81700000D03*
X206100000Y-86700000D03*
X159700000Y-44800000D03*
X119700000Y-97600000D03*
X117653846Y-85553846D03*
X116000000Y-82900000D03*
X130800000Y-74900000D03*
X132800000Y-75400000D03*
X140343154Y-74156846D03*
X145000000Y-80200000D03*
X147000000Y-81100000D03*
X150700000Y-83900000D03*
X150800000Y-86500000D03*
X153799924Y-94330478D03*
X130300000Y-81800000D03*
X137500000Y-67700000D03*
X154100000Y-54800000D03*
X156700000Y-48600000D03*
X162700000Y-52300000D03*
X173000000Y-46300000D03*
X184400000Y-54700000D03*
X183900000Y-57700000D03*
X187100000Y-62400000D03*
X187800000Y-67700000D03*
X205500000Y-81000000D03*
X117249999Y-98400000D03*
X122100000Y-98300000D03*
X124619999Y-98400000D03*
X115800000Y-89300000D03*
X111787347Y-94287347D03*
X116100000Y-90200000D03*
X185200000Y-95200000D03*
X73300000Y-72600000D03*
X75800000Y-79700000D03*
X90900000Y-104800000D03*
X109800000Y-106700000D03*
X115600000Y-107900000D03*
X118200000Y-107900000D03*
X136000000Y-108000000D03*
X140800000Y-106000000D03*
X153800000Y-119200000D03*
X155600000Y-110900000D03*
X154100000Y-109300000D03*
X143387347Y-107787347D03*
X145675000Y-106875000D03*
X149500000Y-105872347D03*
X157800000Y-71000000D03*
X148700000Y-73600000D03*
X147100000Y-70100000D03*
X168700000Y-66100000D03*
X143600000Y-67700000D03*
X144500000Y-70100000D03*
X116000000Y-77100000D03*
X116000000Y-67300000D03*
X131300000Y-60100000D03*
X138100000Y-62500000D03*
X157900000Y-60500000D03*
X165400000Y-61600000D03*
X101850000Y-71950000D03*
X90700000Y-75700000D03*
X91700000Y-76600000D03*
X92900000Y-78300000D03*
X85256846Y-88356846D03*
X108500000Y-114500000D03*
X103600000Y-110500000D03*
X138175000Y-60300000D03*
X132300000Y-50200000D03*
X125200000Y-65700000D03*
X128000000Y-68900000D03*
X148800000Y-69800000D03*
X149800000Y-75300000D03*
X111500000Y-76700000D03*
X111500000Y-71600000D03*
X121500000Y-67900000D03*
X128400000Y-71300000D03*
X135300000Y-71900000D03*
X118800000Y-118500000D03*
X122300000Y-96100000D03*
X121400000Y-101500010D03*
X104700000Y-113200000D03*
X120600000Y-80500000D03*
X127000000Y-75800000D03*
X128600000Y-73100000D03*
X134400000Y-77000000D03*
X145500010Y-73900000D03*
X145500010Y-66700000D03*
X151223848Y-67423848D03*
X152438846Y-80238846D03*
X158000000Y-91900000D03*
X158100000Y-98200000D03*
X167837347Y-105937347D03*
X170300000Y-107200000D03*
X167600000Y-115900000D03*
X95800000Y-81300000D03*
X100625000Y-81300000D03*
X131300000Y-73000000D03*
X128000000Y-50800000D03*
X138900000Y-52100000D03*
X121500000Y-95300000D03*
X120600000Y-100600000D03*
X108500000Y-110800000D03*
X112500000Y-111500000D03*
X151100000Y-118600000D03*
X120700000Y-118425000D03*
X120200000Y-113400000D03*
X115600000Y-113400000D03*
X99600000Y-91500000D03*
X92300000Y-93600000D03*
X88500000Y-97300000D03*
X150900000Y-100600000D03*
X104100000Y-96700000D03*
X179500000Y-75900000D03*
X177900000Y-78900000D03*
X167700000Y-48100000D03*
X163900000Y-52000000D03*
X157900000Y-108000000D03*
X156025000Y-106300000D03*
X147400000Y-107600000D03*
X143000000Y-109200000D03*
X141600000Y-112900000D03*
X154497347Y-106597347D03*
X122300000Y-106500001D03*
X122010048Y-104658579D03*
X124200000Y-100900000D03*
X113039152Y-99660848D03*
X116130848Y-99230848D03*
X107402643Y-112202643D03*
X109300000Y-113600000D03*
X115300000Y-116800000D03*
X123600000Y-108800000D03*
X134900000Y-101000000D03*
X139900000Y-102900000D03*
X139909808Y-85251576D03*
X135100000Y-107175000D03*
X124612653Y-105387347D03*
X152520000Y-82700000D03*
X86600000Y-69400000D03*
X100200000Y-60900000D03*
X129400000Y-100000000D03*
X123000000Y-104800000D03*
X133100000Y-107175000D03*
X139300000Y-113100000D03*
X142900000Y-112300000D03*
X144275000Y-110602547D03*
X153597347Y-107497347D03*
X154722653Y-108422653D03*
X170000000Y-104800000D03*
X171500000Y-106900000D03*
X181400000Y-103000000D03*
X192940154Y-93240154D03*
X77200000Y-96600000D03*
X87500000Y-93100000D03*
X96400000Y-82300000D03*
X104800000Y-81700000D03*
X109600000Y-79950001D03*
X140500000Y-116700000D03*
X121800000Y-116700000D03*
X116300000Y-106700000D03*
X147400000Y-114800000D03*
X134900000Y-104800000D03*
X133317002Y-104800000D03*
X143834076Y-92075000D03*
X142500000Y-97675000D03*
X145300000Y-102800000D03*
X184700000Y-140900000D03*
X208900000Y-133700000D03*
X187100000Y-96600000D03*
X162900000Y-95600000D03*
X138000000Y-93600000D03*
X139954433Y-79454433D03*
X141016731Y-80900000D03*
X142800846Y-80200846D03*
X145500010Y-84800000D03*
X149075000Y-84800000D03*
X157400000Y-83900000D03*
X173104848Y-75704848D03*
X177400000Y-71400000D03*
X187200000Y-92600000D03*
X163900000Y-95200000D03*
X156100000Y-93600000D03*
X154054433Y-65354433D03*
X159900000Y-80000000D03*
X175075000Y-76300000D03*
X204700000Y-83400000D03*
X194000000Y-73900000D03*
X185300000Y-74800000D03*
X179000000Y-74300000D03*
X139800000Y-72500000D03*
X139625000Y-66300000D03*
X138100000Y-64200000D03*
X136562653Y-64237347D03*
X132000000Y-67700001D03*
X134500000Y-72500000D03*
X129300000Y-77774999D03*
X146400000Y-102300000D03*
X148600000Y-96200000D03*
X154673848Y-95073848D03*
X147149999Y-91500000D03*
X157275000Y-89500000D03*
X161300000Y-88475001D03*
X163550001Y-86900000D03*
X168300000Y-88000000D03*
X173800000Y-88800000D03*
X177800000Y-93700000D03*
X172200000Y-100100000D03*
X163115547Y-100759148D03*
X163500000Y-103300000D03*
X176200000Y-86500000D03*
X168800000Y-98800000D03*
X164700000Y-100200000D03*
X158500000Y-103200000D03*
D37*
X78250000Y-67250000D02*
X77124999Y-68375001D01*
X77124999Y-68375001D02*
X75209999Y-68375001D01*
X75209999Y-68375001D02*
X74624999Y-67790001D01*
X74624999Y-67790001D02*
X74624999Y-64475001D01*
X74624999Y-64475001D02*
X74900000Y-64200000D01*
X64495032Y-79797293D02*
X94197739Y-109500000D01*
X94197739Y-109500000D02*
X94527180Y-109500000D01*
X145000000Y-124500000D02*
X162700000Y-142200000D01*
X162700000Y-142200000D02*
X185100000Y-142200000D01*
X185100000Y-142200000D02*
X194000000Y-133300000D01*
X187710000Y-127010000D02*
X183900000Y-127010000D01*
X194000000Y-133300000D02*
X187710000Y-127010000D01*
D38*
X161330000Y-57250000D02*
X161330000Y-40250000D01*
X116835787Y-27850000D02*
X118250000Y-27850000D01*
X105330000Y-38250000D02*
X115730000Y-27850000D01*
X115730000Y-27850000D02*
X116835787Y-27850000D01*
X105330000Y-39500000D02*
X105330000Y-38250000D01*
D37*
X105330000Y-39500000D02*
X105330000Y-40750000D01*
X162532500Y-57250000D02*
X166682500Y-53100000D01*
X161330000Y-57250000D02*
X162532500Y-57250000D01*
X178520000Y-55750000D02*
X178520000Y-56750000D01*
X175870000Y-53100000D02*
X178520000Y-55750000D01*
X166682500Y-53100000D02*
X175870000Y-53100000D01*
X175800000Y-75200000D02*
X175800000Y-79700000D01*
X185000000Y-66000000D02*
X175800000Y-75200000D01*
X105330000Y-39500000D02*
X108000000Y-39500000D01*
X108000000Y-39500000D02*
X115100000Y-32400000D01*
X85184001Y-47914999D02*
X86000000Y-48730998D01*
X78110001Y-17074999D02*
X75889999Y-17074999D01*
X75699991Y-41548993D02*
X82065997Y-47914999D01*
X75699991Y-17265007D02*
X75699991Y-41548993D01*
X84750000Y-23714998D02*
X78110001Y-17074999D01*
X86000000Y-66118630D02*
X86000000Y-67250000D01*
X82065997Y-47914999D02*
X85184001Y-47914999D01*
X75889999Y-17074999D02*
X75699991Y-17265007D01*
X84750000Y-41360000D02*
X84750000Y-23714998D01*
X75750000Y-65464998D02*
X75750000Y-66118630D01*
X75750000Y-66118630D02*
X75750000Y-67250000D01*
X83209992Y-55424990D02*
X85860001Y-58074999D01*
X70290008Y-55424990D02*
X83209992Y-55424990D01*
X67574999Y-58139999D02*
X70290008Y-55424990D01*
X83139999Y-58074999D02*
X75750000Y-65464998D01*
X85860001Y-58074999D02*
X83139999Y-58074999D01*
X67574999Y-64324999D02*
X67574999Y-58139999D01*
X70500000Y-67250000D02*
X67574999Y-64324999D01*
X97160000Y-70650000D02*
X97160000Y-69500000D01*
X100925001Y-70088001D02*
X100288001Y-70725001D01*
X100925001Y-63571739D02*
X100925001Y-70088001D01*
X97235001Y-70725001D02*
X97160000Y-70650000D01*
X100288001Y-70725001D02*
X97235001Y-70725001D01*
X106607510Y-57889230D02*
X100925001Y-63571739D01*
X106607510Y-56173339D02*
X106607510Y-57889230D01*
X105859170Y-55424999D02*
X106607510Y-56173339D01*
X97825001Y-55424999D02*
X105859170Y-55424999D01*
X86000000Y-67250000D02*
X97825001Y-55424999D01*
X83209992Y-53290008D02*
X86000000Y-50500000D01*
X83209992Y-55424990D02*
X83209992Y-53290008D01*
X86000000Y-48730998D02*
X86000000Y-50500000D01*
X86000000Y-50500000D02*
X86000000Y-66118630D01*
X100288001Y-70725001D02*
X100174999Y-70725001D01*
X100174999Y-70725001D02*
X96500000Y-74400000D01*
X101500000Y-74700000D02*
X101500000Y-77500000D01*
X101500000Y-77500000D02*
X101300000Y-77700000D01*
X173940000Y-105600000D02*
X176620000Y-102920000D01*
X173300000Y-105600000D02*
X173940000Y-105600000D01*
X182822370Y-132040000D02*
X181700000Y-130917630D01*
X183900000Y-132040000D02*
X182822370Y-132040000D01*
X181700000Y-124130000D02*
X183900000Y-121930000D01*
X181700000Y-130917630D02*
X181700000Y-124130000D01*
X171540000Y-108000000D02*
X176620000Y-102920000D01*
X161380000Y-108000000D02*
X171540000Y-108000000D01*
X152820000Y-100700000D02*
X152620000Y-100500000D01*
X156500000Y-100700000D02*
X152820000Y-100700000D01*
X123387002Y-91500000D02*
X119989949Y-91500000D01*
X119989949Y-91500000D02*
X119000000Y-91500000D01*
X99900000Y-79700000D02*
X99800000Y-79600000D01*
X99900000Y-84700011D02*
X99900000Y-79700000D01*
X119000000Y-91500000D02*
X119000000Y-92500000D01*
X119000000Y-92500000D02*
X118800000Y-92700000D01*
X139370000Y-100750000D02*
X140950000Y-100750000D01*
X140950000Y-100750000D02*
X142400000Y-102200000D01*
X143700000Y-102999999D02*
X142187347Y-104512652D01*
X142187347Y-104512652D02*
X142187347Y-104887347D01*
X137500000Y-79300000D02*
X137800000Y-79600000D01*
X115500000Y-97000000D02*
X116100000Y-97600000D01*
X116100000Y-97600000D02*
X118500000Y-97600000D01*
X131800000Y-83087002D02*
X131800000Y-81900000D01*
X131693501Y-83193501D02*
X131800000Y-83087002D01*
X131693501Y-83193501D02*
X123387002Y-91500000D01*
X115500000Y-97000000D02*
X117900000Y-94600000D01*
X117900000Y-94600000D02*
X118305001Y-94600000D01*
X137800000Y-79600000D02*
X137800000Y-71700000D01*
D38*
X184290000Y-39040000D02*
X184290000Y-45000000D01*
X173100000Y-27850000D02*
X184290000Y-39040000D01*
X180565000Y-56750000D02*
X179790000Y-56750000D01*
X184290000Y-53025000D02*
X180565000Y-56750000D01*
X184290000Y-45000000D02*
X184290000Y-53025000D01*
X184290000Y-53025000D02*
X196425000Y-53025000D01*
X198000000Y-56500000D02*
X199250000Y-56500000D01*
X196425000Y-54925000D02*
X198000000Y-56500000D01*
X196425000Y-53025000D02*
X196425000Y-54925000D01*
D37*
X161450000Y-82550000D02*
X161450000Y-84050000D01*
D38*
X161450000Y-76090000D02*
X161450000Y-82550000D01*
X179790000Y-57750000D02*
X161450000Y-76090000D01*
X179790000Y-56750000D02*
X179790000Y-57750000D01*
X69000000Y-49340000D02*
X62300000Y-56040000D01*
X62300000Y-56040000D02*
X62300000Y-102985002D01*
X62300000Y-102985002D02*
X64699981Y-105384983D01*
D37*
X116500000Y-111630000D02*
X114370000Y-109500000D01*
X116500000Y-122000000D02*
X116500000Y-111630000D01*
X165100000Y-88300000D02*
X163700000Y-88300000D01*
X163700000Y-88300000D02*
X162200000Y-86800000D01*
X126870000Y-109250000D02*
X132220000Y-114600000D01*
X132220000Y-114600000D02*
X140000000Y-114600000D01*
X73800000Y-61100000D02*
X75400000Y-59500000D01*
X75400000Y-59500000D02*
X76750000Y-59500000D01*
X73800000Y-70000000D02*
X73800000Y-61100000D01*
X143508001Y-124225001D02*
X162483000Y-143200000D01*
X137207999Y-124225001D02*
X143508001Y-124225001D01*
X118224999Y-103042003D02*
X118224999Y-105242001D01*
X105651999Y-113874999D02*
X107392003Y-113874999D01*
X102539999Y-116325001D02*
X104860001Y-116325001D01*
X104860001Y-116325001D02*
X105014999Y-116170003D01*
X118224999Y-105242001D02*
X137207999Y-124225001D01*
X78750000Y-76000000D02*
X79875001Y-74874999D01*
X81749991Y-93214991D02*
X102474999Y-113939999D01*
X105014999Y-114511999D02*
X105651999Y-113874999D01*
X102474999Y-113939999D02*
X102474999Y-116260001D01*
X105014999Y-116170003D02*
X105014999Y-114511999D01*
X107392003Y-113874999D02*
X118224999Y-103042003D01*
X79875001Y-74874999D02*
X93131999Y-74874999D01*
X102474999Y-116260001D02*
X102539999Y-116325001D01*
X162483000Y-143200000D02*
X185700000Y-143200000D01*
X185700000Y-143200000D02*
X195300000Y-133600000D01*
X195300000Y-130580000D02*
X203950000Y-121930000D01*
X195300000Y-133600000D02*
X195300000Y-130580000D01*
X93131999Y-74874999D02*
X93131999Y-76468001D01*
X93131999Y-76468001D02*
X81800000Y-87800000D01*
X81800000Y-88600000D02*
X81749991Y-93214991D01*
X81800000Y-88600000D02*
X81800000Y-87800000D01*
D38*
X158790000Y-39000000D02*
X158790000Y-40250000D01*
D37*
X158714999Y-38924999D02*
X158790000Y-39000000D01*
D38*
X142400000Y-45734315D02*
X149209316Y-38924999D01*
X142400000Y-46300000D02*
X142400000Y-45734315D01*
X105330000Y-58000000D02*
X92630000Y-70700000D01*
X105330000Y-56750000D02*
X105330000Y-58000000D01*
X76250000Y-74950000D02*
X76250000Y-76000000D01*
X80500000Y-70700000D02*
X76250000Y-74950000D01*
X92630000Y-70700000D02*
X80500000Y-70700000D01*
D37*
X149209316Y-38924999D02*
X149224999Y-38924999D01*
X149224999Y-38924999D02*
X149300000Y-39000000D01*
D38*
X152400000Y-36000000D02*
X158800000Y-36000000D01*
D37*
X70350000Y-59500000D02*
X72450000Y-57400000D01*
X69000000Y-59500000D02*
X70350000Y-59500000D01*
X75525001Y-70725001D02*
X75897480Y-71097480D01*
X72498003Y-70725001D02*
X75525001Y-70725001D01*
X72450000Y-70676998D02*
X72498003Y-70725001D01*
X72450000Y-57400000D02*
X72450000Y-70676998D01*
X86750000Y-76000000D02*
X86750000Y-80850000D01*
X86750000Y-80850000D02*
X77700000Y-89900000D01*
X186249991Y-143650009D02*
X196200000Y-133700000D01*
X129228597Y-143650009D02*
X186249991Y-143650009D01*
X75400000Y-92800000D02*
X92825001Y-110225001D01*
X98123591Y-110225001D02*
X102024989Y-114126399D01*
X102024989Y-114126399D02*
X102024990Y-116446402D01*
X92825001Y-110225001D02*
X98123591Y-110225001D01*
X102024990Y-116446402D02*
X129228597Y-143650009D01*
X196000000Y-128134315D02*
X194000000Y-126134315D01*
X196000000Y-128700000D02*
X196000000Y-128134315D01*
X194000000Y-121730000D02*
X203950000Y-111780000D01*
X194000000Y-126134315D02*
X194000000Y-121730000D01*
X75897480Y-71097480D02*
X75703032Y-70903032D01*
X82599999Y-77399999D02*
X85350001Y-77399999D01*
X82200000Y-77000000D02*
X82599999Y-77399999D01*
X85350001Y-77399999D02*
X86750000Y-76000000D01*
D38*
X139100000Y-39750000D02*
X151000000Y-27850000D01*
X134830000Y-39750000D02*
X139100000Y-39750000D01*
X160211002Y-24600000D02*
X207000000Y-24600000D01*
X207000000Y-25686002D02*
X208500000Y-27186002D01*
X207000000Y-24600000D02*
X207000000Y-25686002D01*
X208500000Y-112310000D02*
X203950000Y-116860000D01*
X208500000Y-27186002D02*
X208500000Y-112310000D01*
X154250000Y-24600000D02*
X151000000Y-27850000D01*
X160211002Y-24600000D02*
X154250000Y-24600000D01*
D37*
X71631370Y-76000000D02*
X70500000Y-76000000D01*
X84500000Y-63131370D02*
X71631370Y-76000000D01*
X84500000Y-59500000D02*
X84500000Y-63131370D01*
X84500000Y-63131370D02*
X83531370Y-63131370D01*
X83531370Y-63131370D02*
X81800000Y-61400000D01*
X211200000Y-27800000D02*
X211200000Y-80800000D01*
X211200000Y-80800000D02*
X210300000Y-81700000D01*
X206100000Y-86700000D02*
X205200000Y-86700000D01*
X205200000Y-86700000D02*
X198700000Y-93200000D01*
X198700000Y-96400000D02*
X203950000Y-101650000D01*
X198700000Y-93200000D02*
X198700000Y-96400000D01*
X159700000Y-56340000D02*
X158790000Y-57250000D01*
X159700000Y-44800000D02*
X159700000Y-56340000D01*
X119000000Y-96000000D02*
X119000000Y-96900000D01*
X119000000Y-96900000D02*
X119700000Y-97600000D01*
X117653846Y-84553846D02*
X117653846Y-85553846D01*
X116000000Y-82900000D02*
X117653846Y-84553846D01*
X131300000Y-75400000D02*
X130800000Y-74900000D01*
X132800000Y-75400000D02*
X131300000Y-75400000D01*
X145000000Y-79202588D02*
X140343154Y-74545742D01*
X145000000Y-80200000D02*
X145000000Y-79202588D01*
X140343154Y-74545742D02*
X140343154Y-74156846D01*
X147900000Y-81100000D02*
X147000000Y-81100000D01*
X150700000Y-83900000D02*
X147900000Y-81100000D01*
X147874999Y-96548001D02*
X147874999Y-89425001D01*
X148251999Y-96925001D02*
X147874999Y-96548001D01*
X148948001Y-96925001D02*
X148251999Y-96925001D01*
X153799924Y-94330478D02*
X151542524Y-94330478D01*
X151542524Y-94330478D02*
X148948001Y-96925001D01*
X147874999Y-89425001D02*
X150800000Y-86500000D01*
X121334315Y-90200000D02*
X116900000Y-90200000D01*
X130300000Y-81800000D02*
X129734315Y-81800000D01*
X129734315Y-81800000D02*
X121334315Y-90200000D01*
X184421761Y-135667001D02*
X185437010Y-134651752D01*
X137500000Y-67700000D02*
X136314999Y-68885001D01*
X136314999Y-68885001D02*
X136314999Y-78285001D01*
X136314999Y-78285001D02*
X136199999Y-78400001D01*
X136199999Y-78400001D02*
X135200000Y-79400000D01*
X154100000Y-51200000D02*
X154100000Y-54800000D01*
X156700000Y-48600000D02*
X154100000Y-51200000D01*
X168426998Y-46300000D02*
X162700000Y-52026998D01*
X173000000Y-46300000D02*
X168426998Y-46300000D01*
X162700000Y-52026998D02*
X162700000Y-52300000D01*
X183900000Y-55200000D02*
X184400000Y-54700000D01*
X183900000Y-57700000D02*
X183900000Y-55200000D01*
X187500000Y-62800000D02*
X187100000Y-62400000D01*
X187500000Y-66834315D02*
X187500000Y-62800000D01*
X187800000Y-67700000D02*
X187800000Y-67134315D01*
X187800000Y-67134315D02*
X187500000Y-66834315D01*
X203428239Y-102737001D02*
X204471761Y-102737001D01*
X206825001Y-82325001D02*
X205500000Y-81000000D01*
X184421761Y-125557001D02*
X202862999Y-107115763D01*
X183378239Y-125557001D02*
X184421761Y-125557001D01*
X206825001Y-100383761D02*
X206825001Y-82325001D01*
X160191399Y-124428601D02*
X160191399Y-126350529D01*
X182812999Y-126122241D02*
X183378239Y-125557001D01*
X182812999Y-127887759D02*
X182812999Y-126122241D01*
X183378239Y-128452999D02*
X182812999Y-127887759D01*
X202862999Y-103302241D02*
X203428239Y-102737001D01*
X160191399Y-126350529D02*
X160809471Y-126968601D01*
X160809471Y-126968601D02*
X170969471Y-126968601D01*
X202862999Y-107115763D02*
X202862999Y-103302241D01*
X170969471Y-126968601D02*
X176049471Y-132048601D01*
X161380000Y-123240000D02*
X160191399Y-124428601D01*
X180808929Y-135667001D02*
X184421761Y-135667001D01*
X176049471Y-132048601D02*
X177190529Y-132048601D01*
X185437010Y-129468248D02*
X184421761Y-128452999D01*
X177190529Y-132048601D02*
X180808929Y-135667001D01*
X204471761Y-102737001D02*
X206825001Y-100383761D01*
X184421761Y-128452999D02*
X183378239Y-128452999D01*
X185437010Y-134651752D02*
X185437010Y-129468248D01*
X117249999Y-98400000D02*
X122000000Y-98400000D01*
X122000000Y-98400000D02*
X122100000Y-98300000D01*
X126620000Y-96399999D02*
X126620000Y-96000000D01*
X124619999Y-98400000D02*
X126620000Y-96399999D01*
X118750000Y-87000000D02*
X116450000Y-89300000D01*
X116450000Y-89300000D02*
X115800000Y-89300000D01*
X117249999Y-98965685D02*
X117249999Y-98400000D01*
X114862001Y-101525001D02*
X117249999Y-99137003D01*
X113877999Y-101525001D02*
X114862001Y-101525001D01*
X117249999Y-99137003D02*
X117249999Y-98965685D01*
X111787347Y-99434349D02*
X113877999Y-101525001D01*
X111787347Y-94287347D02*
X111787347Y-99434349D01*
X116900000Y-90200000D02*
X116100000Y-90200000D01*
X184574999Y-71490686D02*
X184574999Y-80174999D01*
X187800000Y-67700000D02*
X187800000Y-68265685D01*
X187800000Y-68265685D02*
X184574999Y-71490686D01*
X187049999Y-86280001D02*
X186250000Y-87080000D01*
X187375001Y-85954999D02*
X187049999Y-86280001D01*
X187375001Y-80939999D02*
X187375001Y-85954999D01*
X186610001Y-80174999D02*
X187375001Y-80939999D01*
X184574999Y-80174999D02*
X186610001Y-80174999D01*
X185200000Y-95200000D02*
X186100000Y-95200000D01*
X186100000Y-95200000D02*
X189900000Y-91400000D01*
X189900000Y-85970000D02*
X193870000Y-82000000D01*
X189900000Y-91400000D02*
X189900000Y-85970000D01*
X68000000Y-67250000D02*
X73300000Y-72550000D01*
X73300000Y-72550000D02*
X73300000Y-72600000D01*
X75800000Y-79700000D02*
X75800000Y-89700000D01*
X75800000Y-89700000D02*
X90900000Y-104800000D01*
X106750000Y-104750000D02*
X107850000Y-104750000D01*
X107850000Y-104750000D02*
X109800000Y-106700000D01*
X115600000Y-107900000D02*
X118200000Y-107900000D01*
X136000000Y-108000000D02*
X138800000Y-108000000D01*
X138800000Y-108000000D02*
X140800000Y-106000000D01*
X153800000Y-119200000D02*
X155600000Y-117400000D01*
X155600000Y-117400000D02*
X155600000Y-110900000D01*
X143787346Y-108762654D02*
X145675000Y-106875000D01*
X143387347Y-107787347D02*
X143787346Y-108187346D01*
X143787346Y-108187346D02*
X143787346Y-108762654D01*
X153022348Y-108222348D02*
X153700001Y-108900001D01*
X151850001Y-108222348D02*
X153022348Y-108222348D01*
X153700001Y-108900001D02*
X154100000Y-109300000D01*
X149500000Y-105872347D02*
X151850001Y-108222348D01*
X177250000Y-56750000D02*
X172050000Y-56750000D01*
X172050000Y-56750000D02*
X157800000Y-71000000D01*
X148700000Y-73600000D02*
X148700000Y-71700000D01*
X148700000Y-71700000D02*
X147100000Y-70100000D01*
X168700000Y-64525000D02*
X168700000Y-66100000D01*
X177250000Y-56750000D02*
X176475000Y-56750000D01*
X176475000Y-56750000D02*
X168700000Y-64525000D01*
X143600000Y-67700000D02*
X143600000Y-69200000D01*
X143600000Y-69200000D02*
X144500000Y-70100000D01*
X116000000Y-77100000D02*
X116000000Y-67300000D01*
X131300000Y-60100000D02*
X133700000Y-62500000D01*
X133700000Y-62500000D02*
X138100000Y-62500000D01*
X132240000Y-39800000D02*
X132290000Y-39750000D01*
X132240000Y-57200000D02*
X132240000Y-58450000D01*
D38*
X132240000Y-58450000D02*
X134090000Y-60300000D01*
X157900000Y-60500000D02*
X159000000Y-61600000D01*
X159000000Y-61600000D02*
X165400000Y-61600000D01*
X92900000Y-78300000D02*
X92900000Y-78900000D01*
X92900000Y-78900000D02*
X85256846Y-86543154D01*
X85256846Y-86543154D02*
X85256846Y-88356846D01*
D37*
X90700000Y-75700000D02*
X90800000Y-75700000D01*
D38*
X90800000Y-75700000D02*
X91700000Y-76600000D01*
D37*
X96740001Y-97969999D02*
X97460000Y-97250000D01*
X95639999Y-97969999D02*
X96740001Y-97969999D01*
X94920000Y-97250000D02*
X95639999Y-97969999D01*
X116500000Y-126000000D02*
X115050000Y-126000000D01*
X108500000Y-119450000D02*
X108500000Y-114500000D01*
X115050000Y-126000000D02*
X108500000Y-119450000D01*
X97460000Y-104360000D02*
X97460000Y-97250000D01*
X103600000Y-110500000D02*
X97460000Y-104360000D01*
X85443154Y-88356846D02*
X85256846Y-88356846D01*
D38*
X134090000Y-60300000D02*
X138175000Y-60300000D01*
D37*
X132240000Y-50140000D02*
X132300000Y-50200000D01*
X132240000Y-50040000D02*
X132240000Y-50140000D01*
D38*
X132240000Y-50040000D02*
X132240000Y-39800000D01*
X132240000Y-57200000D02*
X132240000Y-50040000D01*
D37*
X125200000Y-65700000D02*
X128000000Y-68500000D01*
X128000000Y-68500000D02*
X128000000Y-68900000D01*
X148800000Y-69800000D02*
X149800000Y-70800000D01*
X149800000Y-70800000D02*
X149800000Y-75300000D01*
X111500000Y-76700000D02*
X111500000Y-71600000D01*
X121500000Y-67900000D02*
X124900000Y-71300000D01*
X124900000Y-71300000D02*
X128400000Y-71300000D01*
X138439999Y-67566997D02*
X138439999Y-68800001D01*
X137848001Y-66974999D02*
X138439999Y-67566997D01*
X135339999Y-66974999D02*
X137848001Y-66974999D01*
X133774999Y-68539999D02*
X135339999Y-66974999D01*
X138439999Y-68800001D02*
X137540000Y-69700000D01*
X133774999Y-70860001D02*
X133774999Y-68539999D01*
X133839999Y-70925001D02*
X133774999Y-70860001D01*
X134325001Y-70925001D02*
X133839999Y-70925001D01*
X135300000Y-71900000D02*
X134325001Y-70925001D01*
X127569999Y-99800001D02*
X126870000Y-100500000D01*
X130344999Y-97025001D02*
X127569999Y-99800001D01*
X139862001Y-97025001D02*
X130344999Y-97025001D01*
X140395001Y-96492001D02*
X139862001Y-97025001D01*
X146225010Y-87928402D02*
X140395001Y-93758411D01*
X139248001Y-51374999D02*
X146225010Y-58352008D01*
X138551999Y-51374999D02*
X139248001Y-51374999D01*
X138174999Y-51751999D02*
X138551999Y-51374999D01*
X146225010Y-58352008D02*
X146225010Y-87928402D01*
X138174999Y-48792576D02*
X138174999Y-51751999D01*
X148867585Y-38099990D02*
X138174999Y-48792576D01*
X140395001Y-93758411D02*
X140395001Y-96492001D01*
X172309990Y-38099990D02*
X148867585Y-38099990D01*
X179210000Y-45000000D02*
X172309990Y-38099990D01*
X119250000Y-118050000D02*
X119250000Y-109250000D01*
X118800000Y-118500000D02*
X119250000Y-118050000D01*
X125874999Y-92525001D02*
X122300000Y-96100000D01*
X131750000Y-91500000D02*
X130724999Y-92525001D01*
X130724999Y-92525001D02*
X125874999Y-92525001D01*
X107430592Y-113200000D02*
X104700000Y-113200000D01*
X118038598Y-102591994D02*
X107430592Y-113200000D01*
X121400000Y-101500010D02*
X120308016Y-102591994D01*
X120308016Y-102591994D02*
X118038598Y-102591994D01*
X115045001Y-78692001D02*
X114512001Y-79225001D01*
X123475001Y-29075001D02*
X123475001Y-56910001D01*
X115045001Y-65340001D02*
X115045001Y-78692001D01*
X123475001Y-56910001D02*
X115045001Y-65340001D01*
X122250000Y-27850000D02*
X123475001Y-29075001D01*
X115045001Y-78692001D02*
X116853000Y-80500000D01*
X116853000Y-80500000D02*
X120600000Y-80500000D01*
X127000000Y-75800000D02*
X127000000Y-75000000D01*
X127000000Y-75000000D02*
X128600000Y-73400000D01*
X128600000Y-73400000D02*
X128600000Y-73100000D01*
X145500010Y-73900000D02*
X145500010Y-66700000D01*
X151223848Y-67423848D02*
X151223848Y-79023848D01*
X151223848Y-79023848D02*
X152438846Y-80238846D01*
X158000000Y-91900000D02*
X158000000Y-98100000D01*
X158000000Y-98100000D02*
X158100000Y-98200000D01*
X167837347Y-105937347D02*
X169100000Y-107200000D01*
X169100000Y-107200000D02*
X170300000Y-107200000D01*
X162601314Y-120700000D02*
X161380000Y-120700000D01*
X163365685Y-120700000D02*
X162601314Y-120700000D01*
X167600000Y-116465685D02*
X163365685Y-120700000D01*
X167600000Y-115900000D02*
X167600000Y-116465685D01*
X103700000Y-113950000D02*
X84100000Y-94350000D01*
X103700000Y-115100000D02*
X103700000Y-113950000D01*
X84100000Y-94350000D02*
X84100000Y-93000000D01*
X84100000Y-93000000D02*
X95800000Y-81300000D01*
X102525000Y-79325000D02*
X102500000Y-79300000D01*
X102525000Y-79400000D02*
X100625000Y-81300000D01*
X102525000Y-79325000D02*
X102525000Y-79400000D01*
X131473002Y-73000000D02*
X131300000Y-73000000D01*
X134400000Y-77000000D02*
X134400000Y-75926998D01*
X134400000Y-75926998D02*
X131473002Y-73000000D01*
X114512001Y-79225001D02*
X114512001Y-79287999D01*
X102625000Y-79225000D02*
X102525000Y-79325000D01*
X110123001Y-79400000D02*
X109948001Y-79225000D01*
X114400000Y-79400000D02*
X110123001Y-79400000D01*
X109948001Y-79225000D02*
X102625000Y-79225000D01*
X114512001Y-79287999D02*
X114400000Y-79400000D01*
X126250000Y-27850000D02*
X126250000Y-49050000D01*
X126250000Y-49050000D02*
X128000000Y-50800000D01*
X139862001Y-85974999D02*
X138877999Y-85974999D01*
X140395001Y-92478001D02*
X140395001Y-86507999D01*
X132775001Y-91007999D02*
X132242001Y-90474999D01*
X131750000Y-96000000D02*
X136873002Y-96000000D01*
X136873002Y-96000000D02*
X140395001Y-92478001D01*
X132775001Y-92077997D02*
X132775001Y-91007999D01*
X138877999Y-85974999D02*
X132775001Y-92077997D01*
X132242001Y-90474999D02*
X126127999Y-90474999D01*
X126127999Y-90474999D02*
X121500000Y-95102998D01*
X140395001Y-86507999D02*
X139862001Y-85974999D01*
X121500000Y-95102998D02*
X121500000Y-95300000D01*
X108500000Y-109102998D02*
X108500000Y-110800000D01*
X120600000Y-100600000D02*
X119674999Y-101525001D01*
X116077997Y-101525001D02*
X108500000Y-109102998D01*
X119674999Y-101525001D02*
X116077997Y-101525001D01*
X111300000Y-112700000D02*
X111300000Y-115200000D01*
X112500000Y-111500000D02*
X111300000Y-112700000D01*
X152425001Y-119925001D02*
X151100000Y-118600000D01*
X161380000Y-118160000D02*
X159614999Y-119925001D01*
X159614999Y-119925001D02*
X152425001Y-119925001D01*
X120700000Y-118425000D02*
X120200000Y-117925000D01*
X120200000Y-117925000D02*
X120200000Y-113400000D01*
X114400000Y-113400000D02*
X112500000Y-111500000D01*
X115600000Y-113400000D02*
X114400000Y-113400000D01*
X140525001Y-72901997D02*
X140525001Y-53725001D01*
X139688000Y-73738998D02*
X140525001Y-72901997D01*
X141741731Y-76580729D02*
X138900000Y-73738998D01*
X131750000Y-96000000D02*
X137517002Y-96000000D01*
X140525001Y-53725001D02*
X139299999Y-52499999D01*
X137517002Y-96000000D02*
X145775001Y-87742001D01*
X138900000Y-73738998D02*
X139688000Y-73738998D01*
X145775001Y-87742001D02*
X145775001Y-86757999D01*
X139299999Y-52499999D02*
X138900000Y-52100000D01*
X141741731Y-82724729D02*
X141741731Y-76580729D01*
X145775001Y-86757999D02*
X141741731Y-82724729D01*
X101120000Y-87000000D02*
X101120000Y-89980000D01*
X101120000Y-89980000D02*
X99600000Y-91500000D01*
X92300000Y-93600000D02*
X88600000Y-97300000D01*
X88600000Y-97300000D02*
X88500000Y-97300000D01*
X145000000Y-100500000D02*
X150800000Y-100500000D01*
X150800000Y-100500000D02*
X150900000Y-100600000D01*
X99600000Y-92200000D02*
X99600000Y-91500000D01*
X104100000Y-96700000D02*
X99600000Y-92200000D01*
X181801999Y-65944001D02*
X181040000Y-66706000D01*
X204071752Y-59468990D02*
X188277010Y-59468990D01*
X205087001Y-60484239D02*
X204071752Y-59468990D01*
X188277010Y-59468990D02*
X181801999Y-65944001D01*
X205087001Y-61527761D02*
X205087001Y-60484239D01*
X204521761Y-62093001D02*
X205087001Y-61527761D01*
X202661001Y-62093001D02*
X204521761Y-62093001D01*
X201600000Y-61032000D02*
X202661001Y-62093001D01*
X179500000Y-75900000D02*
X177900000Y-77500000D01*
X177900000Y-77500000D02*
X177900000Y-78900000D01*
X166425001Y-26524999D02*
X166099999Y-26850001D01*
D38*
X167050000Y-25900000D02*
X165100000Y-27850000D01*
X183400000Y-25900000D02*
X167050000Y-25900000D01*
X183450000Y-25900000D02*
X185400000Y-27850000D01*
D37*
X183400000Y-25900000D02*
X183450000Y-25900000D01*
X132924999Y-26524999D02*
X103075001Y-26524999D01*
X134250000Y-27850000D02*
X132924999Y-26524999D01*
X103075001Y-26524999D02*
X82800000Y-46800000D01*
X82690000Y-46800000D02*
X77000000Y-41110000D01*
X82800000Y-46800000D02*
X82690000Y-46800000D01*
X77000000Y-39907919D02*
X77000000Y-38570000D01*
X77000000Y-41110000D02*
X77000000Y-39907919D01*
X76150001Y-36879999D02*
X77000000Y-36030000D01*
X76150001Y-37720001D02*
X76150001Y-36879999D01*
X77000000Y-38570000D02*
X76150001Y-37720001D01*
X77000000Y-34827919D02*
X77000000Y-33490000D01*
X77000000Y-36030000D02*
X77000000Y-34827919D01*
X77000000Y-32287919D02*
X77000000Y-30950000D01*
X77000000Y-33490000D02*
X77000000Y-32287919D01*
X77000000Y-29747919D02*
X77000000Y-28410000D01*
X77000000Y-30950000D02*
X77000000Y-29747919D01*
X77000000Y-28410000D02*
X77000000Y-25870000D01*
X77000000Y-25870000D02*
X77000000Y-23330000D01*
X76150001Y-21639999D02*
X77000000Y-20790000D01*
X76150001Y-22480001D02*
X76150001Y-21639999D01*
X77000000Y-23330000D02*
X76150001Y-22480001D01*
X77000000Y-19587919D02*
X77000000Y-18250000D01*
X77000000Y-20790000D02*
X77000000Y-19587919D01*
X164000000Y-52000000D02*
X163900000Y-52000000D01*
X164300000Y-51700000D02*
X164000000Y-52000000D01*
X164300000Y-51500000D02*
X164300000Y-51700000D01*
X167700000Y-48100000D02*
X164300000Y-51500000D01*
X114859949Y-87000000D02*
X113870000Y-87000000D01*
X121482998Y-82750000D02*
X117232998Y-87000000D01*
X117232998Y-87000000D02*
X114859949Y-87000000D01*
X126370000Y-82750000D02*
X121482998Y-82750000D01*
X113870000Y-95750000D02*
X114120000Y-96000000D01*
X113870000Y-91750000D02*
X113870000Y-95750000D01*
X114120000Y-100250000D02*
X114370000Y-100500000D01*
X114120000Y-96000000D02*
X114120000Y-100250000D01*
X159088601Y-109188601D02*
X157900000Y-108000000D01*
X176620000Y-108000000D02*
X175431399Y-109188601D01*
X175431399Y-109188601D02*
X159088601Y-109188601D01*
X143000000Y-109200000D02*
X141600000Y-110600000D01*
X141600000Y-110600000D02*
X141600000Y-112900000D01*
X156025000Y-106300000D02*
X154794694Y-106300000D01*
X154794694Y-106300000D02*
X154497347Y-106597347D01*
X122350002Y-106449999D02*
X122300000Y-106500001D01*
X135811410Y-109250000D02*
X133825001Y-107263591D01*
X139620000Y-109250000D02*
X135811410Y-109250000D01*
X133825001Y-107263591D02*
X133825001Y-106826999D01*
X133825001Y-106826999D02*
X133448001Y-106449999D01*
X133448001Y-106449999D02*
X122350002Y-106449999D01*
X122410047Y-102689953D02*
X124200000Y-100900000D01*
X122010048Y-104658579D02*
X122410047Y-104258580D01*
X122410047Y-104258580D02*
X122410047Y-102689953D01*
X114370000Y-100500000D02*
X113878304Y-100500000D01*
X113878304Y-100500000D02*
X113039152Y-99660848D01*
X105724999Y-110524999D02*
X107402643Y-112202643D01*
X105724999Y-104257999D02*
X105724999Y-110524999D01*
X114370000Y-95796998D02*
X112135348Y-93562346D01*
X114370000Y-100500000D02*
X114370000Y-95796998D01*
X112135348Y-93562346D02*
X111439346Y-93562346D01*
X111439346Y-93562346D02*
X111062346Y-93939346D01*
X111062346Y-98920652D02*
X105724999Y-104257999D01*
X111062346Y-93939346D02*
X111062346Y-98920652D01*
X110514998Y-116800000D02*
X115300000Y-116800000D01*
X109300000Y-113600000D02*
X109300000Y-115585002D01*
X109300000Y-115585002D02*
X110514998Y-116800000D01*
X122300000Y-107500000D02*
X122300000Y-106500001D01*
X123600000Y-108800000D02*
X122300000Y-107500000D01*
X134900000Y-101000000D02*
X138000000Y-101000000D01*
X138000000Y-101000000D02*
X139900000Y-102900000D01*
X135299999Y-101399999D02*
X134900000Y-101000000D01*
X135625001Y-101725001D02*
X135299999Y-101399999D01*
X134323003Y-106449999D02*
X135625001Y-105148001D01*
X135625001Y-105148001D02*
X135625001Y-101725001D01*
X133448001Y-106449999D02*
X134323003Y-106449999D01*
X127069999Y-82050001D02*
X126370000Y-82750000D01*
X128520000Y-80600000D02*
X126370000Y-82750000D01*
X131700000Y-80600000D02*
X128520000Y-80600000D01*
X139909808Y-85251576D02*
X136351576Y-85251576D01*
X136351576Y-85251576D02*
X131700000Y-80600000D01*
X119949999Y-105449999D02*
X119250000Y-104750000D01*
X177190529Y-101568601D02*
X144068401Y-101568601D01*
X178196131Y-100562999D02*
X177190529Y-101568601D01*
X144068401Y-101568601D02*
X139862001Y-105775001D01*
X184592003Y-100562999D02*
X178196131Y-100562999D01*
X205655001Y-79500001D02*
X184592003Y-100562999D01*
X205655001Y-45280001D02*
X205655001Y-79500001D01*
X198975000Y-38600000D02*
X205655001Y-45280001D01*
X120275001Y-105775001D02*
X119949999Y-105449999D01*
X198975000Y-37500000D02*
X198975000Y-38600000D01*
X139862001Y-105775001D02*
X136499999Y-105775001D01*
X136499999Y-105775001D02*
X135100000Y-107175000D01*
X123659314Y-105775001D02*
X120275001Y-105775001D01*
X124046968Y-105387347D02*
X123659314Y-105775001D01*
X124612653Y-105387347D02*
X124046968Y-105387347D01*
D38*
X169100000Y-32350000D02*
X181750000Y-45000000D01*
X169100000Y-27850000D02*
X169100000Y-32350000D01*
X152520000Y-42777500D02*
X152520000Y-76510051D01*
D37*
X152520000Y-76510051D02*
X152520000Y-77500000D01*
D38*
X155047500Y-40250000D02*
X152520000Y-42777500D01*
X156250000Y-40250000D02*
X155047500Y-40250000D01*
X114020000Y-77210051D02*
X114020000Y-78200000D01*
X114020000Y-54520000D02*
X114020000Y-77210051D01*
X100250000Y-40750000D02*
X114020000Y-54520000D01*
X100250000Y-39500000D02*
X100250000Y-40750000D01*
X156250000Y-57250000D02*
X156250000Y-78970000D01*
X156250000Y-78970000D02*
X152520000Y-82700000D01*
D37*
X95100000Y-60900000D02*
X100200000Y-60900000D01*
X86600000Y-69400000D02*
X95100000Y-60900000D01*
D38*
X118700000Y-76810051D02*
X118700000Y-77800000D01*
X118700000Y-63653002D02*
X118700000Y-76810051D01*
X129750000Y-52603002D02*
X118700000Y-63653002D01*
X129750000Y-39750000D02*
X129750000Y-52603002D01*
X129700000Y-57200000D02*
X129700000Y-75861002D01*
X141400000Y-83900000D02*
X144750000Y-87250000D01*
X129700000Y-76600000D02*
X137000000Y-83900000D01*
X129700000Y-75861002D02*
X129700000Y-76600000D01*
X137738998Y-83900000D02*
X137700000Y-83900000D01*
X137000000Y-83900000D02*
X137700000Y-83900000D01*
X137700000Y-83900000D02*
X141400000Y-83900000D01*
D37*
X199200000Y-81750000D02*
X193870000Y-87080000D01*
X199200000Y-61006000D02*
X199200000Y-81750000D01*
X140048401Y-97475011D02*
X131924989Y-97475011D01*
X140845011Y-93944811D02*
X140845010Y-96678402D01*
X149164821Y-85625001D02*
X140845011Y-93944811D01*
X190812999Y-58837001D02*
X179869739Y-58837001D01*
X131924989Y-97475011D02*
X129400000Y-100000000D01*
X191900000Y-57750000D02*
X190812999Y-58837001D01*
X140845010Y-96678402D02*
X140048401Y-97475011D01*
X164210001Y-85625001D02*
X149164821Y-85625001D01*
X179869739Y-58837001D02*
X179869739Y-69965263D01*
X179869739Y-69965263D02*
X164210001Y-85625001D01*
X124075001Y-103724999D02*
X123000000Y-104800000D01*
X131750000Y-104750000D02*
X130724999Y-103724999D01*
X130724999Y-103724999D02*
X124075001Y-103724999D01*
X133100000Y-107175000D02*
X139025000Y-113100000D01*
X139025000Y-113100000D02*
X139300000Y-113100000D01*
X142900000Y-112300000D02*
X142900000Y-111977547D01*
X142900000Y-111977547D02*
X144275000Y-110602547D01*
X153597347Y-107497347D02*
X153797347Y-107497347D01*
X153797347Y-107497347D02*
X154722653Y-108422653D01*
X170000000Y-104800000D02*
X171500000Y-106300000D01*
X171500000Y-106300000D02*
X171500000Y-106900000D01*
X192940154Y-94218608D02*
X192940154Y-93240154D01*
X181400000Y-103000000D02*
X184158762Y-103000000D01*
X184158762Y-103000000D02*
X192940154Y-94218608D01*
X77200000Y-98185002D02*
X77200000Y-96600000D01*
X194429982Y-144100018D02*
X129042196Y-144100018D01*
X129042196Y-144100018D02*
X101367179Y-116425001D01*
X203950000Y-134580000D02*
X194429982Y-144100018D01*
X101367179Y-116425001D02*
X95439999Y-116425001D01*
X95439999Y-116425001D02*
X77200000Y-98185002D01*
X87500000Y-93100000D02*
X87500000Y-91482998D01*
X96400000Y-82582998D02*
X96400000Y-82300000D01*
X87500000Y-91482998D02*
X96400000Y-82582998D01*
X104800000Y-81700000D02*
X106549999Y-79950001D01*
X106549999Y-79950001D02*
X109600000Y-79950001D01*
X97200000Y-90950000D02*
X106750000Y-100500000D01*
X97200000Y-79400000D02*
X97200000Y-90950000D01*
X161380000Y-135940000D02*
X159740000Y-135940000D01*
X159740000Y-135940000D02*
X140500000Y-116700000D01*
X118217002Y-106700000D02*
X116300000Y-106700000D01*
X121800000Y-116700000D02*
X121800000Y-110282998D01*
X121800000Y-110282998D02*
X118217002Y-106700000D01*
X161380000Y-130860000D02*
X147400000Y-116880000D01*
X147400000Y-116880000D02*
X147400000Y-114800000D01*
X112844999Y-83525001D02*
X113170001Y-83199999D01*
X112844999Y-87992001D02*
X112844999Y-83525001D01*
X126377999Y-101525001D02*
X112844999Y-87992001D01*
X113170001Y-83199999D02*
X113870000Y-82500000D01*
X130042003Y-101525001D02*
X126377999Y-101525001D01*
X133317002Y-104800000D02*
X133317002Y-104800000D01*
X133317002Y-104800000D02*
X130042003Y-101525001D01*
X143834076Y-92075000D02*
X143834076Y-96340924D01*
X143834076Y-96340924D02*
X142500000Y-97675000D01*
X139774999Y-116351999D02*
X139774999Y-117774999D01*
X140848001Y-115278997D02*
X139774999Y-116351999D01*
X145300000Y-102800000D02*
X140848001Y-107251999D01*
X140848001Y-107251999D02*
X140848001Y-115278997D01*
X159329999Y-137229999D02*
X161980001Y-137229999D01*
X154900000Y-132800000D02*
X159329999Y-137229999D01*
X161980001Y-137229999D02*
X165200000Y-140449998D01*
X139774999Y-117774999D02*
X154800000Y-132800000D01*
X154800000Y-132800000D02*
X154900000Y-132800000D01*
X165200000Y-140449998D02*
X184249998Y-140449998D01*
X184249998Y-140449998D02*
X184700000Y-140900000D01*
X207240000Y-132040000D02*
X203950000Y-132040000D01*
X208900000Y-133700000D02*
X207240000Y-132040000D01*
X163500001Y-96200001D02*
X162900000Y-95600000D01*
X187100000Y-96600000D02*
X186700001Y-96200001D01*
X186700001Y-96200001D02*
X163500001Y-96200001D01*
X138670001Y-87699999D02*
X139370000Y-87000000D01*
X137600001Y-88769999D02*
X138670001Y-87699999D01*
X137600001Y-93200001D02*
X137600001Y-88769999D01*
X138000000Y-93600000D02*
X137600001Y-93200001D01*
X139954433Y-79454433D02*
X139954433Y-79837702D01*
X139954433Y-79837702D02*
X141016731Y-80900000D01*
X142800846Y-80200846D02*
X142800846Y-82100836D01*
X142800846Y-82100836D02*
X145500010Y-84800000D01*
X149075000Y-84800000D02*
X156500000Y-84800000D01*
X156500000Y-84800000D02*
X157400000Y-83900000D01*
X173104848Y-75704848D02*
X177400000Y-71409696D01*
X177400000Y-71409696D02*
X177400000Y-71400000D01*
X164625001Y-94474999D02*
X163900000Y-95200000D01*
X187200000Y-92600000D02*
X185325001Y-94474999D01*
X185325001Y-94474999D02*
X164625001Y-94474999D01*
X156100000Y-90980000D02*
X152370000Y-87250000D01*
X156100000Y-93600000D02*
X156100000Y-90980000D01*
X106250000Y-87000000D02*
X111775001Y-81474999D01*
X111775001Y-81474999D02*
X125625001Y-81474999D01*
X156174999Y-83725001D02*
X159900000Y-80000000D01*
X154054433Y-79648565D02*
X151494999Y-82207999D01*
X154054433Y-65354433D02*
X154054433Y-79648565D01*
X151494999Y-82207999D02*
X151494999Y-83192001D01*
X152027999Y-83725001D02*
X156174999Y-83725001D01*
X151494999Y-83192001D02*
X152027999Y-83725001D01*
X173200000Y-79500000D02*
X175075000Y-77625000D01*
X175075000Y-77625000D02*
X175075000Y-76300000D01*
X175431399Y-128890529D02*
X176049471Y-129508601D01*
X182150010Y-130731230D02*
X182150010Y-124316400D01*
X175431399Y-115049471D02*
X175431399Y-128890529D01*
X177172191Y-114431399D02*
X176049471Y-114431399D01*
X179849990Y-111753600D02*
X177172191Y-114431399D01*
X171836389Y-115323611D02*
X171836389Y-113420021D01*
X180808929Y-133127001D02*
X184421761Y-133127001D01*
X161380000Y-125780000D02*
X171836389Y-115323611D01*
X176049471Y-129508601D02*
X177190529Y-129508601D01*
X171836389Y-113420021D02*
X176067809Y-109188601D01*
X184199992Y-130731230D02*
X182150010Y-130731230D01*
X176049471Y-114431399D02*
X175431399Y-115049471D01*
X177284991Y-109188601D02*
X179849990Y-111753600D01*
X176067809Y-109188601D02*
X177284991Y-109188601D01*
X177190529Y-129508601D02*
X180808929Y-133127001D01*
X198249990Y-89850010D02*
X204700000Y-83400000D01*
X184421761Y-123017001D02*
X198249990Y-109188772D01*
X184421761Y-133127001D02*
X184987001Y-132561761D01*
X184987001Y-132561761D02*
X184987001Y-131518239D01*
X182150010Y-124316400D02*
X183449409Y-123017001D01*
X184987001Y-131518239D02*
X184199992Y-130731230D01*
X198249990Y-109188772D02*
X198249990Y-89850010D01*
X183449409Y-123017001D02*
X184421761Y-123017001D01*
X194000000Y-73900000D02*
X186200000Y-73900000D01*
X186200000Y-73900000D02*
X185300000Y-74800000D01*
X174675001Y-76699999D02*
X175075000Y-76300000D01*
X174474999Y-76900001D02*
X174675001Y-76699999D01*
X174474999Y-80336001D02*
X174474999Y-76900001D01*
X175163999Y-81025001D02*
X174474999Y-80336001D01*
X176436001Y-81025001D02*
X175163999Y-81025001D01*
X177125001Y-80336001D02*
X176436001Y-81025001D01*
X177125001Y-76174999D02*
X177125001Y-80336001D01*
X179000000Y-74300000D02*
X177125001Y-76174999D01*
X139800000Y-72500000D02*
X139800000Y-66475000D01*
X139800000Y-66475000D02*
X139625000Y-66300000D01*
X138100000Y-64200000D02*
X136600000Y-64200000D01*
X136600000Y-64200000D02*
X136562653Y-64237347D01*
X132000000Y-70000000D02*
X134500000Y-72500000D01*
X132000000Y-67700001D02*
X132000000Y-70000000D01*
X125625001Y-81474999D02*
X125625001Y-81449998D01*
X125625001Y-81449998D02*
X129300000Y-77774999D01*
X161380000Y-133400000D02*
X146400000Y-118420000D01*
X146400000Y-118420000D02*
X146400000Y-102300000D01*
X152620000Y-92180000D02*
X152620000Y-91500000D01*
X148600000Y-96200000D02*
X152620000Y-92180000D01*
X152620000Y-96000000D02*
X153747696Y-96000000D01*
X153747696Y-96000000D02*
X154673848Y-95073848D01*
X159083610Y-105460000D02*
X161380000Y-105460000D01*
X147850010Y-116693600D02*
X159083610Y-105460000D01*
X161950529Y-129671399D02*
X160827809Y-129671399D01*
X162568601Y-130289471D02*
X161950529Y-129671399D01*
X162568601Y-133970529D02*
X162568601Y-130289471D01*
X161950529Y-134588601D02*
X162568601Y-133970529D01*
X160809471Y-134588601D02*
X161950529Y-134588601D01*
X145000000Y-118779130D02*
X160809471Y-134588601D01*
X160827809Y-129671399D02*
X147850010Y-116693600D01*
X145000000Y-109500000D02*
X145000000Y-118779130D01*
X145000000Y-96000000D02*
X145000000Y-93649999D01*
X145000000Y-93649999D02*
X147149999Y-91500000D01*
X157275000Y-89500000D02*
X158299999Y-88475001D01*
X158299999Y-88475001D02*
X161300000Y-88475001D01*
X163550001Y-86900000D02*
X167200000Y-86900000D01*
X167200000Y-86900000D02*
X168300000Y-88000000D01*
X177800000Y-92664998D02*
X177800000Y-93700000D01*
X173800000Y-88800000D02*
X173935002Y-88800000D01*
X173935002Y-88800000D02*
X177800000Y-92664998D01*
X163281400Y-100925001D02*
X163115547Y-100759148D01*
X172200000Y-100100000D02*
X171374999Y-100925001D01*
X171374999Y-100925001D02*
X163281400Y-100925001D01*
X161380000Y-105420000D02*
X161380000Y-105460000D01*
X163500000Y-103300000D02*
X161380000Y-105420000D01*
X186250000Y-82000000D02*
X180700000Y-82000000D01*
X180700000Y-82000000D02*
X176200000Y-86500000D01*
X168800000Y-98800000D02*
X167400000Y-100200000D01*
X167400000Y-100200000D02*
X164700000Y-100200000D01*
X156950000Y-104750000D02*
X152620000Y-104750000D01*
X158500000Y-103200000D02*
X156950000Y-104750000D01*
X93500000Y-90750000D02*
X100000000Y-97250000D01*
X93500000Y-87000000D02*
X93500000Y-90750000D01*
X177483599Y-127456401D02*
X176620000Y-128320000D01*
X177483599Y-126737639D02*
X177483599Y-127456401D01*
X183378239Y-120842999D02*
X177483599Y-126737639D01*
X184055763Y-120842999D02*
X183378239Y-120842999D01*
X184987001Y-119911761D02*
X184055763Y-120842999D01*
X184987001Y-117947001D02*
X184987001Y-119911761D01*
X183900000Y-116860000D02*
X184987001Y-117947001D01*
X182400000Y-120000000D02*
X177483599Y-124916401D01*
X177483599Y-124916401D02*
X176620000Y-125780000D01*
X182400000Y-116751238D02*
X182400000Y-120000000D01*
X183900000Y-115251238D02*
X182400000Y-116751238D01*
X183900000Y-114320000D02*
X183900000Y-115251238D01*
X177483599Y-122376401D02*
X176620000Y-123240000D01*
X181650029Y-118209971D02*
X177483599Y-122376401D01*
X181650029Y-114961209D02*
X181650029Y-118209971D01*
X183900000Y-112711238D02*
X181650029Y-114961209D01*
X183900000Y-111780000D02*
X183900000Y-112711238D01*
X177483599Y-119836401D02*
X176620000Y-120700000D01*
X181200019Y-116119981D02*
X177483599Y-119836401D01*
X181200019Y-111939981D02*
X181200019Y-116119981D01*
X183900000Y-109240000D02*
X181200019Y-111939981D01*
X183900000Y-104190000D02*
X180300000Y-107790000D01*
X180300000Y-111940000D02*
X176620000Y-115620000D01*
X180300000Y-107790000D02*
X180300000Y-111940000D01*
X177483599Y-117296401D02*
X176620000Y-118160000D01*
X180750009Y-114029991D02*
X177483599Y-117296401D01*
X180750009Y-109879991D02*
X180750009Y-114029991D01*
X183900000Y-106730000D02*
X180750009Y-109879991D01*
M02*
