G04 #@! TF.GenerationSoftware,KiCad,Pcbnew,5.1.5-52549c5~84~ubuntu19.04.1*
G04 #@! TF.CreationDate,2020-02-13T11:45:51+01:00*
G04 #@! TF.ProjectId,laborBerlin,6c61626f-7242-4657-926c-696e2e6b6963,rev?*
G04 #@! TF.SameCoordinates,Original*
G04 #@! TF.FileFunction,Legend,Bot*
G04 #@! TF.FilePolarity,Positive*
%FSLAX46Y46*%
G04 Gerber Fmt 4.6, Leading zero omitted, Abs format (unit mm)*
G04 Created by KiCad (PCBNEW 5.1.5-52549c5~84~ubuntu19.04.1) date 2020-02-13 11:45:51*
%MOMM*%
%LPD*%
G04 APERTURE LIST*
%ADD10C,0.120000*%
%ADD11C,0.150000*%
G04 APERTURE END LIST*
D10*
X180685467Y-79600000D02*
G75*
G03X180685467Y-79600000I-6185467J0D01*
G01*
X142685467Y-79500000D02*
G75*
G03X142685467Y-79500000I-6185467J0D01*
G01*
X104685467Y-79500000D02*
G75*
G03X104685467Y-79500000I-6185467J0D01*
G01*
X136080000Y-68640000D02*
X136811000Y-68640000D01*
X136080000Y-70760000D02*
X136811000Y-70760000D01*
X98240000Y-68440000D02*
X98971000Y-68440000D01*
X98240000Y-70560000D02*
X98971000Y-70560000D01*
D11*
X176238095Y-86352380D02*
X176238095Y-87161904D01*
X176190476Y-87257142D01*
X176142857Y-87304761D01*
X176047619Y-87352380D01*
X175857142Y-87352380D01*
X175761904Y-87304761D01*
X175714285Y-87257142D01*
X175666666Y-87161904D01*
X175666666Y-86352380D01*
X174666666Y-87352380D02*
X175238095Y-87352380D01*
X174952380Y-87352380D02*
X174952380Y-86352380D01*
X175047619Y-86495238D01*
X175142857Y-86590476D01*
X175238095Y-86638095D01*
X174333333Y-86352380D02*
X173666666Y-86352380D01*
X174095238Y-87352380D01*
X138238095Y-86252380D02*
X138238095Y-87061904D01*
X138190476Y-87157142D01*
X138142857Y-87204761D01*
X138047619Y-87252380D01*
X137857142Y-87252380D01*
X137761904Y-87204761D01*
X137714285Y-87157142D01*
X137666666Y-87061904D01*
X137666666Y-86252380D01*
X136666666Y-87252380D02*
X137238095Y-87252380D01*
X136952380Y-87252380D02*
X136952380Y-86252380D01*
X137047619Y-86395238D01*
X137142857Y-86490476D01*
X137238095Y-86538095D01*
X135809523Y-86252380D02*
X136000000Y-86252380D01*
X136095238Y-86300000D01*
X136142857Y-86347619D01*
X136238095Y-86490476D01*
X136285714Y-86680952D01*
X136285714Y-87061904D01*
X136238095Y-87157142D01*
X136190476Y-87204761D01*
X136095238Y-87252380D01*
X135904761Y-87252380D01*
X135809523Y-87204761D01*
X135761904Y-87157142D01*
X135714285Y-87061904D01*
X135714285Y-86823809D01*
X135761904Y-86728571D01*
X135809523Y-86680952D01*
X135904761Y-86633333D01*
X136095238Y-86633333D01*
X136190476Y-86680952D01*
X136238095Y-86728571D01*
X136285714Y-86823809D01*
X99761904Y-86252380D02*
X99761904Y-87061904D01*
X99714285Y-87157142D01*
X99666666Y-87204761D01*
X99571428Y-87252380D01*
X99380952Y-87252380D01*
X99285714Y-87204761D01*
X99238095Y-87157142D01*
X99190476Y-87061904D01*
X99190476Y-86252380D01*
X98666666Y-87252380D02*
X98476190Y-87252380D01*
X98380952Y-87204761D01*
X98333333Y-87157142D01*
X98238095Y-87014285D01*
X98190476Y-86823809D01*
X98190476Y-86442857D01*
X98238095Y-86347619D01*
X98285714Y-86300000D01*
X98380952Y-86252380D01*
X98571428Y-86252380D01*
X98666666Y-86300000D01*
X98714285Y-86347619D01*
X98761904Y-86442857D01*
X98761904Y-86680952D01*
X98714285Y-86776190D01*
X98666666Y-86823809D01*
X98571428Y-86871428D01*
X98380952Y-86871428D01*
X98285714Y-86823809D01*
X98238095Y-86776190D01*
X98190476Y-86680952D01*
X137008095Y-72212380D02*
X137008095Y-71212380D01*
X136770000Y-71212380D01*
X136627142Y-71260000D01*
X136531904Y-71355238D01*
X136484285Y-71450476D01*
X136436666Y-71640952D01*
X136436666Y-71783809D01*
X136484285Y-71974285D01*
X136531904Y-72069523D01*
X136627142Y-72164761D01*
X136770000Y-72212380D01*
X137008095Y-72212380D01*
X136055714Y-71307619D02*
X136008095Y-71260000D01*
X135912857Y-71212380D01*
X135674761Y-71212380D01*
X135579523Y-71260000D01*
X135531904Y-71307619D01*
X135484285Y-71402857D01*
X135484285Y-71498095D01*
X135531904Y-71640952D01*
X136103333Y-72212380D01*
X135484285Y-72212380D01*
X99168095Y-72012380D02*
X99168095Y-71012380D01*
X98930000Y-71012380D01*
X98787142Y-71060000D01*
X98691904Y-71155238D01*
X98644285Y-71250476D01*
X98596666Y-71440952D01*
X98596666Y-71583809D01*
X98644285Y-71774285D01*
X98691904Y-71869523D01*
X98787142Y-71964761D01*
X98930000Y-72012380D01*
X99168095Y-72012380D01*
X97644285Y-72012380D02*
X98215714Y-72012380D01*
X97930000Y-72012380D02*
X97930000Y-71012380D01*
X98025238Y-71155238D01*
X98120476Y-71250476D01*
X98215714Y-71298095D01*
M02*
