G04 #@! TF.GenerationSoftware,KiCad,Pcbnew,5.1.5-52549c5~84~ubuntu19.04.1*
G04 #@! TF.CreationDate,2020-02-07T12:33:04+01:00*
G04 #@! TF.ProjectId,laborBerlin,6c61626f-7242-4657-926c-696e2e6b6963,rev?*
G04 #@! TF.SameCoordinates,Original*
G04 #@! TF.FileFunction,Copper,L2,Bot*
G04 #@! TF.FilePolarity,Positive*
%FSLAX46Y46*%
G04 Gerber Fmt 4.6, Leading zero omitted, Abs format (unit mm)*
G04 Created by KiCad (PCBNEW 5.1.5-52549c5~84~ubuntu19.04.1) date 2020-02-07 12:33:04*
%MOMM*%
%LPD*%
G04 APERTURE LIST*
%ADD10R,1.700000X1.700000*%
%ADD11R,1.727200X1.727200*%
%ADD12C,1.727200*%
%ADD13C,1.300000*%
%ADD14C,2.000000*%
%ADD15O,1.600000X1.600000*%
%ADD16R,1.600000X1.600000*%
%ADD17R,1.050000X1.500000*%
%ADD18O,1.050000X1.500000*%
%ADD19C,1.524000*%
%ADD20C,1.440000*%
%ADD21O,1.400000X1.400000*%
%ADD22C,1.400000*%
%ADD23O,1.905000X2.000000*%
%ADD24R,1.905000X2.000000*%
%ADD25R,5.000000X2.500000*%
%ADD26O,1.700000X1.700000*%
%ADD27C,1.800000*%
%ADD28R,1.800000X1.800000*%
%ADD29O,2.200000X2.200000*%
%ADD30R,2.200000X2.200000*%
%ADD31O,2.000000X2.000000*%
%ADD32R,2.000000X2.000000*%
%ADD33C,2.400000*%
%ADD34R,2.400000X2.400000*%
%ADD35C,1.600000*%
%ADD36C,0.800000*%
%ADD37C,0.250000*%
%ADD38C,1.000000*%
G04 APERTURE END LIST*
D10*
X205200000Y-37500000D03*
X198975000Y-37500000D03*
X192750000Y-37500000D03*
D11*
X161380000Y-100380000D03*
D12*
X161380000Y-102920000D03*
X161380000Y-105460000D03*
X161380000Y-108000000D03*
X161380000Y-110540000D03*
X161380000Y-113080000D03*
X161380000Y-115620000D03*
X161380000Y-118160000D03*
X161380000Y-120700000D03*
X161380000Y-123240000D03*
X161380000Y-125780000D03*
X161380000Y-128320000D03*
X161380000Y-130860000D03*
X161380000Y-133400000D03*
X161380000Y-135940000D03*
X176620000Y-135940000D03*
X176620000Y-133400000D03*
X176620000Y-130860000D03*
X176620000Y-128320000D03*
X176620000Y-125780000D03*
X176620000Y-123240000D03*
X176620000Y-120700000D03*
X176620000Y-118160000D03*
X176620000Y-115620000D03*
X176620000Y-113080000D03*
X176620000Y-110540000D03*
X176620000Y-108000000D03*
X176620000Y-105460000D03*
X176620000Y-102920000D03*
X176620000Y-100380000D03*
D13*
X136000000Y-128250000D03*
X143500000Y-123250000D03*
D14*
X138450000Y-125850000D03*
X141050000Y-125650000D03*
D13*
X178250000Y-82100000D03*
X170750000Y-77100000D03*
D14*
X175800000Y-79700000D03*
X173200000Y-79500000D03*
D13*
X140250000Y-82000000D03*
X132750000Y-77000000D03*
D14*
X137800000Y-79600000D03*
X135200000Y-79400000D03*
X169100000Y-27850000D03*
X169100000Y-18650000D03*
X165100000Y-27850000D03*
X173100000Y-27850000D03*
X165100000Y-18650000D03*
X173100000Y-18650000D03*
D13*
X102250000Y-82000000D03*
X94750000Y-77000000D03*
D14*
X99800000Y-79600000D03*
X97200000Y-79400000D03*
X151000000Y-27850000D03*
X151000000Y-18650000D03*
X147000000Y-27850000D03*
X155000000Y-27850000D03*
X147000000Y-18650000D03*
X155000000Y-18650000D03*
D15*
X193870000Y-82000000D03*
X186250000Y-89620000D03*
X193870000Y-84540000D03*
X186250000Y-87080000D03*
X193870000Y-87080000D03*
X186250000Y-84540000D03*
X193870000Y-89620000D03*
D16*
X186250000Y-82000000D03*
D17*
X177250000Y-56750000D03*
D18*
X179790000Y-56750000D03*
X178520000Y-56750000D03*
D14*
X122250000Y-27850000D03*
X122250000Y-18650000D03*
X118250000Y-27850000D03*
X126250000Y-27850000D03*
X118250000Y-18650000D03*
X126250000Y-18650000D03*
X134250000Y-27850000D03*
X138250000Y-27850000D03*
X134250000Y-18650000D03*
X138250000Y-18650000D03*
X198975000Y-27750000D03*
X198975000Y-18550000D03*
X194975000Y-27750000D03*
X202975000Y-27750000D03*
X194975000Y-18550000D03*
X202975000Y-18550000D03*
D19*
X203950000Y-116860000D03*
X203950000Y-106730000D03*
X203950000Y-132040000D03*
X203950000Y-119390000D03*
X203950000Y-101650000D03*
X203950000Y-109240000D03*
X203950000Y-129540000D03*
X203950000Y-114320000D03*
X203950000Y-121930000D03*
X203950000Y-104190000D03*
X203950000Y-134580000D03*
X203950000Y-111780000D03*
X203950000Y-127010000D03*
X203950000Y-124470000D03*
X183900000Y-134580000D03*
X183900000Y-132040000D03*
X183900000Y-129540000D03*
X183900000Y-127010000D03*
X183900000Y-124470000D03*
X183900000Y-121930000D03*
X183900000Y-119390000D03*
X183900000Y-116860000D03*
X183900000Y-114320000D03*
X183900000Y-111780000D03*
X183900000Y-109240000D03*
X183900000Y-104190000D03*
X183900000Y-101650000D03*
X183900000Y-106730000D03*
D20*
X94920000Y-97250000D03*
X97460000Y-97250000D03*
X100000000Y-97250000D03*
D21*
X139370000Y-96000000D03*
D22*
X131750000Y-96000000D03*
D21*
X126370000Y-82750000D03*
D22*
X118750000Y-82750000D03*
D21*
X139620000Y-109250000D03*
D22*
X132000000Y-109250000D03*
D21*
X126370000Y-87000000D03*
D22*
X118750000Y-87000000D03*
D21*
X114370000Y-104750000D03*
D22*
X106750000Y-104750000D03*
D21*
X101120000Y-87000000D03*
D22*
X93500000Y-87000000D03*
D21*
X126620000Y-96000000D03*
D22*
X119000000Y-96000000D03*
D21*
X126620000Y-91500000D03*
D22*
X119000000Y-91500000D03*
D21*
X152620000Y-104750000D03*
D22*
X145000000Y-104750000D03*
D21*
X139370000Y-100750000D03*
D22*
X131750000Y-100750000D03*
D21*
X139370000Y-104750000D03*
D22*
X131750000Y-104750000D03*
D21*
X152620000Y-100500000D03*
D22*
X145000000Y-100500000D03*
D21*
X139370000Y-91500000D03*
D22*
X131750000Y-91500000D03*
D21*
X152620000Y-96000000D03*
D22*
X145000000Y-96000000D03*
D21*
X152620000Y-109500000D03*
D22*
X145000000Y-109500000D03*
D21*
X126870000Y-104750000D03*
D22*
X119250000Y-104750000D03*
D21*
X152620000Y-91500000D03*
D22*
X145000000Y-91500000D03*
D21*
X113870000Y-91750000D03*
D22*
X106250000Y-91750000D03*
D21*
X113870000Y-87000000D03*
D22*
X106250000Y-87000000D03*
D21*
X152370000Y-87250000D03*
D22*
X144750000Y-87250000D03*
D21*
X126870000Y-100500000D03*
D22*
X119250000Y-100500000D03*
D21*
X126320000Y-77800000D03*
D22*
X118700000Y-77800000D03*
D21*
X139370000Y-87000000D03*
D22*
X131750000Y-87000000D03*
D21*
X126870000Y-109250000D03*
D22*
X119250000Y-109250000D03*
D21*
X152520000Y-82700000D03*
D22*
X144900000Y-82700000D03*
D21*
X113870000Y-82500000D03*
D22*
X106250000Y-82500000D03*
D21*
X114370000Y-100500000D03*
D22*
X106750000Y-100500000D03*
D21*
X114120000Y-96000000D03*
D22*
X106500000Y-96000000D03*
D21*
X114020000Y-78200000D03*
D22*
X106400000Y-78200000D03*
D21*
X114370000Y-109500000D03*
D22*
X106750000Y-109500000D03*
D21*
X152520000Y-77500000D03*
D22*
X144900000Y-77500000D03*
D19*
X191900000Y-57750000D03*
X189500000Y-57750000D03*
X187100000Y-57750000D03*
X204000000Y-61006000D03*
X199200000Y-61006000D03*
X201600000Y-61032000D03*
D23*
X134780000Y-57200000D03*
X132240000Y-57200000D03*
D24*
X129700000Y-57200000D03*
D23*
X134830000Y-39750000D03*
X132290000Y-39750000D03*
D24*
X129750000Y-39750000D03*
D23*
X105330000Y-56750000D03*
X102790000Y-56750000D03*
D24*
X100250000Y-56750000D03*
D23*
X161330000Y-57250000D03*
X158790000Y-57250000D03*
D24*
X156250000Y-57250000D03*
D23*
X105330000Y-39500000D03*
X102790000Y-39500000D03*
D24*
X100250000Y-39500000D03*
D23*
X161330000Y-40250000D03*
X158790000Y-40250000D03*
D24*
X156250000Y-40250000D03*
D19*
X184290000Y-45000000D03*
X181750000Y-45000000D03*
X179210000Y-45000000D03*
D25*
X171950000Y-84050000D03*
X161450000Y-91150000D03*
X161450000Y-84050000D03*
X171950000Y-91150000D03*
D26*
X84750000Y-41360000D03*
X84750000Y-38820000D03*
X84750000Y-36280000D03*
X84750000Y-33740000D03*
X84750000Y-31200000D03*
X84750000Y-28660000D03*
X84750000Y-26120000D03*
X84750000Y-23580000D03*
X84750000Y-21040000D03*
D10*
X84750000Y-18500000D03*
D26*
X77000000Y-41110000D03*
X77000000Y-38570000D03*
X77000000Y-36030000D03*
X77000000Y-33490000D03*
X77000000Y-30950000D03*
X77000000Y-28410000D03*
X77000000Y-25870000D03*
X77000000Y-23330000D03*
X77000000Y-20790000D03*
D10*
X77000000Y-18250000D03*
D26*
X69250000Y-40860000D03*
X69250000Y-38320000D03*
X69250000Y-35780000D03*
X69250000Y-33240000D03*
X69250000Y-30700000D03*
X69250000Y-28160000D03*
X69250000Y-25620000D03*
X69250000Y-23080000D03*
X69250000Y-20540000D03*
D10*
X69250000Y-18000000D03*
D14*
X179325000Y-18650000D03*
X179325000Y-27850000D03*
X185400000Y-18650000D03*
X185400000Y-27850000D03*
D19*
X181040000Y-66706000D03*
X175960000Y-66706000D03*
X178500000Y-66732000D03*
D27*
X91840000Y-115200000D03*
D28*
X89300000Y-115200000D03*
D27*
X113840000Y-115200000D03*
D28*
X111300000Y-115200000D03*
D27*
X106240000Y-115100000D03*
D28*
X103700000Y-115100000D03*
D27*
X99140000Y-115200000D03*
D28*
X96600000Y-115200000D03*
D29*
X76750000Y-49340000D03*
D30*
X76750000Y-59500000D03*
D29*
X84500000Y-49340000D03*
D30*
X84500000Y-59500000D03*
D31*
X204330000Y-56500000D03*
D32*
X199250000Y-56500000D03*
D29*
X69000000Y-49340000D03*
D30*
X69000000Y-59500000D03*
D27*
X137540000Y-69700000D03*
D28*
X135000000Y-69700000D03*
D27*
X99700000Y-69500000D03*
D28*
X97160000Y-69500000D03*
D33*
X121500000Y-126000000D03*
D34*
X116500000Y-126000000D03*
D35*
X86000000Y-67250000D03*
X83500000Y-67250000D03*
D33*
X105250000Y-126000000D03*
D34*
X100250000Y-126000000D03*
D35*
X70500000Y-67250000D03*
X68000000Y-67250000D03*
X70500000Y-76000000D03*
D16*
X68000000Y-76000000D03*
D35*
X86750000Y-76000000D03*
D16*
X84250000Y-76000000D03*
D35*
X78750000Y-76000000D03*
D16*
X76250000Y-76000000D03*
D35*
X90250000Y-126250000D03*
D16*
X87750000Y-126250000D03*
D35*
X78250000Y-67250000D03*
X75750000Y-67250000D03*
D36*
X74900000Y-64200000D03*
X64495032Y-79797293D03*
X94527180Y-109500000D03*
X145000000Y-124500000D03*
X185000000Y-66000000D03*
X115100000Y-32400000D03*
X96500000Y-74400000D03*
X101500000Y-74700000D03*
X101300000Y-77700000D03*
X173300000Y-105600000D03*
X156500000Y-100700000D03*
X131800000Y-81900000D03*
X99900000Y-84700011D03*
X118800000Y-92700000D03*
X142400000Y-102200000D03*
X143700000Y-102999999D03*
X142187347Y-104887347D03*
X115500000Y-97000000D03*
X118500000Y-97600000D03*
X118305001Y-94600000D03*
X137800000Y-71700000D03*
X64699981Y-105384983D03*
X116500000Y-122000000D03*
X165100000Y-88300000D03*
X162200000Y-86800000D03*
X116500000Y-111630000D03*
X140000000Y-114600000D03*
X73800000Y-70000000D03*
X142400000Y-46300000D03*
X149300000Y-39000000D03*
X152400000Y-36000000D03*
X158800000Y-36000000D03*
X86750000Y-76000000D03*
X77700000Y-89900000D03*
X75400000Y-92800000D03*
X196200000Y-133700000D03*
X196000000Y-128700000D03*
X75703032Y-70903032D03*
X82200000Y-77000000D03*
X81800000Y-61400000D03*
X211200000Y-27800000D03*
X210300000Y-81700000D03*
X206100000Y-86700000D03*
X159700000Y-44800000D03*
X119700000Y-97600000D03*
X117653846Y-85553846D03*
X116000000Y-82900000D03*
X130800000Y-74900000D03*
X132800000Y-75400000D03*
X140343154Y-74156846D03*
X145000000Y-80200000D03*
X147000000Y-81100000D03*
X150700000Y-83900000D03*
X150800000Y-86500000D03*
X153799924Y-94330478D03*
X130300000Y-81800000D03*
X137500000Y-67700000D03*
X154100000Y-54800000D03*
X156700000Y-48600000D03*
X162700000Y-52300000D03*
X173000000Y-46300000D03*
X184400000Y-54700000D03*
X183900000Y-57700000D03*
X187100000Y-62400000D03*
X187800000Y-67700000D03*
X205500000Y-81000000D03*
X117249999Y-98400000D03*
X122100000Y-98300000D03*
X124619999Y-98400000D03*
X115800000Y-89300000D03*
X111787347Y-94287347D03*
X116100000Y-90200000D03*
X185200000Y-95200000D03*
X73300000Y-72600000D03*
X75800000Y-79700000D03*
X90900000Y-104800000D03*
X109800000Y-106700000D03*
X115600000Y-107900000D03*
X118200000Y-107900000D03*
X136000000Y-108000000D03*
X140800000Y-106000000D03*
X153800000Y-119200000D03*
X155600000Y-110900000D03*
X154100000Y-109300000D03*
X143387347Y-107787347D03*
X145675000Y-106875000D03*
X149500000Y-105872347D03*
X157800000Y-71000000D03*
X148700000Y-73600000D03*
X147100000Y-70100000D03*
X168700000Y-66100000D03*
X143600000Y-67700000D03*
X144500000Y-70100000D03*
X116000000Y-77100000D03*
X116000000Y-67300000D03*
X131300000Y-60100000D03*
X138100000Y-62500000D03*
X157900000Y-60500000D03*
X165400000Y-61600000D03*
X101850000Y-71950000D03*
X90700000Y-75700000D03*
X91700000Y-76600000D03*
X92900000Y-78300000D03*
X85256846Y-88356846D03*
X108500000Y-114500000D03*
X103600000Y-110500000D03*
X138175000Y-60300000D03*
X132300000Y-50200000D03*
X125200000Y-65700000D03*
X128000000Y-68900000D03*
X148800000Y-69800000D03*
X149800000Y-75300000D03*
X111500000Y-76700000D03*
X111500000Y-71600000D03*
X121500000Y-67900000D03*
X128400000Y-71300000D03*
X135300000Y-71900000D03*
X118800000Y-118500000D03*
X122300000Y-96100000D03*
X121400000Y-101500010D03*
X104700000Y-113200000D03*
X120600000Y-80500000D03*
X127000000Y-75800000D03*
X128600000Y-73100000D03*
X134400000Y-77000000D03*
X145500010Y-73900000D03*
X145500010Y-66700000D03*
X151223848Y-67423848D03*
X152438846Y-80238846D03*
X158000000Y-91900000D03*
X158100000Y-98200000D03*
X167837347Y-105937347D03*
X170300000Y-107200000D03*
X167600000Y-115900000D03*
X95800000Y-81300000D03*
X100625000Y-81300000D03*
X131300000Y-73000000D03*
X128000000Y-50800000D03*
X138900000Y-52100000D03*
X121500000Y-95300000D03*
X120600000Y-100600000D03*
X108500000Y-110800000D03*
X112500000Y-111500000D03*
X151100000Y-118600000D03*
X120700000Y-118425000D03*
X120200000Y-113400000D03*
X115600000Y-113400000D03*
X99600000Y-91500000D03*
X92300000Y-93600000D03*
X88500000Y-97300000D03*
X150900000Y-100600000D03*
X104100000Y-96700000D03*
X179500000Y-75900000D03*
X177900000Y-78900000D03*
X167700000Y-48100000D03*
X163900000Y-52000000D03*
X157900000Y-108000000D03*
X156025000Y-106300000D03*
X147400000Y-107600000D03*
X143000000Y-109200000D03*
X141600000Y-112900000D03*
X154497347Y-106597347D03*
X122300000Y-106500001D03*
X122010048Y-104658579D03*
X124200000Y-100900000D03*
X113039152Y-99660848D03*
X116130848Y-99230848D03*
X107402643Y-112202643D03*
X109300000Y-113600000D03*
X115300000Y-116800000D03*
X123600000Y-108800000D03*
X134900000Y-101000000D03*
X139900000Y-102900000D03*
X139909808Y-85251576D03*
X135100000Y-107175000D03*
X124612653Y-105387347D03*
X152520000Y-82700000D03*
X86600000Y-69400000D03*
X100200000Y-60900000D03*
X129400000Y-100000000D03*
X123000000Y-104800000D03*
X133100000Y-107175000D03*
X139300000Y-113100000D03*
X142900000Y-112300000D03*
X144275000Y-110602547D03*
X153597347Y-107497347D03*
X154722653Y-108422653D03*
X170000000Y-104800000D03*
X171500000Y-106900000D03*
X181400000Y-103000000D03*
X192940154Y-93240154D03*
X77200000Y-96600000D03*
X87500000Y-93100000D03*
X96400000Y-82300000D03*
X104800000Y-81700000D03*
X109600000Y-79950001D03*
X140500000Y-116700000D03*
X121800000Y-116700000D03*
X116300000Y-106700000D03*
X147400000Y-114800000D03*
X134900000Y-104800000D03*
X133317002Y-104800000D03*
X143834076Y-92075000D03*
X142500000Y-97675000D03*
X145300000Y-102800000D03*
X184700000Y-140900000D03*
X208900000Y-133700000D03*
X187100000Y-96600000D03*
X162900000Y-95600000D03*
X138000000Y-93600000D03*
X139954433Y-79454433D03*
X141016731Y-80900000D03*
X142800846Y-80200846D03*
X145500010Y-84800000D03*
X149075000Y-84800000D03*
X157400000Y-83900000D03*
X173104848Y-75704848D03*
X177400000Y-71400000D03*
X187200000Y-92600000D03*
X163900000Y-95200000D03*
X156100000Y-93600000D03*
X154054433Y-65354433D03*
X159900000Y-80000000D03*
X175075000Y-76300000D03*
X204700000Y-83400000D03*
X194000000Y-73900000D03*
X185300000Y-74800000D03*
X179000000Y-74300000D03*
X139800000Y-72500000D03*
X139625000Y-66300000D03*
X138100000Y-64200000D03*
X136562653Y-64237347D03*
X132000000Y-67700001D03*
X134500000Y-72500000D03*
X129300000Y-77774999D03*
X146400000Y-102300000D03*
X148600000Y-96200000D03*
X154673848Y-95073848D03*
X147149999Y-91500000D03*
X157275000Y-89500000D03*
X161300000Y-88475001D03*
X163550001Y-86900000D03*
X168300000Y-88000000D03*
X173800000Y-88800000D03*
X177800000Y-93700000D03*
X172200000Y-100100000D03*
X163115547Y-100759148D03*
X163500000Y-103300000D03*
X176200000Y-86500000D03*
X168800000Y-98800000D03*
X164700000Y-100200000D03*
X158500000Y-103200000D03*
D37*
X105760051Y-109500000D02*
X106750000Y-109500000D01*
X94527180Y-109500000D02*
X105760051Y-109500000D01*
X64699982Y-74965703D02*
X64699982Y-79672802D01*
X74900000Y-64765685D02*
X64699982Y-74965703D01*
X74900000Y-64200000D02*
X74900000Y-64765685D01*
X64699982Y-79672802D02*
X64619523Y-79672802D01*
X64619523Y-79672802D02*
X64495032Y-79797293D01*
X89225001Y-96951999D02*
X88848001Y-96574999D01*
X106750000Y-109500000D02*
X91123610Y-109500000D01*
X145000000Y-123306998D02*
X145000000Y-124500000D01*
X89225001Y-107601391D02*
X89225001Y-96951999D01*
X88848001Y-96574999D02*
X88151999Y-96574999D01*
X91123610Y-109500000D02*
X89225001Y-107601391D01*
X90939999Y-119225001D02*
X140918003Y-119225001D01*
X88151999Y-96574999D02*
X87774999Y-96951999D01*
X87774999Y-96951999D02*
X87774999Y-116060001D01*
X87774999Y-116060001D02*
X90939999Y-119225001D01*
X140918003Y-119225001D02*
X145000000Y-123306998D01*
D38*
X166925000Y-40250000D02*
X179325000Y-27850000D01*
X161330000Y-40250000D02*
X166925000Y-40250000D01*
D37*
X205200000Y-29975000D02*
X202975000Y-27750000D01*
X205200000Y-37500000D02*
X205200000Y-29975000D01*
X201649999Y-26424999D02*
X201975001Y-26750001D01*
X201975001Y-26750001D02*
X202975000Y-27750000D01*
X182164214Y-26424999D02*
X201649999Y-26424999D01*
X180739213Y-27850000D02*
X182164214Y-26424999D01*
X179325000Y-27850000D02*
X180739213Y-27850000D01*
X138250000Y-27850000D02*
X133600000Y-32500000D01*
X122900000Y-32500000D02*
X118250000Y-27850000D01*
X133600000Y-32500000D02*
X122900000Y-32500000D01*
X178520000Y-56750000D02*
X178520000Y-59520000D01*
X178520000Y-59520000D02*
X185000000Y-66000000D01*
X84750000Y-18500000D02*
X84750000Y-21040000D01*
X84750000Y-21040000D02*
X84750000Y-23580000D01*
X84750000Y-23580000D02*
X84750000Y-26120000D01*
X84750000Y-26120000D02*
X84750000Y-28660000D01*
X84750000Y-29862081D02*
X84750000Y-31200000D01*
X84750000Y-28660000D02*
X84750000Y-29862081D01*
X84750000Y-31200000D02*
X84750000Y-33740000D01*
X84750000Y-33740000D02*
X84750000Y-41360000D01*
X97550000Y-32400000D02*
X84750000Y-19600000D01*
X84750000Y-19600000D02*
X84750000Y-18500000D01*
X115100000Y-32400000D02*
X97550000Y-32400000D01*
X96500000Y-74400000D02*
X101200000Y-74400000D01*
X101200000Y-74400000D02*
X101500000Y-74700000D01*
X99800000Y-79200000D02*
X99800000Y-79600000D01*
X101300000Y-77700000D02*
X99800000Y-79200000D01*
X87750000Y-125200000D02*
X92250000Y-120700000D01*
X87750000Y-126250000D02*
X87750000Y-125200000D01*
X133300000Y-120700000D02*
X138450000Y-125850000D01*
X92250000Y-120700000D02*
X133300000Y-120700000D01*
X138300000Y-126000000D02*
X138450000Y-125850000D01*
X121500000Y-126000000D02*
X138300000Y-126000000D01*
X120300001Y-127199999D02*
X121500000Y-126000000D01*
X108472057Y-127525001D02*
X119974999Y-127525001D01*
X106947056Y-126000000D02*
X108472057Y-127525001D01*
X119974999Y-127525001D02*
X120300001Y-127199999D01*
X105250000Y-126000000D02*
X106947056Y-126000000D01*
X192744999Y-88494999D02*
X180905001Y-88494999D01*
X193870000Y-89620000D02*
X192744999Y-88494999D01*
X171200000Y-98200000D02*
X171200000Y-102700000D01*
X171420000Y-102920000D02*
X176620000Y-102920000D01*
X171200000Y-102700000D02*
X171420000Y-102920000D01*
X177274999Y-84974999D02*
X180900000Y-88600000D01*
X177274999Y-80786412D02*
X177274999Y-84974999D01*
X178625001Y-79436410D02*
X177274999Y-80786412D01*
X178625001Y-78551999D02*
X178625001Y-79436410D01*
X177325001Y-78174999D02*
X178248001Y-78174999D01*
X178248001Y-78174999D02*
X178625001Y-78551999D01*
X180900000Y-88600000D02*
X171200000Y-98200000D01*
X175800000Y-79700000D02*
X177325001Y-78174999D01*
X180905001Y-88494999D02*
X180900000Y-88600000D01*
X173300000Y-106439130D02*
X173300000Y-105600000D01*
X184421761Y-125557001D02*
X185437011Y-124541751D01*
X182812999Y-123017001D02*
X182812999Y-124991761D01*
X183900000Y-121930000D02*
X182812999Y-123017001D01*
X183378239Y-125557001D02*
X184421761Y-125557001D01*
X185437011Y-116788249D02*
X184421761Y-115772999D01*
X177027731Y-109188601D02*
X176049471Y-109188601D01*
X182812999Y-124991761D02*
X183378239Y-125557001D01*
X185437011Y-124541751D02*
X185437011Y-116788249D01*
X184421761Y-115772999D02*
X183612129Y-115772999D01*
X183612129Y-115772999D02*
X177027731Y-109188601D01*
X176049471Y-109188601D02*
X173300000Y-106439130D01*
X161380000Y-108000000D02*
X156500000Y-103120000D01*
X156500000Y-103120000D02*
X156500000Y-100700000D01*
X119949999Y-101199999D02*
X119250000Y-100500000D01*
X137894990Y-102225010D02*
X120975010Y-102225010D01*
X120975010Y-102225010D02*
X119949999Y-101199999D01*
X139370000Y-100750000D02*
X137894990Y-102225010D01*
X107275001Y-93707997D02*
X107275001Y-91257999D01*
X100717013Y-84700011D02*
X99900000Y-84700011D01*
X105474999Y-95507999D02*
X107275001Y-93707997D01*
X105474999Y-96492001D02*
X105474999Y-95507999D01*
X107275001Y-91257999D02*
X100717013Y-84700011D01*
X106007999Y-97025001D02*
X105474999Y-96492001D01*
X118550001Y-99800001D02*
X119250000Y-100500000D01*
X142400000Y-102200000D02*
X142900001Y-102200000D01*
X142900001Y-102200000D02*
X143700000Y-102999999D01*
X151920001Y-101199999D02*
X152620000Y-100500000D01*
X147919990Y-105200010D02*
X151920001Y-101199999D01*
X146025001Y-105200010D02*
X147919990Y-105200010D01*
X145450010Y-105775001D02*
X146025001Y-105200010D01*
X143075001Y-105775001D02*
X145450010Y-105775001D01*
X142187347Y-104887347D02*
X143075001Y-105775001D01*
X142140000Y-129540000D02*
X183900000Y-129540000D01*
X138450000Y-125850000D02*
X142140000Y-129540000D01*
X183900000Y-129540000D02*
X183900000Y-132040000D01*
X106007999Y-97025001D02*
X115474999Y-97025001D01*
X115474999Y-97025001D02*
X115500000Y-97000000D01*
X118500000Y-97600000D02*
X118200000Y-97600000D01*
X135500000Y-81900000D02*
X137800000Y-79600000D01*
X131800000Y-81900000D02*
X135500000Y-81900000D01*
X118500000Y-99750000D02*
X118500000Y-97600000D01*
X119250000Y-100500000D02*
X118500000Y-99750000D01*
X118305001Y-93194999D02*
X118800000Y-92700000D01*
X118305001Y-94600000D02*
X118305001Y-93194999D01*
X136600001Y-71300001D02*
X135000000Y-69700000D01*
X137400001Y-71300001D02*
X136600001Y-71300001D01*
X137800000Y-71700000D02*
X137400001Y-71300001D01*
X69250000Y-18000000D02*
X69250000Y-49050000D01*
X69540000Y-49340000D02*
X84500000Y-49340000D01*
X69250000Y-49050000D02*
X69540000Y-49340000D01*
X100000000Y-126250000D02*
X100250000Y-126000000D01*
X90250000Y-126250000D02*
X100000000Y-126250000D01*
X105700000Y-122000000D02*
X116500000Y-122000000D01*
X100250000Y-126000000D02*
X101700000Y-126000000D01*
X101700000Y-126000000D02*
X105700000Y-122000000D01*
X177890000Y-101650000D02*
X176620000Y-100380000D01*
X183900000Y-101650000D02*
X177890000Y-101650000D01*
X165100000Y-97236410D02*
X165100000Y-88300000D01*
X177808601Y-103490529D02*
X177190529Y-104108601D01*
X177808601Y-101568601D02*
X177808601Y-103490529D01*
X176620000Y-100380000D02*
X177808601Y-101568601D01*
X171972191Y-104108601D02*
X165100000Y-97236410D01*
X161450000Y-86050000D02*
X161450000Y-84050000D01*
X162200000Y-86800000D02*
X161450000Y-86050000D01*
X124490000Y-111630000D02*
X126870000Y-109250000D01*
X116500000Y-111630000D02*
X124490000Y-111630000D01*
X161931399Y-114268601D02*
X172000000Y-104200000D01*
X160972269Y-114268601D02*
X161931399Y-114268601D01*
X159265860Y-115975010D02*
X160972269Y-114268601D01*
X141375010Y-115975010D02*
X159265860Y-115975010D01*
X140000000Y-114600000D02*
X141375010Y-115975010D01*
X177190529Y-104108601D02*
X172000000Y-104200000D01*
X172000000Y-104200000D02*
X171972191Y-104108601D01*
D38*
X64699981Y-105950668D02*
X81200000Y-122450687D01*
X81200000Y-122450687D02*
X81200000Y-129600000D01*
X81200000Y-129600000D02*
X84100000Y-132500000D01*
X84100000Y-132500000D02*
X91900000Y-132500000D01*
X90250000Y-130850000D02*
X90250000Y-126250000D01*
X91900000Y-132500000D02*
X90250000Y-130850000D01*
X64699981Y-105950668D02*
X64699981Y-105384983D01*
D37*
X78750000Y-76000000D02*
X73800000Y-71050000D01*
X73800000Y-71050000D02*
X73800000Y-70000000D01*
D38*
X158790000Y-41500000D02*
X210300000Y-93010000D01*
X158790000Y-40250000D02*
X158790000Y-41500000D01*
X210300000Y-120660000D02*
X203950000Y-127010000D01*
X210300000Y-93010000D02*
X210300000Y-120660000D01*
X158790000Y-31640000D02*
X155000000Y-27850000D01*
X116982500Y-46300000D02*
X142400000Y-46300000D01*
X105330000Y-56750000D02*
X106532500Y-56750000D01*
X106532500Y-56750000D02*
X116982500Y-46300000D01*
X158790000Y-40250000D02*
X158800000Y-36000000D01*
X158800000Y-36000000D02*
X158790000Y-31640000D01*
X152000000Y-36000000D02*
X152400000Y-36000000D01*
X149300000Y-39000000D02*
X149300000Y-38700000D01*
X149300000Y-38700000D02*
X152000000Y-36000000D01*
D37*
X77700000Y-89900000D02*
X75400000Y-92200000D01*
X75400000Y-92200000D02*
X75400000Y-92800000D01*
X196200000Y-133700000D02*
X196200000Y-128900000D01*
X196200000Y-128900000D02*
X196000000Y-128700000D01*
X75703032Y-70903032D02*
X81800000Y-77000000D01*
X81800000Y-77000000D02*
X82200000Y-77000000D01*
D38*
X102790000Y-38250000D02*
X105540000Y-35500000D01*
X102790000Y-39500000D02*
X102790000Y-38250000D01*
X131830000Y-35500000D02*
X134830000Y-38500000D01*
X134830000Y-38500000D02*
X134830000Y-39750000D01*
X105540000Y-35500000D02*
X131830000Y-35500000D01*
X84250000Y-74950000D02*
X84250000Y-76000000D01*
X87125001Y-72074999D02*
X84250000Y-74950000D01*
X102790000Y-39500000D02*
X102790000Y-40750000D01*
X87870000Y-71330000D02*
X87125001Y-72074999D01*
X87870000Y-55670000D02*
X87870000Y-71330000D01*
X102790000Y-40750000D02*
X87870000Y-55670000D01*
D37*
X117613999Y-26524999D02*
X124413999Y-26524999D01*
X124413999Y-26524999D02*
X133713999Y-17224999D01*
X116625010Y-27513988D02*
X117613999Y-26524999D01*
X133713999Y-17224999D02*
X209624999Y-17224999D01*
X86299991Y-56900009D02*
X86299991Y-50912507D01*
X81800000Y-61400000D02*
X86299991Y-56900009D01*
X116625010Y-34674990D02*
X116625010Y-27513988D01*
X102537508Y-34674990D02*
X116625010Y-34674990D01*
X86299991Y-50912507D02*
X102537508Y-34674990D01*
X209624999Y-17224999D02*
X211200000Y-18800000D01*
X211200000Y-18800000D02*
X211200000Y-27800000D01*
X210300000Y-81700000D02*
X206100000Y-85900000D01*
X206100000Y-85900000D02*
X206100000Y-86700000D01*
D38*
X147000000Y-44210000D02*
X147000000Y-29264213D01*
X147000000Y-29264213D02*
X147000000Y-27850000D01*
X158790000Y-57250000D02*
X158790000Y-56000000D01*
X135982500Y-57200000D02*
X147582500Y-45600000D01*
X134780000Y-57200000D02*
X135982500Y-57200000D01*
X158790000Y-56000000D02*
X148400000Y-45600000D01*
D37*
X147582500Y-45600000D02*
X148400000Y-45600000D01*
D38*
X148400000Y-45600000D02*
X147000000Y-44210000D01*
X134780000Y-57200000D02*
X134780000Y-58450000D01*
X134780000Y-58450000D02*
X117205001Y-76024999D01*
X68000000Y-77050000D02*
X68000000Y-76000000D01*
X71850000Y-80900000D02*
X68000000Y-77050000D01*
X83515002Y-80900000D02*
X71850000Y-80900000D01*
D37*
X160742762Y-44800000D02*
X159700000Y-44800000D01*
X207650010Y-91707248D02*
X160742762Y-44800000D01*
X202862999Y-107817001D02*
X202862999Y-114841761D01*
X202862999Y-114841761D02*
X203428239Y-115407001D01*
X207650010Y-112228752D02*
X207650010Y-91707248D01*
X203950000Y-106730000D02*
X202862999Y-107817001D01*
X203428239Y-115407001D02*
X204471761Y-115407001D01*
X204471761Y-115407001D02*
X207650010Y-112228752D01*
D38*
X116605003Y-75425001D02*
X117205001Y-76024999D01*
D37*
X133166587Y-100050001D02*
X138916588Y-94300000D01*
X134043154Y-74156846D02*
X132800000Y-75400000D01*
X122900000Y-89632998D02*
X122900000Y-92100000D01*
X122900000Y-92100000D02*
X119000000Y-96000000D01*
X117653846Y-85553846D02*
X118820848Y-85553846D01*
X118820848Y-85553846D02*
X122900000Y-89632998D01*
X124000000Y-74900000D02*
X116000000Y-82900000D01*
X130800000Y-74900000D02*
X124000000Y-74900000D01*
X140343154Y-74156846D02*
X134043154Y-74156846D01*
X145900000Y-81100000D02*
X145000000Y-80200000D01*
X147000000Y-81100000D02*
X145900000Y-81100000D01*
X150800000Y-84000000D02*
X150700000Y-83900000D01*
X150800000Y-86500000D02*
X150800000Y-84000000D01*
X153669446Y-94200000D02*
X153799924Y-94330478D01*
X145700000Y-94200000D02*
X153669446Y-94200000D01*
X138916588Y-94300000D02*
X145600000Y-94300000D01*
X145600000Y-94300000D02*
X145700000Y-94200000D01*
X132449999Y-100050001D02*
X133166587Y-100050001D01*
X131750000Y-100750000D02*
X132449999Y-100050001D01*
X135200000Y-79400000D02*
X132700000Y-79400000D01*
X132700000Y-79400000D02*
X130300000Y-81800000D01*
X142508260Y-54800000D02*
X137349990Y-59958270D01*
X154100000Y-54800000D02*
X142508260Y-54800000D01*
X137349990Y-59958270D02*
X137349990Y-67549990D01*
X137349990Y-67549990D02*
X137500000Y-67700000D01*
X160400000Y-52300000D02*
X156700000Y-48600000D01*
X162700000Y-52300000D02*
X160400000Y-52300000D01*
X176000000Y-46300000D02*
X173000000Y-46300000D01*
X184400000Y-54700000D02*
X176000000Y-46300000D01*
X183900000Y-59200000D02*
X183900000Y-57700000D01*
X187100000Y-62400000D02*
X183900000Y-59200000D01*
X192200000Y-67700000D02*
X187800000Y-67700000D01*
X205500000Y-81000000D02*
X192200000Y-67700000D01*
X104825001Y-96788591D02*
X106436410Y-98400000D01*
X104825001Y-96351999D02*
X104825001Y-96788591D01*
X104448001Y-95974999D02*
X104825001Y-96351999D01*
X109482998Y-104750000D02*
X103374999Y-98642001D01*
X103374999Y-98642001D02*
X103374999Y-96351999D01*
X114370000Y-104750000D02*
X109482998Y-104750000D01*
X103751999Y-95974999D02*
X104448001Y-95974999D01*
X103374999Y-96351999D02*
X103751999Y-95974999D01*
X122100000Y-98300000D02*
X124519999Y-98300000D01*
X124519999Y-98300000D02*
X124619999Y-98400000D01*
X115800000Y-87412998D02*
X114362001Y-85974999D01*
X114362001Y-85974999D02*
X113377999Y-85974999D01*
X115800000Y-89300000D02*
X115800000Y-87412998D01*
X113377999Y-85974999D02*
X111787347Y-87565651D01*
X111787347Y-87565651D02*
X111787347Y-94287347D01*
D38*
X85500000Y-80900000D02*
X83515002Y-80900000D01*
X90000000Y-77400000D02*
X89300000Y-77400000D01*
X89300000Y-77400000D02*
X85500000Y-80900000D01*
X93200000Y-80600000D02*
X90000000Y-77400000D01*
X96900000Y-76900000D02*
X93200000Y-80600000D01*
X96900000Y-76900000D02*
X99100000Y-76900000D01*
X99100000Y-76900000D02*
X99700000Y-76300000D01*
X99700000Y-76300000D02*
X108900000Y-76300000D01*
X109774999Y-75425001D02*
X116605003Y-75425001D01*
X108900000Y-76300000D02*
X109774999Y-75425001D01*
D37*
X112353032Y-94287347D02*
X111787347Y-94287347D01*
X112849655Y-94287347D02*
X112353032Y-94287347D01*
X116100000Y-91037002D02*
X112849655Y-94287347D01*
X116100000Y-90200000D02*
X116100000Y-91037002D01*
X107525001Y-94974999D02*
X107199999Y-95300001D01*
X114612001Y-94974999D02*
X107525001Y-94974999D01*
X116225001Y-96587999D02*
X114612001Y-94974999D01*
X116225001Y-97348001D02*
X116225001Y-96587999D01*
X108000000Y-98400000D02*
X115173002Y-98400000D01*
X106436410Y-98400000D02*
X108000000Y-98400000D01*
X107199999Y-95300001D02*
X106500000Y-96000000D01*
X115173002Y-98400000D02*
X116225001Y-97348001D01*
X108000000Y-98400000D02*
X117249999Y-98400000D01*
X204471761Y-130627001D02*
X203428239Y-130627001D01*
X211575020Y-123523742D02*
X204471761Y-130627001D01*
X203428239Y-130627001D02*
X185200000Y-112398762D01*
X188187001Y-56662999D02*
X190021761Y-56662999D01*
X187100000Y-57750000D02*
X188187001Y-56662999D01*
X190021761Y-56662999D02*
X190587001Y-57228239D01*
X211575020Y-79188610D02*
X211575020Y-123523742D01*
X190587001Y-57228239D02*
X190587001Y-58200591D01*
X185200000Y-112398762D02*
X185200000Y-95200000D01*
X190587001Y-58200591D02*
X211575020Y-79188610D01*
X73300000Y-72600000D02*
X73300000Y-77200000D01*
X73300000Y-77200000D02*
X75800000Y-79700000D01*
X106700000Y-104800000D02*
X106750000Y-104750000D01*
X90900000Y-104800000D02*
X106700000Y-104800000D01*
X109800000Y-106700000D02*
X111000000Y-107900000D01*
X111000000Y-107900000D02*
X115600000Y-107900000D01*
X118200000Y-107900000D02*
X135900000Y-107900000D01*
X135900000Y-107900000D02*
X136000000Y-108000000D01*
X140620000Y-106000000D02*
X139370000Y-104750000D01*
X140800000Y-106000000D02*
X140620000Y-106000000D01*
X156488601Y-121888601D02*
X153800000Y-119200000D01*
X177169839Y-121888601D02*
X156488601Y-121888601D01*
X185887020Y-113085782D02*
X185887020Y-126631742D01*
X185200000Y-112398762D02*
X185887020Y-113085782D01*
X185887020Y-126631742D02*
X184421761Y-128097001D01*
X184421761Y-128097001D02*
X183378239Y-128097001D01*
X183378239Y-128097001D02*
X177169839Y-121888601D01*
X155600000Y-110900000D02*
X155600000Y-110800000D01*
X155600000Y-110800000D02*
X154100000Y-109300000D01*
X140800000Y-106000000D02*
X141600000Y-106000000D01*
X141600000Y-106000000D02*
X143387347Y-107787347D01*
X145675000Y-106875000D02*
X146677653Y-105872347D01*
X146677653Y-105872347D02*
X149500000Y-105872347D01*
X157800000Y-71000000D02*
X155200000Y-73600000D01*
X155200000Y-73600000D02*
X148700000Y-73600000D01*
X110871739Y-83525001D02*
X69825001Y-83525001D01*
X69825001Y-83525001D02*
X65600000Y-79300000D01*
X73439997Y-68375001D02*
X82374999Y-68375001D01*
X82374999Y-68375001D02*
X82700001Y-68049999D01*
X65600000Y-76214998D02*
X73439997Y-68375001D01*
X82700001Y-68049999D02*
X83500000Y-67250000D01*
X65600000Y-79300000D02*
X65600000Y-76214998D01*
X168700000Y-66665685D02*
X168700000Y-66100000D01*
X185449314Y-83414999D02*
X168700000Y-66665685D01*
X193870000Y-84540000D02*
X192744999Y-83414999D01*
X192744999Y-83414999D02*
X185449314Y-83414999D01*
X143600000Y-62599992D02*
X143600000Y-67700000D01*
X144500000Y-70100000D02*
X147100000Y-70100000D01*
X110871739Y-83525001D02*
X116000000Y-78396740D01*
X116000000Y-78396740D02*
X116000000Y-77100000D01*
X116000000Y-67300000D02*
X120200000Y-67300000D01*
X120200000Y-67300000D02*
X127400000Y-60100000D01*
X127400000Y-60100000D02*
X131300000Y-60100000D01*
X138765685Y-62600000D02*
X143600000Y-62600000D01*
X138665685Y-62500000D02*
X138765685Y-62600000D01*
X138100000Y-62500000D02*
X138665685Y-62500000D01*
X143600000Y-62600000D02*
X143600000Y-62599992D01*
D38*
X132240000Y-58450000D02*
X132240000Y-57200000D01*
D37*
X132164999Y-58525001D02*
X132240000Y-58450000D01*
D38*
X102790000Y-58000000D02*
X103315001Y-58525001D01*
X102790000Y-56750000D02*
X102790000Y-58000000D01*
X138175000Y-60300000D02*
X157700000Y-60300000D01*
D37*
X157700000Y-60300000D02*
X157900000Y-60500000D01*
D38*
X173368000Y-61600000D02*
X178500000Y-66732000D01*
X165400000Y-61600000D02*
X173368000Y-61600000D01*
X103300000Y-64000000D02*
X103315001Y-70484999D01*
X93500000Y-66400000D02*
X101800000Y-66400000D01*
X101850000Y-66450000D02*
X101850000Y-69836998D01*
X91625001Y-68274999D02*
X93500000Y-66400000D01*
D37*
X101800000Y-66400000D02*
X101850000Y-66450000D01*
D38*
X103315001Y-70484999D02*
X101850000Y-71950000D01*
X101850000Y-71950000D02*
X101850000Y-69836998D01*
X91625001Y-68274999D02*
X90700000Y-69200000D01*
X90700000Y-69200000D02*
X90700000Y-75700000D01*
X91700000Y-76600000D02*
X91700000Y-77100000D01*
X91700000Y-77100000D02*
X92900000Y-78300000D01*
X93901767Y-97250000D02*
X94920000Y-97250000D01*
D37*
X93584315Y-97250000D02*
X93901767Y-97250000D01*
D38*
X85256846Y-88922531D02*
X93584315Y-97250000D01*
X85256846Y-88356846D02*
X85256846Y-88922531D01*
D37*
X108500000Y-114500000D02*
X107600000Y-114500000D01*
X107600000Y-114500000D02*
X103600000Y-110500000D01*
D38*
X131734315Y-50200000D02*
X130334315Y-48800000D01*
X132300000Y-50200000D02*
X131734315Y-50200000D01*
X118500000Y-48800000D02*
X103300000Y-64000000D01*
X130334315Y-48800000D02*
X118500000Y-48800000D01*
X103315001Y-58525001D02*
X103300000Y-64000000D01*
D37*
X116974991Y-73925009D02*
X125200000Y-65700000D01*
X100358269Y-73925009D02*
X116974991Y-73925009D01*
X99700000Y-69500000D02*
X99700000Y-73266740D01*
X99700000Y-73266740D02*
X100358269Y-73925009D01*
X149800000Y-86700000D02*
X145000000Y-91500000D01*
X149800000Y-75300000D02*
X149800000Y-86700000D01*
X128399999Y-68500001D02*
X128000000Y-68900000D01*
X128474999Y-68425001D02*
X128399999Y-68500001D01*
X147425001Y-68425001D02*
X128474999Y-68425001D01*
X148800000Y-69800000D02*
X147425001Y-68425001D01*
X111500000Y-79123003D02*
X111500000Y-76700000D01*
X106250000Y-82500000D02*
X108123003Y-82500000D01*
X108123003Y-82500000D02*
X111500000Y-79123003D01*
X111500000Y-71600000D02*
X117800000Y-71600000D01*
X117800000Y-71600000D02*
X121500000Y-67900000D01*
X128400000Y-71300000D02*
X134700000Y-71300000D01*
X134700000Y-71300000D02*
X135300000Y-71900000D01*
D38*
X179971999Y-45761999D02*
X179210000Y-45000000D01*
X189384999Y-55174999D02*
X179971999Y-45761999D01*
X204330000Y-56500000D02*
X203004999Y-55174999D01*
D37*
X203004999Y-55174999D02*
X202974999Y-55174999D01*
D38*
X202974999Y-55174999D02*
X201800000Y-54000000D01*
X190559998Y-54000000D02*
X189384999Y-55174999D01*
X201800000Y-54000000D02*
X190559998Y-54000000D01*
D37*
X99140000Y-115200000D02*
X101640000Y-117700000D01*
X182822370Y-119390000D02*
X183900000Y-119390000D01*
X159190000Y-119390000D02*
X182822370Y-119390000D01*
X157500000Y-117700000D02*
X159190000Y-119390000D01*
X101640000Y-117700000D02*
X157500000Y-117700000D01*
X96600000Y-115200000D02*
X96600000Y-116350000D01*
X98750000Y-118500000D02*
X118800000Y-118500000D01*
X96600000Y-116350000D02*
X98750000Y-118500000D01*
X121374999Y-101475009D02*
X121400000Y-101500010D01*
X122300000Y-96100000D02*
X121374999Y-97025001D01*
X121374999Y-97025001D02*
X121374999Y-101475009D01*
X106240000Y-114740000D02*
X106240000Y-115100000D01*
X104700000Y-113200000D02*
X106240000Y-114740000D01*
X118750000Y-82350000D02*
X118750000Y-82750000D01*
X120600000Y-80500000D02*
X118750000Y-82350000D01*
X118750000Y-82750000D02*
X125700000Y-75800000D01*
X125700000Y-75800000D02*
X127000000Y-75800000D01*
X134400000Y-77000000D02*
X142400010Y-77000000D01*
X142400010Y-77000000D02*
X145500010Y-73900000D01*
X145500010Y-66700000D02*
X150500000Y-66700000D01*
X150500000Y-66700000D02*
X151223848Y-67423848D01*
X152438846Y-80238846D02*
X158000000Y-85800000D01*
X158000000Y-85800000D02*
X158000000Y-91900000D01*
X157700001Y-98599999D02*
X157700001Y-103473003D01*
X158100000Y-98200000D02*
X157700001Y-98599999D01*
X166008601Y-104108601D02*
X167837347Y-105937347D01*
X157700001Y-103473003D02*
X158335599Y-104108601D01*
X158335599Y-104108601D02*
X166008601Y-104108601D01*
X170300000Y-107200000D02*
X170300000Y-113200000D01*
X170300000Y-113200000D02*
X167600000Y-115900000D01*
X95800000Y-81300000D02*
X100625000Y-81300000D01*
X128700000Y-73000000D02*
X128600000Y-73100000D01*
X131300000Y-73000000D02*
X128700000Y-73000000D01*
X126050000Y-115200000D02*
X132000000Y-109250000D01*
X113840000Y-115200000D02*
X126050000Y-115200000D01*
X128000000Y-50800000D02*
X129300000Y-52100000D01*
X129300000Y-52100000D02*
X138900000Y-52100000D01*
X121500000Y-95300000D02*
X120600000Y-96200000D01*
X120600000Y-96200000D02*
X120600000Y-100600000D01*
X108500000Y-110800000D02*
X111800000Y-110800000D01*
X111800000Y-110800000D02*
X112500000Y-111500000D01*
X151100000Y-118600000D02*
X120875000Y-118600000D01*
X120875000Y-118600000D02*
X120700000Y-118425000D01*
X120200000Y-113400000D02*
X115600000Y-113400000D01*
X99600000Y-91500000D02*
X97500000Y-93600000D01*
X97500000Y-93600000D02*
X92300000Y-93600000D01*
X88500000Y-111860000D02*
X91840000Y-115200000D01*
X88500000Y-97300000D02*
X88500000Y-111860000D01*
X145989949Y-104750000D02*
X145000000Y-104750000D01*
X147315685Y-104750000D02*
X145989949Y-104750000D01*
X150900000Y-101165685D02*
X147315685Y-104750000D01*
X150900000Y-100600000D02*
X150900000Y-101165685D01*
X114484821Y-102711409D02*
X111248411Y-99474999D01*
X111248411Y-99474999D02*
X106874999Y-99474999D01*
X138974999Y-102711409D02*
X114484821Y-102711409D01*
X141774999Y-99911409D02*
X138974999Y-102711409D01*
X145000000Y-99101998D02*
X142848001Y-96949999D01*
X142848001Y-96949999D02*
X142151999Y-96949999D01*
X142151999Y-96949999D02*
X141774999Y-97326999D01*
X106874999Y-99474999D02*
X104100000Y-96700000D01*
X145000000Y-100500000D02*
X145000000Y-99101998D01*
X141774999Y-97326999D02*
X141774999Y-99911409D01*
X89300000Y-116350000D02*
X89300000Y-115200000D01*
X89375001Y-116425001D02*
X89300000Y-116350000D01*
X95439999Y-113974999D02*
X92989997Y-116425001D01*
X99728001Y-113974999D02*
X95439999Y-113974999D01*
X102553002Y-116800000D02*
X99728001Y-113974999D01*
X107314998Y-116800000D02*
X102553002Y-116800000D01*
X112487002Y-112900000D02*
X111214998Y-112900000D01*
X115900000Y-109487002D02*
X112487002Y-112900000D01*
X115900000Y-108700000D02*
X115900000Y-109487002D01*
X118824999Y-105775001D02*
X115900000Y-108700000D01*
X92989997Y-116425001D02*
X89375001Y-116425001D01*
X119742001Y-105775001D02*
X118824999Y-105775001D01*
X153645001Y-96492001D02*
X146412003Y-103724999D01*
X153645001Y-95507999D02*
X153645001Y-96492001D01*
X111214998Y-112900000D02*
X107314998Y-116800000D01*
X138877999Y-94974999D02*
X153112001Y-94974999D01*
X132242001Y-101775001D02*
X138344999Y-95672003D01*
X121792003Y-103724999D02*
X119742001Y-105775001D01*
X138344999Y-95672003D02*
X138344999Y-95507999D01*
X125344999Y-100492001D02*
X126627999Y-101775001D01*
X125344999Y-86507999D02*
X125344999Y-100492001D01*
X126627999Y-101775001D02*
X132242001Y-101775001D01*
X125877999Y-85974999D02*
X125344999Y-86507999D01*
X126862001Y-85974999D02*
X125877999Y-85974999D01*
X131130600Y-90243598D02*
X126862001Y-85974999D01*
X133783400Y-90243598D02*
X131130600Y-90243598D01*
X138344999Y-95507999D02*
X138877999Y-94974999D01*
X149451999Y-74574999D02*
X133783400Y-90243598D01*
X175920821Y-74574999D02*
X149451999Y-74574999D01*
X146412003Y-103724999D02*
X121792003Y-103724999D01*
X153112001Y-94974999D02*
X153645001Y-95507999D01*
X185885822Y-84540000D02*
X175920821Y-74574999D01*
X186250000Y-84540000D02*
X185885822Y-84540000D01*
X176721999Y-67467999D02*
X175960000Y-66706000D01*
X177073001Y-67819001D02*
X176721999Y-67467999D01*
X179926999Y-67819001D02*
X177073001Y-67819001D01*
X181040000Y-66706000D02*
X179926999Y-67819001D01*
X175960000Y-66706000D02*
X175960000Y-72360000D01*
X175960000Y-72360000D02*
X179500000Y-75900000D01*
X174700000Y-91150000D02*
X171950000Y-91150000D01*
X174775001Y-91074999D02*
X174700000Y-91150000D01*
X174775001Y-82650000D02*
X174775001Y-91074999D01*
X177900000Y-79525001D02*
X174775001Y-82650000D01*
X177900000Y-78900000D02*
X177900000Y-79525001D01*
X192750000Y-29975000D02*
X194975000Y-27750000D01*
X192750000Y-37500000D02*
X192750000Y-29975000D01*
X127359949Y-82750000D02*
X126370000Y-82750000D01*
X137684171Y-82750000D02*
X127359949Y-82750000D01*
X162607510Y-57826661D02*
X137684171Y-82750000D01*
X162607510Y-56673339D02*
X162607510Y-57826661D01*
X148325001Y-42390830D02*
X162607510Y-56673339D01*
X148325001Y-27213999D02*
X148325001Y-42390830D01*
X147636001Y-26524999D02*
X148325001Y-27213999D01*
X135575001Y-26524999D02*
X147636001Y-26524999D01*
X134250000Y-27850000D02*
X135575001Y-26524999D01*
X163900000Y-52000000D02*
X163900000Y-55380849D01*
X163900000Y-55380849D02*
X162607510Y-56673339D01*
X178300000Y-37500000D02*
X167700000Y-48100000D01*
X192750000Y-37500000D02*
X178300000Y-37500000D01*
X113870000Y-87000000D02*
X113870000Y-91750000D01*
X157900000Y-108000000D02*
X156200000Y-106300000D01*
X156200000Y-106300000D02*
X156025000Y-106300000D01*
X147400000Y-107600000D02*
X144600000Y-107600000D01*
X144600000Y-107600000D02*
X143000000Y-109200000D01*
X139620000Y-111485685D02*
X139620000Y-110239949D01*
X141034315Y-112900000D02*
X139620000Y-111485685D01*
X139620000Y-110239949D02*
X139620000Y-109250000D01*
X141600000Y-112900000D02*
X141034315Y-112900000D01*
X148402653Y-106597347D02*
X147400000Y-107600000D01*
X154497347Y-106597347D02*
X148402653Y-106597347D01*
X122300000Y-106500001D02*
X122010048Y-106210049D01*
X122010048Y-106210049D02*
X122010048Y-104658579D01*
X113039152Y-99660848D02*
X113469152Y-99230848D01*
X113469152Y-99230848D02*
X116130848Y-99230848D01*
X107402643Y-112202643D02*
X107902643Y-112202643D01*
X107902643Y-112202643D02*
X109300000Y-113600000D01*
X113626998Y-116800000D02*
X112614999Y-115788001D01*
X116151999Y-110904999D02*
X121495001Y-110904999D01*
X115300000Y-116800000D02*
X113626998Y-116800000D01*
X112614999Y-114441999D02*
X116151999Y-110904999D01*
X121495001Y-110904999D02*
X123600000Y-108800000D01*
X112614999Y-115788001D02*
X112614999Y-114441999D01*
X139370000Y-96000000D02*
X134900000Y-100470000D01*
X134900000Y-100470000D02*
X134900000Y-101000000D01*
X140395001Y-85736769D02*
X139909808Y-85251576D01*
X139370000Y-91500000D02*
X140395001Y-90474999D01*
X140395001Y-90474999D02*
X140395001Y-85736769D01*
X198975000Y-36400000D02*
X198975000Y-27750000D01*
X198975000Y-37500000D02*
X198975000Y-36400000D01*
X125450317Y-106225011D02*
X124612653Y-105387347D01*
X135100000Y-107175000D02*
X134150011Y-106225011D01*
X134150011Y-106225011D02*
X125450317Y-106225011D01*
X128725011Y-83975011D02*
X131750000Y-87000000D01*
X69638601Y-83975011D02*
X128725011Y-83975011D01*
X65149991Y-79486401D02*
X69638601Y-83975011D01*
X65149990Y-76028598D02*
X65149991Y-79486401D01*
X75053589Y-66124999D02*
X65149990Y-76028598D01*
X84625001Y-66709999D02*
X84040001Y-66124999D01*
X84625001Y-67790001D02*
X84625001Y-66709999D01*
X84040001Y-66124999D02*
X75053589Y-66124999D01*
X83011409Y-79913127D02*
X83011409Y-69403593D01*
X83157501Y-69257501D02*
X86457501Y-69257501D01*
X86457501Y-69257501D02*
X86600000Y-69400000D01*
X83157501Y-69257501D02*
X84625001Y-67790001D01*
X83011409Y-69403593D02*
X83157501Y-69257501D01*
X100250000Y-56750000D02*
X100200000Y-60900000D01*
X100200000Y-60900000D02*
X100250000Y-60834998D01*
X127645001Y-92525001D02*
X127319999Y-92199999D01*
X127645001Y-99318003D02*
X127645001Y-92525001D01*
X129051999Y-100725001D02*
X127645001Y-99318003D01*
X129748001Y-100725001D02*
X129051999Y-100725001D01*
X137673002Y-92800000D02*
X129748001Y-100725001D01*
X127319999Y-92199999D02*
X126620000Y-91500000D01*
X164135002Y-92800000D02*
X137673002Y-92800000D01*
X164275001Y-86463997D02*
X164275001Y-92660001D01*
X173014009Y-77724989D02*
X164275001Y-86463997D01*
X178434401Y-77724989D02*
X173014009Y-77724989D01*
X180945001Y-80235589D02*
X178434401Y-77724989D01*
X180945001Y-85954999D02*
X180945001Y-80235589D01*
X192744999Y-85954999D02*
X180945001Y-85954999D01*
X164275001Y-92660001D02*
X164135002Y-92800000D01*
X193870000Y-87080000D02*
X192744999Y-85954999D01*
X127069999Y-87699999D02*
X126370000Y-87000000D01*
X129799999Y-90429999D02*
X127069999Y-87699999D01*
X129799999Y-99600001D02*
X129799999Y-90429999D01*
X129400000Y-100000000D02*
X129799999Y-99600001D01*
X186250000Y-90751370D02*
X186250000Y-89620000D01*
X186250000Y-110918762D02*
X186250000Y-90751370D01*
X203428239Y-128097001D02*
X186250000Y-110918762D01*
X204471761Y-128097001D02*
X203428239Y-128097001D01*
X211125010Y-121443752D02*
X204471761Y-128097001D01*
X211125010Y-79375010D02*
X211125010Y-121443752D01*
X189500000Y-57750000D02*
X211125010Y-79375010D01*
X123000000Y-104800000D02*
X125375000Y-107175000D01*
X125375000Y-107175000D02*
X133100000Y-107175000D01*
X142900000Y-112673002D02*
X142900000Y-112300000D01*
X141948001Y-113625001D02*
X142900000Y-112673002D01*
X139300000Y-113100000D02*
X139825001Y-113625001D01*
X139825001Y-113625001D02*
X141948001Y-113625001D01*
X148575655Y-107497347D02*
X153597347Y-107497347D01*
X144275000Y-110602547D02*
X145470455Y-110602547D01*
X145470455Y-110602547D02*
X148575655Y-107497347D01*
X165611399Y-109188601D02*
X170000000Y-104800000D01*
X154722653Y-108422653D02*
X155488601Y-109188601D01*
X155488601Y-109188601D02*
X165611399Y-109188601D01*
X177588601Y-106811399D02*
X181400000Y-103000000D01*
X171500000Y-106326998D02*
X172951999Y-104874999D01*
X172951999Y-104874999D02*
X174113071Y-104874999D01*
X174113071Y-104874999D02*
X176049471Y-106811399D01*
X176049471Y-106811399D02*
X177588601Y-106811399D01*
X171500000Y-106900000D02*
X171500000Y-106326998D01*
X189870154Y-93240154D02*
X186250000Y-89620000D01*
X192940154Y-93240154D02*
X189870154Y-93240154D01*
X166725010Y-54501988D02*
X144900000Y-76326998D01*
X166725010Y-53262512D02*
X166725010Y-54501988D01*
X154914009Y-25974989D02*
X153674999Y-27213999D01*
X203160991Y-25974989D02*
X154914009Y-25974989D01*
X206310001Y-38675001D02*
X206375001Y-38610001D01*
X206375001Y-29188999D02*
X203160991Y-25974989D01*
X178198001Y-38675001D02*
X206310001Y-38675001D01*
X174897990Y-55674990D02*
X168048001Y-48825001D01*
X180142085Y-55674990D02*
X174897990Y-55674990D01*
X180640010Y-56172915D02*
X180142085Y-55674990D01*
X144900000Y-76510051D02*
X144900000Y-77500000D01*
X191931677Y-56172915D02*
X180640010Y-56172915D01*
X212025029Y-76266267D02*
X191931677Y-56172915D01*
X153674999Y-40212501D02*
X166725010Y-53262512D01*
X168048001Y-48825001D02*
X178198001Y-38675001D01*
X212025029Y-125573733D02*
X212025029Y-76266267D01*
X153674999Y-27213999D02*
X153674999Y-40212501D01*
X204471761Y-133127001D02*
X212025029Y-125573733D01*
X206375001Y-38610001D02*
X206375001Y-29188999D01*
X203428239Y-133127001D02*
X204471761Y-133127001D01*
X144900000Y-76326998D02*
X144900000Y-76510051D01*
X201975240Y-134580000D02*
X203428239Y-133127001D01*
X183900000Y-134580000D02*
X201975240Y-134580000D01*
X77200000Y-96600000D02*
X84000000Y-96600000D01*
X84000000Y-96600000D02*
X87500000Y-93100000D01*
X103524999Y-82975001D02*
X104800000Y-81700000D01*
X96400000Y-82300000D02*
X97075001Y-82975001D01*
X97075001Y-82975001D02*
X103524999Y-82975001D01*
X108150001Y-79950001D02*
X106400000Y-78200000D01*
X109600000Y-79950001D02*
X108150001Y-79950001D01*
X140500000Y-116700000D02*
X121800000Y-116700000D01*
X116300000Y-105162998D02*
X111637002Y-100500000D01*
X107739949Y-100500000D02*
X106750000Y-100500000D01*
X111637002Y-100500000D02*
X107739949Y-100500000D01*
X116300000Y-106700000D02*
X116300000Y-105162998D01*
X147400000Y-114800000D02*
X137400000Y-104800000D01*
X137400000Y-104800000D02*
X134900000Y-104800000D01*
X133317002Y-104800000D02*
X134900000Y-104800000D01*
X143834076Y-91148922D02*
X143834076Y-92075000D01*
X144200001Y-83399999D02*
X144200001Y-84572993D01*
X144900000Y-82700000D02*
X144200001Y-83399999D01*
X144200001Y-84572993D02*
X146140608Y-86513600D01*
X146140608Y-86513600D02*
X146140608Y-88842390D01*
X146140608Y-88842390D02*
X143834076Y-91148922D01*
X142500000Y-97675000D02*
X142500000Y-100000000D01*
X142500000Y-100000000D02*
X145300000Y-102800000D01*
X184700000Y-140900000D02*
X186300000Y-139300000D01*
X186300000Y-139300000D02*
X203300000Y-139300000D01*
X203300000Y-139300000D02*
X208900000Y-133700000D01*
X203950000Y-124470000D02*
X187100000Y-107620000D01*
X187100000Y-107620000D02*
X187100000Y-96600000D01*
X155026998Y-93600000D02*
X138000000Y-93600000D01*
X162900000Y-95600000D02*
X157026998Y-95600000D01*
X157026998Y-95600000D02*
X155026998Y-93600000D01*
X132693003Y-78499999D02*
X133393002Y-77800000D01*
X126320000Y-77800000D02*
X127019999Y-78499999D01*
X133393002Y-77800000D02*
X138300000Y-77800000D01*
X127019999Y-78499999D02*
X132693003Y-78499999D01*
X138300000Y-77800000D02*
X139954433Y-79454433D01*
X141016731Y-80900000D02*
X142101692Y-80900000D01*
X142101692Y-80900000D02*
X142800846Y-80200846D01*
X145500010Y-84800000D02*
X149075000Y-84800000D01*
X163122150Y-75704848D02*
X173104848Y-75704848D01*
X157400000Y-83900000D02*
X157400000Y-81426998D01*
X157400000Y-81426998D02*
X163122150Y-75704848D01*
X184935002Y-71400000D02*
X207200000Y-93664998D01*
X177400000Y-71400000D02*
X184935002Y-71400000D01*
X207200000Y-111070000D02*
X203950000Y-114320000D01*
X207200000Y-93664998D02*
X207200000Y-111070000D01*
X203950000Y-104190000D02*
X198790000Y-104190000D01*
X198790000Y-104190000D02*
X187200000Y-92600000D01*
X163900000Y-95200000D02*
X162300000Y-93600000D01*
X162300000Y-93600000D02*
X156100000Y-93600000D01*
X154054433Y-65618569D02*
X154054433Y-65354433D01*
X148848001Y-70825001D02*
X154054433Y-65618569D01*
X159900000Y-80000000D02*
X170102588Y-80000000D01*
X170102588Y-80000000D02*
X172827609Y-77274979D01*
X173900000Y-76300000D02*
X173000000Y-77200000D01*
X175075000Y-76300000D02*
X173900000Y-76300000D01*
X172827609Y-77274979D02*
X173000000Y-77200000D01*
X173000000Y-77200000D02*
X177984391Y-77274979D01*
X204700000Y-83400000D02*
X195200000Y-73900000D01*
X195200000Y-73900000D02*
X194000000Y-73900000D01*
X185300000Y-74800000D02*
X184800000Y-74300000D01*
X184800000Y-74300000D02*
X179000000Y-74300000D01*
X148848001Y-70825001D02*
X141474999Y-70825001D01*
X141474999Y-70825001D02*
X139800000Y-72500000D01*
X139625000Y-66300000D02*
X139625000Y-65725000D01*
X139625000Y-65725000D02*
X138100000Y-64200000D01*
X136562653Y-64237347D02*
X133099999Y-67700001D01*
X133099999Y-67700001D02*
X132000000Y-67700001D01*
X129500000Y-77600000D02*
X134500000Y-72500000D01*
X129500000Y-77600000D02*
X129300000Y-77800000D01*
X158710000Y-125650000D02*
X161380000Y-128320000D01*
X141050000Y-125650000D02*
X158710000Y-125650000D01*
X91292564Y-96124989D02*
X94667575Y-99500000D01*
X87965599Y-96124989D02*
X91292564Y-96124989D01*
X135075010Y-119675010D02*
X90753598Y-119675010D01*
X87324990Y-96765598D02*
X87965599Y-96124989D01*
X141050000Y-125650000D02*
X135075010Y-119675010D01*
X90753598Y-119675010D02*
X87324989Y-116246401D01*
X87324989Y-116246401D02*
X87324990Y-96765598D01*
X99296602Y-99500000D02*
X100096602Y-98700000D01*
X94667575Y-99500000D02*
X99296602Y-99500000D01*
X106250000Y-92739949D02*
X106250000Y-91750000D01*
X100289949Y-98700000D02*
X106250000Y-92739949D01*
X100096602Y-98700000D02*
X100289949Y-98700000D01*
X146400000Y-102300000D02*
X146400000Y-98400000D01*
X146400000Y-98400000D02*
X148600000Y-96200000D01*
X154673848Y-95639533D02*
X155300000Y-96265685D01*
X154673848Y-95073848D02*
X154673848Y-95639533D01*
X155300000Y-106820000D02*
X152620000Y-109500000D01*
X155300000Y-96265685D02*
X155300000Y-106820000D01*
X152620000Y-110653002D02*
X152620000Y-110489949D01*
X147748001Y-115525001D02*
X152620000Y-110653002D01*
X147051999Y-115525001D02*
X147748001Y-115525001D01*
X146674999Y-115148001D02*
X147051999Y-115525001D01*
X146674999Y-114711409D02*
X146674999Y-115148001D01*
X152620000Y-110489949D02*
X152620000Y-109500000D01*
X140188589Y-108224999D02*
X146674999Y-114711409D01*
X127895001Y-105775001D02*
X135075001Y-105775001D01*
X137524999Y-108224999D02*
X140188589Y-108224999D01*
X135075001Y-105775001D02*
X137524999Y-108224999D01*
X126870000Y-104750000D02*
X127895001Y-105775001D01*
X147149999Y-91500000D02*
X149149999Y-89500000D01*
X149149999Y-89500000D02*
X157275000Y-89500000D01*
X161300000Y-88475001D02*
X161975000Y-88475001D01*
X161975000Y-88475001D02*
X163550001Y-86900000D01*
X168300000Y-88000000D02*
X169100000Y-88800000D01*
X169100000Y-88800000D02*
X173800000Y-88800000D01*
X177800000Y-93700000D02*
X177800000Y-94500000D01*
X177800000Y-94500000D02*
X172200000Y-100100000D01*
X164399696Y-99474999D02*
X165048001Y-99474999D01*
X165048001Y-99474999D02*
X165425001Y-99851999D01*
X165425001Y-99851999D02*
X165425001Y-101374999D01*
X163115547Y-100759148D02*
X164399696Y-99474999D01*
X165425001Y-101374999D02*
X163500000Y-103300000D01*
X176200000Y-86500000D02*
X176200000Y-91400000D01*
X176200000Y-91400000D02*
X168800000Y-98800000D01*
X160131399Y-101568601D02*
X158500000Y-103200000D01*
X164700000Y-100200000D02*
X163331399Y-101568601D01*
X163331399Y-101568601D02*
X160131399Y-101568601D01*
X162243599Y-116483599D02*
X161380000Y-115620000D01*
X162568601Y-116808601D02*
X162243599Y-116483599D01*
X177027731Y-116808601D02*
X162568601Y-116808601D01*
X178522129Y-118302999D02*
X177027731Y-116808601D01*
X184987001Y-118868239D02*
X184421761Y-118302999D01*
X184421761Y-118302999D02*
X178522129Y-118302999D01*
X184987001Y-123382999D02*
X184987001Y-118868239D01*
X183900000Y-124470000D02*
X184987001Y-123382999D01*
M02*
