M48
; DRILL file {KiCad 5.1.5-52549c5~84~ubuntu19.04.1} date Fr 07 Feb 2020 12:33:07 CET
; FORMAT={-:-/ absolute / inch / decimal}
; #@! TF.CreationDate,2020-02-07T12:33:07+01:00
; #@! TF.GenerationSoftware,Kicad,Pcbnew,5.1.5-52549c5~84~ubuntu19.04.1
; #@! TF.FileFunction,Plated,1,2,PTH
FMAT,2
INCH
T1C0.0157
T2C0.0276
T3C0.0295
T4C0.0300
T5C0.0315
T6C0.0354
T7C0.0394
T8C0.0400
T9C0.0433
T10C0.0472
T11C0.0512
T12C0.0551
T13C0.0591
%
G90
G05
T1
X2.5392Y-3.1416
X2.5472Y-4.149
X2.8858Y-2.8583
X2.9055Y-2.7559
X2.9488Y-2.5276
X2.9685Y-3.6535
X2.9804Y-2.7915
X2.9843Y-3.1378
X3.0394Y-3.8031
X3.0591Y-3.5394
X3.2205Y-2.4173
X3.2362Y-3.0315
X3.3566Y-3.4786
X3.4094Y-2.7323
X3.4154Y-2.9921
X3.4449Y-3.6654
X3.4843Y-3.8307
X3.5709Y-2.9803
X3.5787Y-4.126
X3.6102Y-3.0157
X3.6339Y-3.685
X3.6575Y-3.0827
X3.7215Y-4.311
X3.7717Y-3.2008
X3.7953Y-3.2402
X3.7992Y-2.9291
X3.9213Y-3.6024
X3.9331Y-3.3346
X3.9449Y-2.3976
X3.9616Y-3.2008
X3.9882Y-3.0591
X3.9961Y-2.9409
X4.0098Y-2.8327
X4.0787Y-4.3504
X4.0984Y-3.8071
X4.122Y-4.4567
X4.126Y-3.2165
X4.2285Y-4.4174
X4.2717Y-4.3622
X4.2717Y-4.5079
X4.3031Y-4.4724
X4.315Y-3.1476
X4.3228Y-4.2008
X4.3898Y-2.8189
X4.3898Y-3.0197
X4.4011Y-3.7121
X4.4291Y-4.3898
X4.4504Y-3.9237
X4.5315Y-1.2756
X4.5394Y-4.5984
X4.5472Y-3.8189
X4.5512Y-4.248
X4.5512Y-4.4646
X4.5591Y-3.5157
X4.5669Y-2.6496
X4.5669Y-3.0354
X4.5669Y-3.2638
X4.5709Y-3.5512
X4.5721Y-3.9067
X4.5787Y-4.2008
X4.5866Y-4.3949
X4.5866Y-4.8031
X4.6161Y-3.874
X4.632Y-3.3683
X4.6535Y-4.248
X4.6577Y-3.7244
X4.6654Y-3.8425
X4.6772Y-3.6496
X4.6772Y-4.6654
X4.7126Y-3.8425
X4.7323Y-4.4646
X4.748Y-3.1693
X4.748Y-3.9606
X4.752Y-4.6624
X4.7795Y-3.9961
X4.7835Y-2.6732
X4.7835Y-3.752
X4.7953Y-4.5945
X4.8035Y-4.1204
X4.8071Y-3.8701
X4.815Y-3.7835
X4.815Y-4.1929
X4.8425Y-4.126
X4.8661Y-4.2835
X4.8898Y-3.9724
X4.906Y-4.1491
X4.9063Y-3.874
X4.9291Y-2.5866
X5.0Y-2.9843
X5.0394Y-2.0
X5.0394Y-2.7126
X5.0551Y-2.8071
X5.063Y-2.878
X5.0906Y-3.062
X5.0945Y-3.937
X5.1299Y-3.2205
X5.1496Y-2.9488
X5.1693Y-2.3661
X5.1693Y-2.874
X5.189Y-3.2244
X5.1969Y-2.6654
X5.2087Y-1.9764
X5.2283Y-2.9685
X5.2402Y-4.2195
X5.2487Y-4.126
X5.2913Y-3.0315
X5.2953Y-2.8543
X5.311Y-3.9764
X5.311Y-4.126
X5.3189Y-4.2195
X5.3268Y-2.8307
X5.3543Y-4.252
X5.3765Y-2.529
X5.4134Y-2.6654
X5.4252Y-2.8228
X5.4331Y-3.685
X5.437Y-2.4606
X5.437Y-2.5276
X5.44Y-2.374
X5.4685Y-2.0512
X5.4843Y-4.4528
X5.497Y-2.6102
X5.5039Y-2.8543
X5.5079Y-4.0512
X5.5083Y-3.3564
X5.51Y-3.1281
X5.5118Y-4.5118
X5.5253Y-2.9196
X5.5315Y-4.5945
X5.5433Y-4.1732
X5.5518Y-3.185
X5.5748Y-4.4449
X5.5979Y-4.1294
X5.6063Y-1.8228
X5.6063Y-4.0236
X5.6102Y-3.8455
X5.6221Y-3.1575
X5.626Y-4.4213
X5.6299Y-4.2992
X5.6452Y-4.2436
X5.6535Y-2.6654
X5.6575Y-4.0551
X5.6628Y-3.625
X5.6801Y-4.3544
X5.689Y-2.7598
X5.7087Y-3.1575
X5.7087Y-4.9016
X5.7205Y-4.0472
X5.7283Y-2.626
X5.7283Y-2.9094
X5.7283Y-3.3386
X5.7352Y-4.2077
X5.7638Y-4.0276
X5.7874Y-3.1929
X5.7913Y-2.7598
X5.7933Y-3.6024
X5.8031Y-4.2362
X5.8031Y-4.5197
X5.8504Y-3.7874
X5.8543Y-2.8976
X5.8583Y-2.748
X5.8691Y-3.3386
X5.878Y-1.5354
X5.8858Y-4.1682
X5.8976Y-2.9646
X5.9331Y-3.3031
X5.937Y-3.4055
X5.9409Y-3.9606
X5.9488Y-4.6693
X5.9537Y-2.6545
X6.0Y-1.4173
X6.0015Y-3.159
X6.0047Y-3.2559
X6.0471Y-4.2322
X6.0551Y-3.7138
X6.0551Y-4.6929
X6.0651Y-2.573
X6.0669Y-2.1575
X6.0669Y-4.3031
X6.0826Y-4.1967
X6.0895Y-3.7431
X6.0914Y-4.2686
X6.126Y-4.3661
X6.1427Y-4.185
X6.1457Y-3.685
X6.1614Y-3.9646
X6.1693Y-1.9134
X6.1919Y-3.5236
X6.1969Y-3.3031
X6.2126Y-2.7953
X6.2165Y-2.3819
X6.2165Y-4.252
X6.2205Y-3.6181
X6.2244Y-3.8661
X6.2402Y-4.063
X6.252Y-1.4173
X6.2874Y-1.7638
X6.2953Y-3.1496
X6.3504Y-3.4833
X6.3858Y-3.4173
X6.4055Y-2.0591
X6.4134Y-3.7638
X6.4219Y-3.9669
X6.437Y-4.0669
X6.439Y-3.4213
X6.4528Y-2.0472
X6.4528Y-3.748
X6.4843Y-3.9449
X6.5Y-3.4764
X6.5118Y-2.4252
X6.5984Y-4.563
X6.6024Y-1.8937
X6.6078Y-4.1708
X6.626Y-3.4646
X6.6417Y-2.6024
X6.6457Y-3.8898
X6.6929Y-4.126
X6.7047Y-4.2205
X6.752Y-4.2087
X6.7795Y-3.9409
X6.811Y-1.8228
X6.8152Y-2.9805
X6.8228Y-4.1575
X6.8425Y-3.4961
X6.8927Y-3.0039
X6.937Y-3.4055
X6.9843Y-2.811
X7.0Y-3.689
X7.0039Y-3.1063
X7.0472Y-2.9252
X7.0669Y-2.9882
X7.1417Y-4.0551
X7.2402Y-2.2717
X7.2598Y-2.1535
X7.2717Y-5.5472
X7.2835Y-2.5984
X7.2913Y-3.748
X7.2953Y-2.9449
X7.3661Y-2.4567
X7.3661Y-3.8031
X7.3701Y-3.6457
X7.3937Y-2.6654
X7.5961Y-3.6709
X7.6378Y-2.9094
X7.7165Y-5.0669
X7.7244Y-5.2638
X8.0591Y-3.2835
X8.0906Y-3.189
X8.1142Y-3.4134
X8.2244Y-5.2638
X8.2795Y-3.2165
X8.315Y-1.0945
T2
X4.2028Y-4.311
X4.5028Y-4.311
X5.7087Y-3.6024
X6.0087Y-3.6024
X5.6988Y-3.435
X5.9988Y-3.435
X4.2028Y-3.9567
X4.5028Y-3.9567
X5.187Y-4.124
X5.487Y-4.124
X5.7087Y-3.9567
X6.0087Y-3.9567
X5.7047Y-3.2559
X6.0047Y-3.2559
X5.7087Y-3.7795
X6.0087Y-3.7795
X5.7087Y-4.311
X6.0087Y-4.311
X5.187Y-3.6024
X5.487Y-3.6024
X4.6752Y-3.4252
X4.9752Y-3.4252
X4.1831Y-3.248
X4.4831Y-3.248
X4.1831Y-3.4252
X4.4831Y-3.4252
X4.6732Y-3.063
X4.9732Y-3.063
X4.6949Y-4.3012
X4.9949Y-4.3012
X4.6752Y-3.2579
X4.9752Y-3.2579
X5.187Y-3.9665
X5.487Y-3.9665
X5.7087Y-4.124
X6.0087Y-4.124
X3.6811Y-3.4252
X3.9811Y-3.4252
X5.187Y-3.4252
X5.487Y-3.4252
X4.6949Y-4.124
X4.9949Y-4.124
X4.2028Y-4.124
X4.5028Y-4.124
X4.6949Y-3.9567
X4.9949Y-3.9567
X4.1929Y-3.7795
X4.4929Y-3.7795
X4.685Y-3.6024
X4.985Y-3.6024
X4.685Y-3.7795
X4.985Y-3.7795
X4.189Y-3.0787
X4.489Y-3.0787
X5.1969Y-4.3012
X5.4969Y-4.3012
X4.1831Y-3.6122
X4.4831Y-3.6122
X5.187Y-3.7795
X5.487Y-3.7795
X5.7047Y-3.0512
X6.0047Y-3.0512
T3
X6.9783Y-2.2343
X7.0283Y-2.2343
X7.0783Y-2.2343
T4
X7.3661Y-2.2736
X7.4606Y-2.2736
X7.5551Y-2.2736
X6.9276Y-2.6262
X7.0276Y-2.6272
X7.1276Y-2.6262
X7.8425Y-2.4018
X7.937Y-2.4028
X8.0315Y-2.4018
X7.0555Y-1.7717
X7.1555Y-1.7717
X7.2555Y-1.7717
X7.2402Y-4.002
X7.2402Y-4.102
X7.2402Y-4.202
X7.2402Y-4.3008
X7.2402Y-4.4008
X7.2402Y-4.5008
X7.2402Y-4.6008
X7.2402Y-4.7004
X7.2402Y-4.8004
X7.2402Y-4.9004
X7.2402Y-5.0004
X7.2402Y-5.1
X7.2402Y-5.1984
X7.2402Y-5.2984
X8.0295Y-4.002
X8.0295Y-4.102
X8.0295Y-4.202
X8.0295Y-4.3008
X8.0295Y-4.4008
X8.0295Y-4.5008
X8.0295Y-4.6008
X8.0295Y-4.7004
X8.0295Y-4.8004
X8.0295Y-4.9004
X8.0295Y-5.0004
X8.0295Y-5.1
X8.0295Y-5.1984
X8.0295Y-5.2984
T5
X3.002Y-2.9921
X3.1004Y-2.9921
X2.6772Y-2.6476
X2.7756Y-2.6476
X3.737Y-3.8287
X3.837Y-3.8287
X3.937Y-3.8287
X2.9823Y-2.6476
X3.0807Y-2.6476
X3.2874Y-2.6476
X3.3858Y-2.6476
X3.4547Y-4.9705
X3.5531Y-4.9705
X7.3327Y-3.2283
X7.3327Y-3.3283
X7.3327Y-3.4283
X7.3327Y-3.5283
X7.6327Y-3.2283
X7.6327Y-3.3283
X7.6327Y-3.4283
X7.6327Y-3.5283
X3.3169Y-2.9921
X3.4154Y-2.9921
X2.6772Y-2.9921
X2.7756Y-2.9921
T6
X3.5157Y-4.5354
X3.6157Y-4.5354
X4.3819Y-4.5354
X4.4819Y-4.5354
X3.8031Y-4.5354
X3.9031Y-4.5354
X4.0827Y-4.5315
X4.1827Y-4.5315
X3.8252Y-2.7362
X3.9252Y-2.7362
X5.315Y-2.7441
X5.415Y-2.7441
T7
X3.3366Y-0.7283
X3.3366Y-0.8283
X3.3366Y-0.9283
X3.3366Y-1.0283
X3.3366Y-1.1283
X3.3366Y-1.2283
X3.3366Y-1.3283
X3.3366Y-1.4283
X3.3366Y-1.5283
X3.3366Y-1.6283
X8.0787Y-1.4764
X3.0315Y-0.7185
X3.0315Y-0.8185
X3.0315Y-0.9185
X3.0315Y-1.0185
X3.0315Y-1.1185
X3.0315Y-1.2185
X3.0315Y-1.3185
X3.0315Y-1.4185
X3.0315Y-1.5185
X3.0315Y-1.6185
X7.5886Y-1.4764
X2.7264Y-0.7087
X2.7264Y-0.8087
X2.7264Y-0.9087
X2.7264Y-1.0087
X2.7264Y-1.1087
X2.7264Y-1.2087
X2.7264Y-1.3087
X2.7264Y-1.4087
X2.7264Y-1.5087
X2.7264Y-1.6087
X7.8445Y-2.2244
X8.0445Y-2.2244
X7.8337Y-1.4764
T8
X6.3535Y-3.952
X6.3535Y-4.052
X6.3535Y-4.152
X6.3535Y-4.252
X6.3535Y-4.352
X6.3535Y-4.452
X6.3535Y-4.552
X6.3535Y-4.652
X6.3535Y-4.752
X6.3535Y-4.852
X6.3535Y-4.952
X6.3535Y-5.052
X6.3535Y-5.152
X6.3535Y-5.252
X6.3535Y-5.352
X6.9535Y-3.952
X6.9535Y-4.052
X6.9535Y-4.152
X6.9535Y-4.252
X6.9535Y-4.352
X6.9535Y-4.452
X6.9535Y-4.552
X6.9535Y-4.652
X6.9535Y-4.752
X6.9535Y-4.852
X6.9535Y-4.952
X6.9535Y-5.052
X6.9535Y-5.152
X6.9535Y-5.252
X6.9535Y-5.352
T9
X3.9469Y-2.2343
X4.0469Y-2.2343
X4.1469Y-2.2343
X5.1063Y-2.252
X5.2063Y-2.252
X5.3063Y-2.252
X3.9469Y-1.5551
X4.0469Y-1.5551
X4.1469Y-1.5551
X3.0217Y-1.9425
X3.0217Y-2.3425
X5.1083Y-1.565
X5.2083Y-1.565
X5.3083Y-1.565
X6.1516Y-2.2539
X6.2516Y-2.2539
X6.3516Y-2.2539
X2.7165Y-1.9425
X2.7165Y-2.3425
X6.1516Y-1.5846
X6.2516Y-1.5846
X6.3516Y-1.5846
X3.3268Y-1.9425
X3.3268Y-2.3425
T10
X4.5866Y-4.9606
X4.7835Y-4.9606
X3.9469Y-4.9606
X4.1437Y-4.9606
T11
X6.8189Y-3.1299
X6.9213Y-3.1378
X5.4508Y-4.9547
X5.5531Y-4.9469
X3.8268Y-3.126
X3.9291Y-3.1339
X5.3228Y-3.126
X5.4252Y-3.1339
T12
X5.2854Y-0.7343
X5.2854Y-1.0965
X5.4429Y-0.7343
X5.4429Y-1.0965
X6.5Y-0.7343
X6.5Y-1.0965
X6.6575Y-0.7343
X6.6575Y-1.0965
X6.815Y-0.7343
X6.815Y-1.0965
X5.7874Y-0.7343
X5.7874Y-1.0965
X5.9449Y-0.7343
X5.9449Y-1.0965
X6.1024Y-0.7343
X6.1024Y-1.0965
X7.06Y-0.7343
X7.06Y-1.0965
X7.6762Y-0.7303
X7.6762Y-1.0925
X7.8337Y-0.7303
X7.8337Y-1.0925
X7.9911Y-0.7303
X7.9911Y-1.0925
X4.6555Y-0.7343
X4.6555Y-1.0965
X4.813Y-0.7343
X4.813Y-1.0965
X4.9705Y-0.7343
X4.9705Y-1.0965
X7.2992Y-0.7343
X7.2992Y-1.0965
T13
G00X6.2972Y-3.3091
M15
G01X6.4154Y-3.3091
M16
G05
G00X6.2972Y-3.5886
M15
G01X6.4154Y-3.5886
M16
G05
G00X6.7106Y-3.3091
M15
G01X6.8287Y-3.3091
M16
G05
G00X6.7106Y-3.5886
M15
G01X6.8287Y-3.5886
M16
G05
T0
M30
