G04 #@! TF.GenerationSoftware,KiCad,Pcbnew,5.1.6-c6e7f7d~86~ubuntu19.10.1*
G04 #@! TF.CreationDate,2020-06-16T13:29:06+02:00*
G04 #@! TF.ProjectId,laborBerlin,6c61626f-7242-4657-926c-696e2e6b6963,rev?*
G04 #@! TF.SameCoordinates,Original*
G04 #@! TF.FileFunction,Legend,Top*
G04 #@! TF.FilePolarity,Positive*
%FSLAX46Y46*%
G04 Gerber Fmt 4.6, Leading zero omitted, Abs format (unit mm)*
G04 Created by KiCad (PCBNEW 5.1.6-c6e7f7d~86~ubuntu19.10.1) date 2020-06-16 13:29:06*
%MOMM*%
%LPD*%
G01*
G04 APERTURE LIST*
%ADD10C,0.150000*%
%ADD11C,0.120000*%
%ADD12C,0.075000*%
G04 APERTURE END LIST*
D10*
X182407142Y-51277619D02*
X182454761Y-51230000D01*
X182550000Y-51182380D01*
X182788095Y-51182380D01*
X182883333Y-51230000D01*
X182930952Y-51277619D01*
X182978571Y-51372857D01*
X182978571Y-51468095D01*
X182930952Y-51610952D01*
X182359523Y-52182380D01*
X182978571Y-52182380D01*
X183930952Y-52182380D02*
X183359523Y-52182380D01*
X183645238Y-52182380D02*
X183645238Y-51182380D01*
X183550000Y-51325238D01*
X183454761Y-51420476D01*
X183359523Y-51468095D01*
X184407142Y-52134761D02*
X184407142Y-52182380D01*
X184359523Y-52277619D01*
X184311904Y-52325238D01*
X185264285Y-51515714D02*
X185264285Y-52182380D01*
X185026190Y-51134761D02*
X184788095Y-51849047D01*
X185407142Y-51849047D01*
X185978571Y-51182380D02*
X186073809Y-51182380D01*
X186169047Y-51230000D01*
X186216666Y-51277619D01*
X186264285Y-51372857D01*
X186311904Y-51563333D01*
X186311904Y-51801428D01*
X186264285Y-51991904D01*
X186216666Y-52087142D01*
X186169047Y-52134761D01*
X186073809Y-52182380D01*
X185978571Y-52182380D01*
X185883333Y-52134761D01*
X185835714Y-52087142D01*
X185788095Y-51991904D01*
X185740476Y-51801428D01*
X185740476Y-51563333D01*
X185788095Y-51372857D01*
X185835714Y-51277619D01*
X185883333Y-51230000D01*
X185978571Y-51182380D01*
X186930952Y-51182380D02*
X187026190Y-51182380D01*
X187121428Y-51230000D01*
X187169047Y-51277619D01*
X187216666Y-51372857D01*
X187264285Y-51563333D01*
X187264285Y-51801428D01*
X187216666Y-51991904D01*
X187169047Y-52087142D01*
X187121428Y-52134761D01*
X187026190Y-52182380D01*
X186930952Y-52182380D01*
X186835714Y-52134761D01*
X186788095Y-52087142D01*
X186740476Y-51991904D01*
X186692857Y-51801428D01*
X186692857Y-51563333D01*
X186740476Y-51372857D01*
X186788095Y-51277619D01*
X186835714Y-51230000D01*
X186930952Y-51182380D01*
X188454761Y-52182380D02*
X188454761Y-51515714D01*
X188454761Y-51610952D02*
X188502380Y-51563333D01*
X188597619Y-51515714D01*
X188740476Y-51515714D01*
X188835714Y-51563333D01*
X188883333Y-51658571D01*
X188883333Y-52182380D01*
X188883333Y-51658571D02*
X188930952Y-51563333D01*
X189026190Y-51515714D01*
X189169047Y-51515714D01*
X189264285Y-51563333D01*
X189311904Y-51658571D01*
X189311904Y-52182380D01*
X189788095Y-52182380D02*
X189788095Y-51515714D01*
X189788095Y-51610952D02*
X189835714Y-51563333D01*
X189930952Y-51515714D01*
X190073809Y-51515714D01*
X190169047Y-51563333D01*
X190216666Y-51658571D01*
X190216666Y-52182380D01*
X190216666Y-51658571D02*
X190264285Y-51563333D01*
X190359523Y-51515714D01*
X190502380Y-51515714D01*
X190597619Y-51563333D01*
X190645238Y-51658571D01*
X190645238Y-52182380D01*
D11*
X175850000Y-53000000D02*
X197250000Y-53000000D01*
X175850000Y-72500000D02*
X175850000Y-52413579D01*
X197250000Y-72500000D02*
X197250000Y-52413579D01*
X197250000Y-53000000D02*
X196123496Y-53586421D01*
X197250000Y-53000000D02*
X196123496Y-52413579D01*
X175850000Y-53000000D02*
X176976504Y-53586421D01*
X175850000Y-53000000D02*
X176976504Y-52413579D01*
X182870000Y-67240000D02*
X181030000Y-67240000D01*
X181030000Y-67240000D02*
X181030000Y-71080000D01*
X181030000Y-71080000D02*
X182870000Y-71080000D01*
X182870000Y-71080000D02*
X182870000Y-67240000D01*
X181950000Y-66290000D02*
X181950000Y-67240000D01*
X181950000Y-72030000D02*
X181950000Y-71080000D01*
X229400000Y-68570000D02*
X229400000Y-69520000D01*
X229400000Y-74310000D02*
X229400000Y-73360000D01*
X228480000Y-69520000D02*
X228480000Y-73360000D01*
X230320000Y-69520000D02*
X228480000Y-69520000D01*
X230320000Y-73360000D02*
X230320000Y-69520000D01*
X228480000Y-73360000D02*
X230320000Y-73360000D01*
X184921000Y-113280000D02*
X186179000Y-113280000D01*
X184921000Y-115120000D02*
X186179000Y-115120000D01*
X163520000Y-93900000D02*
G75*
G03*
X163520000Y-93900000I-4120000J0D01*
G01*
X163480000Y-93900000D02*
X155320000Y-93900000D01*
X163480000Y-93940000D02*
X155320000Y-93940000D01*
X163480000Y-93980000D02*
X155320000Y-93980000D01*
X163479000Y-94020000D02*
X155321000Y-94020000D01*
X163477000Y-94060000D02*
X155323000Y-94060000D01*
X163476000Y-94100000D02*
X155324000Y-94100000D01*
X163474000Y-94140000D02*
X160440000Y-94140000D01*
X158360000Y-94140000D02*
X155326000Y-94140000D01*
X163471000Y-94180000D02*
X160440000Y-94180000D01*
X158360000Y-94180000D02*
X155329000Y-94180000D01*
X163468000Y-94220000D02*
X160440000Y-94220000D01*
X158360000Y-94220000D02*
X155332000Y-94220000D01*
X163465000Y-94260000D02*
X160440000Y-94260000D01*
X158360000Y-94260000D02*
X155335000Y-94260000D01*
X163461000Y-94300000D02*
X160440000Y-94300000D01*
X158360000Y-94300000D02*
X155339000Y-94300000D01*
X163457000Y-94340000D02*
X160440000Y-94340000D01*
X158360000Y-94340000D02*
X155343000Y-94340000D01*
X163452000Y-94380000D02*
X160440000Y-94380000D01*
X158360000Y-94380000D02*
X155348000Y-94380000D01*
X163448000Y-94420000D02*
X160440000Y-94420000D01*
X158360000Y-94420000D02*
X155352000Y-94420000D01*
X163442000Y-94460000D02*
X160440000Y-94460000D01*
X158360000Y-94460000D02*
X155358000Y-94460000D01*
X163437000Y-94500000D02*
X160440000Y-94500000D01*
X158360000Y-94500000D02*
X155363000Y-94500000D01*
X163430000Y-94540000D02*
X160440000Y-94540000D01*
X158360000Y-94540000D02*
X155370000Y-94540000D01*
X163424000Y-94580000D02*
X160440000Y-94580000D01*
X158360000Y-94580000D02*
X155376000Y-94580000D01*
X163417000Y-94621000D02*
X160440000Y-94621000D01*
X158360000Y-94621000D02*
X155383000Y-94621000D01*
X163410000Y-94661000D02*
X160440000Y-94661000D01*
X158360000Y-94661000D02*
X155390000Y-94661000D01*
X163402000Y-94701000D02*
X160440000Y-94701000D01*
X158360000Y-94701000D02*
X155398000Y-94701000D01*
X163394000Y-94741000D02*
X160440000Y-94741000D01*
X158360000Y-94741000D02*
X155406000Y-94741000D01*
X163385000Y-94781000D02*
X160440000Y-94781000D01*
X158360000Y-94781000D02*
X155415000Y-94781000D01*
X163376000Y-94821000D02*
X160440000Y-94821000D01*
X158360000Y-94821000D02*
X155424000Y-94821000D01*
X163367000Y-94861000D02*
X160440000Y-94861000D01*
X158360000Y-94861000D02*
X155433000Y-94861000D01*
X163357000Y-94901000D02*
X160440000Y-94901000D01*
X158360000Y-94901000D02*
X155443000Y-94901000D01*
X163347000Y-94941000D02*
X160440000Y-94941000D01*
X158360000Y-94941000D02*
X155453000Y-94941000D01*
X163336000Y-94981000D02*
X160440000Y-94981000D01*
X158360000Y-94981000D02*
X155464000Y-94981000D01*
X163325000Y-95021000D02*
X160440000Y-95021000D01*
X158360000Y-95021000D02*
X155475000Y-95021000D01*
X163314000Y-95061000D02*
X160440000Y-95061000D01*
X158360000Y-95061000D02*
X155486000Y-95061000D01*
X163302000Y-95101000D02*
X160440000Y-95101000D01*
X158360000Y-95101000D02*
X155498000Y-95101000D01*
X163289000Y-95141000D02*
X160440000Y-95141000D01*
X158360000Y-95141000D02*
X155511000Y-95141000D01*
X163277000Y-95181000D02*
X160440000Y-95181000D01*
X158360000Y-95181000D02*
X155523000Y-95181000D01*
X163263000Y-95221000D02*
X160440000Y-95221000D01*
X158360000Y-95221000D02*
X155537000Y-95221000D01*
X163250000Y-95261000D02*
X160440000Y-95261000D01*
X158360000Y-95261000D02*
X155550000Y-95261000D01*
X163235000Y-95301000D02*
X160440000Y-95301000D01*
X158360000Y-95301000D02*
X155565000Y-95301000D01*
X163221000Y-95341000D02*
X160440000Y-95341000D01*
X158360000Y-95341000D02*
X155579000Y-95341000D01*
X163205000Y-95381000D02*
X160440000Y-95381000D01*
X158360000Y-95381000D02*
X155595000Y-95381000D01*
X163190000Y-95421000D02*
X160440000Y-95421000D01*
X158360000Y-95421000D02*
X155610000Y-95421000D01*
X163174000Y-95461000D02*
X160440000Y-95461000D01*
X158360000Y-95461000D02*
X155626000Y-95461000D01*
X163157000Y-95501000D02*
X160440000Y-95501000D01*
X158360000Y-95501000D02*
X155643000Y-95501000D01*
X163140000Y-95541000D02*
X160440000Y-95541000D01*
X158360000Y-95541000D02*
X155660000Y-95541000D01*
X163122000Y-95581000D02*
X160440000Y-95581000D01*
X158360000Y-95581000D02*
X155678000Y-95581000D01*
X163104000Y-95621000D02*
X160440000Y-95621000D01*
X158360000Y-95621000D02*
X155696000Y-95621000D01*
X163086000Y-95661000D02*
X160440000Y-95661000D01*
X158360000Y-95661000D02*
X155714000Y-95661000D01*
X163066000Y-95701000D02*
X160440000Y-95701000D01*
X158360000Y-95701000D02*
X155734000Y-95701000D01*
X163047000Y-95741000D02*
X160440000Y-95741000D01*
X158360000Y-95741000D02*
X155753000Y-95741000D01*
X163027000Y-95781000D02*
X160440000Y-95781000D01*
X158360000Y-95781000D02*
X155773000Y-95781000D01*
X163006000Y-95821000D02*
X160440000Y-95821000D01*
X158360000Y-95821000D02*
X155794000Y-95821000D01*
X162984000Y-95861000D02*
X160440000Y-95861000D01*
X158360000Y-95861000D02*
X155816000Y-95861000D01*
X162962000Y-95901000D02*
X160440000Y-95901000D01*
X158360000Y-95901000D02*
X155838000Y-95901000D01*
X162940000Y-95941000D02*
X160440000Y-95941000D01*
X158360000Y-95941000D02*
X155860000Y-95941000D01*
X162917000Y-95981000D02*
X160440000Y-95981000D01*
X158360000Y-95981000D02*
X155883000Y-95981000D01*
X162893000Y-96021000D02*
X160440000Y-96021000D01*
X158360000Y-96021000D02*
X155907000Y-96021000D01*
X162869000Y-96061000D02*
X160440000Y-96061000D01*
X158360000Y-96061000D02*
X155931000Y-96061000D01*
X162844000Y-96101000D02*
X160440000Y-96101000D01*
X158360000Y-96101000D02*
X155956000Y-96101000D01*
X162818000Y-96141000D02*
X160440000Y-96141000D01*
X158360000Y-96141000D02*
X155982000Y-96141000D01*
X162792000Y-96181000D02*
X160440000Y-96181000D01*
X158360000Y-96181000D02*
X156008000Y-96181000D01*
X162765000Y-96221000D02*
X156035000Y-96221000D01*
X162738000Y-96261000D02*
X156062000Y-96261000D01*
X162709000Y-96301000D02*
X156091000Y-96301000D01*
X162680000Y-96341000D02*
X156120000Y-96341000D01*
X162650000Y-96381000D02*
X156150000Y-96381000D01*
X162620000Y-96421000D02*
X156180000Y-96421000D01*
X162589000Y-96461000D02*
X156211000Y-96461000D01*
X162556000Y-96501000D02*
X156244000Y-96501000D01*
X162524000Y-96541000D02*
X156276000Y-96541000D01*
X162490000Y-96581000D02*
X156310000Y-96581000D01*
X162455000Y-96621000D02*
X156345000Y-96621000D01*
X162419000Y-96661000D02*
X156381000Y-96661000D01*
X162383000Y-96701000D02*
X156417000Y-96701000D01*
X162345000Y-96741000D02*
X156455000Y-96741000D01*
X162307000Y-96781000D02*
X156493000Y-96781000D01*
X162267000Y-96821000D02*
X156533000Y-96821000D01*
X162226000Y-96861000D02*
X156574000Y-96861000D01*
X162184000Y-96901000D02*
X156616000Y-96901000D01*
X162141000Y-96941000D02*
X156659000Y-96941000D01*
X162097000Y-96981000D02*
X156703000Y-96981000D01*
X162051000Y-97021000D02*
X156749000Y-97021000D01*
X162004000Y-97061000D02*
X156796000Y-97061000D01*
X161956000Y-97101000D02*
X156844000Y-97101000D01*
X161905000Y-97141000D02*
X156895000Y-97141000D01*
X161854000Y-97181000D02*
X156946000Y-97181000D01*
X161800000Y-97221000D02*
X157000000Y-97221000D01*
X161745000Y-97261000D02*
X157055000Y-97261000D01*
X161687000Y-97301000D02*
X157113000Y-97301000D01*
X161628000Y-97341000D02*
X157172000Y-97341000D01*
X161566000Y-97381000D02*
X157234000Y-97381000D01*
X161502000Y-97421000D02*
X157298000Y-97421000D01*
X161434000Y-97461000D02*
X157366000Y-97461000D01*
X161364000Y-97501000D02*
X157436000Y-97501000D01*
X161290000Y-97541000D02*
X157510000Y-97541000D01*
X161213000Y-97581000D02*
X157587000Y-97581000D01*
X161131000Y-97621000D02*
X157669000Y-97621000D01*
X161045000Y-97661000D02*
X157755000Y-97661000D01*
X160952000Y-97701000D02*
X157848000Y-97701000D01*
X160853000Y-97741000D02*
X157947000Y-97741000D01*
X160746000Y-97781000D02*
X158054000Y-97781000D01*
X160629000Y-97821000D02*
X158171000Y-97821000D01*
X160498000Y-97861000D02*
X158302000Y-97861000D01*
X160348000Y-97901000D02*
X158452000Y-97901000D01*
X160168000Y-97941000D02*
X158632000Y-97941000D01*
X159933000Y-97981000D02*
X158867000Y-97981000D01*
X161715000Y-89490302D02*
X161715000Y-90290302D01*
X162115000Y-89890302D02*
X161315000Y-89890302D01*
X241070000Y-118100000D02*
G75*
G03*
X241070000Y-118100000I-2620000J0D01*
G01*
X235870000Y-118100000D02*
X241030000Y-118100000D01*
X235870000Y-118060000D02*
X241030000Y-118060000D01*
X235871000Y-118020000D02*
X241029000Y-118020000D01*
X235872000Y-117980000D02*
X241028000Y-117980000D01*
X235874000Y-117940000D02*
X241026000Y-117940000D01*
X235877000Y-117900000D02*
X241023000Y-117900000D01*
X235881000Y-117860000D02*
X237410000Y-117860000D01*
X239490000Y-117860000D02*
X241019000Y-117860000D01*
X235885000Y-117820000D02*
X237410000Y-117820000D01*
X239490000Y-117820000D02*
X241015000Y-117820000D01*
X235889000Y-117780000D02*
X237410000Y-117780000D01*
X239490000Y-117780000D02*
X241011000Y-117780000D01*
X235894000Y-117740000D02*
X237410000Y-117740000D01*
X239490000Y-117740000D02*
X241006000Y-117740000D01*
X235900000Y-117700000D02*
X237410000Y-117700000D01*
X239490000Y-117700000D02*
X241000000Y-117700000D01*
X235907000Y-117660000D02*
X237410000Y-117660000D01*
X239490000Y-117660000D02*
X240993000Y-117660000D01*
X235914000Y-117620000D02*
X237410000Y-117620000D01*
X239490000Y-117620000D02*
X240986000Y-117620000D01*
X235922000Y-117580000D02*
X237410000Y-117580000D01*
X239490000Y-117580000D02*
X240978000Y-117580000D01*
X235930000Y-117540000D02*
X237410000Y-117540000D01*
X239490000Y-117540000D02*
X240970000Y-117540000D01*
X235939000Y-117500000D02*
X237410000Y-117500000D01*
X239490000Y-117500000D02*
X240961000Y-117500000D01*
X235949000Y-117460000D02*
X237410000Y-117460000D01*
X239490000Y-117460000D02*
X240951000Y-117460000D01*
X235959000Y-117420000D02*
X237410000Y-117420000D01*
X239490000Y-117420000D02*
X240941000Y-117420000D01*
X235970000Y-117379000D02*
X237410000Y-117379000D01*
X239490000Y-117379000D02*
X240930000Y-117379000D01*
X235982000Y-117339000D02*
X237410000Y-117339000D01*
X239490000Y-117339000D02*
X240918000Y-117339000D01*
X235995000Y-117299000D02*
X237410000Y-117299000D01*
X239490000Y-117299000D02*
X240905000Y-117299000D01*
X236008000Y-117259000D02*
X237410000Y-117259000D01*
X239490000Y-117259000D02*
X240892000Y-117259000D01*
X236022000Y-117219000D02*
X237410000Y-117219000D01*
X239490000Y-117219000D02*
X240878000Y-117219000D01*
X236036000Y-117179000D02*
X237410000Y-117179000D01*
X239490000Y-117179000D02*
X240864000Y-117179000D01*
X236052000Y-117139000D02*
X237410000Y-117139000D01*
X239490000Y-117139000D02*
X240848000Y-117139000D01*
X236068000Y-117099000D02*
X237410000Y-117099000D01*
X239490000Y-117099000D02*
X240832000Y-117099000D01*
X236085000Y-117059000D02*
X237410000Y-117059000D01*
X239490000Y-117059000D02*
X240815000Y-117059000D01*
X236102000Y-117019000D02*
X237410000Y-117019000D01*
X239490000Y-117019000D02*
X240798000Y-117019000D01*
X236121000Y-116979000D02*
X237410000Y-116979000D01*
X239490000Y-116979000D02*
X240779000Y-116979000D01*
X236140000Y-116939000D02*
X237410000Y-116939000D01*
X239490000Y-116939000D02*
X240760000Y-116939000D01*
X236160000Y-116899000D02*
X237410000Y-116899000D01*
X239490000Y-116899000D02*
X240740000Y-116899000D01*
X236182000Y-116859000D02*
X237410000Y-116859000D01*
X239490000Y-116859000D02*
X240718000Y-116859000D01*
X236203000Y-116819000D02*
X237410000Y-116819000D01*
X239490000Y-116819000D02*
X240697000Y-116819000D01*
X236226000Y-116779000D02*
X237410000Y-116779000D01*
X239490000Y-116779000D02*
X240674000Y-116779000D01*
X236250000Y-116739000D02*
X237410000Y-116739000D01*
X239490000Y-116739000D02*
X240650000Y-116739000D01*
X236275000Y-116699000D02*
X237410000Y-116699000D01*
X239490000Y-116699000D02*
X240625000Y-116699000D01*
X236301000Y-116659000D02*
X237410000Y-116659000D01*
X239490000Y-116659000D02*
X240599000Y-116659000D01*
X236328000Y-116619000D02*
X237410000Y-116619000D01*
X239490000Y-116619000D02*
X240572000Y-116619000D01*
X236355000Y-116579000D02*
X237410000Y-116579000D01*
X239490000Y-116579000D02*
X240545000Y-116579000D01*
X236385000Y-116539000D02*
X237410000Y-116539000D01*
X239490000Y-116539000D02*
X240515000Y-116539000D01*
X236415000Y-116499000D02*
X237410000Y-116499000D01*
X239490000Y-116499000D02*
X240485000Y-116499000D01*
X236446000Y-116459000D02*
X237410000Y-116459000D01*
X239490000Y-116459000D02*
X240454000Y-116459000D01*
X236479000Y-116419000D02*
X237410000Y-116419000D01*
X239490000Y-116419000D02*
X240421000Y-116419000D01*
X236513000Y-116379000D02*
X237410000Y-116379000D01*
X239490000Y-116379000D02*
X240387000Y-116379000D01*
X236549000Y-116339000D02*
X237410000Y-116339000D01*
X239490000Y-116339000D02*
X240351000Y-116339000D01*
X236586000Y-116299000D02*
X237410000Y-116299000D01*
X239490000Y-116299000D02*
X240314000Y-116299000D01*
X236624000Y-116259000D02*
X237410000Y-116259000D01*
X239490000Y-116259000D02*
X240276000Y-116259000D01*
X236665000Y-116219000D02*
X237410000Y-116219000D01*
X239490000Y-116219000D02*
X240235000Y-116219000D01*
X236707000Y-116179000D02*
X237410000Y-116179000D01*
X239490000Y-116179000D02*
X240193000Y-116179000D01*
X236751000Y-116139000D02*
X237410000Y-116139000D01*
X239490000Y-116139000D02*
X240149000Y-116139000D01*
X236797000Y-116099000D02*
X237410000Y-116099000D01*
X239490000Y-116099000D02*
X240103000Y-116099000D01*
X236845000Y-116059000D02*
X237410000Y-116059000D01*
X239490000Y-116059000D02*
X240055000Y-116059000D01*
X236896000Y-116019000D02*
X237410000Y-116019000D01*
X239490000Y-116019000D02*
X240004000Y-116019000D01*
X236950000Y-115979000D02*
X237410000Y-115979000D01*
X239490000Y-115979000D02*
X239950000Y-115979000D01*
X237007000Y-115939000D02*
X237410000Y-115939000D01*
X239490000Y-115939000D02*
X239893000Y-115939000D01*
X237067000Y-115899000D02*
X237410000Y-115899000D01*
X239490000Y-115899000D02*
X239833000Y-115899000D01*
X237131000Y-115859000D02*
X237410000Y-115859000D01*
X239490000Y-115859000D02*
X239769000Y-115859000D01*
X237199000Y-115819000D02*
X237410000Y-115819000D01*
X239490000Y-115819000D02*
X239701000Y-115819000D01*
X237272000Y-115779000D02*
X239628000Y-115779000D01*
X237352000Y-115739000D02*
X239548000Y-115739000D01*
X237439000Y-115699000D02*
X239461000Y-115699000D01*
X237535000Y-115659000D02*
X239365000Y-115659000D01*
X237645000Y-115619000D02*
X239255000Y-115619000D01*
X237773000Y-115579000D02*
X239127000Y-115579000D01*
X237932000Y-115539000D02*
X238968000Y-115539000D01*
X238166000Y-115499000D02*
X238734000Y-115499000D01*
X236975000Y-120904775D02*
X236975000Y-120404775D01*
X236725000Y-120654775D02*
X237225000Y-120654775D01*
X236425000Y-104154775D02*
X236925000Y-104154775D01*
X236675000Y-104404775D02*
X236675000Y-103904775D01*
X237866000Y-98999000D02*
X238434000Y-98999000D01*
X237632000Y-99039000D02*
X238668000Y-99039000D01*
X237473000Y-99079000D02*
X238827000Y-99079000D01*
X237345000Y-99119000D02*
X238955000Y-99119000D01*
X237235000Y-99159000D02*
X239065000Y-99159000D01*
X237139000Y-99199000D02*
X239161000Y-99199000D01*
X237052000Y-99239000D02*
X239248000Y-99239000D01*
X236972000Y-99279000D02*
X239328000Y-99279000D01*
X239190000Y-99319000D02*
X239401000Y-99319000D01*
X236899000Y-99319000D02*
X237110000Y-99319000D01*
X239190000Y-99359000D02*
X239469000Y-99359000D01*
X236831000Y-99359000D02*
X237110000Y-99359000D01*
X239190000Y-99399000D02*
X239533000Y-99399000D01*
X236767000Y-99399000D02*
X237110000Y-99399000D01*
X239190000Y-99439000D02*
X239593000Y-99439000D01*
X236707000Y-99439000D02*
X237110000Y-99439000D01*
X239190000Y-99479000D02*
X239650000Y-99479000D01*
X236650000Y-99479000D02*
X237110000Y-99479000D01*
X239190000Y-99519000D02*
X239704000Y-99519000D01*
X236596000Y-99519000D02*
X237110000Y-99519000D01*
X239190000Y-99559000D02*
X239755000Y-99559000D01*
X236545000Y-99559000D02*
X237110000Y-99559000D01*
X239190000Y-99599000D02*
X239803000Y-99599000D01*
X236497000Y-99599000D02*
X237110000Y-99599000D01*
X239190000Y-99639000D02*
X239849000Y-99639000D01*
X236451000Y-99639000D02*
X237110000Y-99639000D01*
X239190000Y-99679000D02*
X239893000Y-99679000D01*
X236407000Y-99679000D02*
X237110000Y-99679000D01*
X239190000Y-99719000D02*
X239935000Y-99719000D01*
X236365000Y-99719000D02*
X237110000Y-99719000D01*
X239190000Y-99759000D02*
X239976000Y-99759000D01*
X236324000Y-99759000D02*
X237110000Y-99759000D01*
X239190000Y-99799000D02*
X240014000Y-99799000D01*
X236286000Y-99799000D02*
X237110000Y-99799000D01*
X239190000Y-99839000D02*
X240051000Y-99839000D01*
X236249000Y-99839000D02*
X237110000Y-99839000D01*
X239190000Y-99879000D02*
X240087000Y-99879000D01*
X236213000Y-99879000D02*
X237110000Y-99879000D01*
X239190000Y-99919000D02*
X240121000Y-99919000D01*
X236179000Y-99919000D02*
X237110000Y-99919000D01*
X239190000Y-99959000D02*
X240154000Y-99959000D01*
X236146000Y-99959000D02*
X237110000Y-99959000D01*
X239190000Y-99999000D02*
X240185000Y-99999000D01*
X236115000Y-99999000D02*
X237110000Y-99999000D01*
X239190000Y-100039000D02*
X240215000Y-100039000D01*
X236085000Y-100039000D02*
X237110000Y-100039000D01*
X239190000Y-100079000D02*
X240245000Y-100079000D01*
X236055000Y-100079000D02*
X237110000Y-100079000D01*
X239190000Y-100119000D02*
X240272000Y-100119000D01*
X236028000Y-100119000D02*
X237110000Y-100119000D01*
X239190000Y-100159000D02*
X240299000Y-100159000D01*
X236001000Y-100159000D02*
X237110000Y-100159000D01*
X239190000Y-100199000D02*
X240325000Y-100199000D01*
X235975000Y-100199000D02*
X237110000Y-100199000D01*
X239190000Y-100239000D02*
X240350000Y-100239000D01*
X235950000Y-100239000D02*
X237110000Y-100239000D01*
X239190000Y-100279000D02*
X240374000Y-100279000D01*
X235926000Y-100279000D02*
X237110000Y-100279000D01*
X239190000Y-100319000D02*
X240397000Y-100319000D01*
X235903000Y-100319000D02*
X237110000Y-100319000D01*
X239190000Y-100359000D02*
X240418000Y-100359000D01*
X235882000Y-100359000D02*
X237110000Y-100359000D01*
X239190000Y-100399000D02*
X240440000Y-100399000D01*
X235860000Y-100399000D02*
X237110000Y-100399000D01*
X239190000Y-100439000D02*
X240460000Y-100439000D01*
X235840000Y-100439000D02*
X237110000Y-100439000D01*
X239190000Y-100479000D02*
X240479000Y-100479000D01*
X235821000Y-100479000D02*
X237110000Y-100479000D01*
X239190000Y-100519000D02*
X240498000Y-100519000D01*
X235802000Y-100519000D02*
X237110000Y-100519000D01*
X239190000Y-100559000D02*
X240515000Y-100559000D01*
X235785000Y-100559000D02*
X237110000Y-100559000D01*
X239190000Y-100599000D02*
X240532000Y-100599000D01*
X235768000Y-100599000D02*
X237110000Y-100599000D01*
X239190000Y-100639000D02*
X240548000Y-100639000D01*
X235752000Y-100639000D02*
X237110000Y-100639000D01*
X239190000Y-100679000D02*
X240564000Y-100679000D01*
X235736000Y-100679000D02*
X237110000Y-100679000D01*
X239190000Y-100719000D02*
X240578000Y-100719000D01*
X235722000Y-100719000D02*
X237110000Y-100719000D01*
X239190000Y-100759000D02*
X240592000Y-100759000D01*
X235708000Y-100759000D02*
X237110000Y-100759000D01*
X239190000Y-100799000D02*
X240605000Y-100799000D01*
X235695000Y-100799000D02*
X237110000Y-100799000D01*
X239190000Y-100839000D02*
X240618000Y-100839000D01*
X235682000Y-100839000D02*
X237110000Y-100839000D01*
X239190000Y-100879000D02*
X240630000Y-100879000D01*
X235670000Y-100879000D02*
X237110000Y-100879000D01*
X239190000Y-100920000D02*
X240641000Y-100920000D01*
X235659000Y-100920000D02*
X237110000Y-100920000D01*
X239190000Y-100960000D02*
X240651000Y-100960000D01*
X235649000Y-100960000D02*
X237110000Y-100960000D01*
X239190000Y-101000000D02*
X240661000Y-101000000D01*
X235639000Y-101000000D02*
X237110000Y-101000000D01*
X239190000Y-101040000D02*
X240670000Y-101040000D01*
X235630000Y-101040000D02*
X237110000Y-101040000D01*
X239190000Y-101080000D02*
X240678000Y-101080000D01*
X235622000Y-101080000D02*
X237110000Y-101080000D01*
X239190000Y-101120000D02*
X240686000Y-101120000D01*
X235614000Y-101120000D02*
X237110000Y-101120000D01*
X239190000Y-101160000D02*
X240693000Y-101160000D01*
X235607000Y-101160000D02*
X237110000Y-101160000D01*
X239190000Y-101200000D02*
X240700000Y-101200000D01*
X235600000Y-101200000D02*
X237110000Y-101200000D01*
X239190000Y-101240000D02*
X240706000Y-101240000D01*
X235594000Y-101240000D02*
X237110000Y-101240000D01*
X239190000Y-101280000D02*
X240711000Y-101280000D01*
X235589000Y-101280000D02*
X237110000Y-101280000D01*
X239190000Y-101320000D02*
X240715000Y-101320000D01*
X235585000Y-101320000D02*
X237110000Y-101320000D01*
X239190000Y-101360000D02*
X240719000Y-101360000D01*
X235581000Y-101360000D02*
X237110000Y-101360000D01*
X235577000Y-101400000D02*
X240723000Y-101400000D01*
X235574000Y-101440000D02*
X240726000Y-101440000D01*
X235572000Y-101480000D02*
X240728000Y-101480000D01*
X235571000Y-101520000D02*
X240729000Y-101520000D01*
X235570000Y-101560000D02*
X240730000Y-101560000D01*
X235570000Y-101600000D02*
X240730000Y-101600000D01*
X240770000Y-101600000D02*
G75*
G03*
X240770000Y-101600000I-2620000J0D01*
G01*
X240670000Y-92500000D02*
G75*
G03*
X240670000Y-92500000I-2620000J0D01*
G01*
X235470000Y-92500000D02*
X240630000Y-92500000D01*
X235470000Y-92460000D02*
X240630000Y-92460000D01*
X235471000Y-92420000D02*
X240629000Y-92420000D01*
X235472000Y-92380000D02*
X240628000Y-92380000D01*
X235474000Y-92340000D02*
X240626000Y-92340000D01*
X235477000Y-92300000D02*
X240623000Y-92300000D01*
X235481000Y-92260000D02*
X237010000Y-92260000D01*
X239090000Y-92260000D02*
X240619000Y-92260000D01*
X235485000Y-92220000D02*
X237010000Y-92220000D01*
X239090000Y-92220000D02*
X240615000Y-92220000D01*
X235489000Y-92180000D02*
X237010000Y-92180000D01*
X239090000Y-92180000D02*
X240611000Y-92180000D01*
X235494000Y-92140000D02*
X237010000Y-92140000D01*
X239090000Y-92140000D02*
X240606000Y-92140000D01*
X235500000Y-92100000D02*
X237010000Y-92100000D01*
X239090000Y-92100000D02*
X240600000Y-92100000D01*
X235507000Y-92060000D02*
X237010000Y-92060000D01*
X239090000Y-92060000D02*
X240593000Y-92060000D01*
X235514000Y-92020000D02*
X237010000Y-92020000D01*
X239090000Y-92020000D02*
X240586000Y-92020000D01*
X235522000Y-91980000D02*
X237010000Y-91980000D01*
X239090000Y-91980000D02*
X240578000Y-91980000D01*
X235530000Y-91940000D02*
X237010000Y-91940000D01*
X239090000Y-91940000D02*
X240570000Y-91940000D01*
X235539000Y-91900000D02*
X237010000Y-91900000D01*
X239090000Y-91900000D02*
X240561000Y-91900000D01*
X235549000Y-91860000D02*
X237010000Y-91860000D01*
X239090000Y-91860000D02*
X240551000Y-91860000D01*
X235559000Y-91820000D02*
X237010000Y-91820000D01*
X239090000Y-91820000D02*
X240541000Y-91820000D01*
X235570000Y-91779000D02*
X237010000Y-91779000D01*
X239090000Y-91779000D02*
X240530000Y-91779000D01*
X235582000Y-91739000D02*
X237010000Y-91739000D01*
X239090000Y-91739000D02*
X240518000Y-91739000D01*
X235595000Y-91699000D02*
X237010000Y-91699000D01*
X239090000Y-91699000D02*
X240505000Y-91699000D01*
X235608000Y-91659000D02*
X237010000Y-91659000D01*
X239090000Y-91659000D02*
X240492000Y-91659000D01*
X235622000Y-91619000D02*
X237010000Y-91619000D01*
X239090000Y-91619000D02*
X240478000Y-91619000D01*
X235636000Y-91579000D02*
X237010000Y-91579000D01*
X239090000Y-91579000D02*
X240464000Y-91579000D01*
X235652000Y-91539000D02*
X237010000Y-91539000D01*
X239090000Y-91539000D02*
X240448000Y-91539000D01*
X235668000Y-91499000D02*
X237010000Y-91499000D01*
X239090000Y-91499000D02*
X240432000Y-91499000D01*
X235685000Y-91459000D02*
X237010000Y-91459000D01*
X239090000Y-91459000D02*
X240415000Y-91459000D01*
X235702000Y-91419000D02*
X237010000Y-91419000D01*
X239090000Y-91419000D02*
X240398000Y-91419000D01*
X235721000Y-91379000D02*
X237010000Y-91379000D01*
X239090000Y-91379000D02*
X240379000Y-91379000D01*
X235740000Y-91339000D02*
X237010000Y-91339000D01*
X239090000Y-91339000D02*
X240360000Y-91339000D01*
X235760000Y-91299000D02*
X237010000Y-91299000D01*
X239090000Y-91299000D02*
X240340000Y-91299000D01*
X235782000Y-91259000D02*
X237010000Y-91259000D01*
X239090000Y-91259000D02*
X240318000Y-91259000D01*
X235803000Y-91219000D02*
X237010000Y-91219000D01*
X239090000Y-91219000D02*
X240297000Y-91219000D01*
X235826000Y-91179000D02*
X237010000Y-91179000D01*
X239090000Y-91179000D02*
X240274000Y-91179000D01*
X235850000Y-91139000D02*
X237010000Y-91139000D01*
X239090000Y-91139000D02*
X240250000Y-91139000D01*
X235875000Y-91099000D02*
X237010000Y-91099000D01*
X239090000Y-91099000D02*
X240225000Y-91099000D01*
X235901000Y-91059000D02*
X237010000Y-91059000D01*
X239090000Y-91059000D02*
X240199000Y-91059000D01*
X235928000Y-91019000D02*
X237010000Y-91019000D01*
X239090000Y-91019000D02*
X240172000Y-91019000D01*
X235955000Y-90979000D02*
X237010000Y-90979000D01*
X239090000Y-90979000D02*
X240145000Y-90979000D01*
X235985000Y-90939000D02*
X237010000Y-90939000D01*
X239090000Y-90939000D02*
X240115000Y-90939000D01*
X236015000Y-90899000D02*
X237010000Y-90899000D01*
X239090000Y-90899000D02*
X240085000Y-90899000D01*
X236046000Y-90859000D02*
X237010000Y-90859000D01*
X239090000Y-90859000D02*
X240054000Y-90859000D01*
X236079000Y-90819000D02*
X237010000Y-90819000D01*
X239090000Y-90819000D02*
X240021000Y-90819000D01*
X236113000Y-90779000D02*
X237010000Y-90779000D01*
X239090000Y-90779000D02*
X239987000Y-90779000D01*
X236149000Y-90739000D02*
X237010000Y-90739000D01*
X239090000Y-90739000D02*
X239951000Y-90739000D01*
X236186000Y-90699000D02*
X237010000Y-90699000D01*
X239090000Y-90699000D02*
X239914000Y-90699000D01*
X236224000Y-90659000D02*
X237010000Y-90659000D01*
X239090000Y-90659000D02*
X239876000Y-90659000D01*
X236265000Y-90619000D02*
X237010000Y-90619000D01*
X239090000Y-90619000D02*
X239835000Y-90619000D01*
X236307000Y-90579000D02*
X237010000Y-90579000D01*
X239090000Y-90579000D02*
X239793000Y-90579000D01*
X236351000Y-90539000D02*
X237010000Y-90539000D01*
X239090000Y-90539000D02*
X239749000Y-90539000D01*
X236397000Y-90499000D02*
X237010000Y-90499000D01*
X239090000Y-90499000D02*
X239703000Y-90499000D01*
X236445000Y-90459000D02*
X237010000Y-90459000D01*
X239090000Y-90459000D02*
X239655000Y-90459000D01*
X236496000Y-90419000D02*
X237010000Y-90419000D01*
X239090000Y-90419000D02*
X239604000Y-90419000D01*
X236550000Y-90379000D02*
X237010000Y-90379000D01*
X239090000Y-90379000D02*
X239550000Y-90379000D01*
X236607000Y-90339000D02*
X237010000Y-90339000D01*
X239090000Y-90339000D02*
X239493000Y-90339000D01*
X236667000Y-90299000D02*
X237010000Y-90299000D01*
X239090000Y-90299000D02*
X239433000Y-90299000D01*
X236731000Y-90259000D02*
X237010000Y-90259000D01*
X239090000Y-90259000D02*
X239369000Y-90259000D01*
X236799000Y-90219000D02*
X237010000Y-90219000D01*
X239090000Y-90219000D02*
X239301000Y-90219000D01*
X236872000Y-90179000D02*
X239228000Y-90179000D01*
X236952000Y-90139000D02*
X239148000Y-90139000D01*
X237039000Y-90099000D02*
X239061000Y-90099000D01*
X237135000Y-90059000D02*
X238965000Y-90059000D01*
X237245000Y-90019000D02*
X238855000Y-90019000D01*
X237373000Y-89979000D02*
X238727000Y-89979000D01*
X237532000Y-89939000D02*
X238568000Y-89939000D01*
X237766000Y-89899000D02*
X238334000Y-89899000D01*
X236575000Y-95304775D02*
X236575000Y-94804775D01*
X236325000Y-95054775D02*
X236825000Y-95054775D01*
X187180000Y-68279000D02*
X187180000Y-67021000D01*
X189020000Y-68279000D02*
X189020000Y-67021000D01*
X221070000Y-79750000D02*
G75*
G03*
X221070000Y-79750000I-6620000J0D01*
G01*
X214450000Y-73170000D02*
X214450000Y-86330000D01*
X214490000Y-73170000D02*
X214490000Y-86330000D01*
X214530000Y-73170000D02*
X214530000Y-86330000D01*
X214570000Y-73171000D02*
X214570000Y-86329000D01*
X214610000Y-73171000D02*
X214610000Y-86329000D01*
X214650000Y-73173000D02*
X214650000Y-86327000D01*
X214690000Y-73174000D02*
X214690000Y-86326000D01*
X214730000Y-73175000D02*
X214730000Y-86325000D01*
X214770000Y-73177000D02*
X214770000Y-86323000D01*
X214810000Y-73179000D02*
X214810000Y-86321000D01*
X214850000Y-73182000D02*
X214850000Y-86318000D01*
X214890000Y-73184000D02*
X214890000Y-86316000D01*
X214930000Y-73187000D02*
X214930000Y-86313000D01*
X214970000Y-73190000D02*
X214970000Y-86310000D01*
X215010000Y-73193000D02*
X215010000Y-86307000D01*
X215050000Y-73197000D02*
X215050000Y-86303000D01*
X215090000Y-73201000D02*
X215090000Y-86299000D01*
X215130000Y-73205000D02*
X215130000Y-86295000D01*
X215171000Y-73209000D02*
X215171000Y-86291000D01*
X215211000Y-73213000D02*
X215211000Y-86287000D01*
X215251000Y-73218000D02*
X215251000Y-86282000D01*
X215291000Y-73223000D02*
X215291000Y-86277000D01*
X215331000Y-73228000D02*
X215331000Y-86272000D01*
X215371000Y-73234000D02*
X215371000Y-86266000D01*
X215411000Y-73239000D02*
X215411000Y-86261000D01*
X215451000Y-73245000D02*
X215451000Y-86255000D01*
X215491000Y-73252000D02*
X215491000Y-86248000D01*
X215531000Y-73258000D02*
X215531000Y-78310000D01*
X215531000Y-81190000D02*
X215531000Y-86242000D01*
X215571000Y-73265000D02*
X215571000Y-78310000D01*
X215571000Y-81190000D02*
X215571000Y-86235000D01*
X215611000Y-73272000D02*
X215611000Y-78310000D01*
X215611000Y-81190000D02*
X215611000Y-86228000D01*
X215651000Y-73279000D02*
X215651000Y-78310000D01*
X215651000Y-81190000D02*
X215651000Y-86221000D01*
X215691000Y-73287000D02*
X215691000Y-78310000D01*
X215691000Y-81190000D02*
X215691000Y-86213000D01*
X215731000Y-73294000D02*
X215731000Y-78310000D01*
X215731000Y-81190000D02*
X215731000Y-86206000D01*
X215771000Y-73302000D02*
X215771000Y-78310000D01*
X215771000Y-81190000D02*
X215771000Y-86198000D01*
X215811000Y-73311000D02*
X215811000Y-78310000D01*
X215811000Y-81190000D02*
X215811000Y-86189000D01*
X215851000Y-73319000D02*
X215851000Y-78310000D01*
X215851000Y-81190000D02*
X215851000Y-86181000D01*
X215891000Y-73328000D02*
X215891000Y-78310000D01*
X215891000Y-81190000D02*
X215891000Y-86172000D01*
X215931000Y-73337000D02*
X215931000Y-78310000D01*
X215931000Y-81190000D02*
X215931000Y-86163000D01*
X215971000Y-73346000D02*
X215971000Y-78310000D01*
X215971000Y-81190000D02*
X215971000Y-86154000D01*
X216011000Y-73356000D02*
X216011000Y-78310000D01*
X216011000Y-81190000D02*
X216011000Y-86144000D01*
X216051000Y-73366000D02*
X216051000Y-78310000D01*
X216051000Y-81190000D02*
X216051000Y-86134000D01*
X216091000Y-73376000D02*
X216091000Y-78310000D01*
X216091000Y-81190000D02*
X216091000Y-86124000D01*
X216131000Y-73386000D02*
X216131000Y-78310000D01*
X216131000Y-81190000D02*
X216131000Y-86114000D01*
X216171000Y-73397000D02*
X216171000Y-78310000D01*
X216171000Y-81190000D02*
X216171000Y-86103000D01*
X216211000Y-73408000D02*
X216211000Y-78310000D01*
X216211000Y-81190000D02*
X216211000Y-86092000D01*
X216251000Y-73419000D02*
X216251000Y-78310000D01*
X216251000Y-81190000D02*
X216251000Y-86081000D01*
X216291000Y-73430000D02*
X216291000Y-78310000D01*
X216291000Y-81190000D02*
X216291000Y-86070000D01*
X216331000Y-73442000D02*
X216331000Y-78310000D01*
X216331000Y-81190000D02*
X216331000Y-86058000D01*
X216371000Y-73454000D02*
X216371000Y-78310000D01*
X216371000Y-81190000D02*
X216371000Y-86046000D01*
X216411000Y-73466000D02*
X216411000Y-78310000D01*
X216411000Y-81190000D02*
X216411000Y-86034000D01*
X216451000Y-73479000D02*
X216451000Y-78310000D01*
X216451000Y-81190000D02*
X216451000Y-86021000D01*
X216491000Y-73492000D02*
X216491000Y-78310000D01*
X216491000Y-81190000D02*
X216491000Y-86008000D01*
X216531000Y-73505000D02*
X216531000Y-78310000D01*
X216531000Y-81190000D02*
X216531000Y-85995000D01*
X216571000Y-73518000D02*
X216571000Y-78310000D01*
X216571000Y-81190000D02*
X216571000Y-85982000D01*
X216611000Y-73532000D02*
X216611000Y-78310000D01*
X216611000Y-81190000D02*
X216611000Y-85968000D01*
X216651000Y-73546000D02*
X216651000Y-78310000D01*
X216651000Y-81190000D02*
X216651000Y-85954000D01*
X216691000Y-73560000D02*
X216691000Y-78310000D01*
X216691000Y-81190000D02*
X216691000Y-85940000D01*
X216731000Y-73575000D02*
X216731000Y-78310000D01*
X216731000Y-81190000D02*
X216731000Y-85925000D01*
X216771000Y-73589000D02*
X216771000Y-78310000D01*
X216771000Y-81190000D02*
X216771000Y-85911000D01*
X216811000Y-73604000D02*
X216811000Y-78310000D01*
X216811000Y-81190000D02*
X216811000Y-85896000D01*
X216851000Y-73620000D02*
X216851000Y-78310000D01*
X216851000Y-81190000D02*
X216851000Y-85880000D01*
X216891000Y-73636000D02*
X216891000Y-78310000D01*
X216891000Y-81190000D02*
X216891000Y-85864000D01*
X216931000Y-73652000D02*
X216931000Y-78310000D01*
X216931000Y-81190000D02*
X216931000Y-85848000D01*
X216971000Y-73668000D02*
X216971000Y-78310000D01*
X216971000Y-81190000D02*
X216971000Y-85832000D01*
X217011000Y-73685000D02*
X217011000Y-78310000D01*
X217011000Y-81190000D02*
X217011000Y-85815000D01*
X217051000Y-73701000D02*
X217051000Y-78310000D01*
X217051000Y-81190000D02*
X217051000Y-85799000D01*
X217091000Y-73719000D02*
X217091000Y-78310000D01*
X217091000Y-81190000D02*
X217091000Y-85781000D01*
X217131000Y-73736000D02*
X217131000Y-78310000D01*
X217131000Y-81190000D02*
X217131000Y-85764000D01*
X217171000Y-73754000D02*
X217171000Y-78310000D01*
X217171000Y-81190000D02*
X217171000Y-85746000D01*
X217211000Y-73772000D02*
X217211000Y-78310000D01*
X217211000Y-81190000D02*
X217211000Y-85728000D01*
X217251000Y-73791000D02*
X217251000Y-78310000D01*
X217251000Y-81190000D02*
X217251000Y-85709000D01*
X217291000Y-73810000D02*
X217291000Y-78310000D01*
X217291000Y-81190000D02*
X217291000Y-85690000D01*
X217331000Y-73829000D02*
X217331000Y-78310000D01*
X217331000Y-81190000D02*
X217331000Y-85671000D01*
X217371000Y-73848000D02*
X217371000Y-78310000D01*
X217371000Y-81190000D02*
X217371000Y-85652000D01*
X217411000Y-73868000D02*
X217411000Y-78310000D01*
X217411000Y-81190000D02*
X217411000Y-85632000D01*
X217451000Y-73888000D02*
X217451000Y-78310000D01*
X217451000Y-81190000D02*
X217451000Y-85612000D01*
X217491000Y-73909000D02*
X217491000Y-78310000D01*
X217491000Y-81190000D02*
X217491000Y-85591000D01*
X217531000Y-73930000D02*
X217531000Y-78310000D01*
X217531000Y-81190000D02*
X217531000Y-85570000D01*
X217571000Y-73951000D02*
X217571000Y-78310000D01*
X217571000Y-81190000D02*
X217571000Y-85549000D01*
X217611000Y-73972000D02*
X217611000Y-78310000D01*
X217611000Y-81190000D02*
X217611000Y-85528000D01*
X217651000Y-73994000D02*
X217651000Y-78310000D01*
X217651000Y-81190000D02*
X217651000Y-85506000D01*
X217691000Y-74017000D02*
X217691000Y-78310000D01*
X217691000Y-81190000D02*
X217691000Y-85483000D01*
X217731000Y-74039000D02*
X217731000Y-78310000D01*
X217731000Y-81190000D02*
X217731000Y-85461000D01*
X217771000Y-74062000D02*
X217771000Y-78310000D01*
X217771000Y-81190000D02*
X217771000Y-85438000D01*
X217811000Y-74086000D02*
X217811000Y-78310000D01*
X217811000Y-81190000D02*
X217811000Y-85414000D01*
X217851000Y-74109000D02*
X217851000Y-78310000D01*
X217851000Y-81190000D02*
X217851000Y-85391000D01*
X217891000Y-74133000D02*
X217891000Y-78310000D01*
X217891000Y-81190000D02*
X217891000Y-85367000D01*
X217931000Y-74158000D02*
X217931000Y-78310000D01*
X217931000Y-81190000D02*
X217931000Y-85342000D01*
X217971000Y-74183000D02*
X217971000Y-78310000D01*
X217971000Y-81190000D02*
X217971000Y-85317000D01*
X218011000Y-74208000D02*
X218011000Y-78310000D01*
X218011000Y-81190000D02*
X218011000Y-85292000D01*
X218051000Y-74234000D02*
X218051000Y-78310000D01*
X218051000Y-81190000D02*
X218051000Y-85266000D01*
X218091000Y-74260000D02*
X218091000Y-78310000D01*
X218091000Y-81190000D02*
X218091000Y-85240000D01*
X218131000Y-74287000D02*
X218131000Y-78310000D01*
X218131000Y-81190000D02*
X218131000Y-85213000D01*
X218171000Y-74314000D02*
X218171000Y-78310000D01*
X218171000Y-81190000D02*
X218171000Y-85186000D01*
X218211000Y-74341000D02*
X218211000Y-78310000D01*
X218211000Y-81190000D02*
X218211000Y-85159000D01*
X218251000Y-74369000D02*
X218251000Y-78310000D01*
X218251000Y-81190000D02*
X218251000Y-85131000D01*
X218291000Y-74397000D02*
X218291000Y-78310000D01*
X218291000Y-81190000D02*
X218291000Y-85103000D01*
X218331000Y-74426000D02*
X218331000Y-78310000D01*
X218331000Y-81190000D02*
X218331000Y-85074000D01*
X218371000Y-74455000D02*
X218371000Y-78310000D01*
X218371000Y-81190000D02*
X218371000Y-85045000D01*
X218411000Y-74485000D02*
X218411000Y-85015000D01*
X218451000Y-74515000D02*
X218451000Y-84985000D01*
X218491000Y-74545000D02*
X218491000Y-84955000D01*
X218531000Y-74576000D02*
X218531000Y-84924000D01*
X218571000Y-74608000D02*
X218571000Y-84892000D01*
X218611000Y-74640000D02*
X218611000Y-84860000D01*
X218651000Y-74672000D02*
X218651000Y-84828000D01*
X218691000Y-74706000D02*
X218691000Y-84794000D01*
X218731000Y-74739000D02*
X218731000Y-84761000D01*
X218771000Y-74773000D02*
X218771000Y-84727000D01*
X218811000Y-74808000D02*
X218811000Y-84692000D01*
X218851000Y-74843000D02*
X218851000Y-84657000D01*
X218891000Y-74879000D02*
X218891000Y-84621000D01*
X218931000Y-74916000D02*
X218931000Y-84584000D01*
X218971000Y-74953000D02*
X218971000Y-84547000D01*
X219011000Y-74990000D02*
X219011000Y-84510000D01*
X219051000Y-75029000D02*
X219051000Y-84471000D01*
X219091000Y-75068000D02*
X219091000Y-84432000D01*
X219131000Y-75107000D02*
X219131000Y-84393000D01*
X219171000Y-75148000D02*
X219171000Y-84352000D01*
X219211000Y-75189000D02*
X219211000Y-84311000D01*
X219251000Y-75231000D02*
X219251000Y-84269000D01*
X219291000Y-75273000D02*
X219291000Y-84227000D01*
X219331000Y-75316000D02*
X219331000Y-84184000D01*
X219371000Y-75360000D02*
X219371000Y-84140000D01*
X219411000Y-75405000D02*
X219411000Y-84095000D01*
X219451000Y-75451000D02*
X219451000Y-84049000D01*
X219491000Y-75497000D02*
X219491000Y-84003000D01*
X219531000Y-75545000D02*
X219531000Y-83955000D01*
X219571000Y-75593000D02*
X219571000Y-83907000D01*
X219611000Y-75642000D02*
X219611000Y-83858000D01*
X219651000Y-75693000D02*
X219651000Y-83807000D01*
X219691000Y-75744000D02*
X219691000Y-83756000D01*
X219731000Y-75796000D02*
X219731000Y-83704000D01*
X219771000Y-75850000D02*
X219771000Y-83650000D01*
X219811000Y-75904000D02*
X219811000Y-83596000D01*
X219851000Y-75960000D02*
X219851000Y-83540000D01*
X219891000Y-76017000D02*
X219891000Y-83483000D01*
X219931000Y-76075000D02*
X219931000Y-83425000D01*
X219971000Y-76135000D02*
X219971000Y-83365000D01*
X220011000Y-76196000D02*
X220011000Y-83304000D01*
X220051000Y-76259000D02*
X220051000Y-83241000D01*
X220091000Y-76323000D02*
X220091000Y-83177000D01*
X220131000Y-76389000D02*
X220131000Y-83111000D01*
X220171000Y-76457000D02*
X220171000Y-83043000D01*
X220211000Y-76527000D02*
X220211000Y-82973000D01*
X220251000Y-76598000D02*
X220251000Y-82902000D01*
X220291000Y-76672000D02*
X220291000Y-82828000D01*
X220331000Y-76748000D02*
X220331000Y-82752000D01*
X220371000Y-76827000D02*
X220371000Y-82673000D01*
X220411000Y-76908000D02*
X220411000Y-82592000D01*
X220451000Y-76992000D02*
X220451000Y-82508000D01*
X220491000Y-77080000D02*
X220491000Y-82420000D01*
X220531000Y-77171000D02*
X220531000Y-82329000D01*
X220571000Y-77266000D02*
X220571000Y-82234000D01*
X220611000Y-77365000D02*
X220611000Y-82135000D01*
X220651000Y-77469000D02*
X220651000Y-82031000D01*
X220691000Y-77579000D02*
X220691000Y-81921000D01*
X220731000Y-77695000D02*
X220731000Y-81805000D01*
X220771000Y-77819000D02*
X220771000Y-81681000D01*
X220811000Y-77952000D02*
X220811000Y-81548000D01*
X220851000Y-78097000D02*
X220851000Y-81403000D01*
X220891000Y-78256000D02*
X220891000Y-81244000D01*
X220931000Y-78435000D02*
X220931000Y-81065000D01*
X220971000Y-78643000D02*
X220971000Y-80857000D01*
X221011000Y-78900000D02*
X221011000Y-80600000D01*
X221051000Y-79275000D02*
X221051000Y-80225000D01*
X207365431Y-76035000D02*
X208665431Y-76035000D01*
X208015431Y-75385000D02*
X208015431Y-76685000D01*
X215721000Y-63920000D02*
X216979000Y-63920000D01*
X215721000Y-62080000D02*
X216979000Y-62080000D01*
X182765000Y-75565431D02*
X181465000Y-75565431D01*
X182115000Y-74915431D02*
X182115000Y-76215431D01*
X178875000Y-88601000D02*
X177925000Y-88601000D01*
X179250000Y-88561000D02*
X177550000Y-88561000D01*
X179507000Y-88521000D02*
X177293000Y-88521000D01*
X179715000Y-88481000D02*
X177085000Y-88481000D01*
X179894000Y-88441000D02*
X176906000Y-88441000D01*
X180053000Y-88401000D02*
X176747000Y-88401000D01*
X180198000Y-88361000D02*
X176602000Y-88361000D01*
X180331000Y-88321000D02*
X176469000Y-88321000D01*
X180455000Y-88281000D02*
X176345000Y-88281000D01*
X180571000Y-88241000D02*
X176229000Y-88241000D01*
X180681000Y-88201000D02*
X176119000Y-88201000D01*
X180785000Y-88161000D02*
X176015000Y-88161000D01*
X180884000Y-88121000D02*
X175916000Y-88121000D01*
X180979000Y-88081000D02*
X175821000Y-88081000D01*
X181070000Y-88041000D02*
X175730000Y-88041000D01*
X181158000Y-88001000D02*
X175642000Y-88001000D01*
X181242000Y-87961000D02*
X175558000Y-87961000D01*
X181323000Y-87921000D02*
X175477000Y-87921000D01*
X181402000Y-87881000D02*
X175398000Y-87881000D01*
X181478000Y-87841000D02*
X175322000Y-87841000D01*
X181552000Y-87801000D02*
X175248000Y-87801000D01*
X181623000Y-87761000D02*
X175177000Y-87761000D01*
X181693000Y-87721000D02*
X175107000Y-87721000D01*
X181761000Y-87681000D02*
X175039000Y-87681000D01*
X181827000Y-87641000D02*
X174973000Y-87641000D01*
X181891000Y-87601000D02*
X174909000Y-87601000D01*
X181954000Y-87561000D02*
X174846000Y-87561000D01*
X182015000Y-87521000D02*
X174785000Y-87521000D01*
X182075000Y-87481000D02*
X174725000Y-87481000D01*
X182133000Y-87441000D02*
X174667000Y-87441000D01*
X182190000Y-87401000D02*
X174610000Y-87401000D01*
X182246000Y-87361000D02*
X174554000Y-87361000D01*
X182300000Y-87321000D02*
X174500000Y-87321000D01*
X182354000Y-87281000D02*
X174446000Y-87281000D01*
X182406000Y-87241000D02*
X174394000Y-87241000D01*
X182457000Y-87201000D02*
X174343000Y-87201000D01*
X182508000Y-87161000D02*
X174292000Y-87161000D01*
X182557000Y-87121000D02*
X174243000Y-87121000D01*
X182605000Y-87081000D02*
X174195000Y-87081000D01*
X182653000Y-87041000D02*
X174147000Y-87041000D01*
X182699000Y-87001000D02*
X174101000Y-87001000D01*
X182745000Y-86961000D02*
X174055000Y-86961000D01*
X182790000Y-86921000D02*
X174010000Y-86921000D01*
X182834000Y-86881000D02*
X173966000Y-86881000D01*
X182877000Y-86841000D02*
X173923000Y-86841000D01*
X182919000Y-86801000D02*
X173881000Y-86801000D01*
X182961000Y-86761000D02*
X173839000Y-86761000D01*
X183002000Y-86721000D02*
X173798000Y-86721000D01*
X183043000Y-86681000D02*
X173757000Y-86681000D01*
X183082000Y-86641000D02*
X173718000Y-86641000D01*
X183121000Y-86601000D02*
X173679000Y-86601000D01*
X183160000Y-86561000D02*
X173640000Y-86561000D01*
X183197000Y-86521000D02*
X173603000Y-86521000D01*
X183234000Y-86481000D02*
X173566000Y-86481000D01*
X183271000Y-86441000D02*
X173529000Y-86441000D01*
X183307000Y-86401000D02*
X173493000Y-86401000D01*
X183342000Y-86361000D02*
X173458000Y-86361000D01*
X183377000Y-86321000D02*
X173423000Y-86321000D01*
X183411000Y-86281000D02*
X173389000Y-86281000D01*
X183444000Y-86241000D02*
X173356000Y-86241000D01*
X183478000Y-86201000D02*
X173322000Y-86201000D01*
X183510000Y-86161000D02*
X173290000Y-86161000D01*
X183542000Y-86121000D02*
X173258000Y-86121000D01*
X183574000Y-86081000D02*
X173226000Y-86081000D01*
X183605000Y-86041000D02*
X173195000Y-86041000D01*
X183635000Y-86001000D02*
X173165000Y-86001000D01*
X183665000Y-85961000D02*
X173135000Y-85961000D01*
X176960000Y-85921000D02*
X173105000Y-85921000D01*
X183695000Y-85921000D02*
X179840000Y-85921000D01*
X176960000Y-85881000D02*
X173076000Y-85881000D01*
X183724000Y-85881000D02*
X179840000Y-85881000D01*
X176960000Y-85841000D02*
X173047000Y-85841000D01*
X183753000Y-85841000D02*
X179840000Y-85841000D01*
X176960000Y-85801000D02*
X173019000Y-85801000D01*
X183781000Y-85801000D02*
X179840000Y-85801000D01*
X176960000Y-85761000D02*
X172991000Y-85761000D01*
X183809000Y-85761000D02*
X179840000Y-85761000D01*
X176960000Y-85721000D02*
X172964000Y-85721000D01*
X183836000Y-85721000D02*
X179840000Y-85721000D01*
X176960000Y-85681000D02*
X172937000Y-85681000D01*
X183863000Y-85681000D02*
X179840000Y-85681000D01*
X176960000Y-85641000D02*
X172910000Y-85641000D01*
X183890000Y-85641000D02*
X179840000Y-85641000D01*
X176960000Y-85601000D02*
X172884000Y-85601000D01*
X183916000Y-85601000D02*
X179840000Y-85601000D01*
X176960000Y-85561000D02*
X172858000Y-85561000D01*
X183942000Y-85561000D02*
X179840000Y-85561000D01*
X176960000Y-85521000D02*
X172833000Y-85521000D01*
X183967000Y-85521000D02*
X179840000Y-85521000D01*
X176960000Y-85481000D02*
X172808000Y-85481000D01*
X183992000Y-85481000D02*
X179840000Y-85481000D01*
X176960000Y-85441000D02*
X172783000Y-85441000D01*
X184017000Y-85441000D02*
X179840000Y-85441000D01*
X176960000Y-85401000D02*
X172759000Y-85401000D01*
X184041000Y-85401000D02*
X179840000Y-85401000D01*
X176960000Y-85361000D02*
X172736000Y-85361000D01*
X184064000Y-85361000D02*
X179840000Y-85361000D01*
X176960000Y-85321000D02*
X172712000Y-85321000D01*
X184088000Y-85321000D02*
X179840000Y-85321000D01*
X176960000Y-85281000D02*
X172689000Y-85281000D01*
X184111000Y-85281000D02*
X179840000Y-85281000D01*
X176960000Y-85241000D02*
X172667000Y-85241000D01*
X184133000Y-85241000D02*
X179840000Y-85241000D01*
X176960000Y-85201000D02*
X172644000Y-85201000D01*
X184156000Y-85201000D02*
X179840000Y-85201000D01*
X176960000Y-85161000D02*
X172622000Y-85161000D01*
X184178000Y-85161000D02*
X179840000Y-85161000D01*
X176960000Y-85121000D02*
X172601000Y-85121000D01*
X184199000Y-85121000D02*
X179840000Y-85121000D01*
X176960000Y-85081000D02*
X172580000Y-85081000D01*
X184220000Y-85081000D02*
X179840000Y-85081000D01*
X176960000Y-85041000D02*
X172559000Y-85041000D01*
X184241000Y-85041000D02*
X179840000Y-85041000D01*
X176960000Y-85001000D02*
X172538000Y-85001000D01*
X184262000Y-85001000D02*
X179840000Y-85001000D01*
X176960000Y-84961000D02*
X172518000Y-84961000D01*
X184282000Y-84961000D02*
X179840000Y-84961000D01*
X176960000Y-84921000D02*
X172498000Y-84921000D01*
X184302000Y-84921000D02*
X179840000Y-84921000D01*
X176960000Y-84881000D02*
X172479000Y-84881000D01*
X184321000Y-84881000D02*
X179840000Y-84881000D01*
X176960000Y-84841000D02*
X172460000Y-84841000D01*
X184340000Y-84841000D02*
X179840000Y-84841000D01*
X176960000Y-84801000D02*
X172441000Y-84801000D01*
X184359000Y-84801000D02*
X179840000Y-84801000D01*
X176960000Y-84761000D02*
X172422000Y-84761000D01*
X184378000Y-84761000D02*
X179840000Y-84761000D01*
X176960000Y-84721000D02*
X172404000Y-84721000D01*
X184396000Y-84721000D02*
X179840000Y-84721000D01*
X176960000Y-84681000D02*
X172386000Y-84681000D01*
X184414000Y-84681000D02*
X179840000Y-84681000D01*
X176960000Y-84641000D02*
X172369000Y-84641000D01*
X184431000Y-84641000D02*
X179840000Y-84641000D01*
X176960000Y-84601000D02*
X172351000Y-84601000D01*
X184449000Y-84601000D02*
X179840000Y-84601000D01*
X176960000Y-84561000D02*
X172335000Y-84561000D01*
X184465000Y-84561000D02*
X179840000Y-84561000D01*
X176960000Y-84521000D02*
X172318000Y-84521000D01*
X184482000Y-84521000D02*
X179840000Y-84521000D01*
X176960000Y-84481000D02*
X172302000Y-84481000D01*
X184498000Y-84481000D02*
X179840000Y-84481000D01*
X176960000Y-84441000D02*
X172286000Y-84441000D01*
X184514000Y-84441000D02*
X179840000Y-84441000D01*
X176960000Y-84401000D02*
X172270000Y-84401000D01*
X184530000Y-84401000D02*
X179840000Y-84401000D01*
X176960000Y-84361000D02*
X172254000Y-84361000D01*
X184546000Y-84361000D02*
X179840000Y-84361000D01*
X176960000Y-84321000D02*
X172239000Y-84321000D01*
X184561000Y-84321000D02*
X179840000Y-84321000D01*
X176960000Y-84281000D02*
X172225000Y-84281000D01*
X184575000Y-84281000D02*
X179840000Y-84281000D01*
X176960000Y-84241000D02*
X172210000Y-84241000D01*
X184590000Y-84241000D02*
X179840000Y-84241000D01*
X176960000Y-84201000D02*
X172196000Y-84201000D01*
X184604000Y-84201000D02*
X179840000Y-84201000D01*
X176960000Y-84161000D02*
X172182000Y-84161000D01*
X184618000Y-84161000D02*
X179840000Y-84161000D01*
X176960000Y-84121000D02*
X172168000Y-84121000D01*
X184632000Y-84121000D02*
X179840000Y-84121000D01*
X176960000Y-84081000D02*
X172155000Y-84081000D01*
X184645000Y-84081000D02*
X179840000Y-84081000D01*
X176960000Y-84041000D02*
X172142000Y-84041000D01*
X184658000Y-84041000D02*
X179840000Y-84041000D01*
X176960000Y-84001000D02*
X172129000Y-84001000D01*
X184671000Y-84001000D02*
X179840000Y-84001000D01*
X176960000Y-83961000D02*
X172116000Y-83961000D01*
X184684000Y-83961000D02*
X179840000Y-83961000D01*
X176960000Y-83921000D02*
X172104000Y-83921000D01*
X184696000Y-83921000D02*
X179840000Y-83921000D01*
X176960000Y-83881000D02*
X172092000Y-83881000D01*
X184708000Y-83881000D02*
X179840000Y-83881000D01*
X176960000Y-83841000D02*
X172080000Y-83841000D01*
X184720000Y-83841000D02*
X179840000Y-83841000D01*
X176960000Y-83801000D02*
X172069000Y-83801000D01*
X184731000Y-83801000D02*
X179840000Y-83801000D01*
X176960000Y-83761000D02*
X172058000Y-83761000D01*
X184742000Y-83761000D02*
X179840000Y-83761000D01*
X176960000Y-83721000D02*
X172047000Y-83721000D01*
X184753000Y-83721000D02*
X179840000Y-83721000D01*
X176960000Y-83681000D02*
X172036000Y-83681000D01*
X184764000Y-83681000D02*
X179840000Y-83681000D01*
X176960000Y-83641000D02*
X172026000Y-83641000D01*
X184774000Y-83641000D02*
X179840000Y-83641000D01*
X176960000Y-83601000D02*
X172016000Y-83601000D01*
X184784000Y-83601000D02*
X179840000Y-83601000D01*
X176960000Y-83561000D02*
X172006000Y-83561000D01*
X184794000Y-83561000D02*
X179840000Y-83561000D01*
X176960000Y-83521000D02*
X171996000Y-83521000D01*
X184804000Y-83521000D02*
X179840000Y-83521000D01*
X176960000Y-83481000D02*
X171987000Y-83481000D01*
X184813000Y-83481000D02*
X179840000Y-83481000D01*
X176960000Y-83441000D02*
X171978000Y-83441000D01*
X184822000Y-83441000D02*
X179840000Y-83441000D01*
X176960000Y-83401000D02*
X171969000Y-83401000D01*
X184831000Y-83401000D02*
X179840000Y-83401000D01*
X176960000Y-83361000D02*
X171961000Y-83361000D01*
X184839000Y-83361000D02*
X179840000Y-83361000D01*
X176960000Y-83321000D02*
X171952000Y-83321000D01*
X184848000Y-83321000D02*
X179840000Y-83321000D01*
X176960000Y-83281000D02*
X171944000Y-83281000D01*
X184856000Y-83281000D02*
X179840000Y-83281000D01*
X176960000Y-83241000D02*
X171937000Y-83241000D01*
X184863000Y-83241000D02*
X179840000Y-83241000D01*
X176960000Y-83201000D02*
X171929000Y-83201000D01*
X184871000Y-83201000D02*
X179840000Y-83201000D01*
X176960000Y-83161000D02*
X171922000Y-83161000D01*
X184878000Y-83161000D02*
X179840000Y-83161000D01*
X176960000Y-83121000D02*
X171915000Y-83121000D01*
X184885000Y-83121000D02*
X179840000Y-83121000D01*
X176960000Y-83081000D02*
X171908000Y-83081000D01*
X184892000Y-83081000D02*
X179840000Y-83081000D01*
X184898000Y-83041000D02*
X171902000Y-83041000D01*
X184905000Y-83001000D02*
X171895000Y-83001000D01*
X184911000Y-82961000D02*
X171889000Y-82961000D01*
X184916000Y-82921000D02*
X171884000Y-82921000D01*
X184922000Y-82881000D02*
X171878000Y-82881000D01*
X184927000Y-82841000D02*
X171873000Y-82841000D01*
X184932000Y-82801000D02*
X171868000Y-82801000D01*
X184937000Y-82761000D02*
X171863000Y-82761000D01*
X184941000Y-82721000D02*
X171859000Y-82721000D01*
X184945000Y-82680000D02*
X171855000Y-82680000D01*
X184949000Y-82640000D02*
X171851000Y-82640000D01*
X184953000Y-82600000D02*
X171847000Y-82600000D01*
X184957000Y-82560000D02*
X171843000Y-82560000D01*
X184960000Y-82520000D02*
X171840000Y-82520000D01*
X184963000Y-82480000D02*
X171837000Y-82480000D01*
X184966000Y-82440000D02*
X171834000Y-82440000D01*
X184968000Y-82400000D02*
X171832000Y-82400000D01*
X184971000Y-82360000D02*
X171829000Y-82360000D01*
X184973000Y-82320000D02*
X171827000Y-82320000D01*
X184975000Y-82280000D02*
X171825000Y-82280000D01*
X184976000Y-82240000D02*
X171824000Y-82240000D01*
X184977000Y-82200000D02*
X171823000Y-82200000D01*
X184979000Y-82160000D02*
X171821000Y-82160000D01*
X184979000Y-82120000D02*
X171821000Y-82120000D01*
X184980000Y-82080000D02*
X171820000Y-82080000D01*
X184980000Y-82040000D02*
X171820000Y-82040000D01*
X184980000Y-82000000D02*
X171820000Y-82000000D01*
X185020000Y-82000000D02*
G75*
G03*
X185020000Y-82000000I-6620000J0D01*
G01*
X176660000Y-102180000D02*
X176660000Y-102911000D01*
X174540000Y-102180000D02*
X174540000Y-102911000D01*
X172290000Y-109430000D02*
X172290000Y-110161000D01*
X174410000Y-109430000D02*
X174410000Y-110161000D01*
X251920000Y-100110000D02*
X248980000Y-100110000D01*
X248980000Y-100110000D02*
X248980000Y-105550000D01*
X248980000Y-105550000D02*
X251920000Y-105550000D01*
X251920000Y-105550000D02*
X251920000Y-100110000D01*
X250450000Y-99090000D02*
X250450000Y-100110000D01*
X250450000Y-106570000D02*
X250450000Y-105550000D01*
X251920000Y-101010000D02*
X248980000Y-101010000D01*
X251920000Y-101130000D02*
X248980000Y-101130000D01*
X251920000Y-100890000D02*
X248980000Y-100890000D01*
X159540000Y-99060000D02*
X159540000Y-98880000D01*
X159540000Y-98880000D02*
X162980000Y-98880000D01*
X162980000Y-98880000D02*
X162980000Y-99060000D01*
X159540000Y-101540000D02*
X159540000Y-101720000D01*
X159540000Y-101720000D02*
X162980000Y-101720000D01*
X162980000Y-101720000D02*
X162980000Y-101540000D01*
X160140000Y-98880000D02*
X160140000Y-101720000D01*
X160260000Y-98880000D02*
X160260000Y-101720000D01*
X160020000Y-98880000D02*
X160020000Y-101720000D01*
X257420000Y-95210000D02*
X254480000Y-95210000D01*
X254480000Y-95210000D02*
X254480000Y-100650000D01*
X254480000Y-100650000D02*
X257420000Y-100650000D01*
X257420000Y-100650000D02*
X257420000Y-95210000D01*
X255950000Y-94190000D02*
X255950000Y-95210000D01*
X255950000Y-101670000D02*
X255950000Y-100650000D01*
X257420000Y-96110000D02*
X254480000Y-96110000D01*
X257420000Y-96230000D02*
X254480000Y-96230000D01*
X257420000Y-95990000D02*
X254480000Y-95990000D01*
X249390000Y-115080000D02*
X249390000Y-118020000D01*
X249630000Y-115080000D02*
X249630000Y-118020000D01*
X249510000Y-115080000D02*
X249510000Y-118020000D01*
X255070000Y-116550000D02*
X254050000Y-116550000D01*
X247590000Y-116550000D02*
X248610000Y-116550000D01*
X254050000Y-115080000D02*
X248610000Y-115080000D01*
X254050000Y-118020000D02*
X254050000Y-115080000D01*
X248610000Y-118020000D02*
X254050000Y-118020000D01*
X248610000Y-115080000D02*
X248610000Y-118020000D01*
X222210000Y-78514000D02*
X222210000Y-78670000D01*
X222210000Y-80830000D02*
X222210000Y-80986000D01*
X225442335Y-78671392D02*
G75*
G03*
X222210000Y-78514484I-1672335J-1078608D01*
G01*
X225442335Y-80828608D02*
G75*
G02*
X222210000Y-80985516I-1672335J1078608D01*
G01*
X224811130Y-78670163D02*
G75*
G03*
X222729039Y-78670000I-1041130J-1079837D01*
G01*
X224811130Y-80829837D02*
G75*
G02*
X222729039Y-80830000I-1041130J1079837D01*
G01*
X179064000Y-99990000D02*
X179220000Y-99990000D01*
X181380000Y-99990000D02*
X181536000Y-99990000D01*
X179221392Y-96757665D02*
G75*
G03*
X179064484Y-99990000I1078608J-1672335D01*
G01*
X181378608Y-96757665D02*
G75*
G02*
X181535516Y-99990000I-1078608J-1672335D01*
G01*
X179220163Y-97388870D02*
G75*
G03*
X179220000Y-99470961I1079837J-1041130D01*
G01*
X181379837Y-97388870D02*
G75*
G02*
X181380000Y-99470961I-1079837J-1041130D01*
G01*
X171820000Y-65210000D02*
X171664000Y-65210000D01*
X174136000Y-65210000D02*
X173980000Y-65210000D01*
X171820163Y-67811130D02*
G75*
G02*
X171820000Y-65729039I1079837J1041130D01*
G01*
X173979837Y-67811130D02*
G75*
G03*
X173980000Y-65729039I-1079837J1041130D01*
G01*
X171821392Y-68442335D02*
G75*
G02*
X171664484Y-65210000I1078608J1672335D01*
G01*
X173978608Y-68442335D02*
G75*
G03*
X174135516Y-65210000I-1078608J1672335D01*
G01*
X198490000Y-60820000D02*
X198490000Y-60664000D01*
X198490000Y-63136000D02*
X198490000Y-62980000D01*
X195888870Y-60820163D02*
G75*
G02*
X197970961Y-60820000I1041130J-1079837D01*
G01*
X195888870Y-62979837D02*
G75*
G03*
X197970961Y-62980000I1041130J1079837D01*
G01*
X195257665Y-60821392D02*
G75*
G02*
X198490000Y-60664484I1672335J-1078608D01*
G01*
X195257665Y-62978608D02*
G75*
G03*
X198490000Y-63135516I1672335J1078608D01*
G01*
X176064000Y-118756000D02*
X173524000Y-118756000D01*
X176064000Y-111644000D02*
X173524000Y-111644000D01*
X176064000Y-111644000D02*
X176064000Y-118756000D01*
X173524000Y-118756000D02*
X173524000Y-111644000D01*
X238200000Y-51750000D02*
X242200000Y-51750000D01*
X242200000Y-51750000D02*
X242200000Y-40050000D01*
X242200000Y-40050000D02*
X238200000Y-40050000D01*
X238200000Y-40050000D02*
X238200000Y-51750000D01*
X233000000Y-39950000D02*
X233000000Y-51650000D01*
X237000000Y-39950000D02*
X233000000Y-39950000D01*
X237000000Y-51650000D02*
X237000000Y-39950000D01*
X233000000Y-51650000D02*
X237000000Y-51650000D01*
X254440000Y-65330000D02*
X254440000Y-62670000D01*
X231520000Y-65330000D02*
X254440000Y-65330000D01*
X231520000Y-62670000D02*
X254440000Y-62670000D01*
X231520000Y-65330000D02*
X231520000Y-62670000D01*
X230250000Y-65330000D02*
X228920000Y-65330000D01*
X228920000Y-65330000D02*
X228920000Y-64000000D01*
X254390000Y-61130000D02*
X254390000Y-58470000D01*
X231470000Y-61130000D02*
X254390000Y-61130000D01*
X231470000Y-58470000D02*
X254390000Y-58470000D01*
X231470000Y-61130000D02*
X231470000Y-58470000D01*
X230200000Y-61130000D02*
X228870000Y-61130000D01*
X228870000Y-61130000D02*
X228870000Y-59800000D01*
X254230000Y-53720000D02*
X254230000Y-55050000D01*
X252900000Y-53720000D02*
X254230000Y-53720000D01*
X251630000Y-53720000D02*
X251630000Y-56380000D01*
X251630000Y-56380000D02*
X228710000Y-56380000D01*
X251630000Y-53720000D02*
X228710000Y-53720000D01*
X228710000Y-53720000D02*
X228710000Y-56380000D01*
X223270000Y-60930000D02*
X225930000Y-60930000D01*
X223270000Y-60870000D02*
X223270000Y-60930000D01*
X225930000Y-60870000D02*
X225930000Y-60930000D01*
X223270000Y-60870000D02*
X225930000Y-60870000D01*
X223270000Y-59600000D02*
X223270000Y-58270000D01*
X223270000Y-58270000D02*
X224600000Y-58270000D01*
X223070000Y-56330000D02*
X225730000Y-56330000D01*
X223070000Y-56270000D02*
X223070000Y-56330000D01*
X225730000Y-56270000D02*
X225730000Y-56330000D01*
X223070000Y-56270000D02*
X225730000Y-56270000D01*
X223070000Y-55000000D02*
X223070000Y-53670000D01*
X223070000Y-53670000D02*
X224400000Y-53670000D01*
X211770000Y-57870000D02*
X213100000Y-57870000D01*
X211770000Y-59200000D02*
X211770000Y-57870000D01*
X211770000Y-60470000D02*
X214430000Y-60470000D01*
X214430000Y-60470000D02*
X214430000Y-60530000D01*
X211770000Y-60470000D02*
X211770000Y-60530000D01*
X211770000Y-60530000D02*
X214430000Y-60530000D01*
X157366000Y-119582000D02*
X157366000Y-102818000D01*
X157366000Y-102818000D02*
X168288000Y-102818000D01*
X168288000Y-102818000D02*
X168288000Y-119582000D01*
X168288000Y-119582000D02*
X157366000Y-119582000D01*
X158741210Y-112978000D02*
G75*
G03*
X158741210Y-112978000I-359210J0D01*
G01*
X228260000Y-87780000D02*
X228260000Y-77620000D01*
X228260000Y-77620000D02*
X233340000Y-77620000D01*
X233340000Y-77620000D02*
X233340000Y-87780000D01*
X233340000Y-87780000D02*
X228260000Y-87780000D01*
X229113499Y-87100000D02*
G75*
G03*
X229113499Y-87100000I-218499J0D01*
G01*
X229530000Y-77620000D02*
X229530000Y-87780000D01*
X240541000Y-122730000D02*
X240541000Y-124240000D01*
X236840000Y-122730000D02*
X236840000Y-124240000D01*
X233570000Y-124240000D02*
X243810000Y-124240000D01*
X243810000Y-122730000D02*
X243810000Y-127371000D01*
X233570000Y-122730000D02*
X233570000Y-127371000D01*
X233570000Y-127371000D02*
X243810000Y-127371000D01*
X233570000Y-122730000D02*
X243810000Y-122730000D01*
X236870000Y-105680000D02*
X247110000Y-105680000D01*
X236870000Y-110321000D02*
X247110000Y-110321000D01*
X236870000Y-105680000D02*
X236870000Y-110321000D01*
X247110000Y-105680000D02*
X247110000Y-110321000D01*
X236870000Y-107190000D02*
X247110000Y-107190000D01*
X240140000Y-105680000D02*
X240140000Y-107190000D01*
X243841000Y-105680000D02*
X243841000Y-107190000D01*
X243480000Y-91059000D02*
X244990000Y-91059000D01*
X243480000Y-94760000D02*
X244990000Y-94760000D01*
X244990000Y-98030000D02*
X244990000Y-87790000D01*
X243480000Y-87790000D02*
X248121000Y-87790000D01*
X243480000Y-98030000D02*
X248121000Y-98030000D01*
X248121000Y-98030000D02*
X248121000Y-87790000D01*
X243480000Y-98030000D02*
X243480000Y-87790000D01*
X247859000Y-128620000D02*
X247859000Y-127110000D01*
X251560000Y-128620000D02*
X251560000Y-127110000D01*
X254830000Y-127110000D02*
X244590000Y-127110000D01*
X244590000Y-128620000D02*
X244590000Y-123979000D01*
X254830000Y-128620000D02*
X254830000Y-123979000D01*
X254830000Y-123979000D02*
X244590000Y-123979000D01*
X254830000Y-128620000D02*
X244590000Y-128620000D01*
X240120000Y-73770000D02*
X240120000Y-84010000D01*
X235479000Y-73770000D02*
X235479000Y-84010000D01*
X240120000Y-73770000D02*
X235479000Y-73770000D01*
X240120000Y-84010000D02*
X235479000Y-84010000D01*
X238610000Y-73770000D02*
X238610000Y-84010000D01*
X240120000Y-77040000D02*
X238610000Y-77040000D01*
X240120000Y-80741000D02*
X238610000Y-80741000D01*
X246280000Y-84030000D02*
X246280000Y-73790000D01*
X250921000Y-84030000D02*
X250921000Y-73790000D01*
X246280000Y-84030000D02*
X250921000Y-84030000D01*
X246280000Y-73790000D02*
X250921000Y-73790000D01*
X247790000Y-84030000D02*
X247790000Y-73790000D01*
X246280000Y-80760000D02*
X247790000Y-80760000D01*
X246280000Y-77059000D02*
X247790000Y-77059000D01*
X167004000Y-62444000D02*
X169544000Y-62444000D01*
X167004000Y-69556000D02*
X169544000Y-69556000D01*
X167004000Y-69556000D02*
X167004000Y-62444000D01*
X169544000Y-62444000D02*
X169544000Y-69556000D01*
X167588357Y-67690000D02*
G75*
G03*
X167588357Y-67690000I-140357J0D01*
G01*
X194932843Y-66350000D02*
G75*
G03*
X194932843Y-66350000I-282843J0D01*
G01*
X194350000Y-69350000D02*
X198749999Y-69349999D01*
X194337277Y-69339954D02*
G75*
G02*
X198749999Y-69349999I2212723J2789954D01*
G01*
X219890000Y-125330000D02*
X219890000Y-127170000D01*
X219890000Y-127170000D02*
X223730000Y-127170000D01*
X223730000Y-127170000D02*
X223730000Y-125330000D01*
X223730000Y-125330000D02*
X219890000Y-125330000D01*
X218940000Y-126250000D02*
X219890000Y-126250000D01*
X224680000Y-126250000D02*
X223730000Y-126250000D01*
X183910000Y-118520000D02*
X183910000Y-116680000D01*
X183910000Y-116680000D02*
X180070000Y-116680000D01*
X180070000Y-116680000D02*
X180070000Y-118520000D01*
X180070000Y-118520000D02*
X183910000Y-118520000D01*
X184860000Y-117600000D02*
X183910000Y-117600000D01*
X179120000Y-117600000D02*
X180070000Y-117600000D01*
X237740000Y-111630000D02*
X237740000Y-113470000D01*
X237740000Y-113470000D02*
X241580000Y-113470000D01*
X241580000Y-113470000D02*
X241580000Y-111630000D01*
X241580000Y-111630000D02*
X237740000Y-111630000D01*
X236790000Y-112550000D02*
X237740000Y-112550000D01*
X242530000Y-112550000D02*
X241580000Y-112550000D01*
X168060000Y-77270000D02*
X168060000Y-75430000D01*
X168060000Y-75430000D02*
X164220000Y-75430000D01*
X164220000Y-75430000D02*
X164220000Y-77270000D01*
X164220000Y-77270000D02*
X168060000Y-77270000D01*
X169010000Y-76350000D02*
X168060000Y-76350000D01*
X163270000Y-76350000D02*
X164220000Y-76350000D01*
X167090000Y-89680000D02*
X167090000Y-91520000D01*
X167090000Y-91520000D02*
X170930000Y-91520000D01*
X170930000Y-91520000D02*
X170930000Y-89680000D01*
X170930000Y-89680000D02*
X167090000Y-89680000D01*
X166140000Y-90600000D02*
X167090000Y-90600000D01*
X171880000Y-90600000D02*
X170930000Y-90600000D01*
X185780000Y-110300000D02*
X184830000Y-110300000D01*
X180040000Y-110300000D02*
X180990000Y-110300000D01*
X184830000Y-109380000D02*
X180990000Y-109380000D01*
X184830000Y-111220000D02*
X184830000Y-109380000D01*
X180990000Y-111220000D02*
X184830000Y-111220000D01*
X180990000Y-109380000D02*
X180990000Y-111220000D01*
X236340000Y-96130000D02*
X236340000Y-97970000D01*
X236340000Y-97970000D02*
X240180000Y-97970000D01*
X240180000Y-97970000D02*
X240180000Y-96130000D01*
X240180000Y-96130000D02*
X236340000Y-96130000D01*
X235390000Y-97050000D02*
X236340000Y-97050000D01*
X241130000Y-97050000D02*
X240180000Y-97050000D01*
X246970000Y-120550000D02*
X247920000Y-120550000D01*
X252710000Y-120550000D02*
X251760000Y-120550000D01*
X247920000Y-121470000D02*
X251760000Y-121470000D01*
X247920000Y-119630000D02*
X247920000Y-121470000D01*
X251760000Y-119630000D02*
X247920000Y-119630000D01*
X251760000Y-121470000D02*
X251760000Y-119630000D01*
X240830000Y-68950000D02*
X239880000Y-68950000D01*
X235090000Y-68950000D02*
X236040000Y-68950000D01*
X239880000Y-68030000D02*
X236040000Y-68030000D01*
X239880000Y-69870000D02*
X239880000Y-68030000D01*
X236040000Y-69870000D02*
X239880000Y-69870000D01*
X236040000Y-68030000D02*
X236040000Y-69870000D01*
X170410000Y-87920000D02*
X170410000Y-86080000D01*
X170410000Y-86080000D02*
X166570000Y-86080000D01*
X166570000Y-86080000D02*
X166570000Y-87920000D01*
X166570000Y-87920000D02*
X170410000Y-87920000D01*
X171360000Y-87000000D02*
X170410000Y-87000000D01*
X165620000Y-87000000D02*
X166570000Y-87000000D01*
X242570000Y-77090000D02*
X240730000Y-77090000D01*
X240730000Y-77090000D02*
X240730000Y-80930000D01*
X240730000Y-80930000D02*
X242570000Y-80930000D01*
X242570000Y-80930000D02*
X242570000Y-77090000D01*
X241650000Y-76140000D02*
X241650000Y-77090000D01*
X241650000Y-81880000D02*
X241650000Y-80930000D01*
X176920000Y-93300000D02*
X177870000Y-93300000D01*
X182660000Y-93300000D02*
X181710000Y-93300000D01*
X177870000Y-94220000D02*
X181710000Y-94220000D01*
X177870000Y-92380000D02*
X177870000Y-94220000D01*
X181710000Y-92380000D02*
X177870000Y-92380000D01*
X181710000Y-94220000D02*
X181710000Y-92380000D01*
X170300000Y-113780000D02*
X170300000Y-112830000D01*
X170300000Y-108040000D02*
X170300000Y-108990000D01*
X171220000Y-112830000D02*
X171220000Y-108990000D01*
X169380000Y-112830000D02*
X171220000Y-112830000D01*
X169380000Y-108990000D02*
X169380000Y-112830000D01*
X171220000Y-108990000D02*
X169380000Y-108990000D01*
X207420000Y-54850000D02*
X208370000Y-54850000D01*
X213160000Y-54850000D02*
X212210000Y-54850000D01*
X208370000Y-55770000D02*
X212210000Y-55770000D01*
X208370000Y-53930000D02*
X208370000Y-55770000D01*
X212210000Y-53930000D02*
X208370000Y-53930000D01*
X212210000Y-55770000D02*
X212210000Y-53930000D01*
X164190000Y-80180000D02*
X164190000Y-82020000D01*
X164190000Y-82020000D02*
X168030000Y-82020000D01*
X168030000Y-82020000D02*
X168030000Y-80180000D01*
X168030000Y-80180000D02*
X164190000Y-80180000D01*
X163240000Y-81100000D02*
X164190000Y-81100000D01*
X168980000Y-81100000D02*
X168030000Y-81100000D01*
X169130000Y-84000000D02*
X168180000Y-84000000D01*
X163390000Y-84000000D02*
X164340000Y-84000000D01*
X168180000Y-83080000D02*
X164340000Y-83080000D01*
X168180000Y-84920000D02*
X168180000Y-83080000D01*
X164340000Y-84920000D02*
X168180000Y-84920000D01*
X164340000Y-83080000D02*
X164340000Y-84920000D01*
X185800000Y-102680000D02*
X185800000Y-101730000D01*
X185800000Y-96940000D02*
X185800000Y-97890000D01*
X186720000Y-101730000D02*
X186720000Y-97890000D01*
X184880000Y-101730000D02*
X186720000Y-101730000D01*
X184880000Y-97890000D02*
X184880000Y-101730000D01*
X186720000Y-97890000D02*
X184880000Y-97890000D01*
X159620000Y-82140000D02*
X157780000Y-82140000D01*
X157780000Y-82140000D02*
X157780000Y-85980000D01*
X157780000Y-85980000D02*
X159620000Y-85980000D01*
X159620000Y-85980000D02*
X159620000Y-82140000D01*
X158700000Y-81190000D02*
X158700000Y-82140000D01*
X158700000Y-86930000D02*
X158700000Y-85980000D01*
X188330000Y-61760000D02*
X190170000Y-61760000D01*
X190170000Y-61760000D02*
X190170000Y-57920000D01*
X190170000Y-57920000D02*
X188330000Y-57920000D01*
X188330000Y-57920000D02*
X188330000Y-61760000D01*
X189250000Y-62710000D02*
X189250000Y-61760000D01*
X189250000Y-56970000D02*
X189250000Y-57920000D01*
X224230000Y-73260000D02*
X226070000Y-73260000D01*
X226070000Y-73260000D02*
X226070000Y-69420000D01*
X226070000Y-69420000D02*
X224230000Y-69420000D01*
X224230000Y-69420000D02*
X224230000Y-73260000D01*
X225150000Y-74210000D02*
X225150000Y-73260000D01*
X225150000Y-68470000D02*
X225150000Y-69420000D01*
X198480000Y-55050000D02*
X197530000Y-55050000D01*
X192740000Y-55050000D02*
X193690000Y-55050000D01*
X197530000Y-54130000D02*
X193690000Y-54130000D01*
X197530000Y-55970000D02*
X197530000Y-54130000D01*
X193690000Y-55970000D02*
X197530000Y-55970000D01*
X193690000Y-54130000D02*
X193690000Y-55970000D01*
X202620000Y-71800000D02*
X203570000Y-71800000D01*
X208360000Y-71800000D02*
X207410000Y-71800000D01*
X203570000Y-72720000D02*
X207410000Y-72720000D01*
X203570000Y-70880000D02*
X203570000Y-72720000D01*
X207410000Y-70880000D02*
X203570000Y-70880000D01*
X207410000Y-72720000D02*
X207410000Y-70880000D01*
X185180000Y-62500000D02*
X184230000Y-62500000D01*
X179440000Y-62500000D02*
X180390000Y-62500000D01*
X184230000Y-61580000D02*
X180390000Y-61580000D01*
X184230000Y-63420000D02*
X184230000Y-61580000D01*
X180390000Y-63420000D02*
X184230000Y-63420000D01*
X180390000Y-61580000D02*
X180390000Y-63420000D01*
X249070000Y-69650000D02*
X250020000Y-69650000D01*
X254810000Y-69650000D02*
X253860000Y-69650000D01*
X250020000Y-70570000D02*
X253860000Y-70570000D01*
X250020000Y-68730000D02*
X250020000Y-70570000D01*
X253860000Y-68730000D02*
X250020000Y-68730000D01*
X253860000Y-70570000D02*
X253860000Y-68730000D01*
X165120000Y-71900000D02*
X166070000Y-71900000D01*
X170860000Y-71900000D02*
X169910000Y-71900000D01*
X166070000Y-72820000D02*
X169910000Y-72820000D01*
X166070000Y-70980000D02*
X166070000Y-72820000D01*
X169910000Y-70980000D02*
X166070000Y-70980000D01*
X169910000Y-72820000D02*
X169910000Y-70980000D01*
X180370000Y-66940000D02*
X178530000Y-66940000D01*
X178530000Y-66940000D02*
X178530000Y-70780000D01*
X178530000Y-70780000D02*
X180370000Y-70780000D01*
X180370000Y-70780000D02*
X180370000Y-66940000D01*
X179450000Y-65990000D02*
X179450000Y-66940000D01*
X179450000Y-71730000D02*
X179450000Y-70780000D01*
X167390000Y-92980000D02*
X167390000Y-94820000D01*
X167390000Y-94820000D02*
X171230000Y-94820000D01*
X171230000Y-94820000D02*
X171230000Y-92980000D01*
X171230000Y-92980000D02*
X167390000Y-92980000D01*
X166440000Y-93900000D02*
X167390000Y-93900000D01*
X172180000Y-93900000D02*
X171230000Y-93900000D01*
X170600000Y-103380000D02*
X170600000Y-102430000D01*
X170600000Y-97640000D02*
X170600000Y-98590000D01*
X171520000Y-102430000D02*
X171520000Y-98590000D01*
X169680000Y-102430000D02*
X171520000Y-102430000D01*
X169680000Y-98590000D02*
X169680000Y-102430000D01*
X171520000Y-98590000D02*
X169680000Y-98590000D01*
X252720000Y-88925000D02*
X252720000Y-79155000D01*
X259060000Y-88925000D02*
X259060000Y-79155000D01*
X252720000Y-88925000D02*
X259060000Y-88925000D01*
X252720000Y-79155000D02*
X259060000Y-79155000D01*
X210150000Y-88850000D02*
X233150000Y-88850000D01*
X233150000Y-88850000D02*
X233150000Y-124350000D01*
X233150000Y-124350000D02*
X210650000Y-124350000D01*
X210150000Y-88850000D02*
X210150000Y-124350000D01*
X210150000Y-124350000D02*
X210650000Y-124350000D01*
X214357107Y-89850000D02*
G75*
G03*
X214357107Y-89850000I-707107J0D01*
G01*
X227600000Y-51650000D02*
X231600000Y-51650000D01*
X231600000Y-51650000D02*
X231600000Y-39950000D01*
X231600000Y-39950000D02*
X227600000Y-39950000D01*
X223600000Y-39950000D02*
X219600000Y-39950000D01*
X219600000Y-39950000D02*
X219600000Y-51650000D01*
X219600000Y-51650000D02*
X223650000Y-51650000D01*
X223600000Y-51650000D02*
X227600000Y-51650000D01*
X227600000Y-51650000D02*
X227600000Y-39950000D01*
X227600000Y-39950000D02*
X223600000Y-39950000D01*
X223600000Y-39950000D02*
X223600000Y-51650000D01*
X192500000Y-51650000D02*
X188500000Y-51650000D01*
X192500000Y-39950000D02*
X192500000Y-51650000D01*
X184500000Y-39950000D02*
X192500000Y-39950000D01*
X184500000Y-51650000D02*
X184500000Y-39950000D01*
X188500000Y-51650000D02*
X184500000Y-51650000D01*
X188500000Y-51650000D02*
X188500000Y-39950000D01*
X214500000Y-51650000D02*
X218500000Y-51650000D01*
X218500000Y-51650000D02*
X218500000Y-39950000D01*
X218500000Y-39950000D02*
X214500000Y-39950000D01*
X210500000Y-39950000D02*
X206500000Y-39950000D01*
X206500000Y-39950000D02*
X206500000Y-51650000D01*
X206500000Y-51650000D02*
X210550000Y-51650000D01*
X210500000Y-51650000D02*
X214500000Y-51650000D01*
X214500000Y-51650000D02*
X214500000Y-39950000D01*
X214500000Y-39950000D02*
X210500000Y-39950000D01*
X210500000Y-39950000D02*
X210500000Y-51650000D01*
X220030000Y-67150000D02*
X216430000Y-67150000D01*
X220068478Y-67161522D02*
G75*
G02*
X218230000Y-71600000I-1838478J-1838478D01*
G01*
X216391522Y-67161522D02*
G75*
G03*
X218230000Y-71600000I1838478J-1838478D01*
G01*
X204410000Y-59170000D02*
X202760000Y-59170000D01*
X202760000Y-59170000D02*
X202760000Y-69450000D01*
X202760000Y-69450000D02*
X208060000Y-69450000D01*
X208060000Y-69450000D02*
X208060000Y-59170000D01*
X208060000Y-59170000D02*
X206410000Y-59170000D01*
X206410000Y-59170000D02*
G75*
G02*
X204410000Y-59170000I-1000000J0D01*
G01*
X197200000Y-39750000D02*
X197200000Y-51450000D01*
X201200000Y-39750000D02*
X197200000Y-39750000D01*
X201200000Y-51450000D02*
X201200000Y-39750000D01*
X197200000Y-51450000D02*
X201200000Y-51450000D01*
X193200000Y-51450000D02*
X197250000Y-51450000D01*
X193200000Y-39750000D02*
X193200000Y-51450000D01*
X197200000Y-39750000D02*
X193200000Y-39750000D01*
X205200000Y-39750000D02*
X201200000Y-39750000D01*
X205200000Y-51450000D02*
X205200000Y-39750000D01*
X201200000Y-51450000D02*
X205200000Y-51450000D01*
X246900000Y-40050000D02*
X246900000Y-51750000D01*
X250900000Y-40050000D02*
X246900000Y-40050000D01*
X250900000Y-51750000D02*
X250900000Y-40050000D01*
X246900000Y-51750000D02*
X250900000Y-51750000D01*
X242900000Y-51750000D02*
X246950000Y-51750000D01*
X242900000Y-40050000D02*
X242900000Y-51750000D01*
X246900000Y-40050000D02*
X242900000Y-40050000D01*
X254900000Y-40050000D02*
X250900000Y-40050000D01*
X254900000Y-51750000D02*
X254900000Y-40050000D01*
X250900000Y-51750000D02*
X254900000Y-51750000D01*
D10*
X193636000Y-116900000D02*
X193636000Y-118350000D01*
X193636000Y-118350000D02*
X201764000Y-118350000D01*
X201764000Y-118350000D02*
X201764000Y-116900000D01*
X188810000Y-73720000D02*
X206590000Y-73720000D01*
X188810000Y-116900000D02*
X206590000Y-116900000D01*
X206590000Y-73720000D02*
X206590000Y-116900000D01*
X188810000Y-73720000D02*
X188810000Y-116900000D01*
X184322380Y-69802857D02*
X183846190Y-70136190D01*
X184322380Y-70374285D02*
X183322380Y-70374285D01*
X183322380Y-69993333D01*
X183370000Y-69898095D01*
X183417619Y-69850476D01*
X183512857Y-69802857D01*
X183655714Y-69802857D01*
X183750952Y-69850476D01*
X183798571Y-69898095D01*
X183846190Y-69993333D01*
X183846190Y-70374285D01*
X183322380Y-69469523D02*
X183322380Y-68850476D01*
X183703333Y-69183809D01*
X183703333Y-69040952D01*
X183750952Y-68945714D01*
X183798571Y-68898095D01*
X183893809Y-68850476D01*
X184131904Y-68850476D01*
X184227142Y-68898095D01*
X184274761Y-68945714D01*
X184322380Y-69040952D01*
X184322380Y-69326666D01*
X184274761Y-69421904D01*
X184227142Y-69469523D01*
X183322380Y-68517142D02*
X183322380Y-67898095D01*
X183703333Y-68231428D01*
X183703333Y-68088571D01*
X183750952Y-67993333D01*
X183798571Y-67945714D01*
X183893809Y-67898095D01*
X184131904Y-67898095D01*
X184227142Y-67945714D01*
X184274761Y-67993333D01*
X184322380Y-68088571D01*
X184322380Y-68374285D01*
X184274761Y-68469523D01*
X184227142Y-68517142D01*
X227932380Y-71606666D02*
X227456190Y-71940000D01*
X227932380Y-72178095D02*
X226932380Y-72178095D01*
X226932380Y-71797142D01*
X226980000Y-71701904D01*
X227027619Y-71654285D01*
X227122857Y-71606666D01*
X227265714Y-71606666D01*
X227360952Y-71654285D01*
X227408571Y-71701904D01*
X227456190Y-71797142D01*
X227456190Y-72178095D01*
X227360952Y-71035238D02*
X227313333Y-71130476D01*
X227265714Y-71178095D01*
X227170476Y-71225714D01*
X227122857Y-71225714D01*
X227027619Y-71178095D01*
X226980000Y-71130476D01*
X226932380Y-71035238D01*
X226932380Y-70844761D01*
X226980000Y-70749523D01*
X227027619Y-70701904D01*
X227122857Y-70654285D01*
X227170476Y-70654285D01*
X227265714Y-70701904D01*
X227313333Y-70749523D01*
X227360952Y-70844761D01*
X227360952Y-71035238D01*
X227408571Y-71130476D01*
X227456190Y-71178095D01*
X227551428Y-71225714D01*
X227741904Y-71225714D01*
X227837142Y-71178095D01*
X227884761Y-71130476D01*
X227932380Y-71035238D01*
X227932380Y-70844761D01*
X227884761Y-70749523D01*
X227837142Y-70701904D01*
X227741904Y-70654285D01*
X227551428Y-70654285D01*
X227456190Y-70701904D01*
X227408571Y-70749523D01*
X227360952Y-70844761D01*
X256866666Y-123002380D02*
X256533333Y-122526190D01*
X256295238Y-123002380D02*
X256295238Y-122002380D01*
X256676190Y-122002380D01*
X256771428Y-122050000D01*
X256819047Y-122097619D01*
X256866666Y-122192857D01*
X256866666Y-122335714D01*
X256819047Y-122430952D01*
X256771428Y-122478571D01*
X256676190Y-122526190D01*
X256295238Y-122526190D01*
X257295238Y-122478571D02*
X257628571Y-122478571D01*
X257771428Y-123002380D02*
X257295238Y-123002380D01*
X257295238Y-122002380D01*
X257771428Y-122002380D01*
X258533333Y-122478571D02*
X258200000Y-122478571D01*
X258200000Y-123002380D02*
X258200000Y-122002380D01*
X258676190Y-122002380D01*
X259200000Y-122002380D02*
X259200000Y-122240476D01*
X258961904Y-122145238D02*
X259200000Y-122240476D01*
X259438095Y-122145238D01*
X259057142Y-122430952D02*
X259200000Y-122240476D01*
X259342857Y-122430952D01*
X259961904Y-122002380D02*
X259961904Y-122240476D01*
X259723809Y-122145238D02*
X259961904Y-122240476D01*
X260200000Y-122145238D01*
X259819047Y-122430952D02*
X259961904Y-122240476D01*
X260104761Y-122430952D01*
X156616666Y-122952380D02*
X156283333Y-122476190D01*
X156045238Y-122952380D02*
X156045238Y-121952380D01*
X156426190Y-121952380D01*
X156521428Y-122000000D01*
X156569047Y-122047619D01*
X156616666Y-122142857D01*
X156616666Y-122285714D01*
X156569047Y-122380952D01*
X156521428Y-122428571D01*
X156426190Y-122476190D01*
X156045238Y-122476190D01*
X157045238Y-122428571D02*
X157378571Y-122428571D01*
X157521428Y-122952380D02*
X157045238Y-122952380D01*
X157045238Y-121952380D01*
X157521428Y-121952380D01*
X158283333Y-122428571D02*
X157950000Y-122428571D01*
X157950000Y-122952380D02*
X157950000Y-121952380D01*
X158426190Y-121952380D01*
X158950000Y-121952380D02*
X158950000Y-122190476D01*
X158711904Y-122095238D02*
X158950000Y-122190476D01*
X159188095Y-122095238D01*
X158807142Y-122380952D02*
X158950000Y-122190476D01*
X159092857Y-122380952D01*
X159711904Y-121952380D02*
X159711904Y-122190476D01*
X159473809Y-122095238D02*
X159711904Y-122190476D01*
X159950000Y-122095238D01*
X159569047Y-122380952D02*
X159711904Y-122190476D01*
X159854761Y-122380952D01*
X156566666Y-31752380D02*
X156233333Y-31276190D01*
X155995238Y-31752380D02*
X155995238Y-30752380D01*
X156376190Y-30752380D01*
X156471428Y-30800000D01*
X156519047Y-30847619D01*
X156566666Y-30942857D01*
X156566666Y-31085714D01*
X156519047Y-31180952D01*
X156471428Y-31228571D01*
X156376190Y-31276190D01*
X155995238Y-31276190D01*
X156995238Y-31228571D02*
X157328571Y-31228571D01*
X157471428Y-31752380D02*
X156995238Y-31752380D01*
X156995238Y-30752380D01*
X157471428Y-30752380D01*
X158233333Y-31228571D02*
X157900000Y-31228571D01*
X157900000Y-31752380D02*
X157900000Y-30752380D01*
X158376190Y-30752380D01*
X158900000Y-30752380D02*
X158900000Y-30990476D01*
X158661904Y-30895238D02*
X158900000Y-30990476D01*
X159138095Y-30895238D01*
X158757142Y-31180952D02*
X158900000Y-30990476D01*
X159042857Y-31180952D01*
X159661904Y-30752380D02*
X159661904Y-30990476D01*
X159423809Y-30895238D02*
X159661904Y-30990476D01*
X159900000Y-30895238D01*
X159519047Y-31180952D02*
X159661904Y-30990476D01*
X159804761Y-31180952D01*
X256816666Y-31602380D02*
X256483333Y-31126190D01*
X256245238Y-31602380D02*
X256245238Y-30602380D01*
X256626190Y-30602380D01*
X256721428Y-30650000D01*
X256769047Y-30697619D01*
X256816666Y-30792857D01*
X256816666Y-30935714D01*
X256769047Y-31030952D01*
X256721428Y-31078571D01*
X256626190Y-31126190D01*
X256245238Y-31126190D01*
X257245238Y-31078571D02*
X257578571Y-31078571D01*
X257721428Y-31602380D02*
X257245238Y-31602380D01*
X257245238Y-30602380D01*
X257721428Y-30602380D01*
X258483333Y-31078571D02*
X258150000Y-31078571D01*
X258150000Y-31602380D02*
X258150000Y-30602380D01*
X258626190Y-30602380D01*
X259150000Y-30602380D02*
X259150000Y-30840476D01*
X258911904Y-30745238D02*
X259150000Y-30840476D01*
X259388095Y-30745238D01*
X259007142Y-31030952D02*
X259150000Y-30840476D01*
X259292857Y-31030952D01*
X259911904Y-30602380D02*
X259911904Y-30840476D01*
X259673809Y-30745238D02*
X259911904Y-30840476D01*
X260150000Y-30745238D01*
X259769047Y-31030952D02*
X259911904Y-30840476D01*
X260054761Y-31030952D01*
X185383333Y-112507142D02*
X185335714Y-112554761D01*
X185192857Y-112602380D01*
X185097619Y-112602380D01*
X184954761Y-112554761D01*
X184859523Y-112459523D01*
X184811904Y-112364285D01*
X184764285Y-112173809D01*
X184764285Y-112030952D01*
X184811904Y-111840476D01*
X184859523Y-111745238D01*
X184954761Y-111650000D01*
X185097619Y-111602380D01*
X185192857Y-111602380D01*
X185335714Y-111650000D01*
X185383333Y-111697619D01*
X186335714Y-112602380D02*
X185764285Y-112602380D01*
X186050000Y-112602380D02*
X186050000Y-111602380D01*
X185954761Y-111745238D01*
X185859523Y-111840476D01*
X185764285Y-111888095D01*
X165007142Y-94066666D02*
X165054761Y-94114285D01*
X165102380Y-94257142D01*
X165102380Y-94352380D01*
X165054761Y-94495238D01*
X164959523Y-94590476D01*
X164864285Y-94638095D01*
X164673809Y-94685714D01*
X164530952Y-94685714D01*
X164340476Y-94638095D01*
X164245238Y-94590476D01*
X164150000Y-94495238D01*
X164102380Y-94352380D01*
X164102380Y-94257142D01*
X164150000Y-94114285D01*
X164197619Y-94066666D01*
X164197619Y-93685714D02*
X164150000Y-93638095D01*
X164102380Y-93542857D01*
X164102380Y-93304761D01*
X164150000Y-93209523D01*
X164197619Y-93161904D01*
X164292857Y-93114285D01*
X164388095Y-93114285D01*
X164530952Y-93161904D01*
X165102380Y-93733333D01*
X165102380Y-93114285D01*
X235057142Y-118266666D02*
X235104761Y-118314285D01*
X235152380Y-118457142D01*
X235152380Y-118552380D01*
X235104761Y-118695238D01*
X235009523Y-118790476D01*
X234914285Y-118838095D01*
X234723809Y-118885714D01*
X234580952Y-118885714D01*
X234390476Y-118838095D01*
X234295238Y-118790476D01*
X234200000Y-118695238D01*
X234152380Y-118552380D01*
X234152380Y-118457142D01*
X234200000Y-118314285D01*
X234247619Y-118266666D01*
X234152380Y-117933333D02*
X234152380Y-117314285D01*
X234533333Y-117647619D01*
X234533333Y-117504761D01*
X234580952Y-117409523D01*
X234628571Y-117361904D01*
X234723809Y-117314285D01*
X234961904Y-117314285D01*
X235057142Y-117361904D01*
X235104761Y-117409523D01*
X235152380Y-117504761D01*
X235152380Y-117790476D01*
X235104761Y-117885714D01*
X235057142Y-117933333D01*
X234757142Y-101766666D02*
X234804761Y-101814285D01*
X234852380Y-101957142D01*
X234852380Y-102052380D01*
X234804761Y-102195238D01*
X234709523Y-102290476D01*
X234614285Y-102338095D01*
X234423809Y-102385714D01*
X234280952Y-102385714D01*
X234090476Y-102338095D01*
X233995238Y-102290476D01*
X233900000Y-102195238D01*
X233852380Y-102052380D01*
X233852380Y-101957142D01*
X233900000Y-101814285D01*
X233947619Y-101766666D01*
X234185714Y-100909523D02*
X234852380Y-100909523D01*
X233804761Y-101147619D02*
X234519047Y-101385714D01*
X234519047Y-100766666D01*
X234657142Y-92666666D02*
X234704761Y-92714285D01*
X234752380Y-92857142D01*
X234752380Y-92952380D01*
X234704761Y-93095238D01*
X234609523Y-93190476D01*
X234514285Y-93238095D01*
X234323809Y-93285714D01*
X234180952Y-93285714D01*
X233990476Y-93238095D01*
X233895238Y-93190476D01*
X233800000Y-93095238D01*
X233752380Y-92952380D01*
X233752380Y-92857142D01*
X233800000Y-92714285D01*
X233847619Y-92666666D01*
X233752380Y-91761904D02*
X233752380Y-92238095D01*
X234228571Y-92285714D01*
X234180952Y-92238095D01*
X234133333Y-92142857D01*
X234133333Y-91904761D01*
X234180952Y-91809523D01*
X234228571Y-91761904D01*
X234323809Y-91714285D01*
X234561904Y-91714285D01*
X234657142Y-91761904D01*
X234704761Y-91809523D01*
X234752380Y-91904761D01*
X234752380Y-92142857D01*
X234704761Y-92238095D01*
X234657142Y-92285714D01*
X186407142Y-67816666D02*
X186454761Y-67864285D01*
X186502380Y-68007142D01*
X186502380Y-68102380D01*
X186454761Y-68245238D01*
X186359523Y-68340476D01*
X186264285Y-68388095D01*
X186073809Y-68435714D01*
X185930952Y-68435714D01*
X185740476Y-68388095D01*
X185645238Y-68340476D01*
X185550000Y-68245238D01*
X185502380Y-68102380D01*
X185502380Y-68007142D01*
X185550000Y-67864285D01*
X185597619Y-67816666D01*
X185502380Y-66959523D02*
X185502380Y-67150000D01*
X185550000Y-67245238D01*
X185597619Y-67292857D01*
X185740476Y-67388095D01*
X185930952Y-67435714D01*
X186311904Y-67435714D01*
X186407142Y-67388095D01*
X186454761Y-67340476D01*
X186502380Y-67245238D01*
X186502380Y-67054761D01*
X186454761Y-66959523D01*
X186407142Y-66911904D01*
X186311904Y-66864285D01*
X186073809Y-66864285D01*
X185978571Y-66911904D01*
X185930952Y-66959523D01*
X185883333Y-67054761D01*
X185883333Y-67245238D01*
X185930952Y-67340476D01*
X185978571Y-67388095D01*
X186073809Y-67435714D01*
X214283333Y-72357142D02*
X214235714Y-72404761D01*
X214092857Y-72452380D01*
X213997619Y-72452380D01*
X213854761Y-72404761D01*
X213759523Y-72309523D01*
X213711904Y-72214285D01*
X213664285Y-72023809D01*
X213664285Y-71880952D01*
X213711904Y-71690476D01*
X213759523Y-71595238D01*
X213854761Y-71500000D01*
X213997619Y-71452380D01*
X214092857Y-71452380D01*
X214235714Y-71500000D01*
X214283333Y-71547619D01*
X214854761Y-71880952D02*
X214759523Y-71833333D01*
X214711904Y-71785714D01*
X214664285Y-71690476D01*
X214664285Y-71642857D01*
X214711904Y-71547619D01*
X214759523Y-71500000D01*
X214854761Y-71452380D01*
X215045238Y-71452380D01*
X215140476Y-71500000D01*
X215188095Y-71547619D01*
X215235714Y-71642857D01*
X215235714Y-71690476D01*
X215188095Y-71785714D01*
X215140476Y-71833333D01*
X215045238Y-71880952D01*
X214854761Y-71880952D01*
X214759523Y-71928571D01*
X214711904Y-71976190D01*
X214664285Y-72071428D01*
X214664285Y-72261904D01*
X214711904Y-72357142D01*
X214759523Y-72404761D01*
X214854761Y-72452380D01*
X215045238Y-72452380D01*
X215140476Y-72404761D01*
X215188095Y-72357142D01*
X215235714Y-72261904D01*
X215235714Y-72071428D01*
X215188095Y-71976190D01*
X215140476Y-71928571D01*
X215045238Y-71880952D01*
X216183333Y-61307142D02*
X216135714Y-61354761D01*
X215992857Y-61402380D01*
X215897619Y-61402380D01*
X215754761Y-61354761D01*
X215659523Y-61259523D01*
X215611904Y-61164285D01*
X215564285Y-60973809D01*
X215564285Y-60830952D01*
X215611904Y-60640476D01*
X215659523Y-60545238D01*
X215754761Y-60450000D01*
X215897619Y-60402380D01*
X215992857Y-60402380D01*
X216135714Y-60450000D01*
X216183333Y-60497619D01*
X216659523Y-61402380D02*
X216850000Y-61402380D01*
X216945238Y-61354761D01*
X216992857Y-61307142D01*
X217088095Y-61164285D01*
X217135714Y-60973809D01*
X217135714Y-60592857D01*
X217088095Y-60497619D01*
X217040476Y-60450000D01*
X216945238Y-60402380D01*
X216754761Y-60402380D01*
X216659523Y-60450000D01*
X216611904Y-60497619D01*
X216564285Y-60592857D01*
X216564285Y-60830952D01*
X216611904Y-60926190D01*
X216659523Y-60973809D01*
X216754761Y-61021428D01*
X216945238Y-61021428D01*
X217040476Y-60973809D01*
X217088095Y-60926190D01*
X217135714Y-60830952D01*
X186507142Y-82642857D02*
X186554761Y-82690476D01*
X186602380Y-82833333D01*
X186602380Y-82928571D01*
X186554761Y-83071428D01*
X186459523Y-83166666D01*
X186364285Y-83214285D01*
X186173809Y-83261904D01*
X186030952Y-83261904D01*
X185840476Y-83214285D01*
X185745238Y-83166666D01*
X185650000Y-83071428D01*
X185602380Y-82928571D01*
X185602380Y-82833333D01*
X185650000Y-82690476D01*
X185697619Y-82642857D01*
X186602380Y-81690476D02*
X186602380Y-82261904D01*
X186602380Y-81976190D02*
X185602380Y-81976190D01*
X185745238Y-82071428D01*
X185840476Y-82166666D01*
X185888095Y-82261904D01*
X185602380Y-81071428D02*
X185602380Y-80976190D01*
X185650000Y-80880952D01*
X185697619Y-80833333D01*
X185792857Y-80785714D01*
X185983333Y-80738095D01*
X186221428Y-80738095D01*
X186411904Y-80785714D01*
X186507142Y-80833333D01*
X186554761Y-80880952D01*
X186602380Y-80976190D01*
X186602380Y-81071428D01*
X186554761Y-81166666D01*
X186507142Y-81214285D01*
X186411904Y-81261904D01*
X186221428Y-81309523D01*
X185983333Y-81309523D01*
X185792857Y-81261904D01*
X185697619Y-81214285D01*
X185650000Y-81166666D01*
X185602380Y-81071428D01*
X178112380Y-103108095D02*
X177112380Y-103108095D01*
X177112380Y-102870000D01*
X177160000Y-102727142D01*
X177255238Y-102631904D01*
X177350476Y-102584285D01*
X177540952Y-102536666D01*
X177683809Y-102536666D01*
X177874285Y-102584285D01*
X177969523Y-102631904D01*
X178064761Y-102727142D01*
X178112380Y-102870000D01*
X178112380Y-103108095D01*
X178112380Y-101584285D02*
X178112380Y-102155714D01*
X178112380Y-101870000D02*
X177112380Y-101870000D01*
X177255238Y-101965238D01*
X177350476Y-102060476D01*
X177398095Y-102155714D01*
X175862380Y-110358095D02*
X174862380Y-110358095D01*
X174862380Y-110120000D01*
X174910000Y-109977142D01*
X175005238Y-109881904D01*
X175100476Y-109834285D01*
X175290952Y-109786666D01*
X175433809Y-109786666D01*
X175624285Y-109834285D01*
X175719523Y-109881904D01*
X175814761Y-109977142D01*
X175862380Y-110120000D01*
X175862380Y-110358095D01*
X174957619Y-109405714D02*
X174910000Y-109358095D01*
X174862380Y-109262857D01*
X174862380Y-109024761D01*
X174910000Y-108929523D01*
X174957619Y-108881904D01*
X175052857Y-108834285D01*
X175148095Y-108834285D01*
X175290952Y-108881904D01*
X175862380Y-109453333D01*
X175862380Y-108834285D01*
X253372380Y-103568095D02*
X252372380Y-103568095D01*
X252372380Y-103330000D01*
X252420000Y-103187142D01*
X252515238Y-103091904D01*
X252610476Y-103044285D01*
X252800952Y-102996666D01*
X252943809Y-102996666D01*
X253134285Y-103044285D01*
X253229523Y-103091904D01*
X253324761Y-103187142D01*
X253372380Y-103330000D01*
X253372380Y-103568095D01*
X252372380Y-102663333D02*
X252372380Y-102044285D01*
X252753333Y-102377619D01*
X252753333Y-102234761D01*
X252800952Y-102139523D01*
X252848571Y-102091904D01*
X252943809Y-102044285D01*
X253181904Y-102044285D01*
X253277142Y-102091904D01*
X253324761Y-102139523D01*
X253372380Y-102234761D01*
X253372380Y-102520476D01*
X253324761Y-102615714D01*
X253277142Y-102663333D01*
X253002380Y-98011904D02*
X252002380Y-98011904D01*
X253002380Y-97440476D02*
X252430952Y-97869047D01*
X252002380Y-97440476D02*
X252573809Y-98011904D01*
X160521904Y-98332380D02*
X160521904Y-97332380D01*
X160760000Y-97332380D01*
X160902857Y-97380000D01*
X160998095Y-97475238D01*
X161045714Y-97570476D01*
X161093333Y-97760952D01*
X161093333Y-97903809D01*
X161045714Y-98094285D01*
X160998095Y-98189523D01*
X160902857Y-98284761D01*
X160760000Y-98332380D01*
X160521904Y-98332380D01*
X161950476Y-97665714D02*
X161950476Y-98332380D01*
X161712380Y-97284761D02*
X161474285Y-97999047D01*
X162093333Y-97999047D01*
X158458095Y-98752380D02*
X158458095Y-97752380D01*
X159029523Y-98752380D02*
X158600952Y-98180952D01*
X159029523Y-97752380D02*
X158458095Y-98323809D01*
X258872380Y-98668095D02*
X257872380Y-98668095D01*
X257872380Y-98430000D01*
X257920000Y-98287142D01*
X258015238Y-98191904D01*
X258110476Y-98144285D01*
X258300952Y-98096666D01*
X258443809Y-98096666D01*
X258634285Y-98144285D01*
X258729523Y-98191904D01*
X258824761Y-98287142D01*
X258872380Y-98430000D01*
X258872380Y-98668095D01*
X257872380Y-97191904D02*
X257872380Y-97668095D01*
X258348571Y-97715714D01*
X258300952Y-97668095D01*
X258253333Y-97572857D01*
X258253333Y-97334761D01*
X258300952Y-97239523D01*
X258348571Y-97191904D01*
X258443809Y-97144285D01*
X258681904Y-97144285D01*
X258777142Y-97191904D01*
X258824761Y-97239523D01*
X258872380Y-97334761D01*
X258872380Y-97572857D01*
X258824761Y-97668095D01*
X258777142Y-97715714D01*
X258502380Y-93111904D02*
X257502380Y-93111904D01*
X258502380Y-92540476D02*
X257930952Y-92969047D01*
X257502380Y-92540476D02*
X258073809Y-93111904D01*
X250591904Y-114532380D02*
X250591904Y-113532380D01*
X250830000Y-113532380D01*
X250972857Y-113580000D01*
X251068095Y-113675238D01*
X251115714Y-113770476D01*
X251163333Y-113960952D01*
X251163333Y-114103809D01*
X251115714Y-114294285D01*
X251068095Y-114389523D01*
X250972857Y-114484761D01*
X250830000Y-114532380D01*
X250591904Y-114532380D01*
X252020476Y-113532380D02*
X251830000Y-113532380D01*
X251734761Y-113580000D01*
X251687142Y-113627619D01*
X251591904Y-113770476D01*
X251544285Y-113960952D01*
X251544285Y-114341904D01*
X251591904Y-114437142D01*
X251639523Y-114484761D01*
X251734761Y-114532380D01*
X251925238Y-114532380D01*
X252020476Y-114484761D01*
X252068095Y-114437142D01*
X252115714Y-114341904D01*
X252115714Y-114103809D01*
X252068095Y-114008571D01*
X252020476Y-113960952D01*
X251925238Y-113913333D01*
X251734761Y-113913333D01*
X251639523Y-113960952D01*
X251591904Y-114008571D01*
X251544285Y-114103809D01*
X245988095Y-114902380D02*
X245988095Y-113902380D01*
X246559523Y-114902380D02*
X246130952Y-114330952D01*
X246559523Y-113902380D02*
X245988095Y-114473809D01*
X223031904Y-77242380D02*
X223031904Y-76242380D01*
X223270000Y-76242380D01*
X223412857Y-76290000D01*
X223508095Y-76385238D01*
X223555714Y-76480476D01*
X223603333Y-76670952D01*
X223603333Y-76813809D01*
X223555714Y-77004285D01*
X223508095Y-77099523D01*
X223412857Y-77194761D01*
X223270000Y-77242380D01*
X223031904Y-77242380D01*
X223936666Y-76242380D02*
X224603333Y-76242380D01*
X224174761Y-77242380D01*
X177792380Y-99168095D02*
X176792380Y-99168095D01*
X176792380Y-98930000D01*
X176840000Y-98787142D01*
X176935238Y-98691904D01*
X177030476Y-98644285D01*
X177220952Y-98596666D01*
X177363809Y-98596666D01*
X177554285Y-98644285D01*
X177649523Y-98691904D01*
X177744761Y-98787142D01*
X177792380Y-98930000D01*
X177792380Y-99168095D01*
X177220952Y-98025238D02*
X177173333Y-98120476D01*
X177125714Y-98168095D01*
X177030476Y-98215714D01*
X176982857Y-98215714D01*
X176887619Y-98168095D01*
X176840000Y-98120476D01*
X176792380Y-98025238D01*
X176792380Y-97834761D01*
X176840000Y-97739523D01*
X176887619Y-97691904D01*
X176982857Y-97644285D01*
X177030476Y-97644285D01*
X177125714Y-97691904D01*
X177173333Y-97739523D01*
X177220952Y-97834761D01*
X177220952Y-98025238D01*
X177268571Y-98120476D01*
X177316190Y-98168095D01*
X177411428Y-98215714D01*
X177601904Y-98215714D01*
X177697142Y-98168095D01*
X177744761Y-98120476D01*
X177792380Y-98025238D01*
X177792380Y-97834761D01*
X177744761Y-97739523D01*
X177697142Y-97691904D01*
X177601904Y-97644285D01*
X177411428Y-97644285D01*
X177316190Y-97691904D01*
X177268571Y-97739523D01*
X177220952Y-97834761D01*
X176312380Y-67508095D02*
X175312380Y-67508095D01*
X175312380Y-67270000D01*
X175360000Y-67127142D01*
X175455238Y-67031904D01*
X175550476Y-66984285D01*
X175740952Y-66936666D01*
X175883809Y-66936666D01*
X176074285Y-66984285D01*
X176169523Y-67031904D01*
X176264761Y-67127142D01*
X176312380Y-67270000D01*
X176312380Y-67508095D01*
X176312380Y-66460476D02*
X176312380Y-66270000D01*
X176264761Y-66174761D01*
X176217142Y-66127142D01*
X176074285Y-66031904D01*
X175883809Y-65984285D01*
X175502857Y-65984285D01*
X175407619Y-66031904D01*
X175360000Y-66079523D01*
X175312380Y-66174761D01*
X175312380Y-66365238D01*
X175360000Y-66460476D01*
X175407619Y-66508095D01*
X175502857Y-66555714D01*
X175740952Y-66555714D01*
X175836190Y-66508095D01*
X175883809Y-66460476D01*
X175931428Y-66365238D01*
X175931428Y-66174761D01*
X175883809Y-66079523D01*
X175836190Y-66031904D01*
X175740952Y-65984285D01*
X195715714Y-65312380D02*
X195715714Y-64312380D01*
X195953809Y-64312380D01*
X196096666Y-64360000D01*
X196191904Y-64455238D01*
X196239523Y-64550476D01*
X196287142Y-64740952D01*
X196287142Y-64883809D01*
X196239523Y-65074285D01*
X196191904Y-65169523D01*
X196096666Y-65264761D01*
X195953809Y-65312380D01*
X195715714Y-65312380D01*
X197239523Y-65312380D02*
X196668095Y-65312380D01*
X196953809Y-65312380D02*
X196953809Y-64312380D01*
X196858571Y-64455238D01*
X196763333Y-64550476D01*
X196668095Y-64598095D01*
X197858571Y-64312380D02*
X197953809Y-64312380D01*
X198049047Y-64360000D01*
X198096666Y-64407619D01*
X198144285Y-64502857D01*
X198191904Y-64693333D01*
X198191904Y-64931428D01*
X198144285Y-65121904D01*
X198096666Y-65217142D01*
X198049047Y-65264761D01*
X197953809Y-65312380D01*
X197858571Y-65312380D01*
X197763333Y-65264761D01*
X197715714Y-65217142D01*
X197668095Y-65121904D01*
X197620476Y-64931428D01*
X197620476Y-64693333D01*
X197668095Y-64502857D01*
X197715714Y-64407619D01*
X197763333Y-64360000D01*
X197858571Y-64312380D01*
X171952380Y-116414285D02*
X170952380Y-116414285D01*
X170952380Y-116176190D01*
X171000000Y-116033333D01*
X171095238Y-115938095D01*
X171190476Y-115890476D01*
X171380952Y-115842857D01*
X171523809Y-115842857D01*
X171714285Y-115890476D01*
X171809523Y-115938095D01*
X171904761Y-116033333D01*
X171952380Y-116176190D01*
X171952380Y-116414285D01*
X171952380Y-114890476D02*
X171952380Y-115461904D01*
X171952380Y-115176190D02*
X170952380Y-115176190D01*
X171095238Y-115271428D01*
X171190476Y-115366666D01*
X171238095Y-115461904D01*
X171952380Y-113938095D02*
X171952380Y-114509523D01*
X171952380Y-114223809D02*
X170952380Y-114223809D01*
X171095238Y-114319047D01*
X171190476Y-114414285D01*
X171238095Y-114509523D01*
X239866666Y-35352380D02*
X239866666Y-36066666D01*
X239819047Y-36209523D01*
X239723809Y-36304761D01*
X239580952Y-36352380D01*
X239485714Y-36352380D01*
X240866666Y-36352380D02*
X240295238Y-36352380D01*
X240580952Y-36352380D02*
X240580952Y-35352380D01*
X240485714Y-35495238D01*
X240390476Y-35590476D01*
X240295238Y-35638095D01*
X236747619Y-34852380D02*
X236747619Y-33852380D01*
X237128571Y-33852380D01*
X237223809Y-33900000D01*
X237271428Y-33947619D01*
X237319047Y-34042857D01*
X237319047Y-34185714D01*
X237271428Y-34280952D01*
X237223809Y-34328571D01*
X237128571Y-34376190D01*
X236747619Y-34376190D01*
X237938095Y-33852380D02*
X238128571Y-33852380D01*
X238223809Y-33900000D01*
X238319047Y-33995238D01*
X238366666Y-34185714D01*
X238366666Y-34519047D01*
X238319047Y-34709523D01*
X238223809Y-34804761D01*
X238128571Y-34852380D01*
X237938095Y-34852380D01*
X237842857Y-34804761D01*
X237747619Y-34709523D01*
X237700000Y-34519047D01*
X237700000Y-34185714D01*
X237747619Y-33995238D01*
X237842857Y-33900000D01*
X237938095Y-33852380D01*
X238700000Y-33852380D02*
X238938095Y-34852380D01*
X239128571Y-34138095D01*
X239319047Y-34852380D01*
X239557142Y-33852380D01*
X239938095Y-34328571D02*
X240271428Y-34328571D01*
X240414285Y-34852380D02*
X239938095Y-34852380D01*
X239938095Y-33852380D01*
X240414285Y-33852380D01*
X241414285Y-34852380D02*
X241080952Y-34376190D01*
X240842857Y-34852380D02*
X240842857Y-33852380D01*
X241223809Y-33852380D01*
X241319047Y-33900000D01*
X241366666Y-33947619D01*
X241414285Y-34042857D01*
X241414285Y-34185714D01*
X241366666Y-34280952D01*
X241319047Y-34328571D01*
X241223809Y-34376190D01*
X240842857Y-34376190D01*
X242604761Y-34852380D02*
X242604761Y-33852380D01*
X243080952Y-34852380D02*
X243080952Y-33852380D01*
X243652380Y-34852380D01*
X243652380Y-33852380D01*
X234666666Y-35252380D02*
X234666666Y-35966666D01*
X234619047Y-36109523D01*
X234523809Y-36204761D01*
X234380952Y-36252380D01*
X234285714Y-36252380D01*
X235095238Y-35347619D02*
X235142857Y-35300000D01*
X235238095Y-35252380D01*
X235476190Y-35252380D01*
X235571428Y-35300000D01*
X235619047Y-35347619D01*
X235666666Y-35442857D01*
X235666666Y-35538095D01*
X235619047Y-35680952D01*
X235047619Y-36252380D01*
X235666666Y-36252380D01*
X231547619Y-34752380D02*
X231547619Y-33752380D01*
X231928571Y-33752380D01*
X232023809Y-33800000D01*
X232071428Y-33847619D01*
X232119047Y-33942857D01*
X232119047Y-34085714D01*
X232071428Y-34180952D01*
X232023809Y-34228571D01*
X231928571Y-34276190D01*
X231547619Y-34276190D01*
X232738095Y-33752380D02*
X232928571Y-33752380D01*
X233023809Y-33800000D01*
X233119047Y-33895238D01*
X233166666Y-34085714D01*
X233166666Y-34419047D01*
X233119047Y-34609523D01*
X233023809Y-34704761D01*
X232928571Y-34752380D01*
X232738095Y-34752380D01*
X232642857Y-34704761D01*
X232547619Y-34609523D01*
X232500000Y-34419047D01*
X232500000Y-34085714D01*
X232547619Y-33895238D01*
X232642857Y-33800000D01*
X232738095Y-33752380D01*
X233500000Y-33752380D02*
X233738095Y-34752380D01*
X233928571Y-34038095D01*
X234119047Y-34752380D01*
X234357142Y-33752380D01*
X234738095Y-34228571D02*
X235071428Y-34228571D01*
X235214285Y-34752380D02*
X234738095Y-34752380D01*
X234738095Y-33752380D01*
X235214285Y-33752380D01*
X236214285Y-34752380D02*
X235880952Y-34276190D01*
X235642857Y-34752380D02*
X235642857Y-33752380D01*
X236023809Y-33752380D01*
X236119047Y-33800000D01*
X236166666Y-33847619D01*
X236214285Y-33942857D01*
X236214285Y-34085714D01*
X236166666Y-34180952D01*
X236119047Y-34228571D01*
X236023809Y-34276190D01*
X235642857Y-34276190D01*
X237404761Y-34752380D02*
X237404761Y-33752380D01*
X237880952Y-34752380D02*
X237880952Y-33752380D01*
X238452380Y-34752380D01*
X238452380Y-33752380D01*
X227372380Y-64333333D02*
X228086666Y-64333333D01*
X228229523Y-64380952D01*
X228324761Y-64476190D01*
X228372380Y-64619047D01*
X228372380Y-64714285D01*
X227372380Y-63952380D02*
X227372380Y-63333333D01*
X227753333Y-63666666D01*
X227753333Y-63523809D01*
X227800952Y-63428571D01*
X227848571Y-63380952D01*
X227943809Y-63333333D01*
X228181904Y-63333333D01*
X228277142Y-63380952D01*
X228324761Y-63428571D01*
X228372380Y-63523809D01*
X228372380Y-63809523D01*
X228324761Y-63904761D01*
X228277142Y-63952380D01*
X227322380Y-60133333D02*
X228036666Y-60133333D01*
X228179523Y-60180952D01*
X228274761Y-60276190D01*
X228322380Y-60419047D01*
X228322380Y-60514285D01*
X227655714Y-59228571D02*
X228322380Y-59228571D01*
X227274761Y-59466666D02*
X227989047Y-59704761D01*
X227989047Y-59085714D01*
X254682380Y-55383333D02*
X255396666Y-55383333D01*
X255539523Y-55430952D01*
X255634761Y-55526190D01*
X255682380Y-55669047D01*
X255682380Y-55764285D01*
X254682380Y-54430952D02*
X254682380Y-54907142D01*
X255158571Y-54954761D01*
X255110952Y-54907142D01*
X255063333Y-54811904D01*
X255063333Y-54573809D01*
X255110952Y-54478571D01*
X255158571Y-54430952D01*
X255253809Y-54383333D01*
X255491904Y-54383333D01*
X255587142Y-54430952D01*
X255634761Y-54478571D01*
X255682380Y-54573809D01*
X255682380Y-54811904D01*
X255634761Y-54907142D01*
X255587142Y-54954761D01*
X224266666Y-56722380D02*
X224266666Y-57436666D01*
X224219047Y-57579523D01*
X224123809Y-57674761D01*
X223980952Y-57722380D01*
X223885714Y-57722380D01*
X225171428Y-56722380D02*
X224980952Y-56722380D01*
X224885714Y-56770000D01*
X224838095Y-56817619D01*
X224742857Y-56960476D01*
X224695238Y-57150952D01*
X224695238Y-57531904D01*
X224742857Y-57627142D01*
X224790476Y-57674761D01*
X224885714Y-57722380D01*
X225076190Y-57722380D01*
X225171428Y-57674761D01*
X225219047Y-57627142D01*
X225266666Y-57531904D01*
X225266666Y-57293809D01*
X225219047Y-57198571D01*
X225171428Y-57150952D01*
X225076190Y-57103333D01*
X224885714Y-57103333D01*
X224790476Y-57150952D01*
X224742857Y-57198571D01*
X224695238Y-57293809D01*
X224066666Y-52122380D02*
X224066666Y-52836666D01*
X224019047Y-52979523D01*
X223923809Y-53074761D01*
X223780952Y-53122380D01*
X223685714Y-53122380D01*
X224447619Y-52122380D02*
X225114285Y-52122380D01*
X224685714Y-53122380D01*
X212766666Y-56322380D02*
X212766666Y-57036666D01*
X212719047Y-57179523D01*
X212623809Y-57274761D01*
X212480952Y-57322380D01*
X212385714Y-57322380D01*
X213385714Y-56750952D02*
X213290476Y-56703333D01*
X213242857Y-56655714D01*
X213195238Y-56560476D01*
X213195238Y-56512857D01*
X213242857Y-56417619D01*
X213290476Y-56370000D01*
X213385714Y-56322380D01*
X213576190Y-56322380D01*
X213671428Y-56370000D01*
X213719047Y-56417619D01*
X213766666Y-56512857D01*
X213766666Y-56560476D01*
X213719047Y-56655714D01*
X213671428Y-56703333D01*
X213576190Y-56750952D01*
X213385714Y-56750952D01*
X213290476Y-56798571D01*
X213242857Y-56846190D01*
X213195238Y-56941428D01*
X213195238Y-57131904D01*
X213242857Y-57227142D01*
X213290476Y-57274761D01*
X213385714Y-57322380D01*
X213576190Y-57322380D01*
X213671428Y-57274761D01*
X213719047Y-57227142D01*
X213766666Y-57131904D01*
X213766666Y-56941428D01*
X213719047Y-56846190D01*
X213671428Y-56798571D01*
X213576190Y-56750952D01*
X163652380Y-111366666D02*
X163652380Y-111842857D01*
X162652380Y-111842857D01*
X163652380Y-110509523D02*
X163652380Y-111080952D01*
X163652380Y-110795238D02*
X162652380Y-110795238D01*
X162795238Y-110890476D01*
X162890476Y-110985714D01*
X162938095Y-111080952D01*
X234947619Y-82595238D02*
X234900000Y-82690476D01*
X234804761Y-82785714D01*
X234661904Y-82928571D01*
X234614285Y-83023809D01*
X234614285Y-83119047D01*
X234852380Y-83071428D02*
X234804761Y-83166666D01*
X234709523Y-83261904D01*
X234519047Y-83309523D01*
X234185714Y-83309523D01*
X233995238Y-83261904D01*
X233900000Y-83166666D01*
X233852380Y-83071428D01*
X233852380Y-82880952D01*
X233900000Y-82785714D01*
X233995238Y-82690476D01*
X234185714Y-82642857D01*
X234519047Y-82642857D01*
X234709523Y-82690476D01*
X234804761Y-82785714D01*
X234852380Y-82880952D01*
X234852380Y-83071428D01*
X234852380Y-81690476D02*
X234852380Y-82261904D01*
X234852380Y-81976190D02*
X233852380Y-81976190D01*
X233995238Y-82071428D01*
X234090476Y-82166666D01*
X234138095Y-82261904D01*
X238594761Y-122277619D02*
X238499523Y-122230000D01*
X238404285Y-122134761D01*
X238261428Y-121991904D01*
X238166190Y-121944285D01*
X238070952Y-121944285D01*
X238118571Y-122182380D02*
X238023333Y-122134761D01*
X237928095Y-122039523D01*
X237880476Y-121849047D01*
X237880476Y-121515714D01*
X237928095Y-121325238D01*
X238023333Y-121230000D01*
X238118571Y-121182380D01*
X238309047Y-121182380D01*
X238404285Y-121230000D01*
X238499523Y-121325238D01*
X238547142Y-121515714D01*
X238547142Y-121849047D01*
X238499523Y-122039523D01*
X238404285Y-122134761D01*
X238309047Y-122182380D01*
X238118571Y-122182380D01*
X238928095Y-121277619D02*
X238975714Y-121230000D01*
X239070952Y-121182380D01*
X239309047Y-121182380D01*
X239404285Y-121230000D01*
X239451904Y-121277619D01*
X239499523Y-121372857D01*
X239499523Y-121468095D01*
X239451904Y-121610952D01*
X238880476Y-122182380D01*
X239499523Y-122182380D01*
X241894761Y-105227619D02*
X241799523Y-105180000D01*
X241704285Y-105084761D01*
X241561428Y-104941904D01*
X241466190Y-104894285D01*
X241370952Y-104894285D01*
X241418571Y-105132380D02*
X241323333Y-105084761D01*
X241228095Y-104989523D01*
X241180476Y-104799047D01*
X241180476Y-104465714D01*
X241228095Y-104275238D01*
X241323333Y-104180000D01*
X241418571Y-104132380D01*
X241609047Y-104132380D01*
X241704285Y-104180000D01*
X241799523Y-104275238D01*
X241847142Y-104465714D01*
X241847142Y-104799047D01*
X241799523Y-104989523D01*
X241704285Y-105084761D01*
X241609047Y-105132380D01*
X241418571Y-105132380D01*
X242180476Y-104132380D02*
X242799523Y-104132380D01*
X242466190Y-104513333D01*
X242609047Y-104513333D01*
X242704285Y-104560952D01*
X242751904Y-104608571D01*
X242799523Y-104703809D01*
X242799523Y-104941904D01*
X242751904Y-105037142D01*
X242704285Y-105084761D01*
X242609047Y-105132380D01*
X242323333Y-105132380D01*
X242228095Y-105084761D01*
X242180476Y-105037142D01*
X243027619Y-93005238D02*
X242980000Y-93100476D01*
X242884761Y-93195714D01*
X242741904Y-93338571D01*
X242694285Y-93433809D01*
X242694285Y-93529047D01*
X242932380Y-93481428D02*
X242884761Y-93576666D01*
X242789523Y-93671904D01*
X242599047Y-93719523D01*
X242265714Y-93719523D01*
X242075238Y-93671904D01*
X241980000Y-93576666D01*
X241932380Y-93481428D01*
X241932380Y-93290952D01*
X241980000Y-93195714D01*
X242075238Y-93100476D01*
X242265714Y-93052857D01*
X242599047Y-93052857D01*
X242789523Y-93100476D01*
X242884761Y-93195714D01*
X242932380Y-93290952D01*
X242932380Y-93481428D01*
X242265714Y-92195714D02*
X242932380Y-92195714D01*
X241884761Y-92433809D02*
X242599047Y-92671904D01*
X242599047Y-92052857D01*
X249614761Y-130167619D02*
X249519523Y-130120000D01*
X249424285Y-130024761D01*
X249281428Y-129881904D01*
X249186190Y-129834285D01*
X249090952Y-129834285D01*
X249138571Y-130072380D02*
X249043333Y-130024761D01*
X248948095Y-129929523D01*
X248900476Y-129739047D01*
X248900476Y-129405714D01*
X248948095Y-129215238D01*
X249043333Y-129120000D01*
X249138571Y-129072380D01*
X249329047Y-129072380D01*
X249424285Y-129120000D01*
X249519523Y-129215238D01*
X249567142Y-129405714D01*
X249567142Y-129739047D01*
X249519523Y-129929523D01*
X249424285Y-130024761D01*
X249329047Y-130072380D01*
X249138571Y-130072380D01*
X250471904Y-129072380D02*
X249995714Y-129072380D01*
X249948095Y-129548571D01*
X249995714Y-129500952D01*
X250090952Y-129453333D01*
X250329047Y-129453333D01*
X250424285Y-129500952D01*
X250471904Y-129548571D01*
X250519523Y-129643809D01*
X250519523Y-129881904D01*
X250471904Y-129977142D01*
X250424285Y-130024761D01*
X250329047Y-130072380D01*
X250090952Y-130072380D01*
X249995714Y-130024761D01*
X249948095Y-129977142D01*
X241667619Y-78985238D02*
X241620000Y-79080476D01*
X241524761Y-79175714D01*
X241381904Y-79318571D01*
X241334285Y-79413809D01*
X241334285Y-79509047D01*
X241572380Y-79461428D02*
X241524761Y-79556666D01*
X241429523Y-79651904D01*
X241239047Y-79699523D01*
X240905714Y-79699523D01*
X240715238Y-79651904D01*
X240620000Y-79556666D01*
X240572380Y-79461428D01*
X240572380Y-79270952D01*
X240620000Y-79175714D01*
X240715238Y-79080476D01*
X240905714Y-79032857D01*
X241239047Y-79032857D01*
X241429523Y-79080476D01*
X241524761Y-79175714D01*
X241572380Y-79270952D01*
X241572380Y-79461428D01*
X240572380Y-78175714D02*
X240572380Y-78366190D01*
X240620000Y-78461428D01*
X240667619Y-78509047D01*
X240810476Y-78604285D01*
X241000952Y-78651904D01*
X241381904Y-78651904D01*
X241477142Y-78604285D01*
X241524761Y-78556666D01*
X241572380Y-78461428D01*
X241572380Y-78270952D01*
X241524761Y-78175714D01*
X241477142Y-78128095D01*
X241381904Y-78080476D01*
X241143809Y-78080476D01*
X241048571Y-78128095D01*
X241000952Y-78175714D01*
X240953333Y-78270952D01*
X240953333Y-78461428D01*
X241000952Y-78556666D01*
X241048571Y-78604285D01*
X241143809Y-78651904D01*
X245827619Y-79005238D02*
X245780000Y-79100476D01*
X245684761Y-79195714D01*
X245541904Y-79338571D01*
X245494285Y-79433809D01*
X245494285Y-79529047D01*
X245732380Y-79481428D02*
X245684761Y-79576666D01*
X245589523Y-79671904D01*
X245399047Y-79719523D01*
X245065714Y-79719523D01*
X244875238Y-79671904D01*
X244780000Y-79576666D01*
X244732380Y-79481428D01*
X244732380Y-79290952D01*
X244780000Y-79195714D01*
X244875238Y-79100476D01*
X245065714Y-79052857D01*
X245399047Y-79052857D01*
X245589523Y-79100476D01*
X245684761Y-79195714D01*
X245732380Y-79290952D01*
X245732380Y-79481428D01*
X244732380Y-78719523D02*
X244732380Y-78052857D01*
X245732380Y-78481428D01*
X172115619Y-66095238D02*
X172068000Y-66190476D01*
X171972761Y-66285714D01*
X171829904Y-66428571D01*
X171782285Y-66523809D01*
X171782285Y-66619047D01*
X172020380Y-66571428D02*
X171972761Y-66666666D01*
X171877523Y-66761904D01*
X171687047Y-66809523D01*
X171353714Y-66809523D01*
X171163238Y-66761904D01*
X171068000Y-66666666D01*
X171020380Y-66571428D01*
X171020380Y-66380952D01*
X171068000Y-66285714D01*
X171163238Y-66190476D01*
X171353714Y-66142857D01*
X171687047Y-66142857D01*
X171877523Y-66190476D01*
X171972761Y-66285714D01*
X172020380Y-66380952D01*
X172020380Y-66571428D01*
X171448952Y-65571428D02*
X171401333Y-65666666D01*
X171353714Y-65714285D01*
X171258476Y-65761904D01*
X171210857Y-65761904D01*
X171115619Y-65714285D01*
X171068000Y-65666666D01*
X171020380Y-65571428D01*
X171020380Y-65380952D01*
X171068000Y-65285714D01*
X171115619Y-65238095D01*
X171210857Y-65190476D01*
X171258476Y-65190476D01*
X171353714Y-65238095D01*
X171401333Y-65285714D01*
X171448952Y-65380952D01*
X171448952Y-65571428D01*
X171496571Y-65666666D01*
X171544190Y-65714285D01*
X171639428Y-65761904D01*
X171829904Y-65761904D01*
X171925142Y-65714285D01*
X171972761Y-65666666D01*
X172020380Y-65571428D01*
X172020380Y-65380952D01*
X171972761Y-65285714D01*
X171925142Y-65238095D01*
X171829904Y-65190476D01*
X171639428Y-65190476D01*
X171544190Y-65238095D01*
X171496571Y-65285714D01*
X171448952Y-65380952D01*
X196434761Y-77777619D02*
X196339523Y-77730000D01*
X196244285Y-77634761D01*
X196101428Y-77491904D01*
X196006190Y-77444285D01*
X195910952Y-77444285D01*
X195958571Y-77682380D02*
X195863333Y-77634761D01*
X195768095Y-77539523D01*
X195720476Y-77349047D01*
X195720476Y-77015714D01*
X195768095Y-76825238D01*
X195863333Y-76730000D01*
X195958571Y-76682380D01*
X196149047Y-76682380D01*
X196244285Y-76730000D01*
X196339523Y-76825238D01*
X196387142Y-77015714D01*
X196387142Y-77349047D01*
X196339523Y-77539523D01*
X196244285Y-77634761D01*
X196149047Y-77682380D01*
X195958571Y-77682380D01*
X196863333Y-77682380D02*
X197053809Y-77682380D01*
X197149047Y-77634761D01*
X197196666Y-77587142D01*
X197291904Y-77444285D01*
X197339523Y-77253809D01*
X197339523Y-76872857D01*
X197291904Y-76777619D01*
X197244285Y-76730000D01*
X197149047Y-76682380D01*
X196958571Y-76682380D01*
X196863333Y-76730000D01*
X196815714Y-76777619D01*
X196768095Y-76872857D01*
X196768095Y-77110952D01*
X196815714Y-77206190D01*
X196863333Y-77253809D01*
X196958571Y-77301428D01*
X197149047Y-77301428D01*
X197244285Y-77253809D01*
X197291904Y-77206190D01*
X197339523Y-77110952D01*
X221643333Y-124782380D02*
X221310000Y-124306190D01*
X221071904Y-124782380D02*
X221071904Y-123782380D01*
X221452857Y-123782380D01*
X221548095Y-123830000D01*
X221595714Y-123877619D01*
X221643333Y-123972857D01*
X221643333Y-124115714D01*
X221595714Y-124210952D01*
X221548095Y-124258571D01*
X221452857Y-124306190D01*
X221071904Y-124306190D01*
X222595714Y-124782380D02*
X222024285Y-124782380D01*
X222310000Y-124782380D02*
X222310000Y-123782380D01*
X222214761Y-123925238D01*
X222119523Y-124020476D01*
X222024285Y-124068095D01*
X181823333Y-119972380D02*
X181490000Y-119496190D01*
X181251904Y-119972380D02*
X181251904Y-118972380D01*
X181632857Y-118972380D01*
X181728095Y-119020000D01*
X181775714Y-119067619D01*
X181823333Y-119162857D01*
X181823333Y-119305714D01*
X181775714Y-119400952D01*
X181728095Y-119448571D01*
X181632857Y-119496190D01*
X181251904Y-119496190D01*
X182204285Y-119067619D02*
X182251904Y-119020000D01*
X182347142Y-118972380D01*
X182585238Y-118972380D01*
X182680476Y-119020000D01*
X182728095Y-119067619D01*
X182775714Y-119162857D01*
X182775714Y-119258095D01*
X182728095Y-119400952D01*
X182156666Y-119972380D01*
X182775714Y-119972380D01*
X239493333Y-111082380D02*
X239160000Y-110606190D01*
X238921904Y-111082380D02*
X238921904Y-110082380D01*
X239302857Y-110082380D01*
X239398095Y-110130000D01*
X239445714Y-110177619D01*
X239493333Y-110272857D01*
X239493333Y-110415714D01*
X239445714Y-110510952D01*
X239398095Y-110558571D01*
X239302857Y-110606190D01*
X238921904Y-110606190D01*
X239826666Y-110082380D02*
X240445714Y-110082380D01*
X240112380Y-110463333D01*
X240255238Y-110463333D01*
X240350476Y-110510952D01*
X240398095Y-110558571D01*
X240445714Y-110653809D01*
X240445714Y-110891904D01*
X240398095Y-110987142D01*
X240350476Y-111034761D01*
X240255238Y-111082380D01*
X239969523Y-111082380D01*
X239874285Y-111034761D01*
X239826666Y-110987142D01*
X165973333Y-78722380D02*
X165640000Y-78246190D01*
X165401904Y-78722380D02*
X165401904Y-77722380D01*
X165782857Y-77722380D01*
X165878095Y-77770000D01*
X165925714Y-77817619D01*
X165973333Y-77912857D01*
X165973333Y-78055714D01*
X165925714Y-78150952D01*
X165878095Y-78198571D01*
X165782857Y-78246190D01*
X165401904Y-78246190D01*
X166830476Y-78055714D02*
X166830476Y-78722380D01*
X166592380Y-77674761D02*
X166354285Y-78389047D01*
X166973333Y-78389047D01*
X168843333Y-89132380D02*
X168510000Y-88656190D01*
X168271904Y-89132380D02*
X168271904Y-88132380D01*
X168652857Y-88132380D01*
X168748095Y-88180000D01*
X168795714Y-88227619D01*
X168843333Y-88322857D01*
X168843333Y-88465714D01*
X168795714Y-88560952D01*
X168748095Y-88608571D01*
X168652857Y-88656190D01*
X168271904Y-88656190D01*
X169748095Y-88132380D02*
X169271904Y-88132380D01*
X169224285Y-88608571D01*
X169271904Y-88560952D01*
X169367142Y-88513333D01*
X169605238Y-88513333D01*
X169700476Y-88560952D01*
X169748095Y-88608571D01*
X169795714Y-88703809D01*
X169795714Y-88941904D01*
X169748095Y-89037142D01*
X169700476Y-89084761D01*
X169605238Y-89132380D01*
X169367142Y-89132380D01*
X169271904Y-89084761D01*
X169224285Y-89037142D01*
X182743333Y-108832380D02*
X182410000Y-108356190D01*
X182171904Y-108832380D02*
X182171904Y-107832380D01*
X182552857Y-107832380D01*
X182648095Y-107880000D01*
X182695714Y-107927619D01*
X182743333Y-108022857D01*
X182743333Y-108165714D01*
X182695714Y-108260952D01*
X182648095Y-108308571D01*
X182552857Y-108356190D01*
X182171904Y-108356190D01*
X183600476Y-107832380D02*
X183410000Y-107832380D01*
X183314761Y-107880000D01*
X183267142Y-107927619D01*
X183171904Y-108070476D01*
X183124285Y-108260952D01*
X183124285Y-108641904D01*
X183171904Y-108737142D01*
X183219523Y-108784761D01*
X183314761Y-108832380D01*
X183505238Y-108832380D01*
X183600476Y-108784761D01*
X183648095Y-108737142D01*
X183695714Y-108641904D01*
X183695714Y-108403809D01*
X183648095Y-108308571D01*
X183600476Y-108260952D01*
X183505238Y-108213333D01*
X183314761Y-108213333D01*
X183219523Y-108260952D01*
X183171904Y-108308571D01*
X183124285Y-108403809D01*
X238093333Y-95582380D02*
X237760000Y-95106190D01*
X237521904Y-95582380D02*
X237521904Y-94582380D01*
X237902857Y-94582380D01*
X237998095Y-94630000D01*
X238045714Y-94677619D01*
X238093333Y-94772857D01*
X238093333Y-94915714D01*
X238045714Y-95010952D01*
X237998095Y-95058571D01*
X237902857Y-95106190D01*
X237521904Y-95106190D01*
X238426666Y-94582380D02*
X239093333Y-94582380D01*
X238664761Y-95582380D01*
X249673333Y-122922380D02*
X249340000Y-122446190D01*
X249101904Y-122922380D02*
X249101904Y-121922380D01*
X249482857Y-121922380D01*
X249578095Y-121970000D01*
X249625714Y-122017619D01*
X249673333Y-122112857D01*
X249673333Y-122255714D01*
X249625714Y-122350952D01*
X249578095Y-122398571D01*
X249482857Y-122446190D01*
X249101904Y-122446190D01*
X250149523Y-122922380D02*
X250340000Y-122922380D01*
X250435238Y-122874761D01*
X250482857Y-122827142D01*
X250578095Y-122684285D01*
X250625714Y-122493809D01*
X250625714Y-122112857D01*
X250578095Y-122017619D01*
X250530476Y-121970000D01*
X250435238Y-121922380D01*
X250244761Y-121922380D01*
X250149523Y-121970000D01*
X250101904Y-122017619D01*
X250054285Y-122112857D01*
X250054285Y-122350952D01*
X250101904Y-122446190D01*
X250149523Y-122493809D01*
X250244761Y-122541428D01*
X250435238Y-122541428D01*
X250530476Y-122493809D01*
X250578095Y-122446190D01*
X250625714Y-122350952D01*
X237317142Y-67482380D02*
X236983809Y-67006190D01*
X236745714Y-67482380D02*
X236745714Y-66482380D01*
X237126666Y-66482380D01*
X237221904Y-66530000D01*
X237269523Y-66577619D01*
X237317142Y-66672857D01*
X237317142Y-66815714D01*
X237269523Y-66910952D01*
X237221904Y-66958571D01*
X237126666Y-67006190D01*
X236745714Y-67006190D01*
X238269523Y-67482380D02*
X237698095Y-67482380D01*
X237983809Y-67482380D02*
X237983809Y-66482380D01*
X237888571Y-66625238D01*
X237793333Y-66720476D01*
X237698095Y-66768095D01*
X238888571Y-66482380D02*
X238983809Y-66482380D01*
X239079047Y-66530000D01*
X239126666Y-66577619D01*
X239174285Y-66672857D01*
X239221904Y-66863333D01*
X239221904Y-67101428D01*
X239174285Y-67291904D01*
X239126666Y-67387142D01*
X239079047Y-67434761D01*
X238983809Y-67482380D01*
X238888571Y-67482380D01*
X238793333Y-67434761D01*
X238745714Y-67387142D01*
X238698095Y-67291904D01*
X238650476Y-67101428D01*
X238650476Y-66863333D01*
X238698095Y-66672857D01*
X238745714Y-66577619D01*
X238793333Y-66530000D01*
X238888571Y-66482380D01*
X167847142Y-89372380D02*
X167513809Y-88896190D01*
X167275714Y-89372380D02*
X167275714Y-88372380D01*
X167656666Y-88372380D01*
X167751904Y-88420000D01*
X167799523Y-88467619D01*
X167847142Y-88562857D01*
X167847142Y-88705714D01*
X167799523Y-88800952D01*
X167751904Y-88848571D01*
X167656666Y-88896190D01*
X167275714Y-88896190D01*
X168799523Y-89372380D02*
X168228095Y-89372380D01*
X168513809Y-89372380D02*
X168513809Y-88372380D01*
X168418571Y-88515238D01*
X168323333Y-88610476D01*
X168228095Y-88658095D01*
X169751904Y-89372380D02*
X169180476Y-89372380D01*
X169466190Y-89372380D02*
X169466190Y-88372380D01*
X169370952Y-88515238D01*
X169275714Y-88610476D01*
X169180476Y-88658095D01*
X244022380Y-79652857D02*
X243546190Y-79986190D01*
X244022380Y-80224285D02*
X243022380Y-80224285D01*
X243022380Y-79843333D01*
X243070000Y-79748095D01*
X243117619Y-79700476D01*
X243212857Y-79652857D01*
X243355714Y-79652857D01*
X243450952Y-79700476D01*
X243498571Y-79748095D01*
X243546190Y-79843333D01*
X243546190Y-80224285D01*
X244022380Y-78700476D02*
X244022380Y-79271904D01*
X244022380Y-78986190D02*
X243022380Y-78986190D01*
X243165238Y-79081428D01*
X243260476Y-79176666D01*
X243308095Y-79271904D01*
X243117619Y-78319523D02*
X243070000Y-78271904D01*
X243022380Y-78176666D01*
X243022380Y-77938571D01*
X243070000Y-77843333D01*
X243117619Y-77795714D01*
X243212857Y-77748095D01*
X243308095Y-77748095D01*
X243450952Y-77795714D01*
X244022380Y-78367142D01*
X244022380Y-77748095D01*
X179147142Y-95672380D02*
X178813809Y-95196190D01*
X178575714Y-95672380D02*
X178575714Y-94672380D01*
X178956666Y-94672380D01*
X179051904Y-94720000D01*
X179099523Y-94767619D01*
X179147142Y-94862857D01*
X179147142Y-95005714D01*
X179099523Y-95100952D01*
X179051904Y-95148571D01*
X178956666Y-95196190D01*
X178575714Y-95196190D01*
X180099523Y-95672380D02*
X179528095Y-95672380D01*
X179813809Y-95672380D02*
X179813809Y-94672380D01*
X179718571Y-94815238D01*
X179623333Y-94910476D01*
X179528095Y-94958095D01*
X180432857Y-94672380D02*
X181051904Y-94672380D01*
X180718571Y-95053333D01*
X180861428Y-95053333D01*
X180956666Y-95100952D01*
X181004285Y-95148571D01*
X181051904Y-95243809D01*
X181051904Y-95481904D01*
X181004285Y-95577142D01*
X180956666Y-95624761D01*
X180861428Y-95672380D01*
X180575714Y-95672380D01*
X180480476Y-95624761D01*
X180432857Y-95577142D01*
X172672380Y-111552857D02*
X172196190Y-111886190D01*
X172672380Y-112124285D02*
X171672380Y-112124285D01*
X171672380Y-111743333D01*
X171720000Y-111648095D01*
X171767619Y-111600476D01*
X171862857Y-111552857D01*
X172005714Y-111552857D01*
X172100952Y-111600476D01*
X172148571Y-111648095D01*
X172196190Y-111743333D01*
X172196190Y-112124285D01*
X172672380Y-110600476D02*
X172672380Y-111171904D01*
X172672380Y-110886190D02*
X171672380Y-110886190D01*
X171815238Y-110981428D01*
X171910476Y-111076666D01*
X171958095Y-111171904D01*
X171672380Y-109695714D02*
X171672380Y-110171904D01*
X172148571Y-110219523D01*
X172100952Y-110171904D01*
X172053333Y-110076666D01*
X172053333Y-109838571D01*
X172100952Y-109743333D01*
X172148571Y-109695714D01*
X172243809Y-109648095D01*
X172481904Y-109648095D01*
X172577142Y-109695714D01*
X172624761Y-109743333D01*
X172672380Y-109838571D01*
X172672380Y-110076666D01*
X172624761Y-110171904D01*
X172577142Y-110219523D01*
X209647142Y-57222380D02*
X209313809Y-56746190D01*
X209075714Y-57222380D02*
X209075714Y-56222380D01*
X209456666Y-56222380D01*
X209551904Y-56270000D01*
X209599523Y-56317619D01*
X209647142Y-56412857D01*
X209647142Y-56555714D01*
X209599523Y-56650952D01*
X209551904Y-56698571D01*
X209456666Y-56746190D01*
X209075714Y-56746190D01*
X210599523Y-57222380D02*
X210028095Y-57222380D01*
X210313809Y-57222380D02*
X210313809Y-56222380D01*
X210218571Y-56365238D01*
X210123333Y-56460476D01*
X210028095Y-56508095D01*
X211456666Y-56222380D02*
X211266190Y-56222380D01*
X211170952Y-56270000D01*
X211123333Y-56317619D01*
X211028095Y-56460476D01*
X210980476Y-56650952D01*
X210980476Y-57031904D01*
X211028095Y-57127142D01*
X211075714Y-57174761D01*
X211170952Y-57222380D01*
X211361428Y-57222380D01*
X211456666Y-57174761D01*
X211504285Y-57127142D01*
X211551904Y-57031904D01*
X211551904Y-56793809D01*
X211504285Y-56698571D01*
X211456666Y-56650952D01*
X211361428Y-56603333D01*
X211170952Y-56603333D01*
X211075714Y-56650952D01*
X211028095Y-56698571D01*
X210980476Y-56793809D01*
X165467142Y-79632380D02*
X165133809Y-79156190D01*
X164895714Y-79632380D02*
X164895714Y-78632380D01*
X165276666Y-78632380D01*
X165371904Y-78680000D01*
X165419523Y-78727619D01*
X165467142Y-78822857D01*
X165467142Y-78965714D01*
X165419523Y-79060952D01*
X165371904Y-79108571D01*
X165276666Y-79156190D01*
X164895714Y-79156190D01*
X166419523Y-79632380D02*
X165848095Y-79632380D01*
X166133809Y-79632380D02*
X166133809Y-78632380D01*
X166038571Y-78775238D01*
X165943333Y-78870476D01*
X165848095Y-78918095D01*
X166752857Y-78632380D02*
X167419523Y-78632380D01*
X166990952Y-79632380D01*
X165617142Y-82532380D02*
X165283809Y-82056190D01*
X165045714Y-82532380D02*
X165045714Y-81532380D01*
X165426666Y-81532380D01*
X165521904Y-81580000D01*
X165569523Y-81627619D01*
X165617142Y-81722857D01*
X165617142Y-81865714D01*
X165569523Y-81960952D01*
X165521904Y-82008571D01*
X165426666Y-82056190D01*
X165045714Y-82056190D01*
X166569523Y-82532380D02*
X165998095Y-82532380D01*
X166283809Y-82532380D02*
X166283809Y-81532380D01*
X166188571Y-81675238D01*
X166093333Y-81770476D01*
X165998095Y-81818095D01*
X167140952Y-81960952D02*
X167045714Y-81913333D01*
X166998095Y-81865714D01*
X166950476Y-81770476D01*
X166950476Y-81722857D01*
X166998095Y-81627619D01*
X167045714Y-81580000D01*
X167140952Y-81532380D01*
X167331428Y-81532380D01*
X167426666Y-81580000D01*
X167474285Y-81627619D01*
X167521904Y-81722857D01*
X167521904Y-81770476D01*
X167474285Y-81865714D01*
X167426666Y-81913333D01*
X167331428Y-81960952D01*
X167140952Y-81960952D01*
X167045714Y-82008571D01*
X166998095Y-82056190D01*
X166950476Y-82151428D01*
X166950476Y-82341904D01*
X166998095Y-82437142D01*
X167045714Y-82484761D01*
X167140952Y-82532380D01*
X167331428Y-82532380D01*
X167426666Y-82484761D01*
X167474285Y-82437142D01*
X167521904Y-82341904D01*
X167521904Y-82151428D01*
X167474285Y-82056190D01*
X167426666Y-82008571D01*
X167331428Y-81960952D01*
X188172380Y-100452857D02*
X187696190Y-100786190D01*
X188172380Y-101024285D02*
X187172380Y-101024285D01*
X187172380Y-100643333D01*
X187220000Y-100548095D01*
X187267619Y-100500476D01*
X187362857Y-100452857D01*
X187505714Y-100452857D01*
X187600952Y-100500476D01*
X187648571Y-100548095D01*
X187696190Y-100643333D01*
X187696190Y-101024285D01*
X188172380Y-99500476D02*
X188172380Y-100071904D01*
X188172380Y-99786190D02*
X187172380Y-99786190D01*
X187315238Y-99881428D01*
X187410476Y-99976666D01*
X187458095Y-100071904D01*
X188172380Y-99024285D02*
X188172380Y-98833809D01*
X188124761Y-98738571D01*
X188077142Y-98690952D01*
X187934285Y-98595714D01*
X187743809Y-98548095D01*
X187362857Y-98548095D01*
X187267619Y-98595714D01*
X187220000Y-98643333D01*
X187172380Y-98738571D01*
X187172380Y-98929047D01*
X187220000Y-99024285D01*
X187267619Y-99071904D01*
X187362857Y-99119523D01*
X187600952Y-99119523D01*
X187696190Y-99071904D01*
X187743809Y-99024285D01*
X187791428Y-98929047D01*
X187791428Y-98738571D01*
X187743809Y-98643333D01*
X187696190Y-98595714D01*
X187600952Y-98548095D01*
X161072380Y-84702857D02*
X160596190Y-85036190D01*
X161072380Y-85274285D02*
X160072380Y-85274285D01*
X160072380Y-84893333D01*
X160120000Y-84798095D01*
X160167619Y-84750476D01*
X160262857Y-84702857D01*
X160405714Y-84702857D01*
X160500952Y-84750476D01*
X160548571Y-84798095D01*
X160596190Y-84893333D01*
X160596190Y-85274285D01*
X160167619Y-84321904D02*
X160120000Y-84274285D01*
X160072380Y-84179047D01*
X160072380Y-83940952D01*
X160120000Y-83845714D01*
X160167619Y-83798095D01*
X160262857Y-83750476D01*
X160358095Y-83750476D01*
X160500952Y-83798095D01*
X161072380Y-84369523D01*
X161072380Y-83750476D01*
X160072380Y-83131428D02*
X160072380Y-83036190D01*
X160120000Y-82940952D01*
X160167619Y-82893333D01*
X160262857Y-82845714D01*
X160453333Y-82798095D01*
X160691428Y-82798095D01*
X160881904Y-82845714D01*
X160977142Y-82893333D01*
X161024761Y-82940952D01*
X161072380Y-83036190D01*
X161072380Y-83131428D01*
X161024761Y-83226666D01*
X160977142Y-83274285D01*
X160881904Y-83321904D01*
X160691428Y-83369523D01*
X160453333Y-83369523D01*
X160262857Y-83321904D01*
X160167619Y-83274285D01*
X160120000Y-83226666D01*
X160072380Y-83131428D01*
X187782380Y-60482857D02*
X187306190Y-60816190D01*
X187782380Y-61054285D02*
X186782380Y-61054285D01*
X186782380Y-60673333D01*
X186830000Y-60578095D01*
X186877619Y-60530476D01*
X186972857Y-60482857D01*
X187115714Y-60482857D01*
X187210952Y-60530476D01*
X187258571Y-60578095D01*
X187306190Y-60673333D01*
X187306190Y-61054285D01*
X186877619Y-60101904D02*
X186830000Y-60054285D01*
X186782380Y-59959047D01*
X186782380Y-59720952D01*
X186830000Y-59625714D01*
X186877619Y-59578095D01*
X186972857Y-59530476D01*
X187068095Y-59530476D01*
X187210952Y-59578095D01*
X187782380Y-60149523D01*
X187782380Y-59530476D01*
X187782380Y-58578095D02*
X187782380Y-59149523D01*
X187782380Y-58863809D02*
X186782380Y-58863809D01*
X186925238Y-58959047D01*
X187020476Y-59054285D01*
X187068095Y-59149523D01*
X223682380Y-71982857D02*
X223206190Y-72316190D01*
X223682380Y-72554285D02*
X222682380Y-72554285D01*
X222682380Y-72173333D01*
X222730000Y-72078095D01*
X222777619Y-72030476D01*
X222872857Y-71982857D01*
X223015714Y-71982857D01*
X223110952Y-72030476D01*
X223158571Y-72078095D01*
X223206190Y-72173333D01*
X223206190Y-72554285D01*
X222777619Y-71601904D02*
X222730000Y-71554285D01*
X222682380Y-71459047D01*
X222682380Y-71220952D01*
X222730000Y-71125714D01*
X222777619Y-71078095D01*
X222872857Y-71030476D01*
X222968095Y-71030476D01*
X223110952Y-71078095D01*
X223682380Y-71649523D01*
X223682380Y-71030476D01*
X222777619Y-70649523D02*
X222730000Y-70601904D01*
X222682380Y-70506666D01*
X222682380Y-70268571D01*
X222730000Y-70173333D01*
X222777619Y-70125714D01*
X222872857Y-70078095D01*
X222968095Y-70078095D01*
X223110952Y-70125714D01*
X223682380Y-70697142D01*
X223682380Y-70078095D01*
X194967142Y-53582380D02*
X194633809Y-53106190D01*
X194395714Y-53582380D02*
X194395714Y-52582380D01*
X194776666Y-52582380D01*
X194871904Y-52630000D01*
X194919523Y-52677619D01*
X194967142Y-52772857D01*
X194967142Y-52915714D01*
X194919523Y-53010952D01*
X194871904Y-53058571D01*
X194776666Y-53106190D01*
X194395714Y-53106190D01*
X195348095Y-52677619D02*
X195395714Y-52630000D01*
X195490952Y-52582380D01*
X195729047Y-52582380D01*
X195824285Y-52630000D01*
X195871904Y-52677619D01*
X195919523Y-52772857D01*
X195919523Y-52868095D01*
X195871904Y-53010952D01*
X195300476Y-53582380D01*
X195919523Y-53582380D01*
X196252857Y-52582380D02*
X196871904Y-52582380D01*
X196538571Y-52963333D01*
X196681428Y-52963333D01*
X196776666Y-53010952D01*
X196824285Y-53058571D01*
X196871904Y-53153809D01*
X196871904Y-53391904D01*
X196824285Y-53487142D01*
X196776666Y-53534761D01*
X196681428Y-53582380D01*
X196395714Y-53582380D01*
X196300476Y-53534761D01*
X196252857Y-53487142D01*
X204847142Y-74172380D02*
X204513809Y-73696190D01*
X204275714Y-74172380D02*
X204275714Y-73172380D01*
X204656666Y-73172380D01*
X204751904Y-73220000D01*
X204799523Y-73267619D01*
X204847142Y-73362857D01*
X204847142Y-73505714D01*
X204799523Y-73600952D01*
X204751904Y-73648571D01*
X204656666Y-73696190D01*
X204275714Y-73696190D01*
X205228095Y-73267619D02*
X205275714Y-73220000D01*
X205370952Y-73172380D01*
X205609047Y-73172380D01*
X205704285Y-73220000D01*
X205751904Y-73267619D01*
X205799523Y-73362857D01*
X205799523Y-73458095D01*
X205751904Y-73600952D01*
X205180476Y-74172380D01*
X205799523Y-74172380D01*
X206656666Y-73505714D02*
X206656666Y-74172380D01*
X206418571Y-73124761D02*
X206180476Y-73839047D01*
X206799523Y-73839047D01*
X181667142Y-61032380D02*
X181333809Y-60556190D01*
X181095714Y-61032380D02*
X181095714Y-60032380D01*
X181476666Y-60032380D01*
X181571904Y-60080000D01*
X181619523Y-60127619D01*
X181667142Y-60222857D01*
X181667142Y-60365714D01*
X181619523Y-60460952D01*
X181571904Y-60508571D01*
X181476666Y-60556190D01*
X181095714Y-60556190D01*
X182048095Y-60127619D02*
X182095714Y-60080000D01*
X182190952Y-60032380D01*
X182429047Y-60032380D01*
X182524285Y-60080000D01*
X182571904Y-60127619D01*
X182619523Y-60222857D01*
X182619523Y-60318095D01*
X182571904Y-60460952D01*
X182000476Y-61032380D01*
X182619523Y-61032380D01*
X183524285Y-60032380D02*
X183048095Y-60032380D01*
X183000476Y-60508571D01*
X183048095Y-60460952D01*
X183143333Y-60413333D01*
X183381428Y-60413333D01*
X183476666Y-60460952D01*
X183524285Y-60508571D01*
X183571904Y-60603809D01*
X183571904Y-60841904D01*
X183524285Y-60937142D01*
X183476666Y-60984761D01*
X183381428Y-61032380D01*
X183143333Y-61032380D01*
X183048095Y-60984761D01*
X183000476Y-60937142D01*
X251297142Y-72022380D02*
X250963809Y-71546190D01*
X250725714Y-72022380D02*
X250725714Y-71022380D01*
X251106666Y-71022380D01*
X251201904Y-71070000D01*
X251249523Y-71117619D01*
X251297142Y-71212857D01*
X251297142Y-71355714D01*
X251249523Y-71450952D01*
X251201904Y-71498571D01*
X251106666Y-71546190D01*
X250725714Y-71546190D01*
X251678095Y-71117619D02*
X251725714Y-71070000D01*
X251820952Y-71022380D01*
X252059047Y-71022380D01*
X252154285Y-71070000D01*
X252201904Y-71117619D01*
X252249523Y-71212857D01*
X252249523Y-71308095D01*
X252201904Y-71450952D01*
X251630476Y-72022380D01*
X252249523Y-72022380D01*
X253106666Y-71022380D02*
X252916190Y-71022380D01*
X252820952Y-71070000D01*
X252773333Y-71117619D01*
X252678095Y-71260476D01*
X252630476Y-71450952D01*
X252630476Y-71831904D01*
X252678095Y-71927142D01*
X252725714Y-71974761D01*
X252820952Y-72022380D01*
X253011428Y-72022380D01*
X253106666Y-71974761D01*
X253154285Y-71927142D01*
X253201904Y-71831904D01*
X253201904Y-71593809D01*
X253154285Y-71498571D01*
X253106666Y-71450952D01*
X253011428Y-71403333D01*
X252820952Y-71403333D01*
X252725714Y-71450952D01*
X252678095Y-71498571D01*
X252630476Y-71593809D01*
X167347142Y-74272380D02*
X167013809Y-73796190D01*
X166775714Y-74272380D02*
X166775714Y-73272380D01*
X167156666Y-73272380D01*
X167251904Y-73320000D01*
X167299523Y-73367619D01*
X167347142Y-73462857D01*
X167347142Y-73605714D01*
X167299523Y-73700952D01*
X167251904Y-73748571D01*
X167156666Y-73796190D01*
X166775714Y-73796190D01*
X167728095Y-73367619D02*
X167775714Y-73320000D01*
X167870952Y-73272380D01*
X168109047Y-73272380D01*
X168204285Y-73320000D01*
X168251904Y-73367619D01*
X168299523Y-73462857D01*
X168299523Y-73558095D01*
X168251904Y-73700952D01*
X167680476Y-74272380D01*
X168299523Y-74272380D01*
X168632857Y-73272380D02*
X169299523Y-73272380D01*
X168870952Y-74272380D01*
X181822380Y-69502857D02*
X181346190Y-69836190D01*
X181822380Y-70074285D02*
X180822380Y-70074285D01*
X180822380Y-69693333D01*
X180870000Y-69598095D01*
X180917619Y-69550476D01*
X181012857Y-69502857D01*
X181155714Y-69502857D01*
X181250952Y-69550476D01*
X181298571Y-69598095D01*
X181346190Y-69693333D01*
X181346190Y-70074285D01*
X180917619Y-69121904D02*
X180870000Y-69074285D01*
X180822380Y-68979047D01*
X180822380Y-68740952D01*
X180870000Y-68645714D01*
X180917619Y-68598095D01*
X181012857Y-68550476D01*
X181108095Y-68550476D01*
X181250952Y-68598095D01*
X181822380Y-69169523D01*
X181822380Y-68550476D01*
X181822380Y-68074285D02*
X181822380Y-67883809D01*
X181774761Y-67788571D01*
X181727142Y-67740952D01*
X181584285Y-67645714D01*
X181393809Y-67598095D01*
X181012857Y-67598095D01*
X180917619Y-67645714D01*
X180870000Y-67693333D01*
X180822380Y-67788571D01*
X180822380Y-67979047D01*
X180870000Y-68074285D01*
X180917619Y-68121904D01*
X181012857Y-68169523D01*
X181250952Y-68169523D01*
X181346190Y-68121904D01*
X181393809Y-68074285D01*
X181441428Y-67979047D01*
X181441428Y-67788571D01*
X181393809Y-67693333D01*
X181346190Y-67645714D01*
X181250952Y-67598095D01*
X168667142Y-92432380D02*
X168333809Y-91956190D01*
X168095714Y-92432380D02*
X168095714Y-91432380D01*
X168476666Y-91432380D01*
X168571904Y-91480000D01*
X168619523Y-91527619D01*
X168667142Y-91622857D01*
X168667142Y-91765714D01*
X168619523Y-91860952D01*
X168571904Y-91908571D01*
X168476666Y-91956190D01*
X168095714Y-91956190D01*
X169000476Y-91432380D02*
X169619523Y-91432380D01*
X169286190Y-91813333D01*
X169429047Y-91813333D01*
X169524285Y-91860952D01*
X169571904Y-91908571D01*
X169619523Y-92003809D01*
X169619523Y-92241904D01*
X169571904Y-92337142D01*
X169524285Y-92384761D01*
X169429047Y-92432380D01*
X169143333Y-92432380D01*
X169048095Y-92384761D01*
X169000476Y-92337142D01*
X170238571Y-91432380D02*
X170333809Y-91432380D01*
X170429047Y-91480000D01*
X170476666Y-91527619D01*
X170524285Y-91622857D01*
X170571904Y-91813333D01*
X170571904Y-92051428D01*
X170524285Y-92241904D01*
X170476666Y-92337142D01*
X170429047Y-92384761D01*
X170333809Y-92432380D01*
X170238571Y-92432380D01*
X170143333Y-92384761D01*
X170095714Y-92337142D01*
X170048095Y-92241904D01*
X170000476Y-92051428D01*
X170000476Y-91813333D01*
X170048095Y-91622857D01*
X170095714Y-91527619D01*
X170143333Y-91480000D01*
X170238571Y-91432380D01*
X172972380Y-101152857D02*
X172496190Y-101486190D01*
X172972380Y-101724285D02*
X171972380Y-101724285D01*
X171972380Y-101343333D01*
X172020000Y-101248095D01*
X172067619Y-101200476D01*
X172162857Y-101152857D01*
X172305714Y-101152857D01*
X172400952Y-101200476D01*
X172448571Y-101248095D01*
X172496190Y-101343333D01*
X172496190Y-101724285D01*
X171972380Y-100819523D02*
X171972380Y-100200476D01*
X172353333Y-100533809D01*
X172353333Y-100390952D01*
X172400952Y-100295714D01*
X172448571Y-100248095D01*
X172543809Y-100200476D01*
X172781904Y-100200476D01*
X172877142Y-100248095D01*
X172924761Y-100295714D01*
X172972380Y-100390952D01*
X172972380Y-100676666D01*
X172924761Y-100771904D01*
X172877142Y-100819523D01*
X172972380Y-99248095D02*
X172972380Y-99819523D01*
X172972380Y-99533809D02*
X171972380Y-99533809D01*
X172115238Y-99629047D01*
X172210476Y-99724285D01*
X172258095Y-99819523D01*
X252042380Y-84635238D02*
X251566190Y-84968571D01*
X252042380Y-85206666D02*
X251042380Y-85206666D01*
X251042380Y-84825714D01*
X251090000Y-84730476D01*
X251137619Y-84682857D01*
X251232857Y-84635238D01*
X251375714Y-84635238D01*
X251470952Y-84682857D01*
X251518571Y-84730476D01*
X251566190Y-84825714D01*
X251566190Y-85206666D01*
X251042380Y-84349523D02*
X252042380Y-84016190D01*
X251042380Y-83682857D01*
X252042380Y-82825714D02*
X252042380Y-83397142D01*
X252042380Y-83111428D02*
X251042380Y-83111428D01*
X251185238Y-83206666D01*
X251280476Y-83301904D01*
X251328095Y-83397142D01*
X220838095Y-117802380D02*
X220838095Y-118611904D01*
X220885714Y-118707142D01*
X220933333Y-118754761D01*
X221028571Y-118802380D01*
X221219047Y-118802380D01*
X221314285Y-118754761D01*
X221361904Y-118707142D01*
X221409523Y-118611904D01*
X221409523Y-117802380D01*
X222409523Y-118802380D02*
X221838095Y-118802380D01*
X222123809Y-118802380D02*
X222123809Y-117802380D01*
X222028571Y-117945238D01*
X221933333Y-118040476D01*
X221838095Y-118088095D01*
X224838095Y-35252380D02*
X224838095Y-36061904D01*
X224885714Y-36157142D01*
X224933333Y-36204761D01*
X225028571Y-36252380D01*
X225219047Y-36252380D01*
X225314285Y-36204761D01*
X225361904Y-36157142D01*
X225409523Y-36061904D01*
X225409523Y-35252380D01*
X225838095Y-35347619D02*
X225885714Y-35300000D01*
X225980952Y-35252380D01*
X226219047Y-35252380D01*
X226314285Y-35300000D01*
X226361904Y-35347619D01*
X226409523Y-35442857D01*
X226409523Y-35538095D01*
X226361904Y-35680952D01*
X225790476Y-36252380D01*
X226409523Y-36252380D01*
X222433333Y-34752380D02*
X222433333Y-34085714D01*
X222433333Y-34276190D02*
X222480952Y-34180952D01*
X222528571Y-34133333D01*
X222623809Y-34085714D01*
X222719047Y-34085714D01*
X223433333Y-34704761D02*
X223338095Y-34752380D01*
X223147619Y-34752380D01*
X223052380Y-34704761D01*
X223004761Y-34609523D01*
X223004761Y-34228571D01*
X223052380Y-34133333D01*
X223147619Y-34085714D01*
X223338095Y-34085714D01*
X223433333Y-34133333D01*
X223480952Y-34228571D01*
X223480952Y-34323809D01*
X223004761Y-34419047D01*
X223861904Y-34704761D02*
X223957142Y-34752380D01*
X224147619Y-34752380D01*
X224242857Y-34704761D01*
X224290476Y-34609523D01*
X224290476Y-34561904D01*
X224242857Y-34466666D01*
X224147619Y-34419047D01*
X224004761Y-34419047D01*
X223909523Y-34371428D01*
X223861904Y-34276190D01*
X223861904Y-34228571D01*
X223909523Y-34133333D01*
X224004761Y-34085714D01*
X224147619Y-34085714D01*
X224242857Y-34133333D01*
X225100000Y-34704761D02*
X225004761Y-34752380D01*
X224814285Y-34752380D01*
X224719047Y-34704761D01*
X224671428Y-34609523D01*
X224671428Y-34228571D01*
X224719047Y-34133333D01*
X224814285Y-34085714D01*
X225004761Y-34085714D01*
X225100000Y-34133333D01*
X225147619Y-34228571D01*
X225147619Y-34323809D01*
X224671428Y-34419047D01*
X225433333Y-34085714D02*
X225814285Y-34085714D01*
X225576190Y-33752380D02*
X225576190Y-34609523D01*
X225623809Y-34704761D01*
X225719047Y-34752380D01*
X225814285Y-34752380D01*
X226147619Y-34752380D02*
X226147619Y-33752380D01*
X226528571Y-33752380D01*
X226623809Y-33800000D01*
X226671428Y-33847619D01*
X226719047Y-33942857D01*
X226719047Y-34085714D01*
X226671428Y-34180952D01*
X226623809Y-34228571D01*
X226528571Y-34276190D01*
X226147619Y-34276190D01*
X227290476Y-34752380D02*
X227195238Y-34704761D01*
X227147619Y-34657142D01*
X227100000Y-34561904D01*
X227100000Y-34276190D01*
X227147619Y-34180952D01*
X227195238Y-34133333D01*
X227290476Y-34085714D01*
X227433333Y-34085714D01*
X227528571Y-34133333D01*
X227576190Y-34180952D01*
X227623809Y-34276190D01*
X227623809Y-34561904D01*
X227576190Y-34657142D01*
X227528571Y-34704761D01*
X227433333Y-34752380D01*
X227290476Y-34752380D01*
X228052380Y-34752380D02*
X228052380Y-34085714D01*
X228052380Y-34276190D02*
X228100000Y-34180952D01*
X228147619Y-34133333D01*
X228242857Y-34085714D01*
X228338095Y-34085714D01*
X228528571Y-34085714D02*
X228909523Y-34085714D01*
X228671428Y-33752380D02*
X228671428Y-34609523D01*
X228719047Y-34704761D01*
X228814285Y-34752380D01*
X228909523Y-34752380D01*
X187738095Y-35252380D02*
X187738095Y-36061904D01*
X187785714Y-36157142D01*
X187833333Y-36204761D01*
X187928571Y-36252380D01*
X188119047Y-36252380D01*
X188214285Y-36204761D01*
X188261904Y-36157142D01*
X188309523Y-36061904D01*
X188309523Y-35252380D01*
X188690476Y-35252380D02*
X189309523Y-35252380D01*
X188976190Y-35633333D01*
X189119047Y-35633333D01*
X189214285Y-35680952D01*
X189261904Y-35728571D01*
X189309523Y-35823809D01*
X189309523Y-36061904D01*
X189261904Y-36157142D01*
X189214285Y-36204761D01*
X189119047Y-36252380D01*
X188833333Y-36252380D01*
X188738095Y-36204761D01*
X188690476Y-36157142D01*
X185547619Y-34657142D02*
X185500000Y-34704761D01*
X185357142Y-34752380D01*
X185261904Y-34752380D01*
X185119047Y-34704761D01*
X185023809Y-34609523D01*
X184976190Y-34514285D01*
X184928571Y-34323809D01*
X184928571Y-34180952D01*
X184976190Y-33990476D01*
X185023809Y-33895238D01*
X185119047Y-33800000D01*
X185261904Y-33752380D01*
X185357142Y-33752380D01*
X185500000Y-33800000D01*
X185547619Y-33847619D01*
X186119047Y-34752380D02*
X186023809Y-34704761D01*
X185976190Y-34657142D01*
X185928571Y-34561904D01*
X185928571Y-34276190D01*
X185976190Y-34180952D01*
X186023809Y-34133333D01*
X186119047Y-34085714D01*
X186261904Y-34085714D01*
X186357142Y-34133333D01*
X186404761Y-34180952D01*
X186452380Y-34276190D01*
X186452380Y-34561904D01*
X186404761Y-34657142D01*
X186357142Y-34704761D01*
X186261904Y-34752380D01*
X186119047Y-34752380D01*
X186880952Y-34085714D02*
X186880952Y-34752380D01*
X186880952Y-34180952D02*
X186928571Y-34133333D01*
X187023809Y-34085714D01*
X187166666Y-34085714D01*
X187261904Y-34133333D01*
X187309523Y-34228571D01*
X187309523Y-34752380D01*
X187785714Y-34085714D02*
X187785714Y-34752380D01*
X187785714Y-34180952D02*
X187833333Y-34133333D01*
X187928571Y-34085714D01*
X188071428Y-34085714D01*
X188166666Y-34133333D01*
X188214285Y-34228571D01*
X188214285Y-34752380D01*
X189071428Y-34704761D02*
X188976190Y-34752380D01*
X188785714Y-34752380D01*
X188690476Y-34704761D01*
X188642857Y-34609523D01*
X188642857Y-34228571D01*
X188690476Y-34133333D01*
X188785714Y-34085714D01*
X188976190Y-34085714D01*
X189071428Y-34133333D01*
X189119047Y-34228571D01*
X189119047Y-34323809D01*
X188642857Y-34419047D01*
X189976190Y-34704761D02*
X189880952Y-34752380D01*
X189690476Y-34752380D01*
X189595238Y-34704761D01*
X189547619Y-34657142D01*
X189500000Y-34561904D01*
X189500000Y-34276190D01*
X189547619Y-34180952D01*
X189595238Y-34133333D01*
X189690476Y-34085714D01*
X189880952Y-34085714D01*
X189976190Y-34133333D01*
X190261904Y-34085714D02*
X190642857Y-34085714D01*
X190404761Y-33752380D02*
X190404761Y-34609523D01*
X190452380Y-34704761D01*
X190547619Y-34752380D01*
X190642857Y-34752380D01*
X191119047Y-34752380D02*
X191023809Y-34704761D01*
X190976190Y-34657142D01*
X190928571Y-34561904D01*
X190928571Y-34276190D01*
X190976190Y-34180952D01*
X191023809Y-34133333D01*
X191119047Y-34085714D01*
X191261904Y-34085714D01*
X191357142Y-34133333D01*
X191404761Y-34180952D01*
X191452380Y-34276190D01*
X191452380Y-34561904D01*
X191404761Y-34657142D01*
X191357142Y-34704761D01*
X191261904Y-34752380D01*
X191119047Y-34752380D01*
X191880952Y-34752380D02*
X191880952Y-34085714D01*
X191880952Y-34276190D02*
X191928571Y-34180952D01*
X191976190Y-34133333D01*
X192071428Y-34085714D01*
X192166666Y-34085714D01*
X211738095Y-35252380D02*
X211738095Y-36061904D01*
X211785714Y-36157142D01*
X211833333Y-36204761D01*
X211928571Y-36252380D01*
X212119047Y-36252380D01*
X212214285Y-36204761D01*
X212261904Y-36157142D01*
X212309523Y-36061904D01*
X212309523Y-35252380D01*
X213214285Y-35585714D02*
X213214285Y-36252380D01*
X212976190Y-35204761D02*
X212738095Y-35919047D01*
X213357142Y-35919047D01*
X205285714Y-34657142D02*
X205238095Y-34704761D01*
X205095238Y-34752380D01*
X205000000Y-34752380D01*
X204857142Y-34704761D01*
X204761904Y-34609523D01*
X204714285Y-34514285D01*
X204666666Y-34323809D01*
X204666666Y-34180952D01*
X204714285Y-33990476D01*
X204761904Y-33895238D01*
X204857142Y-33800000D01*
X205000000Y-33752380D01*
X205095238Y-33752380D01*
X205238095Y-33800000D01*
X205285714Y-33847619D01*
X205857142Y-34752380D02*
X205761904Y-34704761D01*
X205714285Y-34657142D01*
X205666666Y-34561904D01*
X205666666Y-34276190D01*
X205714285Y-34180952D01*
X205761904Y-34133333D01*
X205857142Y-34085714D01*
X206000000Y-34085714D01*
X206095238Y-34133333D01*
X206142857Y-34180952D01*
X206190476Y-34276190D01*
X206190476Y-34561904D01*
X206142857Y-34657142D01*
X206095238Y-34704761D01*
X206000000Y-34752380D01*
X205857142Y-34752380D01*
X206619047Y-34085714D02*
X206619047Y-34752380D01*
X206619047Y-34180952D02*
X206666666Y-34133333D01*
X206761904Y-34085714D01*
X206904761Y-34085714D01*
X207000000Y-34133333D01*
X207047619Y-34228571D01*
X207047619Y-34752380D01*
X207523809Y-34085714D02*
X207523809Y-34752380D01*
X207523809Y-34180952D02*
X207571428Y-34133333D01*
X207666666Y-34085714D01*
X207809523Y-34085714D01*
X207904761Y-34133333D01*
X207952380Y-34228571D01*
X207952380Y-34752380D01*
X208809523Y-34704761D02*
X208714285Y-34752380D01*
X208523809Y-34752380D01*
X208428571Y-34704761D01*
X208380952Y-34609523D01*
X208380952Y-34228571D01*
X208428571Y-34133333D01*
X208523809Y-34085714D01*
X208714285Y-34085714D01*
X208809523Y-34133333D01*
X208857142Y-34228571D01*
X208857142Y-34323809D01*
X208380952Y-34419047D01*
X209714285Y-34704761D02*
X209619047Y-34752380D01*
X209428571Y-34752380D01*
X209333333Y-34704761D01*
X209285714Y-34657142D01*
X209238095Y-34561904D01*
X209238095Y-34276190D01*
X209285714Y-34180952D01*
X209333333Y-34133333D01*
X209428571Y-34085714D01*
X209619047Y-34085714D01*
X209714285Y-34133333D01*
X210000000Y-34085714D02*
X210380952Y-34085714D01*
X210142857Y-33752380D02*
X210142857Y-34609523D01*
X210190476Y-34704761D01*
X210285714Y-34752380D01*
X210380952Y-34752380D01*
X210857142Y-34752380D02*
X210761904Y-34704761D01*
X210714285Y-34657142D01*
X210666666Y-34561904D01*
X210666666Y-34276190D01*
X210714285Y-34180952D01*
X210761904Y-34133333D01*
X210857142Y-34085714D01*
X211000000Y-34085714D01*
X211095238Y-34133333D01*
X211142857Y-34180952D01*
X211190476Y-34276190D01*
X211190476Y-34561904D01*
X211142857Y-34657142D01*
X211095238Y-34704761D01*
X211000000Y-34752380D01*
X210857142Y-34752380D01*
X211619047Y-34752380D02*
X211619047Y-34085714D01*
X211619047Y-34276190D02*
X211666666Y-34180952D01*
X211714285Y-34133333D01*
X211809523Y-34085714D01*
X211904761Y-34085714D01*
X212714285Y-34752380D02*
X212238095Y-34752380D01*
X212238095Y-33752380D01*
X213476190Y-34752380D02*
X213476190Y-34228571D01*
X213428571Y-34133333D01*
X213333333Y-34085714D01*
X213142857Y-34085714D01*
X213047619Y-34133333D01*
X213476190Y-34704761D02*
X213380952Y-34752380D01*
X213142857Y-34752380D01*
X213047619Y-34704761D01*
X213000000Y-34609523D01*
X213000000Y-34514285D01*
X213047619Y-34419047D01*
X213142857Y-34371428D01*
X213380952Y-34371428D01*
X213476190Y-34323809D01*
X213952380Y-34752380D02*
X213952380Y-33752380D01*
X213952380Y-34133333D02*
X214047619Y-34085714D01*
X214238095Y-34085714D01*
X214333333Y-34133333D01*
X214380952Y-34180952D01*
X214428571Y-34276190D01*
X214428571Y-34561904D01*
X214380952Y-34657142D01*
X214333333Y-34704761D01*
X214238095Y-34752380D01*
X214047619Y-34752380D01*
X213952380Y-34704761D01*
X215000000Y-34752380D02*
X214904761Y-34704761D01*
X214857142Y-34657142D01*
X214809523Y-34561904D01*
X214809523Y-34276190D01*
X214857142Y-34180952D01*
X214904761Y-34133333D01*
X215000000Y-34085714D01*
X215142857Y-34085714D01*
X215238095Y-34133333D01*
X215285714Y-34180952D01*
X215333333Y-34276190D01*
X215333333Y-34561904D01*
X215285714Y-34657142D01*
X215238095Y-34704761D01*
X215142857Y-34752380D01*
X215000000Y-34752380D01*
X215761904Y-34752380D02*
X215761904Y-34085714D01*
X215761904Y-34276190D02*
X215809523Y-34180952D01*
X215857142Y-34133333D01*
X215952380Y-34085714D01*
X216047619Y-34085714D01*
X216714285Y-34228571D02*
X216857142Y-34276190D01*
X216904761Y-34323809D01*
X216952380Y-34419047D01*
X216952380Y-34561904D01*
X216904761Y-34657142D01*
X216857142Y-34704761D01*
X216761904Y-34752380D01*
X216380952Y-34752380D01*
X216380952Y-33752380D01*
X216714285Y-33752380D01*
X216809523Y-33800000D01*
X216857142Y-33847619D01*
X216904761Y-33942857D01*
X216904761Y-34038095D01*
X216857142Y-34133333D01*
X216809523Y-34180952D01*
X216714285Y-34228571D01*
X216380952Y-34228571D01*
X217761904Y-34704761D02*
X217666666Y-34752380D01*
X217476190Y-34752380D01*
X217380952Y-34704761D01*
X217333333Y-34609523D01*
X217333333Y-34228571D01*
X217380952Y-34133333D01*
X217476190Y-34085714D01*
X217666666Y-34085714D01*
X217761904Y-34133333D01*
X217809523Y-34228571D01*
X217809523Y-34323809D01*
X217333333Y-34419047D01*
X218238095Y-34752380D02*
X218238095Y-34085714D01*
X218238095Y-34276190D02*
X218285714Y-34180952D01*
X218333333Y-34133333D01*
X218428571Y-34085714D01*
X218523809Y-34085714D01*
X219000000Y-34752380D02*
X218904761Y-34704761D01*
X218857142Y-34609523D01*
X218857142Y-33752380D01*
X219380952Y-34752380D02*
X219380952Y-34085714D01*
X219380952Y-33752380D02*
X219333333Y-33800000D01*
X219380952Y-33847619D01*
X219428571Y-33800000D01*
X219380952Y-33752380D01*
X219380952Y-33847619D01*
X219857142Y-34085714D02*
X219857142Y-34752380D01*
X219857142Y-34180952D02*
X219904761Y-34133333D01*
X220000000Y-34085714D01*
X220142857Y-34085714D01*
X220238095Y-34133333D01*
X220285714Y-34228571D01*
X220285714Y-34752380D01*
X217468095Y-72012380D02*
X217468095Y-72821904D01*
X217515714Y-72917142D01*
X217563333Y-72964761D01*
X217658571Y-73012380D01*
X217849047Y-73012380D01*
X217944285Y-72964761D01*
X217991904Y-72917142D01*
X218039523Y-72821904D01*
X218039523Y-72012380D01*
X218991904Y-72012380D02*
X218515714Y-72012380D01*
X218468095Y-72488571D01*
X218515714Y-72440952D01*
X218610952Y-72393333D01*
X218849047Y-72393333D01*
X218944285Y-72440952D01*
X218991904Y-72488571D01*
X219039523Y-72583809D01*
X219039523Y-72821904D01*
X218991904Y-72917142D01*
X218944285Y-72964761D01*
X218849047Y-73012380D01*
X218610952Y-73012380D01*
X218515714Y-72964761D01*
X218468095Y-72917142D01*
X204648095Y-57622380D02*
X204648095Y-58431904D01*
X204695714Y-58527142D01*
X204743333Y-58574761D01*
X204838571Y-58622380D01*
X205029047Y-58622380D01*
X205124285Y-58574761D01*
X205171904Y-58527142D01*
X205219523Y-58431904D01*
X205219523Y-57622380D01*
X206124285Y-57622380D02*
X205933809Y-57622380D01*
X205838571Y-57670000D01*
X205790952Y-57717619D01*
X205695714Y-57860476D01*
X205648095Y-58050952D01*
X205648095Y-58431904D01*
X205695714Y-58527142D01*
X205743333Y-58574761D01*
X205838571Y-58622380D01*
X206029047Y-58622380D01*
X206124285Y-58574761D01*
X206171904Y-58527142D01*
X206219523Y-58431904D01*
X206219523Y-58193809D01*
X206171904Y-58098571D01*
X206124285Y-58050952D01*
X206029047Y-58003333D01*
X205838571Y-58003333D01*
X205743333Y-58050952D01*
X205695714Y-58098571D01*
X205648095Y-58193809D01*
X198438095Y-35052380D02*
X198438095Y-35861904D01*
X198485714Y-35957142D01*
X198533333Y-36004761D01*
X198628571Y-36052380D01*
X198819047Y-36052380D01*
X198914285Y-36004761D01*
X198961904Y-35957142D01*
X199009523Y-35861904D01*
X199009523Y-35052380D01*
X199390476Y-35052380D02*
X200057142Y-35052380D01*
X199628571Y-36052380D01*
X191985714Y-34457142D02*
X191938095Y-34504761D01*
X191795238Y-34552380D01*
X191700000Y-34552380D01*
X191557142Y-34504761D01*
X191461904Y-34409523D01*
X191414285Y-34314285D01*
X191366666Y-34123809D01*
X191366666Y-33980952D01*
X191414285Y-33790476D01*
X191461904Y-33695238D01*
X191557142Y-33600000D01*
X191700000Y-33552380D01*
X191795238Y-33552380D01*
X191938095Y-33600000D01*
X191985714Y-33647619D01*
X192557142Y-34552380D02*
X192461904Y-34504761D01*
X192414285Y-34457142D01*
X192366666Y-34361904D01*
X192366666Y-34076190D01*
X192414285Y-33980952D01*
X192461904Y-33933333D01*
X192557142Y-33885714D01*
X192700000Y-33885714D01*
X192795238Y-33933333D01*
X192842857Y-33980952D01*
X192890476Y-34076190D01*
X192890476Y-34361904D01*
X192842857Y-34457142D01*
X192795238Y-34504761D01*
X192700000Y-34552380D01*
X192557142Y-34552380D01*
X193319047Y-33885714D02*
X193319047Y-34552380D01*
X193319047Y-33980952D02*
X193366666Y-33933333D01*
X193461904Y-33885714D01*
X193604761Y-33885714D01*
X193700000Y-33933333D01*
X193747619Y-34028571D01*
X193747619Y-34552380D01*
X194223809Y-33885714D02*
X194223809Y-34552380D01*
X194223809Y-33980952D02*
X194271428Y-33933333D01*
X194366666Y-33885714D01*
X194509523Y-33885714D01*
X194604761Y-33933333D01*
X194652380Y-34028571D01*
X194652380Y-34552380D01*
X195509523Y-34504761D02*
X195414285Y-34552380D01*
X195223809Y-34552380D01*
X195128571Y-34504761D01*
X195080952Y-34409523D01*
X195080952Y-34028571D01*
X195128571Y-33933333D01*
X195223809Y-33885714D01*
X195414285Y-33885714D01*
X195509523Y-33933333D01*
X195557142Y-34028571D01*
X195557142Y-34123809D01*
X195080952Y-34219047D01*
X196414285Y-34504761D02*
X196319047Y-34552380D01*
X196128571Y-34552380D01*
X196033333Y-34504761D01*
X195985714Y-34457142D01*
X195938095Y-34361904D01*
X195938095Y-34076190D01*
X195985714Y-33980952D01*
X196033333Y-33933333D01*
X196128571Y-33885714D01*
X196319047Y-33885714D01*
X196414285Y-33933333D01*
X196700000Y-33885714D02*
X197080952Y-33885714D01*
X196842857Y-33552380D02*
X196842857Y-34409523D01*
X196890476Y-34504761D01*
X196985714Y-34552380D01*
X197080952Y-34552380D01*
X197557142Y-34552380D02*
X197461904Y-34504761D01*
X197414285Y-34457142D01*
X197366666Y-34361904D01*
X197366666Y-34076190D01*
X197414285Y-33980952D01*
X197461904Y-33933333D01*
X197557142Y-33885714D01*
X197700000Y-33885714D01*
X197795238Y-33933333D01*
X197842857Y-33980952D01*
X197890476Y-34076190D01*
X197890476Y-34361904D01*
X197842857Y-34457142D01*
X197795238Y-34504761D01*
X197700000Y-34552380D01*
X197557142Y-34552380D01*
X198319047Y-34552380D02*
X198319047Y-33885714D01*
X198319047Y-34076190D02*
X198366666Y-33980952D01*
X198414285Y-33933333D01*
X198509523Y-33885714D01*
X198604761Y-33885714D01*
X199414285Y-34552380D02*
X198938095Y-34552380D01*
X198938095Y-33552380D01*
X200176190Y-34552380D02*
X200176190Y-34028571D01*
X200128571Y-33933333D01*
X200033333Y-33885714D01*
X199842857Y-33885714D01*
X199747619Y-33933333D01*
X200176190Y-34504761D02*
X200080952Y-34552380D01*
X199842857Y-34552380D01*
X199747619Y-34504761D01*
X199700000Y-34409523D01*
X199700000Y-34314285D01*
X199747619Y-34219047D01*
X199842857Y-34171428D01*
X200080952Y-34171428D01*
X200176190Y-34123809D01*
X200652380Y-34552380D02*
X200652380Y-33552380D01*
X200652380Y-33933333D02*
X200747619Y-33885714D01*
X200938095Y-33885714D01*
X201033333Y-33933333D01*
X201080952Y-33980952D01*
X201128571Y-34076190D01*
X201128571Y-34361904D01*
X201080952Y-34457142D01*
X201033333Y-34504761D01*
X200938095Y-34552380D01*
X200747619Y-34552380D01*
X200652380Y-34504761D01*
X201700000Y-34552380D02*
X201604761Y-34504761D01*
X201557142Y-34457142D01*
X201509523Y-34361904D01*
X201509523Y-34076190D01*
X201557142Y-33980952D01*
X201604761Y-33933333D01*
X201700000Y-33885714D01*
X201842857Y-33885714D01*
X201938095Y-33933333D01*
X201985714Y-33980952D01*
X202033333Y-34076190D01*
X202033333Y-34361904D01*
X201985714Y-34457142D01*
X201938095Y-34504761D01*
X201842857Y-34552380D01*
X201700000Y-34552380D01*
X202461904Y-34552380D02*
X202461904Y-33885714D01*
X202461904Y-34076190D02*
X202509523Y-33980952D01*
X202557142Y-33933333D01*
X202652380Y-33885714D01*
X202747619Y-33885714D01*
X203414285Y-34028571D02*
X203557142Y-34076190D01*
X203604761Y-34123809D01*
X203652380Y-34219047D01*
X203652380Y-34361904D01*
X203604761Y-34457142D01*
X203557142Y-34504761D01*
X203461904Y-34552380D01*
X203080952Y-34552380D01*
X203080952Y-33552380D01*
X203414285Y-33552380D01*
X203509523Y-33600000D01*
X203557142Y-33647619D01*
X203604761Y-33742857D01*
X203604761Y-33838095D01*
X203557142Y-33933333D01*
X203509523Y-33980952D01*
X203414285Y-34028571D01*
X203080952Y-34028571D01*
X204461904Y-34504761D02*
X204366666Y-34552380D01*
X204176190Y-34552380D01*
X204080952Y-34504761D01*
X204033333Y-34409523D01*
X204033333Y-34028571D01*
X204080952Y-33933333D01*
X204176190Y-33885714D01*
X204366666Y-33885714D01*
X204461904Y-33933333D01*
X204509523Y-34028571D01*
X204509523Y-34123809D01*
X204033333Y-34219047D01*
X204938095Y-34552380D02*
X204938095Y-33885714D01*
X204938095Y-34076190D02*
X204985714Y-33980952D01*
X205033333Y-33933333D01*
X205128571Y-33885714D01*
X205223809Y-33885714D01*
X205700000Y-34552380D02*
X205604761Y-34504761D01*
X205557142Y-34409523D01*
X205557142Y-33552380D01*
X206080952Y-34552380D02*
X206080952Y-33885714D01*
X206080952Y-33552380D02*
X206033333Y-33600000D01*
X206080952Y-33647619D01*
X206128571Y-33600000D01*
X206080952Y-33552380D01*
X206080952Y-33647619D01*
X206557142Y-33885714D02*
X206557142Y-34552380D01*
X206557142Y-33980952D02*
X206604761Y-33933333D01*
X206700000Y-33885714D01*
X206842857Y-33885714D01*
X206938095Y-33933333D01*
X206985714Y-34028571D01*
X206985714Y-34552380D01*
X247661904Y-35352380D02*
X247661904Y-36161904D01*
X247709523Y-36257142D01*
X247757142Y-36304761D01*
X247852380Y-36352380D01*
X248042857Y-36352380D01*
X248138095Y-36304761D01*
X248185714Y-36257142D01*
X248233333Y-36161904D01*
X248233333Y-35352380D01*
X249233333Y-36352380D02*
X248661904Y-36352380D01*
X248947619Y-36352380D02*
X248947619Y-35352380D01*
X248852380Y-35495238D01*
X248757142Y-35590476D01*
X248661904Y-35638095D01*
X250138095Y-35352380D02*
X249661904Y-35352380D01*
X249614285Y-35828571D01*
X249661904Y-35780952D01*
X249757142Y-35733333D01*
X249995238Y-35733333D01*
X250090476Y-35780952D01*
X250138095Y-35828571D01*
X250185714Y-35923809D01*
X250185714Y-36161904D01*
X250138095Y-36257142D01*
X250090476Y-36304761D01*
X249995238Y-36352380D01*
X249757142Y-36352380D01*
X249661904Y-36304761D01*
X249614285Y-36257142D01*
X243876190Y-34852380D02*
X243876190Y-33852380D01*
X244257142Y-33852380D01*
X244352380Y-33900000D01*
X244400000Y-33947619D01*
X244447619Y-34042857D01*
X244447619Y-34185714D01*
X244400000Y-34280952D01*
X244352380Y-34328571D01*
X244257142Y-34376190D01*
X243876190Y-34376190D01*
X245019047Y-34852380D02*
X244923809Y-34804761D01*
X244876190Y-34757142D01*
X244828571Y-34661904D01*
X244828571Y-34376190D01*
X244876190Y-34280952D01*
X244923809Y-34233333D01*
X245019047Y-34185714D01*
X245161904Y-34185714D01*
X245257142Y-34233333D01*
X245304761Y-34280952D01*
X245352380Y-34376190D01*
X245352380Y-34661904D01*
X245304761Y-34757142D01*
X245257142Y-34804761D01*
X245161904Y-34852380D01*
X245019047Y-34852380D01*
X245685714Y-34185714D02*
X245876190Y-34852380D01*
X246066666Y-34376190D01*
X246257142Y-34852380D01*
X246447619Y-34185714D01*
X247209523Y-34804761D02*
X247114285Y-34852380D01*
X246923809Y-34852380D01*
X246828571Y-34804761D01*
X246780952Y-34709523D01*
X246780952Y-34328571D01*
X246828571Y-34233333D01*
X246923809Y-34185714D01*
X247114285Y-34185714D01*
X247209523Y-34233333D01*
X247257142Y-34328571D01*
X247257142Y-34423809D01*
X246780952Y-34519047D01*
X247685714Y-34852380D02*
X247685714Y-34185714D01*
X247685714Y-34376190D02*
X247733333Y-34280952D01*
X247780952Y-34233333D01*
X247876190Y-34185714D01*
X247971428Y-34185714D01*
X248304761Y-34471428D02*
X249066666Y-34471428D01*
X249876190Y-34328571D02*
X250019047Y-34376190D01*
X250066666Y-34423809D01*
X250114285Y-34519047D01*
X250114285Y-34661904D01*
X250066666Y-34757142D01*
X250019047Y-34804761D01*
X249923809Y-34852380D01*
X249542857Y-34852380D01*
X249542857Y-33852380D01*
X249876190Y-33852380D01*
X249971428Y-33900000D01*
X250019047Y-33947619D01*
X250066666Y-34042857D01*
X250066666Y-34138095D01*
X250019047Y-34233333D01*
X249971428Y-34280952D01*
X249876190Y-34328571D01*
X249542857Y-34328571D01*
X250971428Y-34185714D02*
X250971428Y-34852380D01*
X250542857Y-34185714D02*
X250542857Y-34709523D01*
X250590476Y-34804761D01*
X250685714Y-34852380D01*
X250828571Y-34852380D01*
X250923809Y-34804761D01*
X250971428Y-34757142D01*
X251304761Y-34185714D02*
X251685714Y-34185714D01*
X251447619Y-33852380D02*
X251447619Y-34709523D01*
X251495238Y-34804761D01*
X251590476Y-34852380D01*
X251685714Y-34852380D01*
X251876190Y-34185714D02*
X252257142Y-34185714D01*
X252019047Y-33852380D02*
X252019047Y-34709523D01*
X252066666Y-34804761D01*
X252161904Y-34852380D01*
X252257142Y-34852380D01*
X252733333Y-34852380D02*
X252638095Y-34804761D01*
X252590476Y-34757142D01*
X252542857Y-34661904D01*
X252542857Y-34376190D01*
X252590476Y-34280952D01*
X252638095Y-34233333D01*
X252733333Y-34185714D01*
X252876190Y-34185714D01*
X252971428Y-34233333D01*
X253019047Y-34280952D01*
X253066666Y-34376190D01*
X253066666Y-34661904D01*
X253019047Y-34757142D01*
X252971428Y-34804761D01*
X252876190Y-34852380D01*
X252733333Y-34852380D01*
X253495238Y-34185714D02*
X253495238Y-34852380D01*
X253495238Y-34280952D02*
X253542857Y-34233333D01*
X253638095Y-34185714D01*
X253780952Y-34185714D01*
X253876190Y-34233333D01*
X253923809Y-34328571D01*
X253923809Y-34852380D01*
X203065904Y-117368380D02*
X203732571Y-118368380D01*
X203732571Y-117368380D02*
X203065904Y-118368380D01*
X204065904Y-118082666D02*
X204542095Y-118082666D01*
X203970666Y-118368380D02*
X204304000Y-117368380D01*
X204637333Y-118368380D01*
X205494476Y-118368380D02*
X204923047Y-118368380D01*
X205208761Y-118368380D02*
X205208761Y-117368380D01*
X205113523Y-117511238D01*
X205018285Y-117606476D01*
X204923047Y-117654095D01*
D12*
X197069047Y-117261190D02*
X197069047Y-117665952D01*
X197092857Y-117713571D01*
X197116666Y-117737380D01*
X197164285Y-117761190D01*
X197259523Y-117761190D01*
X197307142Y-117737380D01*
X197330952Y-117713571D01*
X197354761Y-117665952D01*
X197354761Y-117261190D01*
X197569047Y-117737380D02*
X197640476Y-117761190D01*
X197759523Y-117761190D01*
X197807142Y-117737380D01*
X197830952Y-117713571D01*
X197854761Y-117665952D01*
X197854761Y-117618333D01*
X197830952Y-117570714D01*
X197807142Y-117546904D01*
X197759523Y-117523095D01*
X197664285Y-117499285D01*
X197616666Y-117475476D01*
X197592857Y-117451666D01*
X197569047Y-117404047D01*
X197569047Y-117356428D01*
X197592857Y-117308809D01*
X197616666Y-117285000D01*
X197664285Y-117261190D01*
X197783333Y-117261190D01*
X197854761Y-117285000D01*
X198235714Y-117499285D02*
X198307142Y-117523095D01*
X198330952Y-117546904D01*
X198354761Y-117594523D01*
X198354761Y-117665952D01*
X198330952Y-117713571D01*
X198307142Y-117737380D01*
X198259523Y-117761190D01*
X198069047Y-117761190D01*
X198069047Y-117261190D01*
X198235714Y-117261190D01*
X198283333Y-117285000D01*
X198307142Y-117308809D01*
X198330952Y-117356428D01*
X198330952Y-117404047D01*
X198307142Y-117451666D01*
X198283333Y-117475476D01*
X198235714Y-117499285D01*
X198069047Y-117499285D01*
X203776190Y-111288095D02*
X203776190Y-110978571D01*
X203966666Y-111145238D01*
X203966666Y-111073809D01*
X203990476Y-111026190D01*
X204014285Y-111002380D01*
X204061904Y-110978571D01*
X204180952Y-110978571D01*
X204228571Y-111002380D01*
X204252380Y-111026190D01*
X204276190Y-111073809D01*
X204276190Y-111216666D01*
X204252380Y-111264285D01*
X204228571Y-111288095D01*
X204228571Y-110764285D02*
X204252380Y-110740476D01*
X204276190Y-110764285D01*
X204252380Y-110788095D01*
X204228571Y-110764285D01*
X204276190Y-110764285D01*
X203776190Y-110573809D02*
X203776190Y-110264285D01*
X203966666Y-110430952D01*
X203966666Y-110359523D01*
X203990476Y-110311904D01*
X204014285Y-110288095D01*
X204061904Y-110264285D01*
X204180952Y-110264285D01*
X204228571Y-110288095D01*
X204252380Y-110311904D01*
X204276190Y-110359523D01*
X204276190Y-110502380D01*
X204252380Y-110550000D01*
X204228571Y-110573809D01*
X203776190Y-110121428D02*
X204276190Y-109954761D01*
X203776190Y-109788095D01*
M02*
