G04 #@! TF.GenerationSoftware,KiCad,Pcbnew,5.1.6-c6e7f7d~86~ubuntu19.10.1*
G04 #@! TF.CreationDate,2020-06-16T13:29:06+02:00*
G04 #@! TF.ProjectId,laborBerlin,6c61626f-7242-4657-926c-696e2e6b6963,rev?*
G04 #@! TF.SameCoordinates,Original*
G04 #@! TF.FileFunction,Copper,L2,Bot*
G04 #@! TF.FilePolarity,Positive*
%FSLAX46Y46*%
G04 Gerber Fmt 4.6, Leading zero omitted, Abs format (unit mm)*
G04 Created by KiCad (PCBNEW 5.1.6-c6e7f7d~86~ubuntu19.10.1) date 2020-06-16 13:29:06*
%MOMM*%
%LPD*%
G01*
G04 APERTURE LIST*
G04 #@! TA.AperFunction,ComponentPad*
%ADD10C,1.400000*%
G04 #@! TD*
G04 #@! TA.AperFunction,ComponentPad*
%ADD11O,1.400000X1.400000*%
G04 #@! TD*
G04 #@! TA.AperFunction,ComponentPad*
%ADD12C,1.600000*%
G04 #@! TD*
G04 #@! TA.AperFunction,ComponentPad*
%ADD13R,1.600000X1.600000*%
G04 #@! TD*
G04 #@! TA.AperFunction,ComponentPad*
%ADD14R,2.400000X2.400000*%
G04 #@! TD*
G04 #@! TA.AperFunction,ComponentPad*
%ADD15C,2.400000*%
G04 #@! TD*
G04 #@! TA.AperFunction,ComponentPad*
%ADD16R,1.800000X1.800000*%
G04 #@! TD*
G04 #@! TA.AperFunction,ComponentPad*
%ADD17C,1.800000*%
G04 #@! TD*
G04 #@! TA.AperFunction,ComponentPad*
%ADD18R,2.200000X2.200000*%
G04 #@! TD*
G04 #@! TA.AperFunction,ComponentPad*
%ADD19O,2.200000X2.200000*%
G04 #@! TD*
G04 #@! TA.AperFunction,ComponentPad*
%ADD20R,2.000000X2.000000*%
G04 #@! TD*
G04 #@! TA.AperFunction,ComponentPad*
%ADD21O,2.000000X2.000000*%
G04 #@! TD*
G04 #@! TA.AperFunction,ComponentPad*
%ADD22C,1.524000*%
G04 #@! TD*
G04 #@! TA.AperFunction,ComponentPad*
%ADD23C,2.000000*%
G04 #@! TD*
G04 #@! TA.AperFunction,ComponentPad*
%ADD24R,1.700000X1.700000*%
G04 #@! TD*
G04 #@! TA.AperFunction,ComponentPad*
%ADD25O,1.700000X1.700000*%
G04 #@! TD*
G04 #@! TA.AperFunction,ComponentPad*
%ADD26R,2.500000X5.000000*%
G04 #@! TD*
G04 #@! TA.AperFunction,ComponentPad*
%ADD27O,1.905000X2.000000*%
G04 #@! TD*
G04 #@! TA.AperFunction,ComponentPad*
%ADD28R,1.905000X2.000000*%
G04 #@! TD*
G04 #@! TA.AperFunction,ComponentPad*
%ADD29O,2.000000X1.905000*%
G04 #@! TD*
G04 #@! TA.AperFunction,ComponentPad*
%ADD30R,2.000000X1.905000*%
G04 #@! TD*
G04 #@! TA.AperFunction,ComponentPad*
%ADD31C,1.440000*%
G04 #@! TD*
G04 #@! TA.AperFunction,ComponentPad*
%ADD32O,1.050000X1.500000*%
G04 #@! TD*
G04 #@! TA.AperFunction,ComponentPad*
%ADD33R,1.050000X1.500000*%
G04 #@! TD*
G04 #@! TA.AperFunction,ComponentPad*
%ADD34O,1.600000X1.600000*%
G04 #@! TD*
G04 #@! TA.AperFunction,WasherPad*
%ADD35C,1.300000*%
G04 #@! TD*
G04 #@! TA.AperFunction,ComponentPad*
%ADD36C,1.727200*%
G04 #@! TD*
G04 #@! TA.AperFunction,ComponentPad*
%ADD37R,1.727200X1.727200*%
G04 #@! TD*
G04 #@! TA.AperFunction,ViaPad*
%ADD38C,2.000000*%
G04 #@! TD*
G04 #@! TA.AperFunction,ViaPad*
%ADD39C,1.200000*%
G04 #@! TD*
G04 #@! TA.AperFunction,Conductor*
%ADD40C,0.600000*%
G04 #@! TD*
G04 #@! TA.AperFunction,Conductor*
%ADD41C,2.050000*%
G04 #@! TD*
G04 #@! TA.AperFunction,Conductor*
%ADD42C,1.500000*%
G04 #@! TD*
G04 APERTURE END LIST*
D10*
X181950000Y-65350000D03*
D11*
X181950000Y-72970000D03*
X229400000Y-67630000D03*
D10*
X229400000Y-75250000D03*
D12*
X184300000Y-114200000D03*
X186800000Y-114200000D03*
D13*
X159400000Y-92650000D03*
D12*
X159400000Y-95150000D03*
D13*
X238450000Y-119350000D03*
D12*
X238450000Y-116850000D03*
X238150000Y-100350000D03*
D13*
X238150000Y-102850000D03*
X238050000Y-93750000D03*
D12*
X238050000Y-91250000D03*
X188100000Y-68900000D03*
X188100000Y-66400000D03*
D14*
X211950000Y-79750000D03*
D15*
X216950000Y-79750000D03*
D12*
X217600000Y-63000000D03*
X215100000Y-63000000D03*
D15*
X178400000Y-84500000D03*
D14*
X178400000Y-79500000D03*
D16*
X175600000Y-101100000D03*
D17*
X175600000Y-103640000D03*
X173350000Y-110890000D03*
D16*
X173350000Y-108350000D03*
D18*
X250450000Y-97750000D03*
D19*
X250450000Y-107910000D03*
D20*
X158720000Y-100300000D03*
D21*
X163800000Y-100300000D03*
D18*
X255950000Y-92850000D03*
D19*
X255950000Y-103010000D03*
X256410000Y-116550000D03*
D18*
X246250000Y-116550000D03*
D16*
X222500000Y-79750000D03*
D17*
X225040000Y-79750000D03*
D16*
X180300000Y-99700000D03*
D17*
X180300000Y-97160000D03*
X172900000Y-68040000D03*
D16*
X172900000Y-65500000D03*
D17*
X195660000Y-61900000D03*
D16*
X198200000Y-61900000D03*
D22*
X174768000Y-115200000D03*
X174794000Y-112660000D03*
X174794000Y-117740000D03*
D23*
X240200000Y-50500000D03*
X240200000Y-41300000D03*
X235000000Y-41200000D03*
X235000000Y-50400000D03*
D24*
X230250000Y-64000000D03*
D25*
X232790000Y-64000000D03*
X235330000Y-64000000D03*
X237870000Y-64000000D03*
X240410000Y-64000000D03*
X242950000Y-64000000D03*
X245490000Y-64000000D03*
X248030000Y-64000000D03*
X250570000Y-64000000D03*
X253110000Y-64000000D03*
D24*
X230200000Y-59800000D03*
D25*
X232740000Y-59800000D03*
X235280000Y-59800000D03*
X237820000Y-59800000D03*
X240360000Y-59800000D03*
X242900000Y-59800000D03*
X245440000Y-59800000D03*
X247980000Y-59800000D03*
X250520000Y-59800000D03*
X253060000Y-59800000D03*
X230040000Y-55050000D03*
X232580000Y-55050000D03*
X235120000Y-55050000D03*
X237660000Y-55050000D03*
X240200000Y-55050000D03*
X242740000Y-55050000D03*
X245280000Y-55050000D03*
X247820000Y-55050000D03*
X250360000Y-55050000D03*
D24*
X252900000Y-55050000D03*
X224600000Y-59600000D03*
X224400000Y-55000000D03*
X213100000Y-59200000D03*
D26*
X166250000Y-105950000D03*
X159150000Y-116450000D03*
X166250000Y-116450000D03*
X159150000Y-105950000D03*
D22*
X230800000Y-85240000D03*
X230800000Y-82700000D03*
X230800000Y-80160000D03*
D27*
X241230000Y-126000000D03*
X238690000Y-126000000D03*
D28*
X236150000Y-126000000D03*
X239450000Y-108950000D03*
D27*
X241990000Y-108950000D03*
X244530000Y-108950000D03*
D29*
X246750000Y-90370000D03*
X246750000Y-92910000D03*
D30*
X246750000Y-95450000D03*
D27*
X247170000Y-125350000D03*
X249710000Y-125350000D03*
D28*
X252250000Y-125350000D03*
D30*
X236850000Y-76350000D03*
D29*
X236850000Y-78890000D03*
X236850000Y-81430000D03*
D30*
X249550000Y-81450000D03*
D29*
X249550000Y-78910000D03*
X249550000Y-76370000D03*
D22*
X168300000Y-66000000D03*
X168274000Y-68400000D03*
X168274000Y-63600000D03*
X194150000Y-67750000D03*
X196550000Y-67750000D03*
X198950000Y-67750000D03*
D10*
X218000000Y-126250000D03*
D11*
X225620000Y-126250000D03*
D10*
X185800000Y-117600000D03*
D11*
X178180000Y-117600000D03*
D10*
X235850000Y-112550000D03*
D11*
X243470000Y-112550000D03*
D10*
X169950000Y-76350000D03*
D11*
X162330000Y-76350000D03*
D10*
X165200000Y-90600000D03*
D11*
X172820000Y-90600000D03*
X186720000Y-110300000D03*
D10*
X179100000Y-110300000D03*
X234450000Y-97050000D03*
D11*
X242070000Y-97050000D03*
X246030000Y-120550000D03*
D10*
X253650000Y-120550000D03*
D11*
X241770000Y-68950000D03*
D10*
X234150000Y-68950000D03*
X172300000Y-87000000D03*
D11*
X164680000Y-87000000D03*
D10*
X241650000Y-75200000D03*
D11*
X241650000Y-82820000D03*
X175980000Y-93300000D03*
D10*
X183600000Y-93300000D03*
D11*
X170300000Y-114720000D03*
D10*
X170300000Y-107100000D03*
D11*
X206480000Y-54850000D03*
D10*
X214100000Y-54850000D03*
X162300000Y-81100000D03*
D11*
X169920000Y-81100000D03*
X170070000Y-84000000D03*
D10*
X162450000Y-84000000D03*
D11*
X185800000Y-103620000D03*
D10*
X185800000Y-96000000D03*
X158700000Y-80250000D03*
D11*
X158700000Y-87870000D03*
D10*
X189250000Y-63650000D03*
D11*
X189250000Y-56030000D03*
D10*
X225150000Y-75150000D03*
D11*
X225150000Y-67530000D03*
X199420000Y-55050000D03*
D10*
X191800000Y-55050000D03*
D11*
X201680000Y-71800000D03*
D10*
X209300000Y-71800000D03*
D11*
X186120000Y-62500000D03*
D10*
X178500000Y-62500000D03*
D11*
X248130000Y-69650000D03*
D10*
X255750000Y-69650000D03*
D11*
X164180000Y-71900000D03*
D10*
X171800000Y-71900000D03*
X179450000Y-65050000D03*
D11*
X179450000Y-72670000D03*
D10*
X165500000Y-93900000D03*
D11*
X173120000Y-93900000D03*
X170600000Y-104320000D03*
D10*
X170600000Y-96700000D03*
D31*
X254750000Y-81500000D03*
X254750000Y-84040000D03*
X254750000Y-86580000D03*
D22*
X211650000Y-95080000D03*
X211650000Y-90000000D03*
X211650000Y-92540000D03*
X211650000Y-97590000D03*
X211650000Y-100130000D03*
X211650000Y-102670000D03*
X211650000Y-105210000D03*
X211650000Y-107740000D03*
X211650000Y-110280000D03*
X211650000Y-112820000D03*
X211650000Y-115360000D03*
X211650000Y-117890000D03*
X211650000Y-120390000D03*
X211650000Y-122930000D03*
X231700000Y-112820000D03*
X231700000Y-115360000D03*
X231700000Y-100130000D03*
X231700000Y-122930000D03*
X231700000Y-92540000D03*
X231700000Y-110280000D03*
X231700000Y-102670000D03*
X231700000Y-117890000D03*
X231700000Y-97590000D03*
X231700000Y-90000000D03*
X231700000Y-107740000D03*
X231700000Y-120390000D03*
X231700000Y-95080000D03*
X231700000Y-105210000D03*
D23*
X225600000Y-50400000D03*
X225600000Y-41200000D03*
X221600000Y-50400000D03*
X229600000Y-50400000D03*
X221600000Y-41200000D03*
X229600000Y-41200000D03*
X190500000Y-41200000D03*
X186500000Y-41200000D03*
X190500000Y-50400000D03*
X186500000Y-50400000D03*
X212500000Y-50400000D03*
X212500000Y-41200000D03*
X208500000Y-50400000D03*
X216500000Y-50400000D03*
X208500000Y-41200000D03*
X216500000Y-41200000D03*
D32*
X218230000Y-69000000D03*
X216960000Y-69000000D03*
D33*
X219500000Y-69000000D03*
D13*
X201600000Y-60500000D03*
D34*
X209220000Y-68120000D03*
X201600000Y-63040000D03*
X209220000Y-65580000D03*
X201600000Y-65580000D03*
X209220000Y-63040000D03*
X201600000Y-68120000D03*
X209220000Y-60500000D03*
D23*
X203200000Y-41000000D03*
X195200000Y-41000000D03*
X203200000Y-50200000D03*
X195200000Y-50200000D03*
X199200000Y-41000000D03*
X199200000Y-50200000D03*
D35*
X201000000Y-74950000D03*
X193500000Y-69950000D03*
D23*
X198550000Y-72550000D03*
X195950000Y-72350000D03*
X252900000Y-41300000D03*
X244900000Y-41300000D03*
X252900000Y-50500000D03*
X244900000Y-50500000D03*
X248900000Y-41300000D03*
X248900000Y-50500000D03*
X174600000Y-72300000D03*
X177200000Y-72500000D03*
D35*
X172150000Y-69900000D03*
X179650000Y-74900000D03*
X243900000Y-74800000D03*
X236400000Y-69800000D03*
D23*
X241450000Y-72400000D03*
X238850000Y-72200000D03*
X217400000Y-72400000D03*
X220000000Y-72600000D03*
D35*
X214950000Y-70000000D03*
X222450000Y-75000000D03*
D36*
X205320000Y-77530000D03*
X205320000Y-80070000D03*
X205320000Y-82610000D03*
X205320000Y-85150000D03*
X205320000Y-87690000D03*
X205320000Y-90230000D03*
X205320000Y-92770000D03*
X205320000Y-95310000D03*
X205320000Y-97850000D03*
X205320000Y-100390000D03*
X205320000Y-102930000D03*
X205320000Y-105470000D03*
X205320000Y-108010000D03*
X205320000Y-110550000D03*
X205320000Y-113090000D03*
X190080000Y-113090000D03*
X190080000Y-110550000D03*
X190080000Y-108010000D03*
X190080000Y-105470000D03*
X190080000Y-102930000D03*
X190080000Y-100390000D03*
X190080000Y-97850000D03*
X190080000Y-95310000D03*
X190080000Y-92770000D03*
X190080000Y-90230000D03*
X190080000Y-87690000D03*
X190080000Y-85150000D03*
X190080000Y-82610000D03*
X190080000Y-80070000D03*
D37*
X190080000Y-77530000D03*
D38*
X244550000Y-82550000D03*
X250150000Y-121500000D03*
X226450000Y-62400000D03*
X177900000Y-68550000D03*
X247800000Y-105600000D03*
X165650000Y-111150000D03*
X249650000Y-85350000D03*
X230800000Y-80160000D03*
X230800000Y-80160000D03*
X230800000Y-80160000D03*
X230800000Y-80160000D03*
X218850000Y-123650000D03*
X221800000Y-100650000D03*
X219107959Y-95885353D03*
X213600000Y-73050000D03*
X224200000Y-97650000D03*
X214055002Y-77250000D03*
D39*
X206015969Y-68784031D03*
X184750000Y-75500000D03*
X178100000Y-76000000D03*
X212500000Y-61950000D03*
D38*
X197400000Y-123300000D03*
X198950000Y-126700000D03*
X241650000Y-78600000D03*
D39*
X224050000Y-86350000D03*
X221840470Y-92709530D03*
X218761090Y-98388910D03*
X214600000Y-109300000D03*
X225109530Y-94159530D03*
X224050000Y-72700000D03*
X182100000Y-61200000D03*
X179800000Y-95400000D03*
X188150010Y-87000000D03*
X167300000Y-80650000D03*
X165000000Y-92350000D03*
X176500000Y-95350000D03*
X175000000Y-98450000D03*
X171295000Y-99100000D03*
X233600000Y-72900000D03*
X160259635Y-102633088D03*
X165000000Y-67600000D03*
D38*
X194450000Y-78650000D03*
X184662495Y-70587505D03*
X177624322Y-106825009D03*
X185300000Y-87850000D03*
D39*
X233386999Y-71516297D03*
X233428002Y-74700000D03*
X179850000Y-70200000D03*
X169800000Y-65050000D03*
X188250000Y-73600000D03*
X203300000Y-78245000D03*
X207265969Y-70034031D03*
X186900000Y-65299999D03*
X188210693Y-60420635D03*
X195300000Y-59000000D03*
X181884635Y-66971001D03*
X199650000Y-63600000D03*
X194650000Y-64700000D03*
X184050000Y-111050000D03*
X180100000Y-108750000D03*
X169400000Y-85350000D03*
X189475000Y-67600000D03*
X185900000Y-89850000D03*
X178256001Y-93799999D03*
X236250000Y-98600000D03*
X242650000Y-94850000D03*
X219950000Y-88421998D03*
X223971998Y-84800000D03*
X228950000Y-83300000D03*
X217700000Y-99550000D03*
X216600000Y-111450000D03*
X217550000Y-87650000D03*
X220285018Y-74507015D03*
X166500000Y-78200000D03*
X171350000Y-82750000D03*
X179550000Y-82100000D03*
X206200000Y-57200000D03*
X193200000Y-57350000D03*
X187950000Y-94300000D03*
X187100000Y-98250000D03*
X187616399Y-101150000D03*
X174250000Y-76700000D03*
D40*
X186800000Y-115331370D02*
X186800000Y-114200000D01*
X189968640Y-118500010D02*
X186800000Y-115331370D01*
X208509990Y-118500010D02*
X189968640Y-118500010D01*
X211650000Y-115360000D02*
X208509990Y-118500010D01*
X186800000Y-116600000D02*
X185800000Y-117600000D01*
X186800000Y-115331370D02*
X186800000Y-116600000D01*
D41*
X246750000Y-90370000D02*
X246163036Y-90370000D01*
X246163036Y-90370000D02*
X244524990Y-92008046D01*
X244550000Y-88170000D02*
X246750000Y-90370000D01*
X244550000Y-82550000D02*
X244550000Y-88170000D01*
X211650000Y-120390000D02*
X215810000Y-120390000D01*
X215810000Y-120390000D02*
X217550000Y-118650000D01*
X212727630Y-110280000D02*
X211650000Y-110280000D01*
X217550000Y-115102370D02*
X212727630Y-110280000D01*
X217550000Y-118650000D02*
X217550000Y-115102370D01*
X230040000Y-55050000D02*
X228124999Y-56965001D01*
X228124999Y-60725001D02*
X226450000Y-62400000D01*
X228124999Y-56965001D02*
X228124999Y-60725001D01*
D40*
X218230000Y-70830000D02*
X218230000Y-69000000D01*
X220000000Y-72600000D02*
X218230000Y-70830000D01*
D42*
X159400000Y-88570000D02*
X158700000Y-87870000D01*
X159400000Y-92650000D02*
X159400000Y-88570000D01*
X209220000Y-71720000D02*
X209300000Y-71800000D01*
X209220000Y-68120000D02*
X209220000Y-71720000D01*
X188100000Y-66400000D02*
X185950000Y-68550000D01*
X185950000Y-68550000D02*
X177900000Y-68550000D01*
X177900000Y-71800000D02*
X177200000Y-72500000D01*
X177900000Y-68550000D02*
X177900000Y-71800000D01*
X177200001Y-83300001D02*
X178400000Y-84500000D01*
X176200001Y-73499999D02*
X176200001Y-82300001D01*
X176200001Y-82300001D02*
X177200001Y-83300001D01*
X177200000Y-72500000D02*
X176200001Y-73499999D01*
X216950000Y-75650000D02*
X216950000Y-79750000D01*
X220000000Y-72600000D02*
X216950000Y-75650000D01*
D41*
X176200001Y-83099999D02*
X176200001Y-82300001D01*
X172300000Y-87000000D02*
X176200001Y-83099999D01*
X179050000Y-85150000D02*
X178400000Y-84500000D01*
X190080000Y-85150000D02*
X179050000Y-85150000D01*
X191301314Y-85150000D02*
X198550000Y-77901314D01*
X190080000Y-85150000D02*
X191301314Y-85150000D01*
X198550000Y-77901314D02*
X198550000Y-72550000D01*
X200718686Y-80070000D02*
X205320000Y-80070000D01*
X198550000Y-77901314D02*
X200718686Y-80070000D01*
X244524990Y-97382492D02*
X245242498Y-98100000D01*
X244524990Y-92008046D02*
X244524990Y-97382492D01*
X245242498Y-98100000D02*
X247150000Y-98100000D01*
X247800000Y-98750000D02*
X247800000Y-104100000D01*
X247150000Y-98100000D02*
X247800000Y-98750000D01*
X247800000Y-104100000D02*
X247800000Y-105600000D01*
X241680001Y-122499999D02*
X249150001Y-122499999D01*
X249150001Y-122499999D02*
X250150000Y-121500000D01*
X241230000Y-122950000D02*
X241680001Y-122499999D01*
X241230000Y-126000000D02*
X241230000Y-122950000D01*
X223694999Y-124794999D02*
X217550000Y-118650000D01*
X223694999Y-127174001D02*
X223694999Y-124794999D01*
X225196006Y-128675008D02*
X223694999Y-127174001D01*
X239141956Y-128675008D02*
X225196006Y-128675008D01*
X240867510Y-126949454D02*
X239141956Y-128675008D01*
X240867510Y-125050546D02*
X240867510Y-126949454D01*
X238766964Y-122950000D02*
X240867510Y-125050546D01*
X241230000Y-122950000D02*
X238766964Y-122950000D01*
X171600001Y-87699999D02*
X172300000Y-87000000D01*
X158700000Y-89949002D02*
X164575999Y-95825001D01*
X158700000Y-87870000D02*
X158700000Y-89949002D01*
X166424001Y-95825001D02*
X170000000Y-92249002D01*
X170000000Y-89300000D02*
X171600001Y-87699999D01*
X164575999Y-95825001D02*
X166424001Y-95825001D01*
X170000000Y-92249002D02*
X170000000Y-89300000D01*
X168674999Y-93574003D02*
X170000000Y-92249002D01*
X168674999Y-97624001D02*
X168674999Y-93574003D01*
X184300000Y-114200000D02*
X180150998Y-114200000D01*
X174300998Y-108350000D02*
X173350000Y-108350000D01*
X180150998Y-114200000D02*
X174300998Y-108350000D01*
X164981997Y-95825001D02*
X166424001Y-95825001D01*
X161574999Y-101368001D02*
X161574999Y-99231999D01*
X162731999Y-102525001D02*
X161574999Y-101368001D01*
X162731999Y-108387001D02*
X162731999Y-102525001D01*
X161574999Y-99231999D02*
X164981997Y-95825001D01*
X164494999Y-110150001D02*
X162731999Y-108387001D01*
X164650001Y-110150001D02*
X164494999Y-110150001D01*
X165650000Y-111150000D02*
X164650001Y-110150001D01*
X168075999Y-97624001D02*
X166100000Y-99600000D01*
X168674999Y-97624001D02*
X168075999Y-97624001D01*
X166100000Y-99600000D02*
X166100000Y-102100000D01*
X167100000Y-101100000D02*
X175600000Y-101100000D01*
X166100000Y-102100000D02*
X167100000Y-101100000D01*
X255950000Y-101454366D02*
X255950000Y-103010000D01*
X249650000Y-90955002D02*
X255950000Y-97255002D01*
X255950000Y-97255002D02*
X255950000Y-101454366D01*
X249650000Y-85350000D02*
X249650000Y-90955002D01*
X255350000Y-103010000D02*
X250450000Y-107910000D01*
X255950000Y-103010000D02*
X255350000Y-103010000D01*
X250450000Y-110590000D02*
X256410000Y-116550000D01*
X250450000Y-107910000D02*
X250450000Y-110590000D01*
X229725009Y-69325009D02*
X229725009Y-68231699D01*
X231561999Y-71161999D02*
X229725009Y-69325009D01*
X230800000Y-80160000D02*
X231561999Y-79398001D01*
X231561999Y-79398001D02*
X231561999Y-71161999D01*
X230800000Y-80160000D02*
X230810000Y-80160000D01*
D40*
X206541314Y-77530000D02*
X205320000Y-77530000D01*
X215125008Y-73681680D02*
X211276688Y-77530000D01*
X211276688Y-77530000D02*
X206541314Y-77530000D01*
X215125008Y-72418320D02*
X215125008Y-73681680D01*
X213799999Y-71093311D02*
X215125008Y-72418320D01*
X213799999Y-69447999D02*
X213799999Y-71093311D01*
X214397999Y-68849999D02*
X213799999Y-69447999D01*
X215684999Y-68849999D02*
X214397999Y-68849999D01*
X215835000Y-69000000D02*
X215684999Y-68849999D01*
X216960000Y-69000000D02*
X215835000Y-69000000D01*
D42*
X211950000Y-89700000D02*
X211650000Y-90000000D01*
X211950000Y-79750000D02*
X211950000Y-89700000D01*
X189280001Y-128700001D02*
X220442001Y-128700001D01*
X178180000Y-117600000D02*
X189280001Y-128700001D01*
X220442001Y-128700001D02*
X221300001Y-127842001D01*
X221300001Y-127842001D02*
X221300001Y-126100001D01*
X221300001Y-126100001D02*
X218850000Y-123650000D01*
X212564213Y-90000000D02*
X211650000Y-90000000D01*
X159150000Y-117700000D02*
X159150000Y-116450000D01*
X161900000Y-120450000D02*
X159150000Y-117700000D01*
X176319949Y-120450000D02*
X161900000Y-120450000D01*
X178180000Y-118589949D02*
X176319949Y-120450000D01*
X178180000Y-117600000D02*
X178180000Y-118589949D01*
X156949999Y-102070001D02*
X158720000Y-100300000D01*
X159150000Y-112450000D02*
X156949999Y-110249999D01*
X156949999Y-110249999D02*
X156949999Y-102070001D01*
X159150000Y-116450000D02*
X159150000Y-112450000D01*
X158720000Y-95830000D02*
X159400000Y-95150000D01*
X158720000Y-100300000D02*
X158720000Y-95830000D01*
D41*
X221800000Y-98577394D02*
X219107959Y-95885353D01*
X221800000Y-100650000D02*
X221800000Y-98577394D01*
X213222606Y-90000000D02*
X211650000Y-90000000D01*
X219107959Y-95885353D02*
X213222606Y-90000000D01*
D40*
X238750000Y-116550000D02*
X238450000Y-116850000D01*
X246250000Y-116550000D02*
X238750000Y-116550000D01*
X238270000Y-116850000D02*
X238450000Y-116850000D01*
X231700000Y-110280000D02*
X238270000Y-116850000D01*
D41*
X232777630Y-115360000D02*
X236767630Y-119350000D01*
X236767630Y-119350000D02*
X238450000Y-119350000D01*
X231700000Y-115360000D02*
X232777630Y-115360000D01*
X231700000Y-115360000D02*
X230622370Y-115360000D01*
X211189214Y-56775001D02*
X204614213Y-50200000D01*
X204614213Y-50200000D02*
X203200000Y-50200000D01*
X214372003Y-56775001D02*
X211189214Y-56775001D01*
X219625001Y-62027999D02*
X214372003Y-56775001D01*
X218572001Y-65025001D02*
X219625001Y-63972001D01*
X225494003Y-65025001D02*
X218572001Y-65025001D01*
X219625001Y-63972001D02*
X219625001Y-62027999D01*
X227474999Y-67005997D02*
X225494003Y-65025001D01*
X227474999Y-80544239D02*
X227474999Y-67005997D01*
X227024990Y-80994248D02*
X227474999Y-80544239D01*
X230622370Y-115360000D02*
X227024990Y-111762620D01*
X227024990Y-111762620D02*
X227024990Y-80994248D01*
X235790000Y-105210000D02*
X238150000Y-102850000D01*
X231700000Y-105210000D02*
X235790000Y-105210000D01*
X241990000Y-106690000D02*
X241990000Y-108950000D01*
X238150000Y-102850000D02*
X241990000Y-106690000D01*
X230622370Y-105210000D02*
X229400000Y-103987630D01*
X231700000Y-105210000D02*
X230622370Y-105210000D01*
X203625001Y-54625001D02*
X200199999Y-51199999D01*
X203625001Y-68974003D02*
X203625001Y-54625001D01*
X208700997Y-74049999D02*
X203625001Y-68974003D01*
X212600001Y-74049999D02*
X208700997Y-74049999D01*
X200199999Y-51199999D02*
X199200000Y-50200000D01*
X213600000Y-73050000D02*
X212600001Y-74049999D01*
X229400000Y-103650000D02*
X229300000Y-103550000D01*
X229400000Y-103987630D02*
X229400000Y-103650000D01*
X236802500Y-81430000D02*
X236850000Y-81430000D01*
X236850000Y-84432500D02*
X236850000Y-81430000D01*
X233732500Y-87550000D02*
X236850000Y-84432500D01*
X229400000Y-103650000D02*
X229400000Y-102900000D01*
X229400000Y-102900000D02*
X229275000Y-102775000D01*
X229275000Y-102775000D02*
X229275000Y-89275000D01*
X229275000Y-89275000D02*
X231000000Y-87550000D01*
X231000000Y-87550000D02*
X233732500Y-87550000D01*
X214375001Y-77569999D02*
X214055002Y-77250000D01*
X214375001Y-87825001D02*
X214375001Y-77569999D01*
X224200000Y-97650000D02*
X214375001Y-87825001D01*
D40*
X193000000Y-68900000D02*
X194150000Y-67750000D01*
X188100000Y-68900000D02*
X193000000Y-68900000D01*
X209220000Y-60500000D02*
X206015969Y-63704031D01*
X206015969Y-63704031D02*
X206015969Y-68784031D01*
X184100000Y-76150000D02*
X184750000Y-75500000D01*
X178699999Y-76599999D02*
X183650001Y-76599999D01*
X183650001Y-76599999D02*
X184100000Y-76150000D01*
X178100000Y-76000000D02*
X178699999Y-76599999D01*
X214050000Y-61950000D02*
X215100000Y-63000000D01*
X212500000Y-61950000D02*
X214050000Y-61950000D01*
D41*
X254182501Y-127575001D02*
X255000000Y-126757502D01*
X250317499Y-127575001D02*
X254182501Y-127575001D01*
X249710000Y-125350000D02*
X249710000Y-126967502D01*
X249710000Y-126967502D02*
X250317499Y-127575001D01*
X255000000Y-126757502D02*
X255000000Y-123300000D01*
X255469999Y-87299999D02*
X254750000Y-86580000D01*
X258735001Y-90565001D02*
X255469999Y-87299999D01*
X258735001Y-119564999D02*
X258735001Y-90565001D01*
X255000000Y-123300000D02*
X258735001Y-119564999D01*
X254750000Y-86580000D02*
X254750000Y-84040000D01*
X198950000Y-124850000D02*
X197400000Y-123300000D01*
X198950000Y-126700000D02*
X198950000Y-124850000D01*
X249550000Y-78910000D02*
X241960000Y-78910000D01*
X241960000Y-78910000D02*
X241650000Y-78600000D01*
D40*
X173760000Y-103640000D02*
X175600000Y-103640000D01*
X170300000Y-107100000D02*
X173760000Y-103640000D01*
X224050000Y-86350000D02*
X221840470Y-88559530D01*
X221840470Y-88559530D02*
X221840470Y-92709530D01*
X217233088Y-98388910D02*
X216821998Y-98800000D01*
X218761090Y-98388910D02*
X217233088Y-98388910D01*
X216599999Y-99021999D02*
X214378001Y-99021999D01*
X216821998Y-98800000D02*
X216599999Y-99021999D01*
X214378001Y-99021999D02*
X214600000Y-99243998D01*
X214600000Y-99243998D02*
X214600000Y-109300000D01*
X225040000Y-81022792D02*
X225040000Y-79750000D01*
X225150001Y-93270531D02*
X225150001Y-81132793D01*
X225150001Y-81132793D02*
X225040000Y-81022792D01*
X225109530Y-93311002D02*
X225150001Y-93270531D01*
X225109530Y-94159530D02*
X225109530Y-93311002D01*
X223600001Y-74923997D02*
X223600001Y-77149999D01*
X222500000Y-78250000D02*
X222500000Y-79750000D01*
X223600001Y-77149999D02*
X222500000Y-78250000D01*
X224050000Y-74473998D02*
X223600001Y-74923997D01*
X224050000Y-72700000D02*
X224050000Y-74473998D01*
X184640000Y-97160000D02*
X185800000Y-96000000D01*
X180300000Y-97160000D02*
X184640000Y-97160000D01*
X188230000Y-99700000D02*
X190080000Y-97850000D01*
X180300000Y-99700000D02*
X188230000Y-99700000D01*
X177300000Y-96700000D02*
X180300000Y-99700000D01*
X170600000Y-96700000D02*
X177300000Y-96700000D01*
X166400001Y-92999999D02*
X166199999Y-93200001D01*
X166199999Y-93200001D02*
X165500000Y-93900000D01*
X166400001Y-90249999D02*
X166400001Y-92999999D01*
X173000001Y-83649999D02*
X166400001Y-90249999D01*
X173000001Y-71679997D02*
X173000001Y-83649999D01*
X173799999Y-70879999D02*
X173000001Y-71679997D01*
X173799999Y-68939999D02*
X173799999Y-70879999D01*
X172900000Y-68040000D02*
X173799999Y-68939999D01*
X181250001Y-66049999D02*
X181950000Y-65350000D01*
X180899999Y-66400001D02*
X181250001Y-66049999D01*
X174400000Y-65500000D02*
X175300001Y-66400001D01*
X175300001Y-66400001D02*
X180899999Y-66400001D01*
X172900000Y-65500000D02*
X174400000Y-65500000D01*
X215500001Y-49400001D02*
X216500000Y-50400000D01*
X214774992Y-48674992D02*
X215500001Y-49400001D01*
X198568320Y-48674992D02*
X214774992Y-48674992D01*
X197674992Y-49568320D02*
X198568320Y-48674992D01*
X193728001Y-58450001D02*
X194278003Y-57899999D01*
X185698527Y-58450001D02*
X193728001Y-58450001D01*
X182948528Y-61200000D02*
X185698527Y-58450001D01*
X182100000Y-61200000D02*
X182948528Y-61200000D01*
X197099999Y-57899999D02*
X197450000Y-58250000D01*
X194278003Y-57899999D02*
X197099999Y-57899999D01*
X197400000Y-58300000D02*
X197450000Y-58250000D01*
X197450000Y-58250000D02*
X197674992Y-49568320D01*
X184623998Y-95400000D02*
X179800000Y-95400000D01*
X189216401Y-94446401D02*
X189216401Y-93938399D01*
X190080000Y-95310000D02*
X189216401Y-94446401D01*
X189216401Y-93938399D02*
X188478001Y-93199999D01*
X186823999Y-93199999D02*
X184623998Y-95400000D01*
X187999999Y-87150011D02*
X188150010Y-87000000D01*
X187999999Y-93199999D02*
X187999999Y-87150011D01*
X187999999Y-93199999D02*
X186823999Y-93199999D01*
X188478001Y-93199999D02*
X187999999Y-93199999D01*
X161249999Y-88599999D02*
X165000000Y-92350000D01*
X164668616Y-80650000D02*
X162518617Y-82799999D01*
X162518617Y-82799999D02*
X161873999Y-82799999D01*
X161249999Y-83423999D02*
X161249999Y-88599999D01*
X161873999Y-82799999D02*
X161249999Y-83423999D01*
X167300000Y-80650000D02*
X164668616Y-80650000D01*
X179800000Y-95400000D02*
X176550000Y-95400000D01*
X176550000Y-95400000D02*
X176500000Y-95350000D01*
X174350000Y-99100000D02*
X175000000Y-98450000D01*
X171295000Y-99100000D02*
X174350000Y-99100000D01*
X235002002Y-72900000D02*
X233600000Y-72900000D01*
X248130000Y-69650000D02*
X246229999Y-67749999D01*
X240152003Y-67749999D02*
X235002002Y-72900000D01*
X246229999Y-67749999D02*
X240152003Y-67749999D01*
X191550000Y-55300000D02*
X191800000Y-55050000D01*
X175176239Y-54829999D02*
X189826001Y-54829999D01*
X189826001Y-54829999D02*
X190296002Y-55300000D01*
X190296002Y-55300000D02*
X191550000Y-55300000D01*
X158700000Y-71306238D02*
X175176239Y-54829999D01*
X158700000Y-80250000D02*
X158700000Y-71306238D01*
X168000001Y-110800001D02*
X166250000Y-109050000D01*
X169723999Y-115920001D02*
X168000001Y-114196003D01*
X166250000Y-109050000D02*
X166250000Y-105950000D01*
X168000001Y-114196003D02*
X168000001Y-110800001D01*
X171533999Y-115920001D02*
X169723999Y-115920001D01*
X174794000Y-112660000D02*
X171533999Y-115920001D01*
X173353998Y-117740000D02*
X174794000Y-117740000D01*
X171533999Y-115920001D02*
X173353998Y-117740000D01*
X160483090Y-102633088D02*
X160259635Y-102633088D01*
X160900001Y-103049999D02*
X160483090Y-102633088D01*
X160900001Y-108711692D02*
X160900001Y-103049999D01*
X164863317Y-112675008D02*
X160900001Y-108711692D01*
X166250000Y-107200000D02*
X168100000Y-109050000D01*
X166281680Y-112675008D02*
X164863317Y-112675008D01*
X166250000Y-105950000D02*
X166250000Y-107200000D01*
X168100000Y-109050000D02*
X168100000Y-110856688D01*
X168100000Y-110856688D02*
X166281680Y-112675008D01*
X167538001Y-66761999D02*
X168300000Y-66000000D01*
X167011999Y-67288001D02*
X167538001Y-66761999D01*
X167011999Y-69005761D02*
X167011999Y-67288001D01*
X167062001Y-69662001D02*
X167668239Y-69662001D01*
X167668239Y-69662001D02*
X167011999Y-69005761D01*
X165000000Y-67600000D02*
X167062001Y-69662001D01*
D41*
X185500001Y-49400001D02*
X186500000Y-50400000D01*
X184274999Y-48174999D02*
X185500001Y-49400001D01*
X232017999Y-38774999D02*
X185631999Y-38774999D01*
X232774999Y-39531999D02*
X232017999Y-38774999D01*
X232774999Y-42268001D02*
X232774999Y-39531999D01*
X233931999Y-43425001D02*
X232774999Y-42268001D01*
X184274999Y-40131999D02*
X184274999Y-48174999D01*
X236668001Y-43425001D02*
X233931999Y-43425001D01*
X242674999Y-49431999D02*
X236668001Y-43425001D01*
X185631999Y-38774999D02*
X184274999Y-40131999D01*
X242674999Y-51568001D02*
X242674999Y-49431999D01*
X241517999Y-52725001D02*
X242674999Y-51568001D01*
X222703993Y-52725001D02*
X241517999Y-52725001D01*
X222324999Y-53103995D02*
X222703993Y-52725001D01*
X222324999Y-57324999D02*
X222324999Y-53103995D01*
X224600000Y-59600000D02*
X222324999Y-57324999D01*
X185199989Y-71124999D02*
X184662495Y-70587505D01*
X189397001Y-71124999D02*
X185199989Y-71124999D01*
X194450000Y-78650000D02*
X194450000Y-76177998D01*
X194450000Y-76177998D02*
X189397001Y-71124999D01*
X184662495Y-70587505D02*
X184600000Y-70525010D01*
X173720000Y-93300000D02*
X173120000Y-93900000D01*
X175980000Y-93300000D02*
X173720000Y-93300000D01*
X173120000Y-90900000D02*
X172820000Y-90600000D01*
X173120000Y-93900000D02*
X173120000Y-90900000D01*
X180760000Y-103620000D02*
X185800000Y-103620000D01*
X177780000Y-106600000D02*
X180760000Y-103620000D01*
X172820000Y-90600000D02*
X175570000Y-87850000D01*
X175570000Y-87850000D02*
X185300000Y-87850000D01*
D40*
X249899999Y-51499999D02*
X248900000Y-50500000D01*
X252450003Y-52000001D02*
X250400001Y-52000001D01*
X254410001Y-53959999D02*
X252450003Y-52000001D01*
X254410001Y-60448001D02*
X254410001Y-53959999D01*
X253708001Y-61150001D02*
X254410001Y-60448001D01*
X230499997Y-61150001D02*
X253708001Y-61150001D01*
X250400001Y-52000001D02*
X249899999Y-51499999D01*
X228899999Y-65250001D02*
X228899999Y-62749999D01*
X232062001Y-68412003D02*
X228899999Y-65250001D01*
X228899999Y-62749999D02*
X230499997Y-61150001D01*
X231561999Y-81938001D02*
X233161999Y-81938001D01*
X230800000Y-82700000D02*
X231561999Y-81938001D01*
X232062001Y-68638003D02*
X232750000Y-69326002D01*
X232062001Y-68412003D02*
X232062001Y-68638003D01*
X232750000Y-69326002D02*
X232750000Y-70000000D01*
X232750000Y-70000000D02*
X233386999Y-70636999D01*
X233386999Y-70636999D02*
X233386999Y-71516297D01*
X233161999Y-75814531D02*
X233161999Y-81938001D01*
X233428002Y-75548528D02*
X233161999Y-75814531D01*
X233428002Y-74700000D02*
X233428002Y-75548528D01*
X236250000Y-127050000D02*
X236350000Y-127150000D01*
X225870000Y-126000000D02*
X225620000Y-126250000D01*
X236150000Y-126000000D02*
X225870000Y-126000000D01*
X242480051Y-112550000D02*
X243470000Y-112550000D01*
X241450000Y-112550000D02*
X242480051Y-112550000D01*
X239450000Y-110550000D02*
X241450000Y-112550000D01*
X239450000Y-108950000D02*
X239450000Y-110550000D01*
X252250000Y-121950000D02*
X253650000Y-120550000D01*
X252250000Y-125350000D02*
X252250000Y-121950000D01*
X234150000Y-68950000D02*
X234150000Y-69300403D01*
X251150000Y-79897500D02*
X249597500Y-81450000D01*
X249597500Y-81450000D02*
X249550000Y-81450000D01*
X251150000Y-75868341D02*
X251150000Y-79897500D01*
X250199149Y-74917490D02*
X251150000Y-75868341D01*
X248900851Y-74917490D02*
X250199149Y-74917490D01*
X247868340Y-75950001D02*
X248900851Y-74917490D01*
X242400001Y-75950001D02*
X247868340Y-75950001D01*
X241650000Y-75200000D02*
X242400001Y-75950001D01*
X181279999Y-71629999D02*
X179850000Y-70200000D01*
X169800000Y-66874000D02*
X168274000Y-68400000D01*
X169800000Y-65050000D02*
X169800000Y-66874000D01*
X187599999Y-74250001D02*
X188250000Y-73600000D01*
X184023999Y-74250001D02*
X187599999Y-74250001D01*
X181753308Y-71156690D02*
X181912692Y-71156690D01*
X181279999Y-71629999D02*
X181753308Y-71156690D01*
X183150001Y-72393999D02*
X183150001Y-73376003D01*
X181912692Y-71156690D02*
X183150001Y-72393999D01*
X183150001Y-73376003D02*
X184023999Y-74250001D01*
X203300000Y-73420000D02*
X201680000Y-71800000D01*
X203300000Y-78245000D02*
X203300000Y-73420000D01*
X207265969Y-67534031D02*
X209220000Y-65580000D01*
X207265969Y-70034031D02*
X207265969Y-67534031D01*
X185300000Y-66950000D02*
X187050000Y-65200000D01*
X188210693Y-60420635D02*
X193879365Y-60420635D01*
X193879365Y-60420635D02*
X195300000Y-59000000D01*
X185300000Y-66950000D02*
X185000000Y-67250000D01*
X182050000Y-67250000D02*
X181800000Y-67000000D01*
X185000000Y-67250000D02*
X182050000Y-67250000D01*
X198600001Y-59599999D02*
X195899999Y-59599999D01*
X195899999Y-59599999D02*
X195300000Y-59000000D01*
X199650000Y-60649998D02*
X198600001Y-59599999D01*
X199650000Y-63600000D02*
X199650000Y-60649998D01*
X190300000Y-64700000D02*
X189250000Y-63650000D01*
X194650000Y-64700000D02*
X190300000Y-64700000D01*
X214680000Y-122930000D02*
X218000000Y-126250000D01*
X211650000Y-122930000D02*
X214680000Y-122930000D01*
X184050000Y-111050000D02*
X182400000Y-111050000D01*
X182400000Y-111050000D02*
X180100000Y-108750000D01*
X165200000Y-89550000D02*
X165200000Y-90600000D01*
X169400000Y-85350000D02*
X165200000Y-89550000D01*
X196949999Y-71350001D02*
X197217761Y-71350001D01*
X199555761Y-66487999D02*
X190262001Y-66487999D01*
X195950000Y-72350000D02*
X196949999Y-71350001D01*
X197217761Y-71350001D02*
X200212001Y-68355761D01*
X200212001Y-68355761D02*
X200212001Y-67144239D01*
X200212001Y-67144239D02*
X199555761Y-66487999D01*
X190262001Y-66487999D02*
X189475000Y-67275000D01*
X189475000Y-67275000D02*
X189475000Y-67600000D01*
X185051472Y-89850000D02*
X181201472Y-93700000D01*
X185900000Y-89850000D02*
X185051472Y-89850000D01*
X181201472Y-93700000D02*
X178356000Y-93700000D01*
X178356000Y-93700000D02*
X178256001Y-93799999D01*
X236774002Y-97050000D02*
X235439949Y-97050000D01*
X247850001Y-118050001D02*
X247850001Y-108125999D01*
X247850001Y-108125999D02*
X236774002Y-97050000D01*
X246550003Y-119349999D02*
X247850001Y-118050001D01*
X240950003Y-119349999D02*
X246550003Y-119349999D01*
X239148003Y-121151999D02*
X240950003Y-119349999D01*
X235439949Y-97050000D02*
X234450000Y-97050000D01*
X232461999Y-121151999D02*
X239148003Y-121151999D01*
X231700000Y-120390000D02*
X232461999Y-121151999D01*
X242950001Y-70130001D02*
X242950001Y-73120001D01*
X241770000Y-68950000D02*
X242950001Y-70130001D01*
X242950001Y-73120001D02*
X242170001Y-73900001D01*
X242170001Y-73900001D02*
X239699999Y-73900001D01*
X231700000Y-102670000D02*
X235770000Y-98600000D01*
X235770000Y-98600000D02*
X236250000Y-98600000D01*
X240206002Y-79600000D02*
X239700000Y-79600000D01*
X242850001Y-90643311D02*
X242850001Y-82243999D01*
X242650000Y-90843312D02*
X242850001Y-90643311D01*
X242650000Y-94850000D02*
X242650000Y-90843312D01*
X239700000Y-79600000D02*
X239699999Y-73900001D01*
X242850001Y-82243999D02*
X240206002Y-79600000D01*
X241420000Y-82820000D02*
X241650000Y-82820000D01*
X231700000Y-92540000D02*
X241420000Y-82820000D01*
X219950000Y-88421998D02*
X220350000Y-88421998D01*
X220350000Y-88421998D02*
X223971998Y-84800000D01*
X229612001Y-83962001D02*
X228950000Y-83300000D01*
X237435787Y-72200000D02*
X238850000Y-72200000D01*
X235277490Y-74358297D02*
X237435787Y-72200000D01*
X235277490Y-80953894D02*
X235277490Y-74358297D01*
X232269383Y-83962001D02*
X235277490Y-80953894D01*
X229612001Y-83962001D02*
X232269383Y-83962001D01*
X190080000Y-105470000D02*
X186280000Y-105470000D01*
X186280000Y-105720000D02*
X185400000Y-106600000D01*
X186280000Y-105470000D02*
X186280000Y-105720000D01*
X217700000Y-99550000D02*
X216600000Y-100650000D01*
X216600000Y-100650000D02*
X216600000Y-111450000D01*
X220900000Y-84300000D02*
X217550000Y-87650000D01*
X220285018Y-74507015D02*
X220900000Y-75121997D01*
X220900000Y-75121997D02*
X220900000Y-84300000D01*
X188746002Y-110550000D02*
X190080000Y-110550000D01*
X170300000Y-114720000D02*
X171500001Y-113519999D01*
X171500001Y-113519999D02*
X171500001Y-107499997D01*
X180606001Y-107649999D02*
X180756003Y-107800001D01*
X171500001Y-107499997D02*
X173049998Y-105950000D01*
X173049998Y-105950000D02*
X174529311Y-105950000D01*
X176904321Y-108325010D02*
X178896988Y-108325010D01*
X178896988Y-108325010D02*
X179571999Y-107649999D01*
X179571999Y-107649999D02*
X180606001Y-107649999D01*
X180756003Y-107800001D02*
X185996003Y-107800001D01*
X174529311Y-105950000D02*
X176904321Y-108325010D01*
X185996003Y-107800001D02*
X188746002Y-110550000D01*
X167020000Y-78200000D02*
X169920000Y-81100000D01*
X166500000Y-78200000D02*
X167020000Y-78200000D01*
X162450000Y-84000000D02*
X163700000Y-82750000D01*
X163700000Y-82750000D02*
X171350000Y-82750000D01*
X189570000Y-82100000D02*
X190080000Y-82610000D01*
X179550000Y-82100000D02*
X189570000Y-82100000D01*
X201600000Y-57230000D02*
X199420000Y-55050000D01*
X201600000Y-60500000D02*
X201600000Y-57230000D01*
X254750000Y-70650000D02*
X255750000Y-69650000D01*
X254750000Y-81500000D02*
X254750000Y-70650000D01*
X211650000Y-112820000D02*
X206770000Y-117700000D01*
X200150000Y-98100000D02*
X200150000Y-115100000D01*
X202650000Y-117600000D02*
X205550000Y-117600000D01*
X200150000Y-115100000D02*
X202650000Y-117600000D01*
X206770000Y-117700000D02*
X205550000Y-117600000D01*
X196183601Y-94133601D02*
X200150000Y-98100000D01*
X191443601Y-94133601D02*
X196183601Y-94133601D01*
X205550000Y-117600000D02*
X205280998Y-117700000D01*
X190080000Y-92770000D02*
X191443601Y-94133601D01*
D42*
X205580000Y-105210000D02*
X205320000Y-105470000D01*
X211650000Y-105210000D02*
X205580000Y-105210000D01*
X205580000Y-102670000D02*
X205320000Y-102930000D01*
X211650000Y-102670000D02*
X205580000Y-102670000D01*
X205580000Y-100130000D02*
X205320000Y-100390000D01*
X211650000Y-100130000D02*
X205580000Y-100130000D01*
X205580000Y-97590000D02*
X205320000Y-97850000D01*
X211650000Y-97590000D02*
X205580000Y-97590000D01*
X205550000Y-92540000D02*
X205320000Y-92770000D01*
X211650000Y-92540000D02*
X205550000Y-92540000D01*
X205550000Y-95080000D02*
X205320000Y-95310000D01*
X211650000Y-95080000D02*
X205550000Y-95080000D01*
D40*
X225150001Y-72171999D02*
X219628002Y-66650000D01*
X225150000Y-75150000D02*
X225150001Y-72171999D01*
X219628002Y-66650000D02*
X211650000Y-66650000D01*
X211650000Y-66650000D02*
X211100000Y-66100000D01*
X207844002Y-57200000D02*
X206200000Y-57200000D01*
X211100000Y-66100000D02*
X211100000Y-60455998D01*
X211100000Y-60455998D02*
X207844002Y-57200000D01*
X192351472Y-57350000D02*
X192301472Y-57400000D01*
X193200000Y-57350000D02*
X192351472Y-57350000D01*
X183600000Y-57400000D02*
X178500000Y-62500000D01*
X192301472Y-57400000D02*
X183600000Y-57400000D01*
X169374000Y-62500000D02*
X178500000Y-62500000D01*
X168274000Y-63600000D02*
X169374000Y-62500000D01*
X187950000Y-94300000D02*
X187950000Y-97400000D01*
X187950000Y-97400000D02*
X187100000Y-98250000D01*
X189320000Y-101150000D02*
X190080000Y-100390000D01*
X187616399Y-101150000D02*
X189320000Y-101150000D01*
X174600000Y-72300000D02*
X174600000Y-76350000D01*
X174600000Y-76350000D02*
X174250000Y-76700000D01*
X171599999Y-64099999D02*
X178599999Y-64099999D01*
X171499999Y-68712001D02*
X171499999Y-64199999D01*
X169011999Y-71200001D02*
X171499999Y-68712001D01*
X171499999Y-64199999D02*
X171599999Y-64099999D01*
X164879999Y-71200001D02*
X169011999Y-71200001D01*
X164180000Y-71900000D02*
X164879999Y-71200001D01*
X197267998Y-65580000D02*
X200468630Y-65580000D01*
X193487999Y-61800001D02*
X197267998Y-65580000D01*
X200468630Y-65580000D02*
X201600000Y-65580000D01*
X186819999Y-61800001D02*
X193487999Y-61800001D01*
X186120000Y-62500000D02*
X186819999Y-61800001D01*
X182400000Y-62500000D02*
X186120000Y-62500000D01*
X178599999Y-64199999D02*
X178599999Y-64099999D01*
X179450000Y-65050000D02*
X178599999Y-64199999D01*
X182000000Y-62500000D02*
X182400000Y-62500000D01*
X179450000Y-65050000D02*
X182000000Y-62500000D01*
M02*
