M48
; DRILL file {KiCad 5.1.6-c6e7f7d~86~ubuntu19.10.1} date Tue Jun 16 13:29:02 2020
; FORMAT={-:-/ absolute / inch / decimal}
; #@! TF.CreationDate,2020-06-16T13:29:02+02:00
; #@! TF.GenerationSoftware,Kicad,Pcbnew,5.1.6-c6e7f7d~86~ubuntu19.10.1
; #@! TF.FileFunction,Plated,1,2,PTH
FMAT,2
INCH
T1C0.0236
T2C0.0276
T3C0.0295
T4C0.0300
T5C0.0315
T6C0.0354
T7C0.0394
T8C0.0400
T9C0.0433
T10C0.0472
T11C0.0512
T12C0.0551
T13C0.0591
%
G90
G05
T1
X6.3094Y-4.0407
X6.4961Y-2.6614
X6.4961Y-3.6358
X6.5551Y-3.0787
X6.5866Y-3.1752
X6.6693Y-3.3602
X6.685Y-2.561
X6.7439Y-3.9016
X6.7461Y-3.2579
X6.8602Y-3.0197
X6.8898Y-3.876
X6.9488Y-3.7539
X7.0118Y-2.9921
X7.018Y-3.6929
X7.0689Y-3.2323
X7.0787Y-3.7559
X7.0807Y-2.7638
X7.0906Y-4.2815
X7.1608Y-2.6367
X7.1693Y-2.4094
X7.2461Y-4.372
X7.2736Y-2.9724
X7.3189Y-3.5374
X7.3583Y-2.5709
X7.3661Y-3.8681
X7.3865Y-3.9823
X7.3996Y-3.7126
X7.4075Y-3.4252
X7.4099Y-2.3788
X7.4114Y-2.8976
X7.4596Y-2.6614
X7.6063Y-2.2579
X7.6634Y-2.5472
X7.689Y-2.3228
X7.8602Y-2.5039
X8.0039Y-3.0805
X8.1109Y-2.708
X8.1181Y-2.252
X8.1601Y-2.7572
X8.3661Y-2.439
X8.4488Y-4.3031
X8.5276Y-4.3878
X8.565Y-3.4508
X8.5709Y-3.9193
X8.6126Y-3.8736
X8.6594Y-3.4812
X8.6726Y-2.9333
X8.7339Y-3.65
X8.8178Y-3.3386
X8.8209Y-2.8622
X8.8209Y-3.3996
X8.8626Y-3.7071
X9.0138Y-3.2795
X9.1885Y-2.8156
X9.1901Y-2.9409
X9.1969Y-2.8701
X9.3012Y-3.8819
X9.5531Y-3.7343
T2
X7.9402Y-2.8268
X8.2402Y-2.8268
X7.4508Y-2.2059
X7.4508Y-2.5059
X7.1634Y-2.5728
X7.1634Y-2.8728
X6.7047Y-4.2165
X6.7047Y-4.5165
X6.3898Y-3.1929
X6.6898Y-3.1929
X6.4638Y-2.8307
X6.7638Y-2.8307
X6.7165Y-3.8071
X6.7165Y-4.1071
X6.5039Y-3.5669
X6.8039Y-3.5669
X9.0315Y-2.6626
X9.0315Y-2.9626
X6.5157Y-3.6969
X6.8157Y-3.6969
X9.6862Y-4.7461
X9.9862Y-4.7461
X9.2303Y-3.8209
X9.5303Y-3.8209
X7.015Y-4.6299
X7.315Y-4.6299
X9.2185Y-2.7146
X9.5185Y-2.7146
X7.315Y-3.7795
X7.315Y-4.0795
X9.5138Y-2.9606
X9.5138Y-3.2606
X7.0276Y-2.4606
X7.3276Y-2.4606
X9.2854Y-4.4311
X9.5854Y-4.4311
X8.8642Y-2.6587
X8.8642Y-2.9587
X8.1291Y-2.1594
X8.4291Y-2.1594
X8.5827Y-4.9705
X8.8827Y-4.9705
X6.9283Y-3.6732
X7.2283Y-3.6732
X9.7689Y-2.7421
X10.0689Y-2.7421
X7.5512Y-2.1673
X7.8512Y-2.1673
X6.3957Y-3.3071
X6.6957Y-3.3071
X7.065Y-2.561
X7.065Y-2.861
X6.3909Y-3.0059
X6.6909Y-3.0059
X6.248Y-3.1594
X6.248Y-3.4594
X7.0512Y-4.3425
X7.3512Y-4.3425
X6.4835Y-3.4252
X6.7835Y-3.4252
T3
X8.5417Y-2.7165
X8.5917Y-2.7165
X8.6417Y-2.7165
T4
X7.6437Y-2.6673
X7.7382Y-2.6673
X7.8327Y-2.6673
X6.8806Y-4.5354
X6.8817Y-4.4354
X6.8817Y-4.6354
X9.0866Y-3.1559
X9.0866Y-3.2559
X9.0866Y-3.3559
X8.3327Y-3.5433
X8.3327Y-3.6433
X8.3327Y-3.7433
X8.3327Y-3.8421
X8.3327Y-3.9421
X8.3327Y-4.0421
X8.3327Y-4.1421
X8.3327Y-4.2417
X8.3327Y-4.3417
X8.3327Y-4.4417
X8.3327Y-4.5417
X8.3327Y-4.6413
X8.3327Y-4.7398
X8.3327Y-4.8398
X9.122Y-3.5433
X9.122Y-3.6433
X9.122Y-3.7433
X9.122Y-3.8421
X9.122Y-3.9421
X9.122Y-4.0421
X9.122Y-4.1421
X9.122Y-4.2417
X9.122Y-4.3417
X9.122Y-4.4417
X9.122Y-4.5417
X9.122Y-4.6413
X9.122Y-4.7398
X9.122Y-4.8398
X6.625Y-2.5039
X6.625Y-2.6929
X6.626Y-2.5984
T5
X9.376Y-3.9508
X9.376Y-4.0492
X6.2756Y-3.6476
X6.2756Y-3.7461
X10.0295Y-3.2087
X10.0295Y-3.3087
X10.0295Y-3.4087
X9.3878Y-4.6004
X9.3878Y-4.6988
X7.937Y-2.3819
X7.937Y-2.4819
X7.937Y-2.5819
X7.937Y-2.6819
X8.237Y-2.3819
X8.237Y-2.4819
X8.237Y-2.5819
X8.237Y-2.6819
X7.2559Y-4.4961
X7.3543Y-4.4961
X7.4055Y-2.6142
X7.4055Y-2.7126
X9.372Y-3.5925
X9.372Y-3.6909
X8.4685Y-2.4803
X8.5669Y-2.4803
T6
X6.8248Y-4.2657
X6.8248Y-4.3657
X8.7598Y-3.1398
X8.8598Y-3.1398
X6.9134Y-3.9803
X6.9134Y-4.0803
X7.7031Y-2.437
X7.8031Y-2.437
X7.0984Y-3.8252
X7.0984Y-3.9252
X6.8071Y-2.5787
X6.8071Y-2.6787
T7
X6.5217Y-4.376
X6.9931Y-4.2057
X7.0039Y-2.6988
X7.2702Y-2.779
X7.2953Y-3.4587
X7.6555Y-3.0965
X7.7717Y-4.8543
X7.8327Y-4.9882
X8.4094Y-2.876
X8.4274Y-3.0413
X8.6161Y-4.8681
X8.6263Y-3.775
X8.7323Y-3.9626
X8.8268Y-3.8445
X8.9154Y-2.4567
X9.0866Y-3.1559
X9.0866Y-3.1559
X9.0866Y-3.1559
X9.0866Y-3.1559
X9.5138Y-3.0945
X9.628Y-3.25
X9.7559Y-4.1575
X9.8287Y-3.3602
X9.8484Y-4.7835
X9.065Y-2.5197
X9.165Y-2.5197
X9.265Y-2.5197
X9.365Y-2.5197
X9.465Y-2.5197
X9.565Y-2.5197
X9.665Y-2.5197
X9.765Y-2.5197
X9.865Y-2.5197
X9.965Y-2.5197
X8.3898Y-2.3307
X9.0567Y-2.1673
X9.1567Y-2.1673
X9.2567Y-2.1673
X9.3567Y-2.1673
X9.4567Y-2.1673
X9.5567Y-2.1673
X9.6567Y-2.1673
X9.7567Y-2.1673
X9.8567Y-2.1673
X9.9567Y-2.1673
X9.063Y-2.3543
X9.163Y-2.3543
X9.263Y-2.3543
X9.363Y-2.3543
X9.463Y-2.3543
X9.563Y-2.3543
X9.663Y-2.3543
X9.763Y-2.3543
X9.863Y-2.3543
X9.963Y-2.3543
X6.2488Y-3.9488
X6.4488Y-3.9488
X8.8346Y-2.1654
X8.8425Y-2.3465
T8
X7.4835Y-3.0524
X7.4835Y-3.1524
X7.4835Y-3.2524
X7.4835Y-3.3524
X7.4835Y-3.4524
X7.4835Y-3.5524
X7.4835Y-3.6524
X7.4835Y-3.7524
X7.4835Y-3.8524
X7.4835Y-3.9524
X7.4835Y-4.0524
X7.4835Y-4.1524
X7.4835Y-4.2524
X7.4835Y-4.3524
X7.4835Y-4.4524
X8.0835Y-3.0524
X8.0835Y-3.1524
X8.0835Y-3.2524
X8.0835Y-3.3524
X8.0835Y-3.4524
X8.0835Y-3.5524
X8.0835Y-3.6524
X8.0835Y-3.7524
X8.0835Y-3.8524
X8.0835Y-3.9524
X8.0835Y-4.0524
X8.0835Y-4.1524
X8.0835Y-4.2524
X8.0835Y-4.3524
X8.0835Y-4.4524
T9
X9.8248Y-3.0067
X9.8248Y-3.1067
X9.8248Y-3.2067
X10.0768Y-3.6555
X10.0768Y-4.0555
X9.3248Y-3.0059
X9.3248Y-3.1059
X9.3248Y-3.2059
X9.6949Y-4.5886
X10.0949Y-4.5886
X9.2972Y-4.9606
X9.3972Y-4.9606
X9.4972Y-4.9606
X9.8602Y-3.8484
X9.8602Y-4.2484
X9.4272Y-4.2894
X9.5272Y-4.2894
X9.6272Y-4.2894
X9.7311Y-4.935
X9.8311Y-4.935
X9.9311Y-4.935
X9.7146Y-3.5579
X9.7146Y-3.6579
X9.7146Y-3.7579
T10
X7.0236Y-3.1299
X7.0236Y-3.3268
X8.3445Y-3.1398
X8.5413Y-3.1398
T11
X6.874Y-2.8465
X6.9764Y-2.8543
X8.5591Y-2.8504
X8.6614Y-2.8583
X7.7146Y-2.8484
X7.8169Y-2.8563
X9.4035Y-2.8425
X9.5059Y-2.8504
T12
X7.3425Y-1.622
X7.3425Y-1.9843
X7.5Y-1.622
X7.5Y-1.9843
X9.4567Y-1.626
X9.4567Y-1.9882
X9.6417Y-1.626
X9.6417Y-1.9882
X9.7992Y-1.626
X9.7992Y-1.9882
X9.9567Y-1.626
X9.9567Y-1.9882
X8.2087Y-1.622
X8.2087Y-1.9843
X8.3661Y-1.622
X8.3661Y-1.9843
X8.5236Y-1.622
X8.5236Y-1.9843
X8.7244Y-1.622
X8.7244Y-1.9843
X8.8819Y-1.622
X8.8819Y-1.9843
X9.0394Y-1.622
X9.0394Y-1.9843
X7.685Y-1.6142
X7.685Y-1.9764
X7.8425Y-1.6142
X7.8425Y-1.9764
X8.0Y-1.6142
X8.0Y-1.9764
X9.252Y-1.622
X9.252Y-1.9843
T13
G00X6.2657Y-4.2303
M15
G01X6.2657Y-4.1122
M16
G05
G00X6.2657Y-4.6437
M15
G01X6.2657Y-4.5256
M16
G05
G00X6.5453Y-4.2303
M15
G01X6.5453Y-4.1122
M16
G05
G00X6.5453Y-4.6437
M15
G01X6.5453Y-4.5256
M16
G05
T0
M30
