G04 #@! TF.GenerationSoftware,KiCad,Pcbnew,5.1.5-52549c5~86~ubuntu19.10.1*
G04 #@! TF.CreationDate,2020-05-13T10:02:51+02:00*
G04 #@! TF.ProjectId,laborBerlin,6c61626f-7242-4657-926c-696e2e6b6963,rev?*
G04 #@! TF.SameCoordinates,Original*
G04 #@! TF.FileFunction,Legend,Bot*
G04 #@! TF.FilePolarity,Positive*
%FSLAX46Y46*%
G04 Gerber Fmt 4.6, Leading zero omitted, Abs format (unit mm)*
G04 Created by KiCad (PCBNEW 5.1.5-52549c5~86~ubuntu19.10.1) date 2020-05-13 10:02:51*
%MOMM*%
%LPD*%
G04 APERTURE LIST*
%ADD10C,0.120000*%
%ADD11C,0.150000*%
G04 APERTURE END LIST*
D10*
X203435467Y-72450000D02*
G75*
G03X203435467Y-72450000I-6185467J0D01*
G01*
X182085467Y-72400000D02*
G75*
G03X182085467Y-72400000I-6185467J0D01*
G01*
X246335467Y-72300000D02*
G75*
G03X246335467Y-72300000I-6185467J0D01*
G01*
X224885467Y-72500000D02*
G75*
G03X224885467Y-72500000I-6185467J0D01*
G01*
D11*
X198511904Y-79202380D02*
X198511904Y-80011904D01*
X198464285Y-80107142D01*
X198416666Y-80154761D01*
X198321428Y-80202380D01*
X198130952Y-80202380D01*
X198035714Y-80154761D01*
X197988095Y-80107142D01*
X197940476Y-80011904D01*
X197940476Y-79202380D01*
X197416666Y-80202380D02*
X197226190Y-80202380D01*
X197130952Y-80154761D01*
X197083333Y-80107142D01*
X196988095Y-79964285D01*
X196940476Y-79773809D01*
X196940476Y-79392857D01*
X196988095Y-79297619D01*
X197035714Y-79250000D01*
X197130952Y-79202380D01*
X197321428Y-79202380D01*
X197416666Y-79250000D01*
X197464285Y-79297619D01*
X197511904Y-79392857D01*
X197511904Y-79630952D01*
X197464285Y-79726190D01*
X197416666Y-79773809D01*
X197321428Y-79821428D01*
X197130952Y-79821428D01*
X197035714Y-79773809D01*
X196988095Y-79726190D01*
X196940476Y-79630952D01*
X177638095Y-79152380D02*
X177638095Y-79961904D01*
X177590476Y-80057142D01*
X177542857Y-80104761D01*
X177447619Y-80152380D01*
X177257142Y-80152380D01*
X177161904Y-80104761D01*
X177114285Y-80057142D01*
X177066666Y-79961904D01*
X177066666Y-79152380D01*
X176066666Y-80152380D02*
X176638095Y-80152380D01*
X176352380Y-80152380D02*
X176352380Y-79152380D01*
X176447619Y-79295238D01*
X176542857Y-79390476D01*
X176638095Y-79438095D01*
X175209523Y-79152380D02*
X175400000Y-79152380D01*
X175495238Y-79200000D01*
X175542857Y-79247619D01*
X175638095Y-79390476D01*
X175685714Y-79580952D01*
X175685714Y-79961904D01*
X175638095Y-80057142D01*
X175590476Y-80104761D01*
X175495238Y-80152380D01*
X175304761Y-80152380D01*
X175209523Y-80104761D01*
X175161904Y-80057142D01*
X175114285Y-79961904D01*
X175114285Y-79723809D01*
X175161904Y-79628571D01*
X175209523Y-79580952D01*
X175304761Y-79533333D01*
X175495238Y-79533333D01*
X175590476Y-79580952D01*
X175638095Y-79628571D01*
X175685714Y-79723809D01*
X241888095Y-79052380D02*
X241888095Y-79861904D01*
X241840476Y-79957142D01*
X241792857Y-80004761D01*
X241697619Y-80052380D01*
X241507142Y-80052380D01*
X241411904Y-80004761D01*
X241364285Y-79957142D01*
X241316666Y-79861904D01*
X241316666Y-79052380D01*
X240316666Y-80052380D02*
X240888095Y-80052380D01*
X240602380Y-80052380D02*
X240602380Y-79052380D01*
X240697619Y-79195238D01*
X240792857Y-79290476D01*
X240888095Y-79338095D01*
X239983333Y-79052380D02*
X239316666Y-79052380D01*
X239745238Y-80052380D01*
X220438095Y-79252380D02*
X220438095Y-80061904D01*
X220390476Y-80157142D01*
X220342857Y-80204761D01*
X220247619Y-80252380D01*
X220057142Y-80252380D01*
X219961904Y-80204761D01*
X219914285Y-80157142D01*
X219866666Y-80061904D01*
X219866666Y-79252380D01*
X219438095Y-79347619D02*
X219390476Y-79300000D01*
X219295238Y-79252380D01*
X219057142Y-79252380D01*
X218961904Y-79300000D01*
X218914285Y-79347619D01*
X218866666Y-79442857D01*
X218866666Y-79538095D01*
X218914285Y-79680952D01*
X219485714Y-80252380D01*
X218866666Y-80252380D01*
X217914285Y-80252380D02*
X218485714Y-80252380D01*
X218200000Y-80252380D02*
X218200000Y-79252380D01*
X218295238Y-79395238D01*
X218390476Y-79490476D01*
X218485714Y-79538095D01*
M02*
